<svg width="19" height="19" viewBox="0 0 19 19" fill="none" xmlns="http://www.w3.org/2000/svg">
<path fill-rule="evenodd" clip-rule="evenodd" d="M8.9996 0.624782C6.55521 0.631124 6.24924 0.642118 5.28936 0.688408C4.33127 0.734694 3.67707 0.888792 3.10525 1.11288C2.50584 1.34003 1.96256 1.69544 1.51375 2.15501C1.05725 2.60568 0.704443 3.15041 0.479886 3.7513C0.259972 4.32427 0.108673 4.97986 0.0673589 5.93818C0.0266481 6.89768 0.0166405 7.20311 0.022984 9.6481C0.0293275 12.0931 0.0403198 12.3985 0.0866103 13.3584C0.132896 14.3164 0.286994 14.9706 0.511078 15.5425C0.738234 16.1419 1.09364 16.6851 1.55321 17.134C2.00389 17.5904 2.54862 17.9432 3.1495 18.1678C3.72247 18.3883 4.37747 18.539 5.33578 18.5803C6.29589 18.6217 6.60191 18.6311 9.0463 18.6247C11.4907 18.6184 11.7967 18.6074 12.7566 18.5611C13.7146 18.5148 14.3688 18.3607 14.9407 18.1366C15.5401 17.9095 16.0834 17.5541 16.5322 17.0945C16.9887 16.6438 17.3415 16.0991 17.566 15.4982C17.7865 14.9252 17.9372 14.2702 17.9786 13.3119C18.0199 12.3518 18.0293 12.0458 18.0229 9.6014C18.0166 7.15701 18.0056 6.85104 17.9593 5.89115C17.913 4.93307 17.7589 4.27887 17.5348 3.70705C17.3073 3.10708 16.9517 2.56395 16.4927 2.11555C16.042 1.65905 15.4973 1.30624 14.8964 1.08168C14.3234 0.86177 13.6678 0.710471 12.7095 0.669157C11.75 0.628446 11.4446 0.618439 8.9996 0.624782ZM9.00381 2.24658C11.4068 2.24034 11.6918 2.2486 12.6411 2.28934C13.5184 2.32726 13.9952 2.47183 14.3129 2.5952C14.7334 2.75671 15.0339 2.95153 15.3497 3.26512C15.6655 3.5793 15.8613 3.87879 16.025 4.29837C16.1494 4.61545 16.297 5.09146 16.3395 5.96856C16.3852 6.91764 16.3949 7.20262 16.4011 9.60561C16.4074 12.0086 16.3991 12.2936 16.3584 13.2429C16.3204 14.1202 16.1759 14.597 16.0525 14.9147C15.9095 15.306 15.6806 15.6603 15.3826 15.9515C15.093 16.251 14.7399 16.4818 14.3493 16.6268C14.0323 16.7512 13.5562 16.8988 12.6791 16.9413C11.7301 16.987 11.4457 16.9967 9.0421 17.0029C6.6385 17.0092 6.35408 17.0009 5.40477 16.9602C4.52747 16.9222 4.0507 16.7777 3.73297 16.6543C3.34167 16.5113 2.98741 16.2824 2.69623 15.9844C2.39679 15.6947 2.16604 15.3417 2.02095 14.9511C1.89653 14.6341 1.74889 14.158 1.70642 13.2809C1.66075 12.3319 1.65101 12.0469 1.64478 9.64389C1.63854 7.2409 1.6468 6.95588 1.68754 6.00657C1.72547 5.12927 1.87003 4.65249 1.99341 4.33477C2.15492 3.91435 2.34974 3.61385 2.66332 3.29803C2.95291 2.9985 3.30599 2.76775 3.69657 2.62275C4.01365 2.49832 4.48967 2.35069 5.36676 2.30821C6.31584 2.26255 6.60082 2.25281 9.00381 2.24658V2.24658Z" fill="#24223A"/>
<path fill-rule="evenodd" clip-rule="evenodd" d="M9.03067 12.6278C8.63631 12.6288 8.24561 12.5521 7.88088 12.4022C7.51615 12.2522 7.18453 12.0319 6.90495 11.7537C6.62537 11.4756 6.40332 11.1451 6.25146 10.7812C6.0996 10.4172 6.02091 10.0269 6.01989 9.63258C6.01886 9.23822 6.09553 8.84753 6.24549 8.48279C6.39546 8.11806 6.6158 7.78644 6.89393 7.50687C7.17206 7.22729 7.50254 7.00523 7.86648 6.85337C8.23043 6.70151 8.62073 6.62282 9.01508 6.6218C9.81153 6.61974 10.5762 6.93414 11.1408 7.49585C11.7054 8.05756 12.0238 8.82056 12.0259 9.617C12.0279 10.4134 11.7135 11.1781 11.1518 11.7427C10.5901 12.3073 9.82711 12.6257 9.03067 12.6278V12.6278ZM9.01087 4.99881C7.78399 5.00199 6.60861 5.49242 5.74333 6.36221C4.87804 7.232 4.39371 8.40991 4.39689 9.63679C4.40008 10.8637 4.89051 12.0391 5.7603 12.9043C6.63009 13.7696 7.80799 14.254 9.03488 14.2508C10.2618 14.2476 11.4371 13.7572 12.3024 12.8874C13.1677 12.0176 13.652 10.8397 13.6489 9.61279C13.6457 8.3859 13.1552 7.21053 12.2855 6.34524C11.4157 5.47995 10.2378 4.99562 9.01087 4.99881V4.99881ZM14.9824 4.89931C14.9832 5.18933 14.8687 5.46776 14.6642 5.67336C14.4596 5.87897 14.1818 5.99489 13.8918 5.99565C13.6018 5.9964 13.3233 5.88191 13.1177 5.67738C12.9121 5.47284 12.7962 5.195 12.7954 4.90499C12.7947 4.61497 12.9092 4.33654 13.1137 4.13094C13.3183 3.92534 13.5961 3.80941 13.8861 3.80865C14.1761 3.8079 14.4545 3.92239 14.6602 4.12693C14.8658 4.33146 14.9817 4.6093 14.9824 4.89931" fill="#24223A"/>
</svg>
