<svg width="40" height="40" viewBox="0 0 40 40" fill="none" xmlns="http://www.w3.org/2000/svg">
<path d="M9.02686 27.4708L12.9192 29.717V25.2228L9.02686 22.9766V27.4708Z" fill="black"/>
<path d="M17.9956 22.9766L14.1035 25.2228V29.717L17.9956 27.4708V22.9766Z" fill="black"/>
<path d="M13.511 19.7031L9.61865 21.9494L13.511 24.1973L17.4031 21.9494L13.511 19.7031Z" fill="black"/>
<path d="M22.0044 27.4708L25.8965 29.717V25.2228L22.0044 22.9766V27.4708Z" fill="black"/>
<path d="M27.0811 25.2228V29.717L30.9734 27.4708V22.9766L27.0811 25.2228Z" fill="black"/>
<path d="M26.4888 19.7031L22.5967 21.9494L26.4888 24.1973L30.3811 21.9494L26.4888 19.7031Z" fill="black"/>
<path d="M19.4077 14.0041L15.5156 11.7578V16.252L19.4077 18.4983V14.0041Z" fill="black"/>
<path d="M20.5923 18.4983L24.4844 16.252V11.7578L20.5923 14.0041V18.4983Z" fill="black"/>
<path d="M23.8922 10.7306L20 8.48438L16.1079 10.7306L20 12.9786L23.8922 10.7306Z" fill="black"/>
<path d="M12.3613 16.6791L13.9962 15.7353V14.0156L11.2444 15.6044C11.1312 15.6697 11.0372 15.7638 10.9718 15.877C10.9065 15.9902 10.8721 16.1186 10.8721 16.2493V19.4884L12.3613 18.6289V16.6791ZM27.6386 18.6289L29.1279 19.4884V16.2493C29.1279 16.1186 29.0935 15.9902 29.0281 15.877C28.9627 15.7638 28.8687 15.6697 28.7555 15.6044L26.0037 14.0156V15.7353L27.6386 16.6791L27.6386 18.6289ZM20 29.9096L18.4185 28.9966L16.9288 29.8562L19.6277 31.4144C19.7409 31.4797 19.8693 31.5141 20 31.5141C20.1307 31.5141 20.2591 31.4797 20.3723 31.4144L23.0711 29.8562L21.5815 28.9966L20 29.9096Z" fill="black"/>
</svg>
