<svg width="40" height="40" viewBox="0 0 40 40" fill="none" xmlns="http://www.w3.org/2000/svg">
<path d="M17.5945 12C16.0482 11.9921 14.5427 13.443 15.23 15.2447H12.6364C12.2024 15.2447 11.7862 15.4127 11.4793 15.7117C11.1724 16.0107 11 16.4162 11 16.8391V18.4335C11 18.6449 11.0862 18.8477 11.2396 18.9972C11.3931 19.1467 11.6012 19.2307 11.8182 19.2307H19.1818V16.8391H20.8182V19.2307H28.1818C28.3988 19.2307 28.6069 19.1467 28.7604 18.9972C28.9138 18.8477 29 18.6449 29 18.4335V16.8391C29 16.4162 28.8276 16.0107 28.5207 15.7117C28.2138 15.4127 27.7976 15.2447 27.3636 15.2447H24.77C25.7273 12.6378 22.1273 10.7962 20.4664 13.0444L20 13.6503L19.5336 13.0284C19.0182 12.3189 18.3064 12.008 17.5945 12ZM17.5455 13.6503C18.2736 13.6503 18.6418 14.5112 18.1264 15.0135C17.6109 15.5157 16.7273 15.157 16.7273 14.4475C16.7273 14.236 16.8135 14.0333 16.9669 13.8838C17.1204 13.7342 17.3285 13.6503 17.5455 13.6503ZM22.4545 13.6503C23.1827 13.6503 23.5509 14.5112 23.0355 15.0135C22.52 15.5157 21.6364 15.157 21.6364 14.4475C21.6364 14.236 21.7226 14.0333 21.876 13.8838C22.0294 13.7342 22.2375 13.6503 22.4545 13.6503ZM11.8182 20.0279V26.4056C11.8182 26.8284 11.9906 27.234 12.2975 27.533C12.6043 27.832 13.0206 28 13.4545 28H26.5455C26.9794 28 27.3957 27.832 27.7025 27.533C28.0094 27.234 28.1818 26.8284 28.1818 26.4056V20.0279H20.8182V26.4056H19.1818V20.0279H11.8182Z" fill="black"/>
</svg>
