<svg width="22" height="20" viewBox="0 0 22 20" fill="none" xmlns="http://www.w3.org/2000/svg">
<path d="M21 10V18C21 18.5304 20.7893 19.0391 20.4142 19.4142C20.0391 19.7893 19.5304 20 19 20H3C2.46957 20 1.96086 19.7893 1.58579 19.4142C1.21071 19.0391 1 18.5304 1 18V10C0.734784 10 0.48043 9.89464 0.292893 9.70711C0.105357 9.51957 0 9.26522 0 9V6C0 5.46957 0.210714 4.96086 0.585786 4.58579C0.960859 4.21071 1.46957 4 2 4H5.17C5.06 3.69 5 3.35 5 3C5 2.20435 5.31607 1.44129 5.87868 0.87868C6.44129 0.316071 7.20435 0 8 0C9 0 9.88 0.5 10.43 1.24V1.23L11 2L11.57 1.23V1.24C12.12 0.5 13 0 14 0C14.7956 0 15.5587 0.316071 16.1213 0.87868C16.6839 1.44129 17 2.20435 17 3C17 3.35 16.94 3.69 16.83 4H20C20.5304 4 21.0391 4.21071 21.4142 4.58579C21.7893 4.96086 22 5.46957 22 6V9C22 9.26522 21.8946 9.51957 21.7071 9.70711C21.5196 9.89464 21.2652 10 21 10ZM3 18H10V10H3V18ZM19 18V10H12V18H19ZM8 2C7.73478 2 7.48043 2.10536 7.29289 2.29289C7.10536 2.48043 7 2.73478 7 3C7 3.26522 7.10536 3.51957 7.29289 3.70711C7.48043 3.89464 7.73478 4 8 4C8.26522 4 8.51957 3.89464 8.70711 3.70711C8.89464 3.51957 9 3.26522 9 3C9 2.73478 8.89464 2.48043 8.70711 2.29289C8.51957 2.10536 8.26522 2 8 2ZM14 2C13.7348 2 13.4804 2.10536 13.2929 2.29289C13.1054 2.48043 13 2.73478 13 3C13 3.26522 13.1054 3.51957 13.2929 3.70711C13.4804 3.89464 13.7348 4 14 4C14.2652 4 14.5196 3.89464 14.7071 3.70711C14.8946 3.51957 15 3.26522 15 3C15 2.73478 14.8946 2.48043 14.7071 2.29289C14.5196 2.10536 14.2652 2 14 2ZM2 6V8H10V6H2ZM12 6V8H20V6H12Z" fill="black"/>
</svg>
