<svg width="92" height="16" viewBox="0 0 92 16" fill="none" xmlns="http://www.w3.org/2000/svg">
<g opacity="0.65">
<g opacity="0.65">
<path d="M7.01924 6.43916C7.76599 6.47222 7.96014 7.10755 7.97258 7.40502L9.01674 7.40231C8.96708 6.24744 8.14275 5.54374 6.99942 5.54671C5.71026 5.55005 4.7557 6.36336 4.76045 8.19502C4.76339 9.32669 5.30937 10.6669 7.00686 10.6625C8.30186 10.6592 8.99352 9.69488 9.00906 8.9365L7.96489 8.93921C7.94829 9.28342 7.70448 9.74489 7.01624 9.78168C6.25202 9.76033 5.92964 9.16616 5.92711 8.192C5.92274 6.50617 6.66927 6.45173 7.01924 6.43916ZM7.07843 2.27399C3.85844 2.28234 1.2519 4.90245 1.26025 8.12244C1.26861 11.3424 3.88871 13.949 7.1087 13.9406C10.3287 13.9323 12.9352 11.3122 12.9269 8.09217C12.9185 4.87218 10.2984 2.26563 7.07843 2.27399ZM7.10567 12.774C4.53318 12.7806 2.43359 10.6919 2.42691 8.11941C2.42024 5.54692 4.50897 3.44733 7.08146 3.44065C9.65395 3.43398 11.7535 5.5227 11.7602 8.0952C11.7669 10.6677 9.67817 12.7673 7.10567 12.774Z" fill="black"/>
</g>
</g>
<path opacity="0.65" d="M19.4472 9.54723C19.4485 10.0486 19.2656 10.4517 18.8984 10.7567C18.5258 11.0563 18.0729 11.2068 17.5395 11.2082C17.0649 11.2094 16.6458 11.0718 16.2824 10.7954C15.9191 10.5191 15.6674 10.141 15.5275 9.6614L16.2308 9.37158C16.2792 9.54212 16.3463 9.69661 16.432 9.83506C16.5176 9.9735 16.6166 10.0932 16.7289 10.1943C16.8465 10.29 16.9747 10.367 17.1135 10.4253C17.2523 10.4783 17.399 10.5046 17.5537 10.5042C17.8897 10.5033 18.1641 10.4172 18.377 10.246C18.5899 10.0695 18.696 9.83718 18.6952 9.54919C18.6946 9.30919 18.6061 9.10408 18.4296 8.93387C18.2639 8.76897 17.9541 8.60977 17.5004 8.45628C17.0413 8.29214 16.7557 8.18088 16.6435 8.1225C16.0347 7.81475 15.7295 7.35954 15.728 6.75687C15.7269 6.33554 15.8939 5.97511 16.2292 5.67557C16.5697 5.37602 16.988 5.2256 17.484 5.22431C17.9213 5.22318 18.3003 5.3342 18.6209 5.55736C18.9414 5.7752 19.1555 6.04931 19.263 6.3797L18.5757 6.66949C18.5112 6.45632 18.3827 6.28065 18.1904 6.14248C18.0033 5.99897 17.7738 5.92756 17.5018 5.92827C17.2138 5.92902 16.9714 6.00965 16.7744 6.17016C16.5775 6.32 16.4793 6.51492 16.48 6.75492C16.4805 6.95226 16.5583 7.12272 16.7133 7.26632C16.8843 7.40988 17.2554 7.57958 17.8266 7.77543C18.4085 7.97126 18.8224 8.21285 19.0685 8.50021C19.3199 8.78223 19.4461 9.13124 19.4472 9.54723ZM20.4789 7.15255L21.1829 7.15072L21.1843 7.69472L21.2163 7.69464C21.3278 7.50235 21.498 7.34191 21.727 7.21331C21.9614 7.0847 22.2039 7.02007 22.4545 7.01942C22.9345 7.01818 23.3029 7.15589 23.5596 7.43256C23.8217 7.70388 23.9533 8.09287 23.9546 8.59954L23.961 11.0635L23.225 11.0654L23.2188 8.64945C23.2011 8.00949 22.8776 7.69033 22.2483 7.69196C21.955 7.69272 21.7099 7.81336 21.5132 8.05387C21.3165 8.28905 21.2186 8.57197 21.2194 8.90263L21.2251 11.0706L20.4891 11.0725L20.4789 7.15255ZM26.0433 5.78611C26.0437 5.93011 25.9933 6.05291 25.8922 6.1545C25.7912 6.2561 25.6686 6.30708 25.5246 6.30746C25.3806 6.30783 25.2578 6.25748 25.1563 6.15641C25.0547 6.05534 25.0037 5.93281 25.0033 5.78881C25.0029 5.64481 25.0533 5.52201 25.1543 5.42041C25.2554 5.31882 25.3779 5.26783 25.5219 5.26746C25.6659 5.26709 25.7887 5.31743 25.8903 5.4185C25.9919 5.51957 26.0429 5.64211 26.0433 5.78611ZM25.8948 7.1385L25.905 11.0585L25.169 11.0604L25.1588 7.14041L25.8948 7.1385ZM28.896 11.1787C28.3147 11.1802 27.8315 10.9842 27.4465 10.5905C27.0668 10.1861 26.8762 9.68796 26.8746 9.09596C26.8731 8.4933 27.0611 7.99414 27.4388 7.59849C27.8217 7.20283 28.3039 7.00425 28.8852 7.00274C29.2852 7.0017 29.6348 7.10213 29.934 7.30402C30.2332 7.50058 30.4579 7.77466 30.6081 8.12627L29.9369 8.40802C29.7276 7.91789 29.3616 7.67351 28.839 7.67486C28.503 7.67573 28.2126 7.81249 27.968 8.08512C27.7287 8.35774 27.6096 8.69405 27.6106 9.09405C27.6117 9.49405 27.7325 9.82974 27.9732 10.1011C28.2193 10.3725 28.5103 10.5077 28.8463 10.5069C29.385 10.5055 29.763 10.2591 29.9804 9.76791L30.6371 10.0462C30.494 10.3986 30.2681 10.6765 29.9593 10.88C29.6558 11.0781 29.3014 11.1777 28.896 11.1787ZM35.0114 11.0349L34.1234 11.0372L32.8946 9.19234L32.2961 9.7859L32.2994 11.0419L31.5634 11.0438L31.5485 5.31582L32.2845 5.31391L32.2937 8.8419L33.9852 7.11751L34.9292 7.11506L34.9293 7.14706L33.4052 8.67102L35.0113 11.0029L35.0114 11.0349ZM37.3537 11.1568C36.7777 11.1583 36.3025 10.9622 35.9282 10.5685C35.5538 10.1748 35.3659 9.6766 35.3643 9.07394C35.3627 8.4766 35.5428 7.98014 35.9044 7.58453C36.2661 7.18359 36.7295 6.98239 37.2949 6.98092C37.8762 6.97941 38.338 7.16755 38.6803 7.54533C39.028 7.91776 39.2027 8.44264 39.2044 9.11997L39.1966 9.19999L36.1166 9.20798C36.1283 9.59196 36.2571 9.90096 36.503 10.135C36.749 10.369 37.0426 10.4856 37.384 10.4847C37.8533 10.4835 38.2207 10.2479 38.4861 9.77784L39.143 10.0961C38.9678 10.4273 38.7232 10.6866 38.409 10.874C38.1001 11.0615 37.7484 11.1558 37.3537 11.1568ZM36.1711 8.59984L38.4191 8.59401C38.397 8.32207 38.2844 8.09836 38.0813 7.92288C37.8835 7.74206 37.6166 7.65209 37.2806 7.65296C37.0033 7.65368 36.7635 7.73963 36.5613 7.91083C36.3644 8.082 36.2343 8.31168 36.1711 8.59984ZM40.8984 11.0196L40.1624 11.0215L40.1523 7.10151L40.8563 7.09968L40.8579 7.73968L40.8899 7.7396C40.964 7.5314 41.1156 7.35501 41.3445 7.21041C41.5788 7.06047 41.808 6.98521 42.032 6.98463C42.2453 6.98408 42.4267 7.01561 42.5762 7.07922L42.3541 7.7918C42.2633 7.7547 42.1192 7.73641 41.9219 7.73692C41.6446 7.73764 41.4022 7.85027 41.1948 8.07481C40.9927 8.29933 40.892 8.56093 40.8928 8.85959L40.8984 11.0196ZM44.8651 10.4653C45.2277 10.4644 45.5234 10.3329 45.752 10.071C45.9914 9.80903 46.1105 9.46739 46.1094 9.04606C46.1083 8.63539 45.9874 8.29704 45.7467 8.031C45.5114 7.76494 45.215 7.63237 44.8577 7.6333C44.5057 7.63421 44.2101 7.76831 43.9708 8.0356C43.7314 8.30289 43.6123 8.64187 43.6134 9.05253C43.6145 9.46853 43.7353 9.80689 43.976 10.0676C44.2167 10.3336 44.5131 10.4662 44.8651 10.4653ZM44.7468 11.1376C44.2348 11.1389 43.7943 10.9374 43.4252 10.533C43.0615 10.1233 42.8789 9.63044 42.8774 9.05444C42.8759 8.47845 43.056 7.98464 43.4176 7.57304C43.7845 7.16675 44.224 6.96294 44.736 6.96161C45.024 6.96087 45.2855 7.02152 45.5204 7.14358C45.7608 7.26562 45.9452 7.42781 46.0737 7.63015L46.1057 7.63006L46.0723 7.08615L46.0676 5.27815L46.8036 5.27624L46.8185 11.0042L46.1145 11.0061L46.1131 10.4621L46.0811 10.4621C45.9536 10.6651 45.77 10.8283 45.5303 10.9516C45.296 11.0748 45.0348 11.1369 44.7468 11.1376ZM47.7277 9.04186C47.7261 8.43919 47.9142 7.94004 48.2918 7.54439C48.6748 7.14873 49.1569 6.95014 49.7383 6.94864C50.3196 6.94713 50.8001 7.14321 51.1798 7.5369C51.5648 7.93057 51.7581 8.42873 51.7597 9.0314C51.7613 9.6394 51.5705 10.1386 51.1876 10.5289C50.8099 10.9245 50.3304 11.1231 49.7491 11.1246C49.1678 11.1261 48.6846 10.9301 48.2996 10.5364C47.9199 10.1427 47.7293 9.64452 47.7277 9.04186ZM48.4637 9.03995C48.4648 9.46128 48.5883 9.8023 48.8343 10.063C49.0804 10.3237 49.3847 10.4536 49.7474 10.4526C50.11 10.4517 50.4137 10.3202 50.6583 10.0583C50.903 9.79629 51.0248 9.45464 51.0237 9.03331C51.0226 8.61731 50.8991 8.27896 50.653 8.01827C50.4017 7.75225 50.0973 7.61971 49.74 7.62063C49.3827 7.62156 49.079 7.75568 48.8291 8.023C48.5844 8.28497 48.4626 8.62395 48.4637 9.03995ZM52.4842 9.02952C52.4827 8.42685 52.6707 7.9277 53.0484 7.53205C53.4313 7.13639 53.9135 6.9378 54.4948 6.9363C55.0761 6.93479 55.5567 7.13087 55.9363 7.52456C56.3214 7.91823 56.5147 8.41639 56.5162 9.01906C56.5178 9.62706 56.3271 10.1262 55.9441 10.5165C55.5665 10.9122 55.087 11.1108 54.5056 11.1123C53.9243 11.1138 53.4411 10.9177 53.0561 10.524C52.6764 10.1304 52.4858 9.63218 52.4842 9.02952ZM53.2202 9.02761C53.2213 9.44894 53.3449 9.78996 53.5909 10.0507C53.8369 10.3113 54.1412 10.4412 54.5039 10.4403C54.8666 10.4393 55.1702 10.3079 55.4149 10.0459C55.6595 9.78395 55.7813 9.4423 55.7802 9.02097C55.7791 8.60497 55.6556 8.26662 55.4096 8.00593C55.1582 7.73991 54.8539 7.60737 54.4966 7.60829C54.1392 7.60922 53.8356 7.74334 53.5856 8.01066C53.3409 8.27263 53.2192 8.61161 53.2202 9.02761ZM59.2284 10.428C59.5911 10.4271 59.8868 10.2957 60.1154 10.0337C60.3548 9.77177 60.4739 9.43012 60.4728 9.00879C60.4717 8.59813 60.3508 8.25977 60.1101 7.99373C59.8748 7.72767 59.5784 7.59511 59.2211 7.59604C58.8691 7.59695 58.5734 7.73105 58.3341 7.99834C58.0948 8.26563 57.9757 8.6046 57.9768 9.01527C57.9779 9.43127 58.0987 9.76962 58.3394 10.0303C58.5801 10.2964 58.8765 10.4289 59.2284 10.428ZM59.1102 11.1003C58.5982 11.1017 58.1577 10.9001 57.7886 10.4958C57.4249 10.086 57.2423 9.59318 57.2408 9.01718C57.2393 8.44118 57.4193 7.94738 57.7809 7.53577C58.1479 7.12948 58.5874 6.92568 59.0994 6.92435C59.3874 6.9236 59.6488 6.98426 59.8838 7.10631C60.1242 7.22836 60.3086 7.39055 60.4371 7.59288L60.4691 7.5928L60.4357 7.04888L60.431 5.24089L61.167 5.23898L61.1819 10.967L60.4779 10.9688L60.4764 10.4248L60.4444 10.4249C60.317 10.6279 60.1334 10.791 59.8937 10.9143C59.6594 11.0376 59.3982 11.0996 59.1102 11.1003ZM63.0804 5.23401L63.0952 10.962L62.3592 10.9639L62.3444 5.23592L63.0804 5.23401ZM65.9933 11.0825C65.4173 11.084 64.9421 10.8879 64.5678 10.4942C64.1934 10.1005 64.0054 9.6023 64.0039 8.99963C64.0023 8.4023 64.1824 7.90583 64.544 7.51022C64.9057 7.10929 65.3691 6.90808 65.9345 6.90662C66.5158 6.90511 66.9776 7.09324 67.3199 7.47102C67.6676 7.84346 67.8423 8.36834 67.844 9.04567L67.8362 9.12569L64.7562 9.13368C64.7679 9.51765 64.8967 9.82665 65.1426 10.0607C65.3886 10.2947 65.6822 10.4113 66.0236 10.4104C66.4929 10.4092 66.8603 10.1736 67.1257 9.70353L67.7826 10.0218C67.6074 10.353 67.3627 10.6123 67.0486 10.7997C66.7397 10.9872 66.388 11.0815 65.9933 11.0825ZM64.8107 8.52554L67.0587 8.5197C67.0366 8.24776 66.924 8.02405 66.7209 7.84858C66.5231 7.66776 66.2562 7.57778 65.9202 7.57865C65.6429 7.57937 65.4031 7.66533 65.2009 7.83652C65.004 8.0077 64.8739 8.23737 64.8107 8.52554ZM69.0523 11.8425L68.7078 11.6194L69.138 10.9463C69.026 10.9253 68.9298 10.8695 68.8496 10.7791C68.7747 10.6886 68.7371 10.5794 68.7367 10.4514C68.7363 10.2967 68.7893 10.1686 68.8957 10.0669C69.0021 9.96 69.13 9.90633 69.2793 9.90595C69.434 9.90555 69.5621 9.95855 69.6637 10.065C69.7707 10.166 69.8243 10.2939 69.8247 10.4485C69.8251 10.5925 69.7722 10.75 69.666 10.9209L69.0523 11.8425ZM76.3374 10.2236L76.3392 10.9276L72.8512 10.9367L72.8493 10.2007L74.2616 8.76502C74.735 8.27845 75.062 7.91494 75.2427 7.67447C75.4234 7.42867 75.5134 7.17243 75.5127 6.90576C75.5121 6.66577 75.4183 6.46067 75.2311 6.29049C75.044 6.12031 74.8038 6.0356 74.5105 6.03636C74.2598 6.03701 74.044 6.11224 73.8631 6.26204C73.6821 6.41185 73.5653 6.59348 73.5125 6.80695L72.8398 6.5367C72.9456 6.20042 73.1502 5.91722 73.4536 5.6871C73.757 5.45165 74.114 5.33339 74.5247 5.33232C75.0207 5.33104 75.4344 5.48196 75.7658 5.7851C76.0973 6.08825 76.2636 6.46115 76.2647 6.90381C76.2661 7.43181 75.9769 8.00323 75.3972 8.61807L73.8014 10.2302L76.3374 10.2236ZM77.3123 8.1891C77.3102 7.3571 77.5137 6.67124 77.923 6.13151C78.3323 5.59178 78.8596 5.32108 79.5049 5.3194C80.1502 5.31773 80.6789 5.58836 81.091 6.13129C81.5031 6.66889 81.7102 7.35102 81.7123 8.17768C81.7144 8.99902 81.5109 9.68488 81.1016 10.2353C80.6924 10.775 80.1651 11.0457 79.5198 11.0474C78.8744 11.0491 78.3457 10.7811 77.9337 10.2435C77.5216 9.69523 77.3145 9.01043 77.3123 8.1891ZM80.9603 8.17964C80.9587 7.5503 80.824 7.03332 80.5563 6.62868C80.2939 6.22402 79.944 6.02226 79.5067 6.0234C79.0694 6.02453 78.7206 6.22811 78.4603 6.63412C78.1947 7.04014 78.0627 7.55782 78.0643 8.18715C78.066 8.81648 78.2006 9.33613 78.4684 9.74611C78.7307 10.1454 79.0806 10.3445 79.5179 10.3434C79.9553 10.3423 80.3041 10.1387 80.5643 9.73267C80.8299 9.32131 80.9619 8.80363 80.9603 8.17964ZM86.077 10.1984L86.0788 10.9024L82.5909 10.9114L82.5889 10.1754L84.0012 8.73975C84.4746 8.25318 84.8017 7.88967 84.9824 7.6492C85.1631 7.4034 85.2531 7.14716 85.2524 6.8805C85.2518 6.6405 85.1579 6.43541 84.9708 6.26522C84.7837 6.09504 84.5435 6.01033 84.2501 6.01109C83.9995 6.01174 83.7837 6.08697 83.6027 6.23677C83.4218 6.38658 83.3049 6.56821 83.2521 6.78168L82.5794 6.51143C82.6852 6.17515 82.8898 5.89196 83.1932 5.66183C83.4966 5.42638 83.8537 5.30812 84.2643 5.30705C84.7603 5.30577 85.174 5.45669 85.5055 5.75984C85.837 6.06298 86.0033 6.43588 86.0044 6.87854C86.0058 7.40654 85.7166 7.97796 85.1368 8.5928L83.541 10.2049L86.077 10.1984ZM90.5132 10.1869L90.5151 10.8909L87.0271 10.8999L87.0252 10.1639L88.4375 8.72824C88.9109 8.24168 89.2379 7.87816 89.4186 7.63769C89.5993 7.39189 89.6893 7.13565 89.6886 6.86899C89.688 6.62899 89.5941 6.4239 89.407 6.25371C89.2199 6.08353 88.9797 5.99882 88.6864 5.99958C88.4357 6.00023 88.2199 6.07546 88.039 6.22526C87.858 6.37507 87.7412 6.5567 87.6884 6.77017L87.0157 6.49992C87.1215 6.16364 87.3261 5.88045 87.6295 5.65032C87.9329 5.41487 88.2899 5.29661 88.7006 5.29554C89.1965 5.29426 89.6103 5.44518 89.9417 5.74833C90.2732 6.05147 90.4395 6.42437 90.4406 6.86703C90.442 7.39503 90.1528 7.96645 89.5731 8.58129L87.9773 10.1934L90.5132 10.1869Z" fill="black"/>
</svg>
