<svg width="101" height="82" viewBox="0 0 101 82" fill="none" xmlns="http://www.w3.org/2000/svg">
<path d="M11.9599 25.7781L1 38.2519C5.22758 38.2536 9.36488 36.8676 12.9107 34.2618C16.4566 31.6561 19.2588 27.9424 20.9781 23.5706C18.1512 25.0249 15.0821 25.7776 11.977 25.7781H11.9599Z" fill="#232039" stroke="#232039" stroke-width="1.06236" stroke-linecap="round" stroke-linejoin="round"/>
<path d="M22.8767 63.0147L33.8366 50.5409C33.8337 47.0646 34.4809 43.6271 35.7354 40.4541C31.9013 42.4151 28.6487 45.5868 26.3678 49.5887C24.0869 53.5905 22.8747 58.2523 22.8767 63.0147Z" fill="#232039" stroke="#232039" stroke-width="1.06236" stroke-linecap="round" stroke-linejoin="round"/>
<path d="M22.8767 13.4885C22.8767 20.051 25.1798 26.3447 29.2793 30.9851C33.3788 35.6255 38.9389 38.2324 44.7364 38.2324V38.2324L55.6963 25.7586C49.8987 25.7586 44.3386 23.1516 40.2391 18.5112C36.1396 13.8709 33.8366 7.57714 33.8366 1.01465L22.8767 13.4885Z" fill="#232039" stroke="#232039" stroke-width="1.06236" stroke-linecap="round" stroke-linejoin="round"/>
<path d="M1 38.252C6.79756 38.252 12.3577 40.8589 16.4571 45.4993C20.5566 50.1397 22.8597 56.4334 22.8597 62.9959C22.8597 56.4334 25.1628 50.1397 29.2623 45.4993C33.3618 40.8589 38.9219 38.252 44.7194 38.252V38.252C38.9219 38.252 33.3618 35.645 29.2623 31.0047C25.1628 26.3643 22.8597 20.0706 22.8597 13.5081C22.8597 20.0706 20.5566 26.3643 16.4571 31.0047C12.3577 35.645 6.79756 38.252 1 38.252V38.252Z" fill="#289F8A" stroke="#232039" stroke-width="1.06236" stroke-linecap="round" stroke-linejoin="round"/>
<path d="M64.5188 50.9851L55.6802 61.0447C59.0895 61.046 62.426 59.9283 65.2856 57.8268C68.1452 55.7254 70.4051 52.7305 71.7915 49.2048C69.5118 50.3777 67.0367 50.9847 64.5326 50.9851H64.5188Z" fill="#232039" stroke="#232039" stroke-width="0.856744" stroke-linecap="round" stroke-linejoin="round"/>
<path d="M73.3228 81.0146L82.1614 70.9551C82.1591 68.1516 82.6809 65.3794 83.6926 62.8206C80.6007 64.402 77.9775 66.9599 76.1381 70.1871C74.2987 73.4144 73.3211 77.174 73.3228 81.0146Z" fill="#232039" stroke="#232039" stroke-width="0.856744" stroke-linecap="round" stroke-linejoin="round"/>
<path d="M73.3228 41.0742C73.3228 46.3665 75.1801 51.4421 78.4861 55.1844C81.7922 58.9266 86.2761 61.029 90.9515 61.029V61.029L99.7901 50.9694C95.1147 50.9694 90.6307 48.8671 87.3247 45.1248C84.0187 41.3826 82.1613 36.307 82.1613 31.0146L73.3228 41.0742Z" fill="#232039" stroke="#232039" stroke-width="0.856744" stroke-linecap="round" stroke-linejoin="round"/>
<path d="M55.6802 61.0449C60.3556 61.0449 64.8396 63.1472 68.1456 66.8895C71.4517 70.6317 73.309 75.7073 73.309 80.9996C73.309 75.7073 75.1663 70.6317 78.4723 66.8895C81.7784 63.1472 86.2623 61.0449 90.9378 61.0449V61.0449C86.2623 61.0449 81.7784 58.9425 78.4723 55.2002C75.1663 51.458 73.309 46.3824 73.309 41.0901C73.309 46.3824 71.4517 51.458 68.1456 55.2002C64.8396 58.9425 60.3556 61.0449 55.6802 61.0449V61.0449Z" fill="#FFD1D1" stroke="#232039" stroke-width="0.856744" stroke-linecap="round" stroke-linejoin="round"/>
</svg>
