<svg width="192" height="65" viewBox="0 0 192 65" fill="none" xmlns="http://www.w3.org/2000/svg">
<g filter="url(#filter0_d_14642_169337)">
<path fill-rule="evenodd" clip-rule="evenodd" d="M135.097 30C132.683 30 130.437 29.4279 128.423 28.2997C127.895 28.0107 127.388 27.6822 126.907 27.3169C126.42 27.6842 125.904 28.0178 125.36 28.3153C123.372 29.4293 121.128 30 118.714 30C116.299 30 114.054 29.4279 112.039 28.3C111.28 27.8844 110.571 27.3918 109.918 26.827C109.367 27.2762 108.774 27.6796 108.144 28.0349C106.217 29.1464 103.978 29.7161 101.51 29.7161H98.4031C97.4652 29.7161 96.5472 29.5379 95.6886 29.1938C94.7824 29.5844 93.7984 29.7869 92.7811 29.7869C91.4793 29.7869 90.2454 29.464 89.1658 28.8553C88.0975 29.441 86.8969 29.7515 85.6486 29.7515C84.6581 29.7515 83.6942 29.5552 82.7997 29.1764C81.8986 29.5552 80.9209 29.7515 79.9095 29.7515H72.1416C71.1064 29.7515 70.1051 29.5398 69.1815 29.1311C68.2916 29.5166 67.328 29.7161 66.3321 29.7161C65.0545 29.7161 63.8385 29.3998 62.7667 28.8031C61.6613 29.4452 60.4034 29.7869 59.0936 29.7869C57.6961 29.7869 56.3356 29.384 55.1562 28.6343C53.3857 29.4852 51.462 29.9288 49.5059 29.9288C47.1162 29.9288 44.8788 29.3225 42.8562 28.1263C42.8562 28.1263 42.771 28.0749 42.7521 28.0632C41.4345 29.1574 39.7981 29.7515 38.0712 29.7515C37.0005 29.7515 35.9699 29.5269 35.0238 29.0928C34.0788 29.5269 33.0436 29.7515 31.9628 29.7515C31.02 29.7515 30.1434 29.5935 29.2826 29.2686L29.1851 29.2308C28.5352 28.9694 27.9393 28.6238 27.4029 28.1975C26.1161 29.2055 24.5437 29.7515 22.8879 29.7515C21.4148 29.7515 20.015 29.3264 18.8303 28.5351C18.5117 28.707 18.1825 28.8655 17.8431 29.0096L17.7546 29.0465C16.3773 29.6003 14.9488 29.8825 13.1224 29.9615C12.9109 29.9705 12.7029 29.9749 12.4967 29.9749C8.5235 29.9749 5.12842 28.2678 3.18196 25.2913C1.33643 22.4695 0.998962 18.8609 2.22244 15.2911C1.9039 13.4301 1.46502 8.83511 3.9867 5.24215C5.33343 3.32312 8.01548 1.03536 13.1442 1.03536L13.2022 1.03561C15.1118 1.04219 17.0381 1.4675 18.6301 2.23277L18.8558 2.34081L18.9497 2.39763C20.1258 1.67187 21.491 1.28411 22.9234 1.28411C24.4838 1.28411 25.6784 1.81746 26.0707 1.99305L26.1816 2.04231L26.2925 2.09815C26.7064 2.30642 27.0628 2.53225 27.3677 2.75514C28.6715 1.75454 30.2703 1.2129 31.9628 1.2129C33.0183 1.2129 34.0458 1.42678 34.9978 1.83916C35.9435 1.42678 36.9717 1.2129 38.0358 1.2129C39.7952 1.2129 41.4476 1.78527 42.7737 2.83952C44.8618 1.6426 47.1152 1.03561 49.4707 1.03561C51.0933 1.03561 52.4579 1.28192 53.3435 1.46701L53.7188 1.54603L54.0766 1.67674C54.5114 1.83575 54.9386 2.02085 55.3632 2.23423C56.4957 1.56188 57.7832 1.2129 59.1642 1.2129C60.4808 1.2129 61.7409 1.54091 62.8494 2.15741C63.002 2.07352 63.157 1.99548 63.314 1.92354C64.3031 1.45189 65.3776 1.2129 66.5084 1.2129C67.4932 1.2129 68.4457 1.39678 69.3242 1.75161C70.2121 1.39678 71.1658 1.2129 72.1416 1.2129H79.9095C80.9068 1.2129 81.885 1.40141 82.7977 1.76478C83.6949 1.40141 84.6603 1.2129 85.6486 1.2129H88.7557C90.7104 1.2129 92.4597 1.63065 94.1033 2.48981L94.1169 2.49713C95.3608 1.64041 96.8422 1.17973 98.4031 1.17973H101.581C103.991 1.17973 106.316 1.77039 108.305 2.88781L108.399 2.94171C108.941 3.2624 109.454 3.61382 109.935 3.9945C110.505 3.53017 111.116 3.11266 111.767 2.74466C113.814 1.58724 116.109 1 118.586 1C121.063 1 123.357 1.58724 125.404 2.7449C125.845 2.99414 126.269 3.26679 126.674 3.56163C127.08 3.26679 127.503 2.99414 127.944 2.7449C129.992 1.58724 132.286 1 134.763 1C137.24 1 139.534 1.58724 141.582 2.7449C141.64 2.77782 141.698 2.81148 141.757 2.84562C143.081 1.78722 144.725 1.2129 146.467 1.2129H149.574C152.049 1.2129 154.287 1.77429 156.231 2.88147C157.588 1.80234 159.252 1.2129 160.974 1.2129C163.111 1.2129 165.048 2.06182 166.433 3.60406C166.769 3.9606 167.067 4.34421 167.325 4.74928C167.625 4.27203 167.98 3.82525 168.387 3.41652C169.8 1.99548 171.699 1.2129 173.734 1.2129H181.502C185.176 1.2129 188.154 3.58626 189.089 7.25897C189.724 9.75329 189.378 13.0126 187.374 15.3106C187.388 15.5289 187.395 15.7481 187.393 15.9654C189.042 17.7852 189.836 20.6078 189.366 23.3367C188.695 27.2335 185.608 29.7515 181.502 29.7515H173.734C172.774 29.7515 171.837 29.5659 170.964 29.2074C170.067 29.5891 169.099 29.7869 168.106 29.7869H160.974C159.211 29.7869 157.542 29.1677 156.213 28.0317L156.208 28.0346C154.281 29.1464 152.042 29.7161 149.574 29.7161H146.467C144.823 29.7161 143.26 29.1774 141.979 28.1832C141.901 28.228 141.823 28.2722 141.744 28.3153C139.755 29.4293 137.512 30 135.097 30Z" fill="black"/>
</g>
<path fill-rule="evenodd" clip-rule="evenodd" d="M135.097 30C132.683 30 130.437 29.4279 128.423 28.2997C127.895 28.0107 127.388 27.6822 126.907 27.3169C126.42 27.6842 125.904 28.0178 125.36 28.3153C123.372 29.4293 121.128 30 118.714 30C116.299 30 114.054 29.4279 112.039 28.3C111.28 27.8844 110.571 27.3918 109.918 26.827C109.367 27.2762 108.774 27.6796 108.144 28.0349C106.217 29.1464 103.978 29.7161 101.51 29.7161H98.4031C97.4652 29.7161 96.5472 29.5379 95.6886 29.1938C94.7824 29.5844 93.7984 29.7869 92.7811 29.7869C91.4793 29.7869 90.2454 29.464 89.1658 28.8553C88.0975 29.441 86.8969 29.7515 85.6486 29.7515C84.6581 29.7515 83.6942 29.5552 82.7997 29.1764C81.8986 29.5552 80.9209 29.7515 79.9095 29.7515H72.1416C71.1064 29.7515 70.1051 29.5398 69.1815 29.1311C68.2916 29.5166 67.328 29.7161 66.3321 29.7161C65.0545 29.7161 63.8385 29.3998 62.7667 28.8031C61.6613 29.4452 60.4034 29.7869 59.0936 29.7869C57.6961 29.7869 56.3356 29.384 55.1562 28.6343C53.3857 29.4852 51.462 29.9288 49.5059 29.9288C47.1162 29.9288 44.8788 29.3225 42.8562 28.1263C42.8562 28.1263 42.771 28.0749 42.7521 28.0632C41.4345 29.1574 39.7981 29.7515 38.0712 29.7515C37.0005 29.7515 35.9699 29.5269 35.0238 29.0928C34.0788 29.5269 33.0436 29.7515 31.9628 29.7515C31.02 29.7515 30.1434 29.5935 29.2826 29.2686L29.1851 29.2308C28.5352 28.9694 27.9393 28.6238 27.4029 28.1975C26.1161 29.2055 24.5437 29.7515 22.8879 29.7515C21.4148 29.7515 20.015 29.3264 18.8303 28.5351C18.5117 28.707 18.1825 28.8655 17.8431 29.0096L17.7546 29.0465C16.3773 29.6003 14.9488 29.8825 13.1224 29.9615C12.9109 29.9705 12.7029 29.9749 12.4967 29.9749C8.5235 29.9749 5.12842 28.2678 3.18196 25.2913C1.33643 22.4695 0.998962 18.8609 2.22244 15.2911C1.9039 13.4301 1.46502 8.83511 3.9867 5.24215C5.33343 3.32312 8.01548 1.03536 13.1442 1.03536L13.2022 1.03561C15.1118 1.04219 17.0381 1.4675 18.6301 2.23277L18.8558 2.34081L18.9497 2.39763C20.1258 1.67187 21.491 1.28411 22.9234 1.28411C24.4838 1.28411 25.6784 1.81746 26.0707 1.99305L26.1816 2.04231L26.2925 2.09815C26.7064 2.30642 27.0628 2.53225 27.3677 2.75514C28.6715 1.75454 30.2703 1.2129 31.9628 1.2129C33.0183 1.2129 34.0458 1.42678 34.9978 1.83916C35.9435 1.42678 36.9717 1.2129 38.0358 1.2129C39.7952 1.2129 41.4476 1.78527 42.7737 2.83952C44.8618 1.6426 47.1152 1.03561 49.4707 1.03561C51.0933 1.03561 52.4579 1.28192 53.3435 1.46701L53.7188 1.54603L54.0766 1.67674C54.5114 1.83575 54.9386 2.02085 55.3632 2.23423C56.4957 1.56188 57.7832 1.2129 59.1642 1.2129C60.4808 1.2129 61.7409 1.54091 62.8494 2.15741C63.002 2.07352 63.157 1.99548 63.314 1.92354C64.3031 1.45189 65.3776 1.2129 66.5084 1.2129C67.4932 1.2129 68.4457 1.39678 69.3242 1.75161C70.2121 1.39678 71.1658 1.2129 72.1416 1.2129H79.9095C80.9068 1.2129 81.885 1.40141 82.7977 1.76478C83.6949 1.40141 84.6603 1.2129 85.6486 1.2129H88.7557C90.7104 1.2129 92.4597 1.63065 94.1033 2.48981L94.1169 2.49713C95.3608 1.64041 96.8422 1.17973 98.4031 1.17973H101.581C103.991 1.17973 106.316 1.77039 108.305 2.88781L108.399 2.94171C108.941 3.2624 109.454 3.61382 109.935 3.9945C110.505 3.53017 111.116 3.11266 111.767 2.74466C113.814 1.58724 116.109 1 118.586 1C121.063 1 123.357 1.58724 125.404 2.7449C125.845 2.99414 126.269 3.26679 126.674 3.56163C127.08 3.26679 127.503 2.99414 127.944 2.7449C129.992 1.58724 132.286 1 134.763 1C137.24 1 139.534 1.58724 141.582 2.7449C141.64 2.77782 141.698 2.81148 141.757 2.84562C143.081 1.78722 144.725 1.2129 146.467 1.2129H149.574C152.049 1.2129 154.287 1.77429 156.231 2.88147C157.588 1.80234 159.252 1.2129 160.974 1.2129C163.111 1.2129 165.048 2.06182 166.433 3.60406C166.769 3.9606 167.067 4.34421 167.325 4.74928C167.625 4.27203 167.98 3.82525 168.387 3.41652C169.8 1.99548 171.699 1.2129 173.734 1.2129H181.502C185.176 1.2129 188.154 3.58626 189.089 7.25897C189.724 9.75329 189.378 13.0126 187.374 15.3106C187.388 15.5289 187.395 15.7481 187.393 15.9654C189.042 17.7852 189.836 20.6078 189.366 23.3367C188.695 27.2335 185.608 29.7515 181.502 29.7515H173.734C172.774 29.7515 171.837 29.5659 170.964 29.2074C170.067 29.5891 169.099 29.7869 168.106 29.7869H160.974C159.211 29.7869 157.542 29.1677 156.213 28.0317L156.208 28.0346C154.281 29.1464 152.042 29.7161 149.574 29.7161H146.467C144.823 29.7161 143.26 29.1774 141.979 28.1832C141.901 28.228 141.823 28.2722 141.744 28.3153C139.755 29.4293 137.512 30 135.097 30Z" fill="white"/>
<path fill-rule="evenodd" clip-rule="evenodd" d="M184.876 16.9751C185.039 16.0908 184.967 15.1239 184.798 14.403C186.786 12.9005 187.3 10.0714 186.738 7.86359C186.077 5.26562 184.07 3.65168 181.501 3.65168H173.733C172.347 3.65168 171.057 4.18064 170.102 5.14101C169.124 6.1243 168.585 7.4334 168.585 8.82737V15.3187C168.414 15.3019 168.242 15.2934 168.07 15.2934H166.087V8.82737C166.087 7.49827 165.577 6.23209 164.651 5.25977C163.731 4.22259 162.426 3.65168 160.973 3.65168C159.671 3.65168 158.414 4.14967 157.432 5.05419L157.399 5.08443L157.342 5.14101C157.055 5.42902 156.807 5.74288 156.598 6.08064C156.156 5.71654 155.678 5.38268 155.17 5.08199C153.565 4.13284 151.682 3.65168 149.574 3.65168H146.467C145.08 3.65168 143.791 4.18064 142.835 5.14125C142.552 5.42609 142.306 5.73727 142.099 6.07211C141.572 5.61729 141.001 5.2149 140.392 4.87031C138.712 3.92043 136.818 3.43878 134.762 3.43878C132.707 3.43878 130.813 3.92043 129.133 4.87055C128.211 5.39195 127.387 6.03309 126.674 6.78324C125.961 6.03309 125.137 5.39195 124.214 4.87031C122.534 3.92043 120.64 3.43878 118.585 3.43878C116.53 3.43878 114.636 3.92043 112.956 4.87031C111.792 5.52852 110.789 6.37427 109.963 7.39243C109.196 6.4762 108.261 5.68972 107.168 5.0437L107.121 5.01663C105.492 4.10187 103.577 3.61827 101.58 3.61827H98.4026C97.0166 3.61827 95.7266 4.14723 94.771 5.10784C94.6259 5.25367 94.4898 5.40805 94.3632 5.57071C93.9488 5.23295 93.4983 4.93176 93.0147 4.67009L92.9834 4.65351C91.6937 3.9792 90.3106 3.65168 88.7555 3.65168H85.6481C84.6268 3.65168 83.6405 3.94847 82.8096 4.49743C81.9532 3.94847 80.9449 3.65168 79.9092 3.65168H72.1411C71.1233 3.65168 70.141 3.94628 69.312 4.49158C68.5121 3.94628 67.5395 3.65168 66.5079 3.65168C65.7338 3.65168 65.0033 3.8141 64.3373 4.13455C63.8023 4.3772 63.297 4.73057 62.836 5.18246C62.8227 5.16856 62.8091 5.15491 62.7955 5.14125C61.8399 4.18064 60.5502 3.65168 59.1637 3.65168C57.7803 3.65168 56.5367 4.16674 55.5674 5.14101C55.5602 5.14832 55.5531 5.15539 55.5461 5.16271C54.7741 4.64302 54.0167 4.2499 53.2469 3.96871L53.0523 3.8975L52.8488 3.85458C52.0683 3.69143 50.8691 3.47439 49.4702 3.47439C47.5378 3.47439 45.6891 3.9731 43.9644 4.9642L43.8916 5.00785C43.3775 5.32684 42.8913 5.68362 42.4374 6.0743C42.2324 5.73922 41.9871 5.42731 41.7025 5.14101C40.7469 4.18064 39.4446 3.65168 38.0355 3.65168C36.9243 3.65168 35.8724 3.99383 35.0055 4.62644C34.1079 3.98652 33.0683 3.65168 31.9623 3.65168C30.5757 3.65168 29.286 4.18064 28.3304 5.14125C27.9747 5.49877 27.6766 5.89969 27.441 6.33403L26.8366 5.5312L26.6607 5.35439C26.3422 5.03395 25.889 4.62229 25.2048 4.27843L25.1452 4.24819L25.0852 4.22161C24.6058 4.00749 23.8603 3.72265 22.9231 3.72265C21.5363 3.72265 20.2466 4.25161 19.2915 5.21197C19.2126 5.29123 19.1362 5.37342 19.0625 5.45877C18.675 5.1254 18.2645 4.82909 17.8232 4.56254L17.706 4.49182L17.583 4.4328C16.3086 3.8202 14.751 3.47975 13.1971 3.47439L13.1437 3.47414C9.86075 3.47414 7.44678 4.54206 5.96856 6.64789C3.81613 9.71482 4.40082 14.1065 4.73635 15.4931C3.5102 18.5427 3.67808 21.6111 5.20871 23.9518C6.69858 26.2298 9.35467 27.5362 12.4962 27.5362C12.6682 27.5362 12.8415 27.5326 13.0176 27.525C14.5582 27.4584 15.7385 27.2304 16.853 26.7822L16.8974 26.7639C17.7004 26.4222 18.4229 25.9876 19.0552 25.4662C19.1724 25.6165 19.298 25.7591 19.4324 25.8942C20.3422 26.809 21.5693 27.3128 22.8877 27.3128C24.2063 27.3128 25.446 26.7961 26.3786 25.8584L26.4271 25.8096L26.4727 25.7589C26.8291 25.3653 27.1193 24.9227 27.3357 24.4498L28.0264 25.3697C28.5774 26.1086 29.2482 26.6298 30.0854 26.9663L30.1349 26.9856C30.7264 27.2087 31.3072 27.3128 31.9623 27.3128C33.0972 27.3128 34.1644 26.9395 35.0199 26.252C35.8867 26.9397 36.9503 27.3128 38.0707 27.3128C39.3893 27.3128 40.6292 26.7961 41.5616 25.8584L41.6101 25.8096L41.656 25.7589C41.9354 25.4499 42.1749 25.1097 42.3697 24.7471C42.886 25.2158 43.4496 25.6372 44.0563 26.0067L44.0859 26.0245C45.7308 26.997 47.554 27.4901 49.5054 27.4901C51.6037 27.4901 53.6312 26.8712 55.4175 25.6921C55.4886 25.7745 55.5621 25.8535 55.6376 25.9296L55.6863 25.9786L55.7375 26.0254C56.6713 26.8785 57.863 27.3482 59.0931 27.3482C60.4114 27.3482 61.6509 26.8319 62.584 25.894C62.6386 25.8391 62.6917 25.7833 62.7434 25.726C63.6772 26.731 64.93 27.2775 66.3316 27.2775C67.3784 27.2775 68.3685 26.9446 69.188 26.3276C70.0364 26.967 71.0624 27.3128 72.1411 27.3128H79.9092C80.9779 27.3128 81.9668 26.9992 82.8011 26.4015C83.6299 26.9934 84.6178 27.3128 85.6481 27.3128C86.9667 27.3128 88.2065 26.7961 89.1388 25.8586L89.191 25.806C90.1041 26.7961 91.3691 27.3482 92.7806 27.3482C93.8323 27.3482 94.828 27.0261 95.6502 26.4295C96.4608 26.98 97.4154 27.2775 98.4026 27.2775H101.51C103.548 27.2775 105.383 26.8151 106.957 25.9077C108.141 25.2404 109.15 24.371 109.97 23.3138C110.844 24.5073 111.934 25.4658 113.22 26.1696C114.869 27.0931 116.717 27.5613 118.713 27.5613C120.71 27.5613 122.558 27.0931 124.2 26.1735C125.24 25.6038 126.149 24.879 126.91 24.0111C127.678 24.8858 128.581 25.6099 129.604 26.1696C131.252 27.0931 133.101 27.5613 135.097 27.5613C137.093 27.5613 138.941 27.0931 140.583 26.1735C141.2 25.8357 141.776 25.4375 142.304 24.9834C142.495 25.2848 142.719 25.5653 142.976 25.8235C143.909 26.761 145.149 27.2775 146.467 27.2775H149.574C151.613 27.2775 153.448 26.8151 155.021 25.9074C155.604 25.5789 156.149 25.1973 156.651 24.7663C156.871 25.1804 157.15 25.5599 157.483 25.894C158.415 26.8317 159.655 27.3482 160.973 27.3482H168.106C169.132 27.3482 170.118 27.0302 170.946 26.4412C171.763 27.0073 172.731 27.3128 173.733 27.3128H181.501C184.455 27.3128 186.502 25.6709 186.975 22.9205C187.384 20.5466 186.449 18.0338 184.876 16.9751" fill="#232039"/>
<path fill-rule="evenodd" clip-rule="evenodd" d="M88.7558 13.2639H87.6965V15.1096H88.7558C89.2502 15.1096 89.6386 15.0032 89.9562 14.7191C90.2034 14.5062 90.3094 14.2224 90.3094 13.8673C90.3094 13.4415 90.1682 13.9385 89.921 13.69C89.6032 13.4061 89.2148 13.2639 88.7558 13.2639V13.2639ZM149.574 12.3767H148.48V20.327H149.574C150.316 20.327 150.987 20.1497 151.552 19.8302C152.116 19.5107 152.54 19.0493 152.858 18.446C153.176 17.8426 153.352 17.1327 153.352 16.3165C153.352 15.5356 153.176 14.8257 152.858 14.2224C152.54 13.619 152.117 13.193 151.516 12.8381C150.987 12.5187 150.316 12.3767 149.574 12.3767ZM101.51 12.3767H100.416V20.327H101.51C102.252 20.327 102.923 20.1497 103.488 19.8302C104.053 19.5107 104.476 19.0493 104.794 18.446C105.112 17.8426 105.288 17.1327 105.288 16.3165C105.288 15.5356 105.112 14.8257 104.794 14.2224C104.476 13.619 104.053 13.193 103.452 12.8381C102.923 12.5187 102.252 12.3767 101.51 12.3767V12.3767ZM135.097 12.2346C134.321 12.2346 133.614 12.4121 133.014 12.7669C132.414 13.122 131.955 13.619 131.602 14.2224C131.249 14.8611 131.072 15.571 131.072 16.3518C131.072 17.1327 131.249 17.8426 131.602 18.4816C131.955 19.1203 132.414 19.5817 133.014 19.9368C133.614 20.2916 134.321 20.4691 135.062 20.4691C135.839 20.4691 136.51 20.2916 137.11 19.9368C137.71 19.5817 138.169 19.0849 138.522 18.4816C138.876 17.8426 139.052 17.1327 139.052 16.3518C139.052 15.571 138.876 14.8611 138.522 14.2224C138.169 13.5834 137.71 13.122 137.11 12.7669C136.545 12.4121 135.874 12.2346 135.097 12.2346ZM118.714 12.2346C117.937 12.2346 117.231 12.4121 116.631 12.7669C116.03 13.122 115.571 13.619 115.218 14.2224C114.865 14.8611 114.689 15.571 114.689 16.3518C114.689 17.1327 114.865 17.8426 115.218 18.4816C115.571 19.1203 116.03 19.5817 116.631 19.9368C117.231 20.2916 117.937 20.4691 118.679 20.4691C119.455 20.4691 120.126 20.2916 120.726 19.9368C121.327 19.5817 121.786 19.0849 122.139 18.4816C122.492 17.8426 122.668 17.1327 122.668 16.3518C122.668 15.571 122.492 14.8611 122.139 14.2224C121.786 13.5834 121.327 13.122 120.726 12.7669C120.197 12.4121 119.526 12.2346 118.714 12.2346V12.2346ZM181.502 8.50796C182.067 8.50796 182.561 8.6855 182.914 9.04033C183.303 9.39517 183.515 9.89218 183.515 10.4599C183.515 11.0279 183.303 11.5249 182.914 11.8797C182.561 12.2346 182.067 12.4121 181.502 12.4121H175.746V14.3287H179.56C180.089 14.3287 180.584 14.5062 180.937 14.8611C181.325 15.2161 181.537 15.7485 181.537 16.2809C181.537 16.8489 181.325 17.3456 180.937 17.7007C180.548 18.0555 180.089 18.2331 179.56 18.2331H175.746V20.256H181.502C182.031 20.256 182.526 20.4335 182.914 20.7884C183.303 21.1434 183.515 21.6405 183.515 22.2082C183.515 22.7762 183.303 23.2729 182.914 23.628C182.526 23.9828 182.067 24.1604 181.502 24.1604H173.734C173.169 24.1604 172.674 23.9475 172.286 23.557C171.898 23.1666 171.686 22.6696 171.686 22.1019V10.4955C171.686 9.92754 171.898 9.43077 172.286 9.04033C172.674 8.6855 173.169 8.47236 173.699 8.47236H181.502V8.50796V8.50796ZM160.974 8.50796C161.539 8.50796 162.033 8.72086 162.421 9.1113C162.81 9.50174 163.022 9.9985 163.022 10.5309V20.1141H168.106C168.671 20.1141 169.166 20.327 169.554 20.7174C169.942 21.1081 170.154 21.6048 170.154 22.1372C170.154 22.7052 169.942 23.202 169.554 23.5926C169.166 23.9828 168.671 24.196 168.106 24.196H160.974C160.409 24.196 159.914 23.9828 159.526 23.5926C159.138 23.202 158.961 22.7052 158.961 22.1728V10.5665C158.961 9.9985 159.173 9.50174 159.561 9.14691C159.95 8.72086 160.444 8.50796 160.974 8.50796V8.50796ZM149.574 8.50796C151.057 8.50796 152.399 8.86279 153.6 9.50174C154.8 10.176 155.718 11.1345 156.389 12.3058C157.06 13.4771 157.378 14.8257 157.378 16.3165C157.378 17.807 157.06 19.1559 156.389 20.327C155.718 21.5339 154.8 22.4567 153.6 23.131C152.434 23.8055 151.057 24.125 149.574 24.125H146.467C145.902 24.125 145.408 23.9119 145.019 23.5214C144.631 23.131 144.419 22.6342 144.419 22.0663V10.4599C144.419 9.89218 144.631 9.39517 145.019 9.00473C145.408 8.64989 145.902 8.43699 146.432 8.43699H149.574V8.50796ZM101.51 8.50796C102.993 8.50796 104.335 8.86279 105.536 9.50174C106.736 10.176 107.654 11.1345 108.325 12.3058C108.996 13.4771 109.314 14.8257 109.314 16.3165C109.314 17.807 108.996 19.1559 108.325 20.327C107.654 21.5339 106.736 22.4567 105.536 23.131C104.37 23.8055 102.993 24.125 101.51 24.125H98.4031C97.8381 24.125 97.3437 23.9119 96.9553 23.5214C96.5671 23.131 96.355 22.6342 96.355 22.0663V10.4599C96.355 9.89218 96.5668 9.39517 96.9553 9.00473C97.3437 8.64989 97.8381 8.43699 98.3677 8.43699H101.51V8.50796ZM88.7558 8.50796C89.7798 8.50796 90.733 8.72086 91.5453 9.18227C92.3927 9.64367 93.0635 10.2826 93.5577 11.0989C94.017 11.9153 94.264 12.8379 94.264 13.8673C94.264 14.8967 93.9816 15.8195 93.452 16.636C93.1693 17.0971 92.8163 17.4876 92.3927 17.807L94.4054 21.0725C94.6172 21.4276 94.7584 21.8177 94.7584 22.2438C94.7584 22.7762 94.5466 23.2376 94.1934 23.628C93.9464 23.8765 93.4871 24.196 92.7812 24.196C92.0749 24.196 91.4393 23.8765 91.0509 23.2376L88.4025 19.014H87.6611V22.1372C87.6611 22.6696 87.4493 23.1666 87.0963 23.557C86.7079 23.9475 86.2135 24.1604 85.6484 24.1604C85.0836 24.1604 84.5892 23.9475 84.201 23.557C83.8126 23.1666 83.6006 22.6696 83.6006 22.1019V10.4955C83.6006 9.92754 83.8126 9.43077 84.201 9.04033C84.5892 8.6855 85.0836 8.47236 85.6132 8.47236H88.7558V8.50796V8.50796ZM79.9097 8.50796C80.4745 8.50796 80.969 8.6855 81.322 9.04033C81.7104 9.39517 81.9222 9.89218 81.9222 10.4599C81.9222 11.0279 81.7104 11.5249 81.322 11.8797C80.969 12.2346 80.4745 12.4121 79.9097 12.4121H74.1541V14.3287H77.9676C78.4973 14.3287 78.9915 14.5062 79.3447 14.8611C79.7331 15.2161 79.9449 15.7485 79.9449 16.2809C79.9449 16.8489 79.7331 17.3456 79.3447 17.7007C78.9563 18.0555 78.4973 18.2331 77.9676 18.2331H74.1541V20.256H79.9097C80.4394 20.256 80.9335 20.4335 81.322 20.7884C81.7104 21.1434 81.9222 21.6405 81.9222 22.2082C81.9222 22.7762 81.7104 23.2729 81.322 23.628C80.9335 23.9828 80.4745 24.1604 79.9097 24.1604H72.1416C71.5766 24.1604 71.0821 23.9475 70.6937 23.557C70.3055 23.1666 70.0935 22.6696 70.0935 22.1372V10.5309C70.0935 9.96314 70.3055 9.46613 70.6937 9.07569C71.0821 8.72086 71.5766 8.50796 72.1062 8.50796H79.9097ZM66.5085 8.50796C67.2147 8.50796 67.6385 8.82743 67.8855 9.07594C68.2033 9.43077 68.38 9.89218 68.38 10.3536C68.38 10.9569 68.1682 11.4893 67.7091 11.9153L64.0016 15.6066L67.8855 20.8952C68.1327 21.25 68.2739 21.6758 68.2739 22.1019C68.2739 22.5986 68.0976 23.06 67.7797 23.4505C67.4265 23.8765 66.8969 24.125 66.3318 24.125C65.6258 24.125 65.0608 23.8055 64.6724 23.2729L61.1414 18.5169V22.1372C61.1414 22.7052 60.9296 23.202 60.5412 23.5926C60.1528 23.9828 59.6584 24.196 59.0936 24.196C58.564 24.196 58.0695 23.9828 57.6811 23.628C57.2927 23.2376 57.0809 22.7406 57.0809 22.1728V10.5665C57.0809 9.9985 57.2927 9.50174 57.6811 9.1113C58.0695 8.72086 58.564 8.54332 59.0936 8.54332C59.6584 8.54332 60.1528 8.75647 60.5412 9.14691C60.9296 9.5371 61.1414 10.0341 61.1414 10.5665V12.9801L64.9196 9.21787C65.1668 9.00473 65.3786 8.82743 65.5904 8.72086C65.9082 8.57893 66.1906 8.50796 66.5085 8.50796V8.50796ZM38.0358 8.50796C38.6008 8.50796 39.095 8.72086 39.4834 9.07594C39.8719 9.46613 40.0837 9.96314 40.0837 10.5309V22.1372C40.0837 22.6696 39.8719 23.1666 39.5189 23.557C39.1304 23.9475 38.636 24.1604 38.071 24.1604C37.5062 24.1604 37.0117 23.9475 36.6236 23.557C36.2351 23.1666 36.0231 22.6696 36.0231 22.1372V10.5309C36.0231 9.96314 36.2351 9.46613 36.6236 9.07594C37.0117 8.72086 37.5062 8.50796 38.0358 8.50796V8.50796ZM31.9625 8.50796C32.5276 8.50796 33.0218 8.72086 33.375 9.07594C33.7634 9.46613 33.9752 9.96314 33.9752 10.5309V22.1372C33.9752 22.7052 33.7634 23.202 33.375 23.5926C32.9866 23.9828 32.4922 24.1604 31.9625 24.1604C31.6801 24.1604 31.4329 24.125 31.1505 24.0184C30.7973 23.8765 30.5501 23.6636 30.3383 23.3795L24.9007 16.1389V22.1372C24.9007 22.6696 24.6889 23.1666 24.3356 23.557C23.9474 23.9475 23.453 24.1604 22.888 24.1604C22.3232 24.1604 21.8287 23.9475 21.4757 23.5926C21.0873 23.202 20.9107 22.7052 20.9107 22.1372V10.5309C20.9107 9.96314 21.1225 9.46613 21.4757 9.07594C21.8641 8.6855 22.3583 8.50796 22.888 8.50796C23.1704 8.50796 23.4884 8.57893 23.7708 8.72086C24.018 8.86279 24.265 9.00473 24.4416 9.21787L24.4771 9.25323L29.9498 16.5294V10.5309C29.9498 9.96314 30.1616 9.46613 30.5501 9.07594C30.9387 8.72086 31.4329 8.50796 31.9625 8.50796V8.50796ZM135.097 8.36603C136.616 8.36603 137.993 8.72086 139.193 9.39517C140.394 10.0695 141.382 11.0279 142.053 12.2702C142.724 13.4771 143.077 14.8611 143.077 16.3875C143.077 17.9136 142.724 19.2978 142.053 20.5045C141.382 21.7468 140.429 22.7052 139.193 23.3795C137.993 24.0538 136.616 24.4089 135.097 24.4089C133.579 24.4089 132.202 24.0538 131.001 23.3795C129.766 22.7052 128.812 21.7114 128.142 20.5045C127.47 19.2978 127.153 17.9136 127.153 16.3875C127.153 14.8611 127.506 13.5125 128.142 12.3058C128.812 11.0989 129.766 10.1051 131.001 9.43077C132.202 8.6855 133.579 8.36603 135.097 8.36603V8.36603ZM118.714 8.36603C120.232 8.36603 121.609 8.72086 122.81 9.39517C124.01 10.0695 124.999 11.0279 125.67 12.2702C126.341 13.4771 126.694 14.8611 126.694 16.3875C126.694 17.9136 126.341 19.2978 125.67 20.5045C124.999 21.7468 124.046 22.7052 122.81 23.3795C121.609 24.0538 120.232 24.4089 118.714 24.4089C117.195 24.4089 115.818 24.0538 114.618 23.3795C113.382 22.7052 112.429 21.7114 111.758 20.5045C111.087 19.2978 110.769 17.9136 110.769 16.3875C110.769 14.8611 111.122 13.5125 111.758 12.3058C112.429 11.0989 113.382 10.1051 114.618 9.43077C115.818 8.6855 117.195 8.36603 118.714 8.36603V8.36603ZM49.4705 8.36603C50.4591 8.36603 51.342 8.50796 52.1188 8.79183C52.8602 9.07594 53.637 9.50174 54.3785 10.1051C54.6611 10.318 54.8729 10.5665 54.9787 10.8506C55.0847 11.0989 55.1201 11.383 55.1201 11.6668C55.1201 12.1992 54.9081 12.7316 54.4845 13.0864C54.0961 13.4061 53.637 13.5834 53.1426 13.5834C52.6484 13.5834 52.2248 13.4061 51.8364 13.122C51.448 12.8025 51.0947 12.554 50.7417 12.4121C50.4239 12.3058 49.9649 12.2346 49.4353 12.2346C48.7645 12.2346 48.1288 12.4121 47.5638 12.7669C46.999 13.122 46.5046 13.619 46.1516 14.2577C45.7983 14.8967 45.6217 15.6066 45.6217 16.3518C45.6217 17.0971 45.7983 17.807 46.1516 18.446C46.5046 19.0849 46.9636 19.5817 47.5638 19.9368C48.1288 20.2916 48.7645 20.4691 49.4353 20.4691C50.2827 20.4691 51.0947 20.185 51.9422 19.5463C52.366 19.2622 52.7542 19.1203 53.178 19.1203C53.7076 19.1203 54.2021 19.3334 54.5551 19.7236C54.9081 20.0787 55.0847 20.5755 55.0847 21.1081C55.0847 21.6405 54.8729 22.1372 54.4845 22.5277L54.4493 22.5633L54.4139 22.5986C52.9662 23.7346 51.3068 24.3379 49.5059 24.3379C48.0934 24.3379 46.7518 23.9828 45.5511 23.2729C44.3861 22.5633 43.4326 21.6048 42.7264 20.3626C42.0556 19.1559 41.7026 17.7717 41.7026 16.3165C41.7026 14.8611 42.0556 13.5125 42.7264 12.3055C43.3975 11.0989 44.3507 10.1051 45.5159 9.39517C46.7164 8.72086 48.0228 8.36603 49.4705 8.36603V8.36603ZM13.1945 8.36603C14.3949 8.36603 15.419 8.61453 16.2664 9.1113C17.0784 9.60807 17.7847 10.318 18.3495 11.2054C18.5967 11.5959 18.7379 12.0217 18.7379 12.4121C18.7379 13.051 18.4555 13.5834 17.9259 13.9739C17.5729 14.1868 17.2196 14.2933 16.8315 14.2933C16.4782 14.2933 16.125 14.1868 15.8074 14.0095C15.4896 13.8319 15.2072 13.5481 15.0306 13.2283C14.8539 12.9091 14.6067 13.0864 14.2891 12.9091C14.0065 12.7316 13.5829 12.6606 13.0885 12.6606C12.4528 12.6606 11.9232 12.3411 11.5702 12.5896C11.3582 12.7316 11.2876 12.8379 11.2876 13.0864C11.2876 13.2996 11.3584 13.4771 11.6056 13.69C11.7468 13.7963 12.2059 14.0804 13.5829 14.2224C15.2072 14.3997 16.4782 14.8967 17.4317 15.7485C18.4203 16.6713 18.9499 17.878 18.9499 19.3334C18.9499 20.3982 18.6321 21.3563 18.0319 22.1372C17.4668 22.8825 16.69 23.4505 15.772 23.8409C14.8894 24.196 13.9713 24.3733 12.9825 24.3733C11.6762 24.3733 10.4756 24.0894 9.41633 23.4861C8.2865 22.8471 7.47424 21.9953 7.05064 20.9661C6.94462 20.682 6.87402 20.4335 6.87402 20.185C6.87402 19.7236 7.05064 19.2978 7.36846 18.943C7.65086 18.6589 8.00386 18.446 8.4277 18.375C8.53347 18.3394 8.67467 18.3394 8.85129 18.3394C9.23971 18.3394 9.62813 18.446 9.98137 18.6945C10.3344 18.943 10.5816 19.2269 10.758 19.6173C10.7934 19.7236 10.97 19.9368 11.4644 20.185C11.9232 20.3982 12.4177 20.5401 12.9825 20.5401C13.6181 20.5401 14.1479 20.3982 14.5361 20.1497C14.8539 19.9368 14.9245 19.7236 14.9245 19.4754C14.9245 19.1559 14.8188 18.872 14.5361 18.6235C14.2185 18.3394 13.6535 18.1265 12.8767 18.0555C11.217 17.9136 9.91077 17.3812 8.92213 16.5647C7.86266 15.6419 7.29786 14.4709 7.29786 13.0864C7.29786 12.0926 7.58026 11.2054 8.18048 10.4955C8.71009 9.82121 9.45175 9.28884 10.3698 8.93376C11.217 8.54357 12.1704 8.36603 13.1945 8.36603V8.36603Z" fill="black"/>
<path fill-rule="evenodd" clip-rule="evenodd" d="M88.7558 11.5603H87.6965V14.2224H88.7558C89.2502 14.2224 89.6386 14.1158 89.9562 13.8317C90.2034 13.6188 90.3094 13.3349 90.3094 12.9801C90.3094 12.5541 90.1682 12.1992 89.921 11.9507C89.6032 11.7022 89.2148 11.5603 88.7558 11.5603ZM149.574 11.4893H148.48V19.4754H149.574C150.316 19.4754 150.987 19.2978 151.552 18.9784C152.116 18.6589 152.54 18.1975 152.858 17.5942C153.176 16.9908 153.352 16.2809 153.352 15.4644C153.352 14.6838 153.176 13.9739 152.858 13.3705C152.54 12.767 152.117 12.3412 151.516 11.9863C150.987 11.6669 150.316 11.4893 149.574 11.4893ZM101.51 11.4893H100.416V19.4754H101.51C102.252 19.4754 102.923 19.2978 103.488 18.9784C104.053 18.6589 104.476 18.1975 104.794 17.5942C105.112 16.9908 105.288 16.2809 105.288 15.4644C105.288 14.6838 105.112 13.9739 104.794 13.3705C104.476 12.767 104.053 12.3412 103.452 11.9863C102.923 11.6669 102.252 11.4893 101.51 11.4893V11.4893ZM135.097 11.3827C134.321 11.3827 133.614 11.5603 133.014 11.9154C132.414 12.2702 131.955 12.767 131.602 13.3705C131.249 14.0092 131.072 14.7192 131.072 15.5C131.072 16.2809 131.249 16.9908 131.602 17.6295C131.955 18.2685 132.414 18.7299 133.014 19.0847C133.614 19.4398 134.321 19.6173 135.062 19.6173C135.839 19.6173 136.51 19.4398 137.11 19.0847C137.71 18.7299 138.169 18.2331 138.522 17.6295C138.876 16.9908 139.052 16.2809 139.052 15.5C139.052 14.7192 138.876 14.0092 138.522 13.3705C138.169 12.7316 137.71 12.2702 137.11 11.9154C136.545 11.5603 135.874 11.3827 135.097 11.3827ZM118.714 11.3827C117.937 11.3827 117.231 11.5603 116.631 11.9154C116.03 12.2702 115.571 12.767 115.218 13.3705C114.865 14.0092 114.689 14.7192 114.689 15.5C114.689 16.2809 114.865 16.9908 115.218 17.6295C115.571 18.2685 116.03 18.7299 116.631 19.0847C117.231 19.4398 117.937 19.6173 118.679 19.6173C119.455 19.6173 120.126 19.4398 120.726 19.0847C121.327 18.7299 121.786 18.2331 122.139 17.6295C122.492 16.9908 122.668 16.2809 122.668 15.5C122.668 14.7192 122.492 14.0092 122.139 13.3705C121.786 12.7316 121.327 12.2702 120.726 11.9154C120.197 11.5603 119.526 11.3827 118.714 11.3827V11.3827ZM181.502 7.65615C182.067 7.65615 182.561 7.83344 182.914 8.18852C183.303 8.54335 183.515 9.04036 183.515 9.60809C183.515 10.1761 183.303 10.6728 182.914 11.0279C182.561 11.3827 182.067 11.5603 181.502 11.5603H175.746V13.4769H179.56C180.089 13.4769 180.584 13.6544 180.937 14.0092C181.325 14.3643 181.537 14.8967 181.537 15.4291C181.537 15.9968 181.325 16.4938 180.937 16.8489C180.548 17.2037 180.089 17.3813 179.56 17.3813H175.746V19.4044H181.502C182.031 19.4044 182.526 19.5817 182.914 19.9368C183.303 20.2916 183.515 20.7884 183.515 21.3564C183.515 21.9243 183.303 22.4211 182.914 22.7762C182.526 23.131 182.067 23.3086 181.502 23.3086H173.734C173.169 23.3086 172.674 23.0957 172.286 22.7052C171.898 22.3148 171.686 21.8178 171.686 21.2498V9.67931C171.686 9.11133 171.898 8.61432 172.286 8.22388C172.674 7.86905 173.169 7.65615 173.699 7.65615H181.502V7.65615ZM160.974 7.65615C161.539 7.65615 162.033 7.86905 162.421 8.25948C162.81 8.64992 163.022 9.14693 163.022 9.67931V19.2625H168.106C168.671 19.2625 169.166 19.4754 169.554 19.8658C169.942 20.256 170.154 20.753 170.154 21.2854C170.154 21.8534 169.942 22.3501 169.554 22.7406C169.166 23.131 168.671 23.3439 168.106 23.3439H160.974C160.409 23.3439 159.914 23.131 159.526 22.7406C159.138 22.3501 158.961 21.8534 158.961 21.3208V9.67931C158.961 9.11133 159.173 8.61432 159.561 8.25948C159.95 7.86905 160.444 7.65615 160.974 7.65615ZM149.574 7.65615C151.057 7.65615 152.399 8.01098 153.6 8.64992C154.8 9.32423 155.718 10.2826 156.389 11.4537C157.06 12.625 157.378 13.9739 157.378 15.4644C157.378 16.9552 157.06 18.3041 156.389 19.4754C155.718 20.6821 154.8 21.6049 153.6 22.2792C152.434 22.9535 151.057 23.273 149.574 23.273H146.467C145.902 23.273 145.408 23.0601 145.019 22.6696C144.631 22.2792 144.419 21.7824 144.419 21.2144V9.67931C144.419 9.11133 144.631 8.61432 145.019 8.22388C145.408 7.86905 145.902 7.65615 146.432 7.65615H149.574V7.65615ZM101.51 7.65615C102.993 7.65615 104.335 8.01098 105.536 8.64992C106.736 9.32423 107.654 10.2826 108.325 11.4537C108.996 12.625 109.314 13.9739 109.314 15.4644C109.314 16.9552 108.996 18.3041 108.325 19.4754C107.654 20.6821 106.736 21.6049 105.536 22.2792C104.37 22.9535 102.993 23.273 101.51 23.273H98.4031C97.8381 23.273 97.3437 23.0601 96.9553 22.6696C96.5671 22.2792 96.355 21.7824 96.355 21.2144V9.67931C96.355 9.11133 96.5668 8.61432 96.9553 8.22388C97.3437 7.86905 97.8381 7.65615 98.3677 7.65615H101.51V7.65615ZM88.7558 7.65615C89.7798 7.65615 90.733 7.86905 91.5453 8.33045C92.3927 8.79186 93.0635 9.4308 93.5577 10.247C94.017 11.0633 94.264 11.9863 94.264 13.0155C94.264 14.0449 93.9816 14.9677 93.452 15.7839C93.1693 16.2453 92.8163 16.6357 92.3927 16.9552L94.4054 20.2207C94.6172 20.5755 94.7584 20.9659 94.7584 21.3917C94.7584 21.9243 94.5466 22.3858 94.1934 22.7762C93.9464 23.0247 93.4871 23.3439 92.7812 23.3439C92.0749 23.3439 91.4393 23.0247 91.0509 22.3858L88.4025 18.1619H87.6611V21.2854C87.6611 21.8178 87.4493 22.3148 87.0963 22.7052C86.7079 23.0957 86.2135 23.3086 85.6484 23.3086C85.0836 23.3086 84.5892 23.0957 84.201 22.7052C83.8126 22.3148 83.6006 21.8178 83.6006 21.2498V9.67931C83.6006 9.11133 83.8126 8.61432 84.201 8.22388C84.5892 7.86905 85.0836 7.65615 85.6132 7.65615H88.7558V7.65615ZM79.9097 7.65615C80.4745 7.65615 80.969 7.83344 81.322 8.18852C81.7104 8.54335 81.9222 9.04036 81.9222 9.60809C81.9222 10.1761 81.7104 10.6728 81.322 11.0279C80.969 11.3827 80.4745 11.5603 79.9097 11.5603H74.1541V13.4769H77.9676C78.4973 13.4769 78.9915 13.6544 79.3447 14.0092C79.7331 14.3643 79.9449 14.8967 79.9449 15.4291C79.9449 15.9614 79.7331 16.4938 79.3447 16.8489C78.9563 17.2037 78.4973 17.3813 77.9676 17.3813H74.1541V19.4044H79.9097C80.4394 19.4044 80.9335 19.5817 81.322 19.9368C81.7104 20.2916 81.9222 20.7884 81.9222 21.3564C81.9222 21.9243 81.7104 22.4211 81.322 22.7762C80.9335 23.131 80.4745 23.3086 79.9097 23.3086H72.1416C71.5766 23.3086 71.0821 23.0957 70.6937 22.7052C70.3055 22.3148 70.0935 21.8178 70.0935 21.2854V9.67931C70.0935 9.11133 70.3055 8.61432 70.6937 8.22388C71.0821 7.86905 71.5766 7.65615 72.1062 7.65615H79.9097ZM66.5085 7.65615C67.2147 7.65615 67.6385 7.97537 67.8855 8.22388C68.2033 8.57896 68.38 9.04036 68.38 9.50177C68.38 10.1051 68.1682 10.6375 67.7091 11.0633L64.0016 14.7548L67.8855 20.0431C68.1327 20.3982 68.2739 20.824 68.2739 21.2498C68.2739 21.7468 68.0976 22.2082 67.7797 22.5987C67.4265 23.0247 66.8969 23.273 66.3318 23.273C65.6258 23.273 65.0608 22.9535 64.6724 22.4211L61.1414 17.6651V21.2854C61.1414 21.8534 60.9296 22.3501 60.5412 22.7406C60.1528 23.131 59.6584 23.3439 59.0936 23.3439C58.564 23.3439 58.0695 23.131 57.6811 22.7762C57.2927 22.3858 57.0809 21.8887 57.0809 21.3208V9.67931C57.0809 9.11133 57.2927 8.61432 57.6811 8.22388C58.0695 7.83344 58.564 7.65615 59.0936 7.65615C59.6584 7.65615 60.1528 7.86905 60.5412 8.25948C60.9296 8.64992 61.1414 9.14693 61.1414 9.67931V12.0927L64.9196 8.33045C65.1668 8.11755 65.3786 7.94001 65.5904 7.83344C65.9082 7.72711 66.1906 7.65615 66.5085 7.65615V7.65615ZM38.0358 7.65615C38.6008 7.65615 39.095 7.86905 39.4834 8.22388C39.8719 8.61432 40.0837 9.11133 40.0837 9.67931V21.2854C40.0837 21.8178 39.8719 22.3148 39.5189 22.7052C39.1304 23.0957 38.636 23.3086 38.071 23.3086C37.5062 23.3086 37.0117 23.0957 36.6236 22.7052C36.2351 22.3148 36.0231 21.8178 36.0231 21.2854V9.67931C36.0231 9.11133 36.2351 8.61432 36.6236 8.22388C37.0117 7.86905 37.5062 7.65615 38.0358 7.65615ZM31.9625 7.65615C32.5276 7.65615 33.0218 7.86905 33.375 8.22388C33.7634 8.61432 33.9752 9.11133 33.9752 9.67931V21.2854C33.9752 21.8534 33.7634 22.3501 33.375 22.7406C32.9866 23.131 32.4922 23.3086 31.9625 23.3086C31.6801 23.3086 31.4329 23.273 31.1505 23.1666C30.7973 23.0247 30.5501 22.8116 30.3383 22.5277L24.9007 15.2871V21.2854C24.9007 21.8178 24.6889 22.3148 24.3356 22.7052C23.9474 23.0957 23.453 23.3086 22.888 23.3086C22.3232 23.3086 21.8287 23.0957 21.4757 22.7406C21.0873 22.3501 20.9107 21.8534 20.9107 21.2854V9.67931C20.9107 9.11133 21.1225 8.61432 21.4757 8.22388C21.8641 7.83344 22.3583 7.65615 22.888 7.65615C23.1704 7.65615 23.4884 7.72711 23.7708 7.86905C24.018 8.01098 24.265 8.15291 24.4416 8.36581L24.4771 8.40142L29.9498 15.6776V9.67931C29.9498 9.11133 30.1616 8.61432 30.5501 8.22388C30.9387 7.86905 31.4329 7.65615 31.9625 7.65615V7.65615ZM135.097 7.47861C136.616 7.47861 137.993 7.83344 139.193 8.50775C140.394 9.18229 141.382 10.1405 142.053 11.3827C142.724 12.5897 143.077 13.9739 143.077 15.5C143.077 17.0262 142.724 18.4104 142.053 19.6173C141.382 20.8596 140.429 21.8178 139.193 22.4923C137.993 23.1666 136.616 23.5215 135.097 23.5215C133.579 23.5215 132.202 23.1666 131.001 22.4923C129.766 21.8178 128.812 20.824 128.142 19.6173C127.47 18.4104 127.153 17.0262 127.153 15.5C127.153 13.9739 127.506 12.625 128.142 11.4184C128.812 10.2117 129.766 9.2179 131.001 8.54335C132.202 7.83344 133.579 7.47861 135.097 7.47861V7.47861ZM118.714 7.47861C120.232 7.47861 121.609 7.83344 122.81 8.50775C124.01 9.18229 124.999 10.1405 125.67 11.3827C126.341 12.5897 126.694 13.9739 126.694 15.5C126.694 17.0262 126.341 18.4104 125.67 19.6173C124.999 20.8596 124.046 21.8178 122.81 22.4923C121.609 23.1666 120.232 23.5215 118.714 23.5215C117.195 23.5215 115.818 23.1666 114.618 22.4923C113.382 21.8178 112.429 20.824 111.758 19.6173C111.087 18.4104 110.769 17.0262 110.769 15.5C110.769 13.9739 111.122 12.625 111.758 11.4184C112.429 10.2117 113.382 9.2179 114.618 8.54335C115.818 7.83344 117.195 7.47861 118.714 7.47861V7.47861ZM49.4705 7.47861C50.4591 7.47861 51.342 7.62054 52.1188 7.90441C52.8602 8.18852 53.637 8.61432 54.3785 9.2179C54.6611 9.4308 54.8729 9.6793 54.9787 9.96317C55.0847 10.2117 55.1201 10.4955 55.1201 10.7794C55.1201 11.3118 54.9081 11.8444 54.4845 12.1992C54.0961 12.5187 53.637 12.696 53.1426 12.696C52.6484 12.696 52.2248 12.5187 51.8364 12.2346C51.448 11.9154 51.0947 11.6669 50.7417 11.5247C50.4239 11.4184 49.9649 11.3474 49.4353 11.3474C48.7645 11.3474 48.1288 11.5247 47.5638 11.8798C46.999 12.2346 46.5046 12.7316 46.1516 13.3703C45.7983 14.0092 45.6217 14.7192 45.6217 15.4644C45.6217 16.2099 45.7983 16.9199 46.1516 17.5586C46.5046 18.1975 46.9636 18.6943 47.5638 19.0493C48.1288 19.4044 48.7645 19.5817 49.4353 19.5817C50.2827 19.5817 51.0947 19.2978 51.9422 18.6589C52.366 18.375 52.7542 18.2331 53.178 18.2331C53.7076 18.2331 54.2021 18.446 54.5551 18.8364C54.9081 19.1913 55.0847 19.6883 55.0847 20.2207C55.0847 20.753 54.8729 21.2498 54.4845 21.6402L54.4493 21.6758L54.4139 21.7114C52.9662 22.8472 51.3068 23.4505 49.5059 23.4505C48.0934 23.4505 46.7518 23.0957 45.5511 22.3858C44.3861 21.6758 43.4326 20.7174 42.7264 19.4754C42.0556 18.2685 41.7026 16.8842 41.7026 15.4291C41.7026 13.9739 42.0556 12.625 42.7264 11.4184C43.3975 10.2117 44.3507 9.2179 45.5159 8.50775C46.7164 7.86905 48.0228 7.47861 49.4705 7.47861V7.47861ZM13.1945 7.51421C14.3949 7.51421 15.419 7.76247 16.2664 8.25948C17.0784 8.75625 17.7847 9.46616 18.3495 10.3536C18.5967 10.744 18.7379 11.1698 18.7379 11.5603C18.7379 12.1992 18.4555 12.7316 17.9259 13.122C17.5729 13.3349 17.2196 13.4415 16.8315 13.4415C16.4782 13.4415 16.125 13.3349 15.8074 13.1574C15.4896 12.9801 15.2072 12.696 15.0306 12.3768C14.8539 12.0573 14.6067 11.8088 14.2891 11.6313C14.0065 11.4537 13.5829 11.3827 13.0885 11.3827C12.4528 11.3827 11.9232 11.4893 11.5702 11.7022C11.3582 11.8444 11.2876 11.9507 11.2876 12.1992C11.2876 12.4121 11.3584 12.5897 11.6056 12.8026C11.7468 12.9091 12.2059 13.193 13.5829 13.3349C15.2072 13.5125 16.4782 14.0092 17.4317 14.8611C18.4203 15.7839 18.9499 16.9908 18.9499 18.446C18.9499 19.5107 18.6321 20.4692 18.0319 21.2498C17.4668 21.9953 16.69 22.5633 15.772 22.9535C14.8894 23.3086 13.9713 23.4859 12.9825 23.4859C11.6762 23.4859 10.4756 23.202 9.41633 22.5987C8.2865 21.9597 7.47424 21.1079 7.05064 20.0787C6.94462 19.7946 6.87402 19.5464 6.87402 19.2978C6.87402 18.8364 7.05064 18.4104 7.36846 18.0556C7.65086 17.7717 8.00386 17.5586 8.4277 17.4876C8.53347 17.4522 8.67467 17.4522 8.85129 17.4522C9.23971 17.4522 9.62813 17.5586 9.98137 17.8071C10.3344 18.0556 10.5816 18.3394 10.758 18.7299C10.7934 18.8364 10.97 19.0493 11.4644 19.2978C11.9232 19.5107 12.4177 19.6527 12.9825 19.6527C13.6181 19.6527 14.1479 19.5107 14.5361 19.2622C14.8539 19.0493 14.9245 18.8364 14.9245 18.5879C14.9245 18.2685 14.8188 17.9846 14.5361 17.7361C14.2185 17.4522 13.6535 17.2393 12.8767 17.1681C11.217 17.0262 9.91077 16.4938 8.92213 15.6776C7.86266 14.7548 7.29786 13.5834 7.29786 12.1992C7.29786 11.2052 7.58026 10.318 8.18048 9.60809C8.71009 8.93379 9.45175 8.40142 10.3698 8.04634C11.217 7.69151 12.1704 7.51421 13.1945 7.51421V7.51421Z" fill="#FFD68F"/>
<path fill-rule="evenodd" clip-rule="evenodd" d="M31.9629 21.9954C31.7157 21.9954 31.4685 21.9597 31.2213 21.8532C30.9037 21.7468 30.6565 21.534 30.4799 21.2854L24.7244 13.6545V20.1497C24.7244 20.6465 24.5481 21.1079 24.1948 21.463C23.8418 21.8178 23.3828 21.9954 22.8532 21.9954C22.3587 21.9954 21.8997 21.8178 21.5465 21.463C21.1935 21.1079 21.0169 20.6465 21.0169 20.1497V8.54339C21.0169 8.01102 21.1935 7.58522 21.5465 7.23014C21.8997 6.87531 22.3587 6.69777 22.8532 6.69777C23.1356 6.69777 23.3828 6.76874 23.6652 6.87531C23.9124 6.98188 24.1242 7.15918 24.2654 7.33672L24.3006 7.37208L30.0914 15.0387V8.50803C30.0914 7.97566 30.2681 7.51425 30.6565 7.15918C31.0095 6.8041 31.4685 6.62681 31.9629 6.62681C32.4574 6.62681 32.9164 6.8041 33.2694 7.15918C33.6224 7.51425 33.799 7.97566 33.799 8.47243V20.0788C33.799 20.6111 33.6224 21.0369 33.2694 21.392C32.9162 21.8178 32.4926 21.9954 31.9629 21.9954ZM38.0362 21.9954C37.5417 21.9954 37.0827 21.8178 36.7297 21.463C36.3765 21.1079 36.2001 20.6465 36.2001 20.1497V8.54339C36.2001 8.01102 36.3765 7.54962 36.7649 7.19478C37.1182 6.83971 37.5772 6.66217 38.0714 6.66217C38.601 6.66217 39.06 6.83971 39.3778 7.19478C39.7311 7.54962 39.9077 8.01102 39.9077 8.50779V20.1141C39.9077 20.6111 39.7311 21.0725 39.3778 21.4274C39.0248 21.8178 38.5658 21.9954 38.0362 21.9954V21.9954ZM66.4031 21.9954C65.7672 21.9954 65.2376 21.7112 64.8846 21.2145L61.2124 16.2453L61.0358 16.4229V20.1497C61.0358 20.6465 60.8592 21.1079 60.5062 21.463C60.1532 21.8178 59.6942 21.9954 59.1998 21.9954C58.7056 21.9954 58.2463 21.8178 57.8933 21.463C57.5403 21.1079 57.3285 20.6465 57.3285 20.1497V8.54339C57.3285 8.04663 57.5049 7.58522 57.8933 7.23014C58.2463 6.87531 58.7056 6.69777 59.1998 6.69777C59.6942 6.69777 60.1532 6.87531 60.5062 7.23014C60.8592 7.58522 61.0358 8.04663 61.0358 8.54339V11.3828L65.0964 7.33672C65.3082 7.12382 65.5202 6.98188 65.732 6.87531C65.9792 6.76874 66.2265 6.69777 66.5089 6.69777C67.1445 6.69777 67.5681 6.98188 67.7799 7.23014C68.0625 7.54962 68.2389 7.94005 68.2389 8.40146C68.2389 8.96919 68.0271 9.4662 67.6387 9.85664L63.8254 13.6545L67.8153 19.0494C68.0625 19.3689 68.1683 19.7593 68.1683 20.1851C68.1683 20.6465 68.0271 21.0725 67.7093 21.4274C67.3563 21.7822 66.9327 21.9954 66.4031 21.9954ZM72.1418 21.9954C71.6476 21.9954 71.1886 21.8178 70.8356 21.463C70.4823 21.1079 70.3057 20.6465 70.3057 20.1497V8.54339C70.3057 8.01102 70.4823 7.54962 70.8707 7.19478C71.2237 6.83971 71.6828 6.66217 72.1772 6.66217H79.9453C80.4395 6.66217 80.8985 6.83971 81.2518 7.15918C81.6048 7.51425 81.7814 7.94005 81.7814 8.47243C81.7814 8.96919 81.6048 9.43084 81.2163 9.75031C80.8634 10.0695 80.4395 10.2117 79.9453 10.2117H74.0133V12.4478H78.0032C78.4977 12.4478 78.9567 12.6251 79.2743 12.9445C79.6275 13.2994 79.8393 13.7254 79.8393 14.2222C79.8393 14.7192 79.6627 15.1806 79.2743 15.5001C78.9213 15.8195 78.4977 15.9968 78.0032 15.9968H74.0133V18.3751H79.9453C80.4395 18.3751 80.8988 18.5524 81.2163 18.8365C81.5696 19.1557 81.7814 19.6174 81.7814 20.1141C81.7814 20.6111 81.6048 21.0725 81.2518 21.4274C80.8985 21.7469 80.4749 21.9241 79.9453 21.9241H72.1418V21.9954V21.9954ZM88.7562 13.264C89.2858 13.264 89.7094 13.1221 90.0626 12.8382C90.345 12.5897 90.4862 12.2702 90.4862 11.8442C90.4862 11.3474 90.345 10.9924 90.0272 10.6729C89.7094 10.3537 89.2858 10.2117 88.7562 10.2117H87.4851V13.2284H88.7562V13.264V13.264ZM92.7816 21.9954C92.1105 21.9954 91.5455 21.6759 91.1925 21.1079L88.509 16.8133H87.4851V20.1141C87.4851 20.6111 87.3083 21.0725 86.9553 21.4274C86.6023 21.7822 86.1433 21.9598 85.6137 21.9598C85.1192 21.9598 84.6602 21.7822 84.3072 21.4274C83.954 21.0725 83.7776 20.6111 83.7776 20.1141V8.50779C83.7776 7.97542 83.954 7.51425 84.3424 7.15918C84.6954 6.8041 85.1546 6.62681 85.6488 6.62681H88.7562C89.7448 6.62681 90.6628 6.83971 91.4749 7.26575C92.2871 7.69155 92.9579 8.33049 93.4169 9.11137C93.876 9.89225 94.1232 10.8151 94.1232 11.7732C94.1232 12.767 93.876 13.6898 93.3463 14.4709C93.0285 14.9321 92.6401 15.3581 92.1811 15.6776L94.2996 19.0494C94.5116 19.4042 94.6174 19.7593 94.6174 20.1141C94.6174 20.6111 94.441 21.0369 94.0878 21.3564C93.8408 21.7112 93.4524 21.9954 92.7816 21.9954V21.9954ZM101.511 18.517C102.287 18.517 102.994 18.3395 103.594 17.9846C104.194 17.6296 104.653 17.1684 104.971 16.5292C105.324 15.8905 105.501 15.1452 105.501 14.3288C105.501 13.5125 105.324 12.767 104.971 12.1283C104.618 11.4894 104.194 11.028 103.594 10.6729C102.994 10.318 102.287 10.1405 101.511 10.1405H100.239V18.446H101.511V18.517V18.517ZM98.4033 21.9954C97.9091 21.9954 97.4501 21.8178 97.0969 21.463C96.7439 21.1079 96.5672 20.6465 96.5672 20.1497V8.54339C96.5672 8.01102 96.7439 7.54962 97.1323 7.19478C97.4853 6.83971 97.9443 6.66217 98.4387 6.66217H101.546C102.993 6.66217 104.335 6.98188 105.465 7.65619C106.63 8.33049 107.548 9.2533 108.184 10.389C108.82 11.5247 109.138 12.8736 109.138 14.2932C109.138 15.7486 108.82 17.0618 108.184 18.2331C107.548 19.4042 106.63 20.327 105.465 21.0016C104.3 21.6403 102.993 21.9954 101.546 21.9954H98.4033V21.9954ZM149.575 18.517C150.351 18.517 151.058 18.3395 151.658 17.9846C152.258 17.6296 152.717 17.1684 153.035 16.5292C153.388 15.8905 153.565 15.1452 153.565 14.3288C153.565 13.5125 153.388 12.767 153.035 12.1283C152.682 11.4894 152.258 11.028 151.658 10.6729C151.058 10.318 150.351 10.1405 149.575 10.1405H148.304V18.446H149.575V18.517V18.517ZM146.467 21.9954C145.973 21.9954 145.514 21.8178 145.161 21.463C144.808 21.1079 144.631 20.6465 144.631 20.1497V8.54339C144.631 8.01102 144.808 7.54962 145.196 7.19478C145.549 6.83971 146.008 6.66217 146.503 6.66217H149.61C151.058 6.66217 152.399 6.98188 153.529 7.65619C154.694 8.33049 155.613 9.2533 156.248 10.389C156.884 11.5247 157.201 12.8736 157.201 14.2932C157.201 15.7486 156.884 17.0618 156.248 18.2331C155.613 19.4042 154.694 20.327 153.529 21.0016C152.364 21.6403 151.058 21.9954 149.61 21.9954H146.467V21.9954ZM160.974 21.9954C160.444 21.9954 160.021 21.8178 159.668 21.463C159.315 21.1079 159.138 20.6465 159.138 20.1497V8.54339C159.138 8.04663 159.315 7.58522 159.668 7.23014C160.021 6.87531 160.48 6.69777 160.974 6.69777C161.468 6.69777 161.927 6.87531 162.28 7.23014C162.633 7.58522 162.81 8.04663 162.81 8.54339V18.3041H168.071C168.566 18.3041 169.025 18.4814 169.378 18.8365C169.731 19.1913 169.907 19.6527 169.907 20.1497C169.907 20.6465 169.731 21.1079 169.378 21.463C169.025 21.8178 168.566 21.9954 168.071 21.9954H160.974V21.9954ZM173.734 21.9954C173.24 21.9954 172.781 21.8178 172.428 21.463C172.075 21.1079 171.898 20.6465 171.898 20.1497V8.54339C171.898 8.01102 172.075 7.54962 172.463 7.19478C172.816 6.83971 173.275 6.66217 173.769 6.66217H181.537C182.032 6.66217 182.491 6.83971 182.844 7.15918C183.197 7.51425 183.373 7.94005 183.373 8.47243C183.373 8.96919 183.197 9.43084 182.809 9.75031C182.455 10.0695 182.032 10.2117 181.537 10.2117H175.606V12.4478H179.56C180.055 12.4478 180.514 12.6251 180.831 12.9445C181.184 13.2994 181.396 13.7254 181.396 14.2222C181.396 14.7192 181.22 15.1806 180.831 15.5001C180.478 15.8195 180.055 15.9968 179.56 15.9968H175.57V18.3751H181.502C181.997 18.3751 182.455 18.5524 182.773 18.8365C183.126 19.1557 183.338 19.6174 183.338 20.1141C183.338 20.6111 183.162 21.0725 182.809 21.4274C182.455 21.7469 182.032 21.9241 181.502 21.9241H173.734V21.9954V21.9954ZM12.9829 22.1729C11.7118 22.1729 10.5466 21.8888 9.48733 21.2854C8.39268 20.6821 7.61584 19.8659 7.19225 18.8365C7.08622 18.588 7.01562 18.3395 7.01562 18.1266C7.01562 17.7008 7.15682 17.3103 7.47464 16.9909C7.72186 16.7424 8.07486 16.5292 8.46328 16.4582C8.5693 16.4229 8.7105 16.4229 8.8517 16.4229C9.24011 16.4229 9.59311 16.5292 9.91093 16.7424C10.2287 16.9553 10.476 17.2394 10.6172 17.5942C10.7232 17.8071 11.0056 18.0556 11.394 18.2685C11.853 18.517 12.3826 18.6233 12.9829 18.6233C13.6539 18.6233 14.2187 18.4814 14.6425 18.1975C14.9601 17.9846 15.1016 17.7361 15.1016 17.3813C15.1016 16.9909 14.9601 16.7068 14.6425 16.4229C14.2893 16.1034 13.7245 15.8905 12.8771 15.8195C11.2528 15.6776 9.94635 15.1806 8.99289 14.3641C7.96908 13.4769 7.43922 12.3768 7.43922 11.028C7.43922 10.0695 7.72186 9.2533 8.2869 8.54339C8.81652 7.86909 9.52251 7.37208 10.4054 7.01724C11.2528 6.69777 12.1708 6.52023 13.1949 6.52023C14.3599 6.52023 15.3488 6.76874 16.1608 7.26575C16.9728 7.72715 17.6439 8.43682 18.2087 9.28866C18.4559 9.64374 18.5619 10.0342 18.5619 10.4246C18.5619 10.9924 18.2793 11.4894 17.8202 11.8442C17.5024 12.0573 17.1846 12.1283 16.8316 12.1283C16.4786 12.1283 16.1608 12.0573 15.8784 11.8798C15.5606 11.7023 15.3488 11.4538 15.1722 11.1343C14.9601 10.7795 14.7131 10.5309 14.3599 10.3537C14.0421 10.1761 13.6185 10.0695 13.0889 10.0695C12.4178 10.0695 11.853 10.1761 11.4646 10.4246C11.2174 10.6019 11.1116 10.7795 11.1116 11.0633C11.1116 11.3828 11.2174 11.5957 11.5 11.8088C11.6764 11.9508 12.206 12.2346 13.5479 12.3768C15.1367 12.5187 16.3726 13.0511 17.2906 13.8674C18.2441 14.7548 18.7383 15.8905 18.7383 17.3103C18.7383 18.3395 18.4559 19.2623 17.8557 20.0078C17.2906 20.7531 16.5492 21.2854 15.6664 21.6403C14.8543 21.9954 13.9363 22.1729 12.9829 22.1729V22.1729ZM49.4709 22.1729C48.0584 22.1729 46.7874 21.8178 45.6221 21.1435C44.4571 20.4692 43.5388 19.5108 42.868 18.3041C42.1972 17.0972 41.8794 15.7839 41.8794 14.3641C41.8794 12.9445 42.2324 11.6313 42.868 10.4246C43.5388 9.2533 44.4571 8.29489 45.6221 7.58522C46.7874 6.87531 48.0938 6.52023 49.4709 6.52023C50.4595 6.52023 51.3069 6.66217 52.0486 6.91067C52.79 7.15918 53.5314 7.62058 54.2728 8.18856C54.5201 8.36585 54.7321 8.61436 54.8379 8.86286C54.9439 9.07576 54.9791 9.35963 54.9791 9.60814C54.9791 10.1051 54.7673 10.5666 54.4143 10.886C54.061 11.2053 53.6374 11.3474 53.2136 11.3474C52.7546 11.3474 52.3662 11.2055 52.0132 10.9214C51.6248 10.5666 51.2363 10.3537 50.8833 10.2117C50.5655 10.0695 50.0711 9.99858 49.5063 9.99858C48.8 9.99858 48.1644 10.1761 47.5288 10.5666C46.9286 10.957 46.4341 11.4538 46.0811 12.1283C45.7281 12.8026 45.5515 13.5125 45.5515 14.2932C45.5515 15.0743 45.7281 15.8195 46.0811 16.4582C46.4341 17.0974 46.9286 17.6298 47.5288 18.02C48.129 18.4104 48.7646 18.588 49.5063 18.588C50.3889 18.588 51.2363 18.2685 52.0838 17.6652C52.4722 17.4167 52.8252 17.2747 53.2136 17.2747C53.708 17.2747 54.1316 17.4523 54.4495 17.8071C54.7673 18.1266 54.9085 18.588 54.9085 19.0847C54.9085 19.5818 54.7321 20.0432 54.3437 20.3982L54.2728 20.4336C52.8606 21.6049 51.2363 22.1729 49.4709 22.1729V22.1729ZM118.714 10.0695C117.902 10.0695 117.196 10.2471 116.56 10.6375C115.925 10.9924 115.466 11.5247 115.113 12.1637C114.76 12.8026 114.583 13.5479 114.583 14.3641C114.583 15.1806 114.76 15.9259 115.113 16.5648C115.466 17.2038 115.96 17.7008 116.596 18.091C117.231 18.446 117.938 18.6589 118.75 18.6589C119.562 18.6589 120.268 18.4814 120.903 18.091C121.539 17.7008 122.033 17.2038 122.386 16.5648C122.739 15.9259 122.916 15.1806 122.916 14.3641C122.916 13.5479 122.739 12.8026 122.386 12.1637C122.033 11.5247 121.539 11.028 120.939 10.6375C120.268 10.2471 119.526 10.0695 118.714 10.0695V10.0695ZM118.714 22.1729C117.231 22.1729 115.854 21.8532 114.689 21.1789C113.488 20.5046 112.57 19.5464 111.899 18.3751C111.264 17.2038 110.911 15.8549 110.911 14.3641C110.911 12.8736 111.229 11.5247 111.899 10.3537C112.57 9.14673 113.488 8.22392 114.689 7.54962C115.854 6.87531 117.231 6.55584 118.714 6.55584C120.197 6.55584 121.539 6.87531 122.704 7.54962C123.905 8.22392 124.823 9.14673 125.494 10.3537C126.164 11.5247 126.482 12.8736 126.482 14.3641C126.482 15.8549 126.164 17.2038 125.494 18.3751C124.823 19.5818 123.905 20.5046 122.704 21.1789C121.574 21.8532 120.232 22.1729 118.714 22.1729V22.1729ZM135.098 10.0695C134.286 10.0695 133.58 10.2471 132.944 10.6375C132.308 10.9924 131.849 11.5247 131.496 12.1637C131.143 12.8026 130.967 13.5479 130.967 14.3641C130.967 15.1806 131.143 15.9259 131.496 16.5648C131.849 17.2038 132.344 17.7008 132.979 18.091C133.615 18.446 134.321 18.6589 135.133 18.6589C135.945 18.6589 136.651 18.4814 137.287 18.091C137.922 17.7008 138.417 17.2038 138.77 16.5648C139.123 15.9259 139.3 15.1806 139.3 14.3641C139.3 13.5479 139.123 12.8026 138.77 12.1637C138.417 11.5247 137.922 11.028 137.322 10.6375C136.616 10.2471 135.91 10.0695 135.098 10.0695ZM135.098 22.1729C133.615 22.1729 132.238 21.8532 131.072 21.1789C129.872 20.5046 128.954 19.5464 128.283 18.3751C127.647 17.2038 127.294 15.8549 127.294 14.3641C127.294 12.8736 127.612 11.5247 128.283 10.3537C128.954 9.14673 129.872 8.22392 131.072 7.54962C132.238 6.87531 133.615 6.55584 135.098 6.55584C136.581 6.55584 137.922 6.87531 139.088 7.54962C140.288 8.22392 141.206 9.14673 141.877 10.3537C142.548 11.5247 142.866 12.8736 142.866 14.3641C142.866 15.8549 142.548 17.2038 141.877 18.3751C141.206 19.5818 140.288 20.5046 139.088 21.1789C137.922 21.8532 136.581 22.1729 135.098 22.1729V22.1729Z" fill="white"/>
<path fill-rule="evenodd" clip-rule="evenodd" d="M100.663 10.6041H101.511C102.217 10.6041 102.852 10.7463 103.382 11.0655C103.912 11.385 104.335 11.811 104.618 12.3434C104.936 12.9111 105.077 13.5857 105.077 14.331C105.077 15.0762 104.936 15.7508 104.618 16.3541C104.3 16.9218 103.912 17.3479 103.382 17.6318C102.852 17.9512 102.217 18.0932 101.511 18.0932H100.663V10.6041ZM109.488 13.9761C109.453 12.5917 109.208 11.3496 108.573 10.2137C107.901 8.97138 106.913 8.01297 105.712 7.3033C104.512 6.629 103.1 6.27392 101.581 6.27392H98.4036C97.8031 6.27392 97.2383 6.48706 96.8145 6.91286C96.3909 7.33866 96.1437 7.90664 96.1437 8.54558V20.1517C96.1437 20.7553 96.3909 21.323 96.8145 21.749C97.2383 22.1748 97.8031 22.3877 98.4036 22.3877H101.511C103.029 22.3877 104.441 22.0329 105.642 21.3586C106.878 20.6487 107.831 19.6903 108.502 18.4482C109.102 17.3479 109.455 16.0702 109.491 14.6858L109.488 13.9761V13.9761ZM99.8512 18.9096H101.511C102.358 18.9096 103.135 18.7321 103.771 18.3417C104.441 17.9512 104.936 17.4189 105.324 16.7445C105.712 16.0346 105.889 15.2538 105.889 14.3663C105.889 13.4791 105.712 12.6982 105.324 11.9883C104.936 11.314 104.441 10.7816 103.771 10.3912C103.1 10.0008 102.358 9.82323 101.511 9.82323H99.8512V18.9096ZM101.511 7.0904C102.888 7.0904 104.159 7.40963 105.253 8.01297C106.348 8.65216 107.231 9.50376 107.831 10.6041C108.431 11.7045 108.749 12.9467 108.749 14.331C108.749 15.7152 108.431 16.9574 107.831 18.0576C107.231 19.1579 106.348 20.0454 105.253 20.6487C104.159 21.252 102.923 21.5715 101.511 21.5715H98.4036C98.0149 21.5715 97.6619 21.4296 97.3795 21.1457C97.0969 20.8616 96.9557 20.5068 96.9557 20.1163V8.50998C96.9557 8.08418 97.0969 7.7291 97.3795 7.48084C97.6619 7.19673 98.0149 7.0904 98.4036 7.0904H101.511V7.0904ZM181.502 6.30733H173.734C173.134 6.30733 172.569 6.52023 172.145 6.94627C171.721 7.37207 171.474 7.94005 171.474 8.57899V20.1851C171.474 20.7884 171.721 21.3564 172.145 21.7822C172.569 22.2082 173.134 22.4211 173.734 22.4211H181.502C182.102 22.4211 182.667 22.2083 183.091 21.8178C183.515 21.4274 183.762 20.8596 183.762 20.2207C183.762 19.6171 183.515 19.0494 183.091 18.6233C182.667 18.2331 182.138 18.0556 181.538 18.0556H176.029V16.4938H179.56C180.16 16.4938 180.69 16.2809 181.114 15.8905C181.573 15.4645 181.785 14.9321 181.785 14.2932C181.785 13.6898 181.538 13.1221 181.114 12.696C180.69 12.3058 180.16 12.0927 179.56 12.0927H175.994V10.6375H181.502C182.102 10.6375 182.632 10.4246 183.056 10.0695C183.48 9.67934 183.727 9.11137 183.727 8.47242C183.727 7.86908 183.48 7.30111 183.056 6.87506C182.667 6.52023 182.102 6.30733 181.502 6.30733V6.30733ZM31.9629 6.30733C31.3627 6.30733 30.7977 6.52023 30.3741 6.94627C29.9503 7.37207 29.703 7.94005 29.703 8.57899V13.903L24.6538 7.19478L24.6187 7.15917C24.4066 6.94627 24.1948 6.76874 23.9124 6.6268C23.5946 6.48487 23.2768 6.3783 22.9238 6.3783C22.3233 6.3783 21.7585 6.5912 21.3349 7.01724C20.9111 7.44304 20.6993 8.01102 20.6993 8.61436V20.2207C20.6993 20.824 20.9463 21.4274 21.3349 21.8178C21.7585 22.2439 22.2882 22.4568 22.9238 22.4568C23.5592 22.4568 24.1242 22.2082 24.5481 21.7822C24.9717 21.3564 25.1835 20.824 25.1835 20.1851V14.8611L30.2327 21.5339C30.4447 21.8532 30.7623 22.1017 31.1507 22.2439C31.4333 22.3502 31.7512 22.4211 32.0336 22.4211C32.6338 22.4211 33.1988 22.2082 33.6224 21.7822C34.0462 21.3564 34.258 20.7884 34.258 20.1851V8.57899C34.258 7.94005 34.0462 7.40768 33.6224 6.98164C33.1282 6.52023 32.5632 6.30733 31.9629 6.30733V6.30733ZM38.0362 6.30733C37.436 6.30733 36.8709 6.52023 36.4473 6.94627C36.0235 7.37207 35.7763 7.94005 35.7763 8.57899V20.1851C35.7763 20.7884 36.0235 21.3564 36.4473 21.7822C36.8709 22.2082 37.436 22.4211 38.0362 22.4211C38.6716 22.4211 39.2366 22.1729 39.6605 21.7468C40.0841 21.3208 40.2959 20.7884 40.2959 20.1497V8.54339C40.2959 7.90445 40.0841 7.37207 39.6605 6.94627C39.2366 6.52023 38.6716 6.30733 38.0362 6.30733V6.30733ZM66.5089 6.30733C66.1559 6.30733 65.8381 6.3783 65.5557 6.52023C65.3082 6.6268 65.0612 6.8041 64.814 7.0526L61.4243 10.4246V8.54339C61.4243 7.94005 61.1773 7.37207 60.7534 6.94627C60.3296 6.52023 59.7648 6.30733 59.1646 6.30733C58.5644 6.30733 58.0348 6.52023 57.6109 6.94627C57.1871 7.37207 56.9401 7.94005 56.9401 8.54339V20.1497C56.9401 20.7531 57.1871 21.3564 57.6109 21.7468C58.0348 22.1729 58.5996 22.3858 59.1646 22.3858C59.7648 22.3858 60.3296 22.1373 60.7534 21.7468C61.1773 21.3208 61.4243 20.7531 61.4243 20.1497V17.2394L64.5316 21.463C64.9552 22.0663 65.6263 22.4211 66.3677 22.4211C67.0033 22.4211 67.5681 22.1373 67.9565 21.6759C68.3098 21.2498 68.4864 20.7531 68.4864 20.1851C68.4864 19.6883 68.3449 19.2267 68.0625 18.8365L64.2844 13.6898L67.8505 10.1405C68.3098 9.67934 68.5922 9.07576 68.5922 8.40146C68.5922 7.86908 68.4155 7.33671 68.0271 6.94603C67.6741 6.52023 67.1091 6.30733 66.5089 6.30733ZM160.974 6.30733C160.374 6.30733 159.809 6.55584 159.385 6.94627C158.961 7.37207 158.714 7.94005 158.714 8.54339V20.1497C158.714 20.7531 158.926 21.3208 159.35 21.7468C159.774 22.1729 160.338 22.4211 160.939 22.4211H168.071C168.672 22.4211 169.236 22.1729 169.66 21.7822C170.084 21.3564 170.331 20.7884 170.331 20.1851C170.331 19.5818 170.084 19.0138 169.66 18.588C169.236 18.1619 168.672 17.949 168.071 17.949H163.199V8.57899C163.199 7.97541 162.951 7.40768 162.528 6.98164C162.139 6.52023 161.574 6.30733 160.974 6.30733V6.30733ZM79.9099 6.30733H72.1418C71.5416 6.30733 70.9768 6.52023 70.5529 6.94627C70.1293 7.37207 69.8821 7.94005 69.8821 8.57899V20.1851C69.8821 20.7884 70.1293 21.3564 70.5529 21.7822C70.9768 22.2082 71.5416 22.4211 72.1418 22.4211H79.9099C80.5104 22.4211 81.0752 22.2083 81.499 21.8178C81.9226 21.4274 82.1698 20.8596 82.1698 20.2207C82.1698 19.6171 81.9226 19.0494 81.499 18.6233C81.0752 18.2331 80.5455 18.0556 79.9453 18.0556H74.4369V16.4938H78.0032C78.6035 16.4938 79.1331 16.2809 79.5569 15.8905C79.9807 15.4645 80.2277 14.9321 80.2277 14.2932C80.2277 13.6898 79.9807 13.1221 79.5569 12.696C79.1331 12.3058 78.6035 12.0927 78.0032 12.0927H74.4369V10.6375H79.9453C80.5455 10.6375 81.0752 10.4246 81.499 10.0695C81.9226 9.67934 82.1698 9.11137 82.1698 8.47242C82.1698 7.86908 81.9226 7.30111 81.499 6.87506C81.0752 6.52023 80.5104 6.30733 79.9099 6.30733V6.30733ZM87.9087 10.6729H88.7562C89.1798 10.6729 89.4976 10.7794 89.7448 11.028C89.992 11.2409 90.0626 11.5247 90.0626 11.8798C90.0626 12.1993 89.992 12.3768 89.7802 12.5541C89.533 12.767 89.1798 12.8736 88.7562 12.8736H87.9087V10.6729ZM88.7562 6.30733H85.6488C85.0486 6.30733 84.4838 6.52023 84.06 6.94627C83.6361 7.37207 83.3892 7.94005 83.3892 8.57899V20.1851C83.3892 20.7884 83.6361 21.3564 84.06 21.7822C84.4838 22.2082 85.0486 22.4211 85.6488 22.4211C86.2845 22.4211 86.8495 22.1729 87.2731 21.7468C87.697 21.3208 87.9087 20.7884 87.9087 20.1497V17.2394H88.2972L90.8747 21.3564C91.2985 22.0307 92.0047 22.4211 92.7813 22.4211C93.5582 22.4211 94.0878 22.0663 94.3704 21.7822C94.794 21.392 95.0058 20.824 95.0058 20.2561C95.0058 19.7949 94.8646 19.3689 94.6176 18.9784L92.7107 15.8905C93.064 15.571 93.417 15.2162 93.6642 14.7902C94.229 13.9383 94.5116 12.9445 94.5116 11.8798C94.5116 10.8151 94.2644 9.85664 93.77 9.00479C93.2758 8.15295 92.5695 7.47865 91.6515 6.98164C90.7689 6.52023 89.8154 6.30733 88.7562 6.30733V6.30733ZM148.727 10.6019H149.575C150.281 10.6019 150.916 10.7441 151.446 11.0633C151.976 11.3828 152.364 11.7732 152.682 12.3412C153 12.9092 153.141 13.5835 153.141 14.3288C153.141 15.0743 153 15.7486 152.682 16.3519C152.364 16.9196 151.976 17.3457 151.446 17.6298C150.916 17.949 150.281 18.091 149.575 18.091H148.727V10.6019V10.6019ZM149.575 6.30733H146.467C145.867 6.30733 145.302 6.52023 144.879 6.94627C144.455 7.37207 144.208 7.94005 144.208 8.57899V20.1851C144.208 20.7884 144.455 21.3564 144.879 21.7822C145.302 22.2082 145.867 22.4211 146.467 22.4211H149.575C151.093 22.4211 152.505 22.0663 153.706 21.392C154.942 20.6821 155.895 19.7237 156.566 18.4814C157.237 17.2747 157.59 15.8905 157.59 14.3641C157.59 12.8382 157.237 11.4538 156.566 10.2471C155.895 9.00479 154.906 8.04662 153.706 7.33671C152.505 6.6268 151.093 6.30733 149.575 6.30733V6.30733ZM13.1949 6.12979C12.1357 6.12979 11.1468 6.30733 10.2642 6.6268C9.31072 6.98164 8.53389 7.54961 7.96909 8.25952C7.36888 9.04016 7.05106 9.96321 7.05106 10.9923C7.05106 12.4122 7.65127 13.6898 8.74569 14.6126C9.76974 15.5001 11.1468 15.9968 12.8417 16.1744C13.7597 16.2809 14.1835 16.4938 14.3599 16.6714C14.572 16.8843 14.678 17.0616 14.678 17.3457C14.678 17.5586 14.6426 17.6652 14.3953 17.8427C14.0421 18.091 13.5479 18.1975 12.9477 18.1975C12.4181 18.1975 11.9591 18.091 11.5352 17.8781C11.0762 17.6296 10.9704 17.4523 10.935 17.3813C10.7584 16.9553 10.476 16.6358 10.0876 16.3519C9.69914 16.1034 9.2753 15.9615 8.81653 15.9615C8.63991 15.9615 8.46329 15.9968 8.32209 16.0324C7.86307 16.139 7.47465 16.3519 7.15683 16.6714C6.80384 17.0616 6.5918 17.5586 6.5918 18.0556C6.5918 18.3395 6.66264 18.6233 6.76842 18.9428C7.22768 20.0432 8.07487 20.9306 9.24012 21.5693C10.3348 22.1729 11.6058 22.4921 12.9123 22.4921C13.9363 22.4921 14.8898 22.3148 15.8078 21.9597C16.761 21.5693 17.5733 21.0016 18.1735 20.1851C18.8089 19.3689 19.1267 18.3751 19.1267 17.2394C19.1267 15.713 18.5971 14.4707 17.5379 13.5125C16.5492 12.6251 15.2428 12.0927 13.5479 11.9152C12.1708 11.7732 11.7824 11.4894 11.7118 11.4184C11.5 11.2409 11.4646 11.1343 11.4646 10.957C11.4646 10.7794 11.5 10.7441 11.6412 10.6375C11.9591 10.4246 12.4532 10.3536 13.0537 10.3536C13.5125 10.3536 13.9009 10.4246 14.1481 10.5665C14.3953 10.7085 14.6071 10.9214 14.8192 11.2409C15.031 11.5957 15.3134 11.8798 15.6664 12.0927C16.0196 12.3056 16.408 12.4122 16.8316 12.4122C17.2555 12.4122 17.6791 12.3056 18.0323 12.0571C18.6325 11.6313 18.9503 11.028 18.9503 10.318C18.9503 9.85664 18.8089 9.39523 18.5265 8.96919C17.9263 8.04638 17.22 7.33671 16.3374 6.8041C15.5252 6.4139 14.4308 6.12979 13.1949 6.12979V6.12979ZM49.4709 6.12979C47.9878 6.12979 46.6462 6.52023 45.4103 7.23014C44.2099 7.97541 43.221 8.96919 42.515 10.2117C41.8088 11.4538 41.4558 12.838 41.4558 14.3288C41.4558 15.8195 41.8088 17.2038 42.515 18.4814C43.221 19.7237 44.1745 20.7531 45.4103 21.463C46.6462 22.2082 47.9878 22.5633 49.4709 22.5633C51.3424 22.5633 53.0372 21.9597 54.5201 20.7884H54.5555L54.5907 20.7531L54.6261 20.7175L54.6613 20.6821C55.0851 20.2561 55.3323 19.6883 55.3323 19.0847C55.3323 18.4814 55.1203 17.949 54.7673 17.5586C54.3789 17.1328 53.8141 16.8843 53.249 16.8843C52.79 16.8843 52.331 17.0262 51.872 17.3457C51.0952 17.9137 50.3183 18.1975 49.5063 18.1975C48.8707 18.1975 48.3056 18.0556 47.7408 17.7008C47.1758 17.3457 46.7522 16.8843 46.4344 16.2809C46.1166 15.6776 45.9399 15.0033 45.9399 14.2932C45.9399 13.5835 46.1166 12.9092 46.4344 12.3056C46.7522 11.7023 47.2112 11.2409 47.7408 10.886C48.2704 10.5665 48.8355 10.389 49.5063 10.389C50.1771 10.389 50.5301 10.4956 50.7419 10.5665C51.0597 10.6729 51.3775 10.9214 51.766 11.2052C52.1898 11.5603 52.7194 11.7376 53.249 11.7376C53.8141 11.7376 54.3083 11.5247 54.7321 11.1699C55.1911 10.7794 55.4381 10.2117 55.4381 9.57277C55.4381 9.2533 55.3675 8.93383 55.2617 8.64996C55.1203 8.33049 54.8733 8.01102 54.5907 7.79812C53.8141 7.19478 53.037 6.73313 52.2604 6.44926C51.413 6.27172 50.4949 6.12979 49.4709 6.12979V6.12979ZM181.502 7.08821C181.926 7.08821 182.279 7.23014 182.526 7.47865C182.809 7.72715 182.95 8.08198 182.95 8.50778C182.95 8.89822 182.809 9.2533 182.526 9.50156C182.244 9.75031 181.926 9.85664 181.502 9.85664H175.182V12.9092H179.56C179.949 12.9092 180.302 13.0511 180.584 13.2994C180.867 13.5479 181.008 13.903 181.008 14.2932C181.008 14.6838 180.867 15.0387 180.584 15.2872C180.302 15.5357 179.949 15.6776 179.56 15.6776H175.182V18.8365H181.502C181.926 18.8365 182.244 18.9784 182.526 19.1913C182.809 19.4398 182.95 19.7949 182.95 20.1851C182.95 20.5755 182.809 20.9306 182.526 21.2145C182.244 21.463 181.891 21.6049 181.502 21.6049H173.734C173.346 21.6049 172.993 21.463 172.71 21.1789C172.428 20.895 172.286 20.5402 172.286 20.1497V8.54339C172.286 8.11759 172.428 7.76251 172.71 7.51425C172.992 7.23014 173.346 7.12381 173.734 7.12381L181.502 7.08821V7.08821ZM31.9629 7.08821C32.3514 7.08821 32.7044 7.23014 32.987 7.51425C33.2694 7.79812 33.4106 8.15295 33.4106 8.54339V20.1497C33.4106 20.5755 33.2694 20.9306 32.987 21.1789C32.7044 21.463 32.3514 21.6049 31.9629 21.6049C31.7512 21.6049 31.5745 21.5693 31.3627 21.4983C31.1155 21.3918 30.9389 21.2498 30.7977 21.0725L24.336 12.4831V20.1497C24.336 20.5402 24.1948 20.895 23.9124 21.1789C23.6298 21.463 23.2768 21.6049 22.8532 21.6049C22.4648 21.6049 22.1115 21.463 21.8291 21.1789C21.5467 20.895 21.4055 20.5402 21.4055 20.1497V8.54339C21.4055 8.11759 21.5467 7.76251 21.8291 7.51425C22.1115 7.23014 22.4648 7.08821 22.8532 7.08821C23.065 7.08821 23.2768 7.12381 23.4886 7.23014C23.6652 7.33671 23.8418 7.44304 23.983 7.58522L24.0185 7.62058L30.5153 16.21V8.50778C30.5153 8.08198 30.6565 7.72715 30.9389 7.47865C31.2213 7.23014 31.5745 7.08821 31.9629 7.08821V7.08821ZM38.0362 7.08821C38.4598 7.08821 38.813 7.23014 39.0954 7.51425C39.3781 7.79812 39.5193 8.15295 39.5193 8.54339V20.1497C39.5193 20.5402 39.3781 20.895 39.0954 21.1789C38.813 21.463 38.4598 21.6049 38.0362 21.6049C37.6478 21.6049 37.2948 21.463 37.0121 21.1789C36.7297 20.895 36.5885 20.5402 36.5885 20.1497V8.54339C36.5885 8.11759 36.7297 7.76251 37.0121 7.51425C37.2948 7.23014 37.6478 7.08821 38.0362 7.08821ZM66.5089 7.08821C67.0033 7.08821 67.3209 7.30111 67.4975 7.47865C67.7093 7.72715 67.8505 8.04662 67.8505 8.36585C67.8505 8.79189 67.6741 9.21769 67.3563 9.53717L63.2957 13.6188L67.4975 19.2979C67.6741 19.5461 67.7799 19.8659 67.7799 20.1851C67.7799 20.5402 67.6741 20.8594 67.4269 21.1435C67.1797 21.463 66.8267 21.6049 66.4383 21.6049C65.9441 21.6049 65.5202 21.3918 65.2376 20.966L61.2831 15.642L60.6828 16.2453V20.1497C60.6828 20.5402 60.5416 20.895 60.259 21.1789C59.9766 21.463 59.6236 21.6049 59.2352 21.6049C58.8468 21.6049 58.4938 21.463 58.2111 21.1789C57.9285 20.895 57.7873 20.5402 57.7873 20.1497V8.54339C57.7873 8.15295 57.9285 7.79812 58.2111 7.51425C58.4935 7.23014 58.8468 7.08821 59.2352 7.08821C59.6236 7.08821 59.9766 7.23014 60.259 7.51425C60.5416 7.79812 60.6828 8.15295 60.6828 8.54339V12.3412L65.4142 7.62058C65.5908 7.44304 65.7675 7.30111 65.9441 7.23014C66.0853 7.12381 66.2971 7.08821 66.5089 7.08821V7.08821ZM160.974 7.08821C161.362 7.08821 161.715 7.23014 161.998 7.51425C162.281 7.79812 162.422 8.15295 162.422 8.54339V18.6943H168.071C168.46 18.6943 168.813 18.8365 169.095 19.1203C169.378 19.4042 169.519 19.7593 169.519 20.1497C169.519 20.5402 169.378 20.895 169.095 21.1789C168.813 21.463 168.46 21.6049 168.071 21.6049H160.939C160.55 21.6049 160.162 21.463 159.915 21.1789C159.632 20.895 159.491 20.5402 159.491 20.1497V8.54339C159.491 8.15295 159.632 7.79812 159.915 7.51425C160.233 7.23014 160.586 7.08821 160.974 7.08821ZM79.9099 7.08821C80.3337 7.08821 80.6867 7.23014 80.934 7.47865C81.2164 7.72715 81.3576 8.08198 81.3576 8.50778C81.3576 8.89822 81.2164 9.2533 80.934 9.50156C80.6516 9.75031 80.3337 9.85664 79.9099 9.85664H73.5897V12.9092H77.9681C78.3565 12.9092 78.7095 13.0511 78.9919 13.2994C79.2743 13.5479 79.4157 13.903 79.4157 14.2932C79.4157 14.6838 79.2743 15.0387 78.9919 15.2872C78.7095 15.5357 78.3565 15.6776 77.9681 15.6776H73.5897V18.8365H79.9099C80.2983 18.8365 80.6516 18.9784 80.934 19.1913C81.2164 19.4398 81.3576 19.7949 81.3576 20.1851C81.3576 20.5755 81.2164 20.9306 80.934 21.2145C80.6867 21.463 80.2983 21.6049 79.9099 21.6049H72.1418C71.7534 21.6049 71.4004 21.463 71.118 21.1789C70.8356 20.895 70.6941 20.5402 70.6941 20.1497V8.54339C70.6941 8.11759 70.8356 7.76251 71.118 7.51425C71.4004 7.23014 71.7534 7.12381 72.1418 7.12381L79.9099 7.08821V7.08821ZM87.0967 13.6898H88.7208C89.3564 13.6898 89.886 13.5125 90.2744 13.1574C90.6629 12.8382 90.8395 12.4122 90.8395 11.8798C90.8395 11.2765 90.6629 10.8151 90.2744 10.4246C89.886 10.0342 89.3564 9.85664 88.7208 9.85664H87.0967V13.6898ZM88.7562 7.08821C89.7096 7.08821 90.5568 7.30111 91.2985 7.69155C92.0753 8.08198 92.6755 8.68532 93.0991 9.39523C93.523 10.1051 93.7348 10.957 93.7348 11.8798C93.7348 12.8026 93.4876 13.6188 93.0285 14.3641C92.6755 14.8967 92.2165 15.3581 91.6515 15.6776L93.9818 19.4042C94.1584 19.6883 94.229 19.9722 94.229 20.2561C94.229 20.6465 94.0878 20.966 93.8406 21.2145C93.6642 21.3918 93.3464 21.6049 92.8167 21.6049C92.2871 21.6049 91.8635 21.3564 91.5809 20.9306L88.7914 16.4582H87.1673V20.1497C87.1673 20.5402 87.0259 20.895 86.7435 21.1789C86.4609 21.463 86.1079 21.6049 85.6843 21.6049C85.2958 21.6049 84.9428 21.463 84.6602 21.1789C84.3778 20.895 84.2366 20.5402 84.2366 20.1497V8.54339C84.2366 8.11759 84.3778 7.76251 84.6602 7.51425C84.9426 7.23014 85.2958 7.12381 85.6843 7.12381L88.7562 7.08821V7.08821ZM147.915 18.9074H149.575C150.422 18.9074 151.199 18.7299 151.834 18.3395C152.505 17.949 153 17.4167 153.388 16.7424C153.777 16.0324 153.953 15.2516 153.953 14.3641C153.953 13.4769 153.777 12.696 153.388 11.9861C153 11.3118 152.505 10.7794 151.834 10.389C151.164 9.99857 150.422 9.82128 149.575 9.82128H147.915V18.9074V18.9074ZM149.575 7.08821C150.952 7.08821 152.223 7.40768 153.318 8.01102C154.412 8.64996 155.295 9.50156 155.895 10.6019C156.495 11.7023 156.813 12.9445 156.813 14.3288C156.813 15.713 156.495 16.9553 155.895 18.0556C155.295 19.1557 154.412 20.0432 153.318 20.6465C152.223 21.2498 150.987 21.5693 149.575 21.5693H146.467C146.079 21.5693 145.726 21.4274 145.443 21.1435C145.161 20.8596 145.02 20.5046 145.02 20.1141V8.50803C145.02 8.08198 145.161 7.72715 145.443 7.47865C145.726 7.19478 146.079 7.08821 146.467 7.08821H149.575ZM13.1949 6.94627C14.2893 6.94627 15.2076 7.15917 15.9842 7.62058C16.7256 8.08198 17.3615 8.72093 17.8911 9.50156C18.1029 9.82128 18.1735 10.1051 18.1735 10.4246C18.1735 10.8504 17.9617 11.2409 17.5733 11.4894C17.3261 11.6313 17.0788 11.7023 16.7962 11.7023C16.5138 11.7023 16.2666 11.6313 16.0196 11.4894C15.7724 11.3474 15.5958 11.1699 15.4546 10.9214C15.2074 10.4956 14.8898 10.1761 14.5014 9.96321C14.1127 9.75031 13.6185 9.64374 13.0183 9.64374C12.2414 9.64374 11.6412 9.78567 11.2174 10.0695C10.829 10.318 10.6878 10.6019 10.6878 11.0633C10.6878 11.4894 10.8644 11.8442 11.2174 12.1283C11.4998 12.3412 12.1003 12.6607 13.4773 12.8026C14.9604 12.9445 16.1608 13.4059 17.0082 14.1868C17.8909 15.0033 18.3147 16.0324 18.3147 17.3457C18.3147 18.3041 18.0675 19.1203 17.5379 19.7947C17.0437 20.4692 16.3372 20.966 15.5252 21.2854C14.7132 21.6049 13.8657 21.7468 12.9477 21.7468C11.747 21.7468 10.6172 21.463 9.62854 20.9306C8.60449 20.3626 7.89849 19.6171 7.51007 18.6943C7.43948 18.4814 7.36888 18.3041 7.36888 18.1266C7.36888 17.8071 7.47465 17.5232 7.72187 17.2747C7.93367 17.0616 8.18089 16.9196 8.49871 16.8487C8.56931 16.8133 8.67509 16.8133 8.81629 16.8133C9.09893 16.8133 9.38132 16.8843 9.66396 17.0616C9.91094 17.2394 10.123 17.4523 10.2288 17.7361C10.37 18.0556 10.6878 18.3395 11.1822 18.588C11.7118 18.8718 12.312 18.9784 12.9477 18.9784C13.6891 18.9784 14.3247 18.8009 14.8192 18.4814C15.2428 18.1975 15.4546 17.8071 15.4546 17.3457C15.4546 16.8487 15.278 16.4582 14.8898 16.1034C14.4659 15.713 13.8303 15.5001 12.9123 15.3935C11.394 15.2516 10.1582 14.7902 9.24012 14.0093C8.28667 13.193 7.82765 12.1993 7.82765 10.9923C7.82765 10.1405 8.07487 9.39523 8.56931 8.75629C9.0635 8.15295 9.69914 7.69155 10.5112 7.37207C11.3586 7.08821 12.2414 6.94627 13.1949 6.94627V6.94627ZM49.4709 6.91067C50.3889 6.91067 51.2363 7.0526 51.9074 7.30111C52.6134 7.54961 53.3196 7.97541 53.9907 8.50778C54.2025 8.64996 54.3437 8.82726 54.4143 9.04016C54.4849 9.21769 54.5203 9.43059 54.5203 9.64374C54.5203 10.0342 54.3789 10.389 54.0965 10.6375C53.8141 10.886 53.4963 10.9923 53.143 10.9923C52.79 10.9923 52.4722 10.886 52.1898 10.6375C51.766 10.2827 51.3424 9.99857 50.9539 9.85664C50.5655 9.7147 50.0711 9.64374 49.4357 9.64374C48.6589 9.64374 47.9172 9.85664 47.2818 10.2471C46.611 10.6729 46.0811 11.2409 45.6927 11.9508C45.3043 12.6607 45.0925 13.4769 45.0925 14.3288C45.0925 15.1806 45.3043 15.9968 45.6927 16.7067C46.0811 17.4167 46.611 17.9846 47.2818 18.4104C47.9526 18.8365 48.6589 19.0138 49.4357 19.0138C50.4243 19.0138 51.3424 18.6943 52.2604 17.9846C52.5782 17.7717 52.8606 17.6652 53.1784 17.6652C53.5669 17.6652 53.8847 17.8071 54.1319 18.091C54.3789 18.3395 54.4849 18.6943 54.4849 19.0847C54.4849 19.4752 54.3437 19.8303 54.0613 20.1141L54.0259 20.1497L53.9907 20.1851C52.6488 21.2498 51.1303 21.8178 49.4357 21.8178C48.0938 21.8178 46.8934 21.4983 45.7987 20.824C44.7041 20.1851 43.8215 19.2623 43.1858 18.1266C42.5502 16.9906 42.2324 15.7486 42.2324 14.3641C42.2324 13.0155 42.5502 11.7732 43.1858 10.6375C43.8215 9.50156 44.7041 8.61436 45.7987 7.94005C46.8934 7.26575 48.1292 6.91067 49.4709 6.91067V6.91067Z" fill="#232039"/>
<path fill-rule="evenodd" clip-rule="evenodd" d="M121.836 16.3519C121.518 16.9552 121.095 17.3812 120.53 17.7361C119.965 18.0555 119.329 18.1975 118.588 18.1975C117.882 18.1975 117.211 18.0199 116.645 17.7005C116.081 17.3456 115.657 16.9198 115.339 16.3162C115.021 15.7129 114.845 15.0386 114.845 14.2933C114.845 13.5478 115.021 12.8735 115.339 12.2702C115.657 11.7022 116.081 11.2408 116.645 10.9213C117.211 10.6018 117.846 10.4246 118.588 10.4246C119.329 10.4246 119.965 10.6018 120.53 10.9213C121.095 11.2408 121.518 11.7022 121.836 12.3058C122.154 12.9091 122.33 13.5834 122.33 14.3287C122.33 15.0742 122.154 15.7485 121.836 16.3519ZM120.918 10.247C120.247 9.85658 119.435 9.64368 118.552 9.64368C117.669 9.64368 116.893 9.85658 116.187 10.247C115.516 10.6375 114.951 11.2052 114.562 11.9153C114.174 12.625 113.962 13.4412 113.962 14.3287C113.962 15.2161 114.174 16.0324 114.562 16.7423C114.951 17.4522 115.48 18.0199 116.187 18.4104C116.963 18.8008 117.74 19.014 118.588 19.014C119.47 19.014 120.247 18.8008 120.918 18.4104C121.624 17.9846 122.154 17.4522 122.542 16.7423C122.931 16.0324 123.143 15.2161 123.143 14.3287C123.143 13.4412 122.931 12.625 122.542 11.9153C122.154 11.2052 121.624 10.6375 120.918 10.247" fill="#232039"/>
<path fill-rule="evenodd" clip-rule="evenodd" d="M125.049 18.1621C124.413 19.2978 123.531 20.185 122.401 20.824C121.306 21.4629 120 21.7824 118.587 21.7824C117.175 21.7824 115.869 21.4629 114.774 20.824C113.644 20.185 112.761 19.2978 112.126 18.1621C111.525 17.0262 111.208 15.7485 111.208 14.3287C111.208 12.9089 111.525 11.6312 112.126 10.4955C112.761 9.3598 113.644 8.47235 114.774 7.83341C115.904 7.19471 117.175 6.87524 118.587 6.87524C120 6.87524 121.271 7.19471 122.401 7.83341C123.531 8.47235 124.413 9.3598 125.049 10.4955C125.685 11.6312 126.002 12.9089 126.002 14.3287C126.002 15.7485 125.685 17.0262 125.049 18.1621ZM125.724 10.0941C125.022 8.83914 124.047 7.85877 122.798 7.15301C121.55 6.44724 120.146 6.09436 118.586 6.09436C117.025 6.09436 115.621 6.44724 114.373 7.15301C113.124 7.85877 112.149 8.83914 111.447 10.0941C110.784 11.3488 110.433 12.7603 110.433 14.3287C110.433 15.8973 110.784 17.3088 111.447 18.5635C112.149 19.8185 113.124 20.7988 114.373 21.5046C115.582 22.2104 117.025 22.5633 118.586 22.5633C120.146 22.5633 121.589 22.2104 122.798 21.5046C124.047 20.7988 125.022 19.8185 125.724 18.5635C126.426 17.3088 126.777 15.8973 126.777 14.3287C126.777 12.7603 126.426 11.3488 125.724 10.0941" fill="#232039"/>
<path fill-rule="evenodd" clip-rule="evenodd" d="M138.013 16.3519C137.695 16.9552 137.271 17.3812 136.706 17.7361C136.142 18.0555 135.506 18.1975 134.764 18.1975C134.058 18.1975 133.387 18.0199 132.822 17.7005C132.257 17.3456 131.834 16.9198 131.516 16.3162C131.198 15.7129 131.022 15.0386 131.022 14.2933C131.022 13.5478 131.198 12.8735 131.516 12.2702C131.834 11.7022 132.257 11.2408 132.822 10.9213C133.387 10.6018 134.023 10.4246 134.764 10.4246C135.506 10.4246 136.142 10.6018 136.706 10.9213C137.271 11.2408 137.695 11.7022 138.013 12.3058C138.331 12.9091 138.507 13.5834 138.507 14.3287C138.507 15.0742 138.331 15.7485 138.013 16.3519ZM137.095 10.247C136.424 9.85658 135.612 9.64368 134.729 9.64368C133.846 9.64368 133.07 9.85658 132.363 10.247C131.692 10.6375 131.128 11.2052 130.739 11.9153C130.351 12.625 130.139 13.4412 130.139 14.3287C130.139 15.2161 130.35 16.0324 130.739 16.7423C131.128 17.4522 131.657 18.0199 132.363 18.4104C133.14 18.8008 133.917 19.014 134.764 19.014C135.647 19.014 136.424 18.8008 137.095 18.4104C137.801 17.9846 138.331 17.4522 138.719 16.7423C139.107 16.0324 139.319 15.2161 139.319 14.3287C139.319 13.4412 139.107 12.625 138.719 11.9153C138.331 11.2052 137.801 10.6375 137.095 10.247" fill="#232039"/>
<path fill-rule="evenodd" clip-rule="evenodd" d="M141.227 18.1621C140.591 19.2978 139.708 20.185 138.578 20.824C137.484 21.4629 136.177 21.7824 134.765 21.7824C133.352 21.7824 132.046 21.4629 130.952 20.824C129.822 20.185 128.939 19.2978 128.303 18.1621C127.703 17.0262 127.385 15.7485 127.385 14.3287C127.385 12.9089 127.703 11.6312 128.303 10.4955C128.939 9.3598 129.822 8.47235 130.952 7.83341C132.081 7.19471 133.352 6.87524 134.765 6.87524C136.177 6.87524 137.448 7.19471 138.578 7.83341C139.708 8.47235 140.591 9.3598 141.227 10.4955C141.862 11.6312 142.18 12.9089 142.18 14.3287C142.18 15.7485 141.862 17.0262 141.227 18.1621ZM141.902 10.0941C141.2 8.83914 140.224 7.85877 138.976 7.15301C137.728 6.44724 136.323 6.09436 134.763 6.09436C133.203 6.09436 131.799 6.44724 130.55 7.15301C129.302 7.85877 128.327 8.83914 127.625 10.0941C126.961 11.3488 126.61 12.7603 126.61 14.3287C126.61 15.8973 126.961 17.3088 127.625 18.5635C128.327 19.8185 129.302 20.7988 130.55 21.5046C131.759 22.2104 133.203 22.5633 134.763 22.5633C136.323 22.5633 137.767 22.2104 138.976 21.5046C140.224 20.7988 141.2 19.8185 141.902 18.5635C142.604 17.3088 142.955 15.8973 142.955 14.3287C142.955 12.7603 142.604 11.3488 141.902 10.0941" fill="#232039"/>
<path d="M22.1348 60H19.0391L19.0586 57.7148H22.1348C22.903 57.7148 23.5508 57.5423 24.0781 57.1973C24.6055 56.8457 25.0026 56.3346 25.2695 55.6641C25.543 54.9935 25.6797 54.1829 25.6797 53.2324V52.5391C25.6797 51.8099 25.6016 51.1686 25.4453 50.6152C25.2956 50.0618 25.071 49.5964 24.7715 49.2188C24.472 48.8411 24.1042 48.5579 23.668 48.3691C23.2318 48.1738 22.7305 48.0762 22.1641 48.0762H18.9805V45.7812H22.1641C23.1146 45.7812 23.9837 45.944 24.7715 46.2695C25.5658 46.5885 26.2526 47.0475 26.832 47.6465C27.4115 48.2454 27.8574 48.9616 28.1699 49.7949C28.4889 50.6217 28.6484 51.543 28.6484 52.5586V53.2324C28.6484 54.2415 28.4889 55.1628 28.1699 55.9961C27.8574 56.8294 27.4115 57.5456 26.832 58.1445C26.2591 58.737 25.5723 59.196 24.7715 59.5215C23.9772 59.8405 23.0983 60 22.1348 60ZM20.6992 45.7812V60H17.7695V45.7812H20.6992ZM38.3438 48.2129L34.4766 60H31.3613L36.6445 45.7812H38.627L38.3438 48.2129ZM41.5566 60L37.6797 48.2129L37.3672 45.7812H39.3691L44.6816 60H41.5566ZM41.3809 54.707V57.002H33.8711V54.707H41.3809ZM53.1465 45.7812V60H50.2266V45.7812H53.1465ZM57.5215 45.7812V48.0762H45.9199V45.7812H57.5215ZM65.918 48.2129L62.0508 60H58.9355L64.2188 45.7812H66.2012L65.918 48.2129ZM69.1309 60L65.2539 48.2129L64.9414 45.7812H66.9434L72.2559 60H69.1309ZM68.9551 54.707V57.002H61.4453V54.707H68.9551ZM92.9629 57.7441L95.7949 45.7812H97.377L97.7383 47.7734L94.7207 60H93.0215L92.9629 57.7441ZM91.5078 45.7812L93.8516 57.7441L93.6562 60H91.7617L88.6074 45.7812H91.5078ZM100.229 57.6953L102.543 45.7812H105.443L102.299 60H100.404L100.229 57.6953ZM98.2656 45.7812L101.117 57.793L101.039 60H99.3398L96.3027 47.7637L96.6934 45.7812H98.2656ZM114.387 48.2129L110.52 60H107.404L112.688 45.7812H114.67L114.387 48.2129ZM117.6 60L113.723 48.2129L113.41 45.7812H115.412L120.725 60H117.6ZM117.424 54.707V57.002H109.914V54.707H117.424ZM133.184 57.7148V60H126.025V57.7148H133.184ZM126.973 45.7812V60H124.043V45.7812H126.973ZM146.004 57.7148V60H138.846V57.7148H146.004ZM139.793 45.7812V60H136.863V45.7812H139.793ZM159.225 57.7148V60H151.656V57.7148H159.225ZM152.613 45.7812V60H149.684V45.7812H152.613ZM158.238 51.5723V53.7988H151.656V51.5723H158.238ZM159.215 45.7812V48.0762H151.656V45.7812H159.215ZM169.486 45.7812V60H166.566V45.7812H169.486ZM173.861 45.7812V48.0762H162.26V45.7812H173.861Z" fill="#616161"/>
<defs>
<filter id="filter0_d_14642_169337" x="0" y="0" width="192" height="33" filterUnits="userSpaceOnUse" color-interpolation-filters="sRGB">
<feFlood flood-opacity="0" result="BackgroundImageFix"/>
<feColorMatrix in="SourceAlpha" type="matrix" values="0 0 0 0 0 0 0 0 0 0 0 0 0 0 0 0 0 0 127 0" result="hardAlpha"/>
<feOffset dx="0.5" dy="1"/>
<feGaussianBlur stdDeviation="1"/>
<feColorMatrix type="matrix" values="0 0 0 0 0 0 0 0 0 0 0 0 0 0 0 0 0 0 0.342492 0"/>
<feBlend mode="normal" in2="BackgroundImageFix" result="effect1_dropShadow_14642_169337"/>
<feBlend mode="normal" in="SourceGraphic" in2="effect1_dropShadow_14642_169337" result="shape"/>
</filter>
</defs>
</svg>
