<svg width="192" height="65" viewBox="0 0 192 65" fill="none" xmlns="http://www.w3.org/2000/svg">
    <g filter="url(#filter0_d_14031_150322)">
    <path fill-rule="evenodd" clip-rule="evenodd" d="M135.097 30C132.683 30 130.437 29.4279 128.423 28.2997C127.895 28.0107 127.388 27.6822 126.907 27.3169C126.42 27.6842 125.904 28.0178 125.36 28.3153C123.372 29.4293 121.128 30 118.714 30C116.299 30 114.054 29.4279 112.039 28.3C111.28 27.8844 110.571 27.3918 109.918 26.827C109.367 27.2762 108.774 27.6796 108.144 28.0349C106.217 29.1464 103.978 29.7161 101.51 29.7161H98.4031C97.4652 29.7161 96.5472 29.5379 95.6886 29.1938C94.7824 29.5844 93.7984 29.7869 92.7811 29.7869C91.4793 29.7869 90.2454 29.464 89.1658 28.8553C88.0975 29.441 86.8969 29.7515 85.6486 29.7515C84.6581 29.7515 83.6942 29.5552 82.7997 29.1764C81.8986 29.5552 80.9209 29.7515 79.9095 29.7515H72.1416C71.1064 29.7515 70.1051 29.5398 69.1815 29.1311C68.2916 29.5166 67.328 29.7161 66.3321 29.7161C65.0545 29.7161 63.8385 29.3998 62.7667 28.8031C61.6613 29.4452 60.4034 29.7869 59.0936 29.7869C57.6961 29.7869 56.3356 29.384 55.1562 28.6343C53.3857 29.4852 51.462 29.9288 49.5059 29.9288C47.1162 29.9288 44.8788 29.3225 42.8562 28.1263C42.8562 28.1263 42.771 28.0749 42.7521 28.0632C41.4345 29.1574 39.7981 29.7515 38.0712 29.7515C37.0005 29.7515 35.9699 29.5269 35.0238 29.0928C34.0788 29.5269 33.0436 29.7515 31.9628 29.7515C31.02 29.7515 30.1434 29.5935 29.2826 29.2686L29.1851 29.2308C28.5352 28.9694 27.9393 28.6238 27.4029 28.1975C26.1161 29.2055 24.5438 29.7515 22.8879 29.7515C21.4148 29.7515 20.015 29.3264 18.8303 28.5351C18.5117 28.707 18.1825 28.8655 17.8431 29.0096L17.7546 29.0465C16.3773 29.6003 14.9488 29.8825 13.1224 29.9615C12.9109 29.9705 12.7029 29.9749 12.4967 29.9749C8.5235 29.9749 5.12842 28.2678 3.18196 25.2913C1.33643 22.4695 0.998962 18.8609 2.22244 15.2911C1.9039 13.4301 1.46502 8.83511 3.9867 5.24215C5.33343 3.32312 8.01548 1.03536 13.1442 1.03536L13.2022 1.03561C15.1118 1.04219 17.0381 1.4675 18.6301 2.23277L18.8558 2.34081L18.9497 2.39763C20.1258 1.67187 21.491 1.28411 22.9234 1.28411C24.4838 1.28411 25.6784 1.81746 26.0707 1.99305L26.1816 2.04231L26.2925 2.09815C26.7064 2.30642 27.0628 2.53225 27.3677 2.75514C28.6715 1.75454 30.2703 1.2129 31.9628 1.2129C33.0183 1.2129 34.0458 1.42678 34.9978 1.83916C35.9435 1.42678 36.9717 1.2129 38.0358 1.2129C39.7952 1.2129 41.4476 1.78527 42.7737 2.83952C44.8618 1.6426 47.1152 1.03561 49.4707 1.03561C51.0933 1.03561 52.4579 1.28192 53.3435 1.46701L53.7188 1.54603L54.0766 1.67674C54.5114 1.83575 54.9386 2.02085 55.3632 2.23423C56.4957 1.56188 57.7832 1.2129 59.1642 1.2129C60.4808 1.2129 61.7409 1.54091 62.8494 2.15741C63.002 2.07352 63.157 1.99548 63.314 1.92354C64.3031 1.45189 65.3776 1.2129 66.5084 1.2129C67.4932 1.2129 68.4457 1.39678 69.3242 1.75161C70.2121 1.39678 71.1658 1.2129 72.1416 1.2129H79.9095C80.9068 1.2129 81.885 1.40141 82.7977 1.76478C83.6949 1.40141 84.6602 1.2129 85.6486 1.2129H88.7557C90.7104 1.2129 92.4597 1.63065 94.1033 2.48981L94.1169 2.49713C95.3608 1.64041 96.8422 1.17973 98.4031 1.17973H101.581C103.991 1.17973 106.316 1.77039 108.305 2.88781L108.399 2.94171C108.941 3.2624 109.454 3.61382 109.935 3.9945C110.505 3.53017 111.116 3.11266 111.767 2.74466C113.814 1.58724 116.109 1 118.586 1C121.063 1 123.357 1.58724 125.404 2.7449C125.845 2.99414 126.269 3.26679 126.674 3.56163C127.08 3.26679 127.503 2.99414 127.944 2.7449C129.992 1.58724 132.286 1 134.763 1C137.24 1 139.534 1.58724 141.582 2.7449C141.64 2.77782 141.698 2.81148 141.757 2.84562C143.081 1.78722 144.725 1.2129 146.467 1.2129H149.574C152.049 1.2129 154.287 1.77429 156.231 2.88147C157.588 1.80234 159.252 1.2129 160.974 1.2129C163.111 1.2129 165.048 2.06182 166.433 3.60406C166.769 3.9606 167.067 4.34421 167.325 4.74928C167.625 4.27203 167.98 3.82525 168.387 3.41652C169.8 1.99548 171.699 1.2129 173.734 1.2129H181.502C185.176 1.2129 188.154 3.58626 189.089 7.25897C189.724 9.75329 189.378 13.0126 187.374 15.3106C187.388 15.5289 187.395 15.7481 187.393 15.9654C189.042 17.7852 189.836 20.6078 189.366 23.3367C188.695 27.2335 185.608 29.7515 181.502 29.7515H173.734C172.774 29.7515 171.837 29.5659 170.964 29.2074C170.067 29.5891 169.099 29.7869 168.106 29.7869H160.974C159.211 29.7869 157.542 29.1677 156.213 28.0317L156.208 28.0346C154.281 29.1464 152.042 29.7161 149.574 29.7161H146.467C144.823 29.7161 143.26 29.1774 141.979 28.1832C141.901 28.228 141.823 28.2722 141.744 28.3153C139.755 29.4293 137.512 30 135.097 30Z" fill="black"/>
    </g>
    <path fill-rule="evenodd" clip-rule="evenodd" d="M135.097 30C132.683 30 130.437 29.4279 128.423 28.2997C127.895 28.0107 127.388 27.6822 126.907 27.3169C126.42 27.6842 125.904 28.0178 125.36 28.3153C123.372 29.4293 121.128 30 118.714 30C116.299 30 114.054 29.4279 112.039 28.3C111.28 27.8844 110.571 27.3918 109.918 26.827C109.367 27.2762 108.774 27.6796 108.144 28.0349C106.217 29.1464 103.978 29.7161 101.51 29.7161H98.4031C97.4652 29.7161 96.5472 29.5379 95.6886 29.1938C94.7824 29.5844 93.7984 29.7869 92.7811 29.7869C91.4793 29.7869 90.2454 29.464 89.1658 28.8553C88.0975 29.441 86.8969 29.7515 85.6486 29.7515C84.6581 29.7515 83.6942 29.5552 82.7997 29.1764C81.8986 29.5552 80.9209 29.7515 79.9095 29.7515H72.1416C71.1064 29.7515 70.1051 29.5398 69.1815 29.1311C68.2916 29.5166 67.328 29.7161 66.3321 29.7161C65.0545 29.7161 63.8385 29.3998 62.7667 28.8031C61.6613 29.4452 60.4034 29.7869 59.0936 29.7869C57.6961 29.7869 56.3356 29.384 55.1562 28.6343C53.3857 29.4852 51.462 29.9288 49.5059 29.9288C47.1162 29.9288 44.8788 29.3225 42.8562 28.1263C42.8562 28.1263 42.771 28.0749 42.7521 28.0632C41.4345 29.1574 39.7981 29.7515 38.0712 29.7515C37.0005 29.7515 35.9699 29.5269 35.0238 29.0928C34.0788 29.5269 33.0436 29.7515 31.9628 29.7515C31.02 29.7515 30.1434 29.5935 29.2826 29.2686L29.1851 29.2308C28.5352 28.9694 27.9393 28.6238 27.4029 28.1975C26.1161 29.2055 24.5438 29.7515 22.8879 29.7515C21.4148 29.7515 20.015 29.3264 18.8303 28.5351C18.5117 28.707 18.1825 28.8655 17.8431 29.0096L17.7546 29.0465C16.3773 29.6003 14.9488 29.8825 13.1224 29.9615C12.9109 29.9705 12.7029 29.9749 12.4967 29.9749C8.5235 29.9749 5.12842 28.2678 3.18196 25.2913C1.33643 22.4695 0.998962 18.8609 2.22244 15.2911C1.9039 13.4301 1.46502 8.83511 3.9867 5.24215C5.33343 3.32312 8.01548 1.03536 13.1442 1.03536L13.2022 1.03561C15.1118 1.04219 17.0381 1.4675 18.6301 2.23277L18.8558 2.34081L18.9497 2.39763C20.1258 1.67187 21.491 1.28411 22.9234 1.28411C24.4838 1.28411 25.6784 1.81746 26.0707 1.99305L26.1816 2.04231L26.2925 2.09815C26.7064 2.30642 27.0628 2.53225 27.3677 2.75514C28.6715 1.75454 30.2703 1.2129 31.9628 1.2129C33.0183 1.2129 34.0458 1.42678 34.9978 1.83916C35.9435 1.42678 36.9717 1.2129 38.0358 1.2129C39.7952 1.2129 41.4476 1.78527 42.7737 2.83952C44.8618 1.6426 47.1152 1.03561 49.4707 1.03561C51.0933 1.03561 52.4579 1.28192 53.3435 1.46701L53.7188 1.54603L54.0766 1.67674C54.5114 1.83575 54.9386 2.02085 55.3632 2.23423C56.4957 1.56188 57.7832 1.2129 59.1642 1.2129C60.4808 1.2129 61.7409 1.54091 62.8494 2.15741C63.002 2.07352 63.157 1.99548 63.314 1.92354C64.3031 1.45189 65.3776 1.2129 66.5084 1.2129C67.4932 1.2129 68.4457 1.39678 69.3242 1.75161C70.2121 1.39678 71.1658 1.2129 72.1416 1.2129H79.9095C80.9068 1.2129 81.885 1.40141 82.7977 1.76478C83.6949 1.40141 84.6602 1.2129 85.6486 1.2129H88.7557C90.7104 1.2129 92.4597 1.63065 94.1033 2.48981L94.1169 2.49713C95.3608 1.64041 96.8422 1.17973 98.4031 1.17973H101.581C103.991 1.17973 106.316 1.77039 108.305 2.88781L108.399 2.94171C108.941 3.2624 109.454 3.61382 109.935 3.9945C110.505 3.53017 111.116 3.11266 111.767 2.74466C113.814 1.58724 116.109 1 118.586 1C121.063 1 123.357 1.58724 125.404 2.7449C125.845 2.99414 126.269 3.26679 126.674 3.56163C127.08 3.26679 127.503 2.99414 127.944 2.7449C129.992 1.58724 132.286 1 134.763 1C137.24 1 139.534 1.58724 141.582 2.7449C141.64 2.77782 141.698 2.81148 141.757 2.84562C143.081 1.78722 144.725 1.2129 146.467 1.2129H149.574C152.049 1.2129 154.287 1.77429 156.231 2.88147C157.588 1.80234 159.252 1.2129 160.974 1.2129C163.111 1.2129 165.048 2.06182 166.433 3.60406C166.769 3.9606 167.067 4.34421 167.325 4.74928C167.625 4.27203 167.98 3.82525 168.387 3.41652C169.8 1.99548 171.699 1.2129 173.734 1.2129H181.502C185.176 1.2129 188.154 3.58626 189.089 7.25897C189.724 9.75329 189.378 13.0126 187.374 15.3106C187.388 15.5289 187.395 15.7481 187.393 15.9654C189.042 17.7852 189.836 20.6078 189.366 23.3367C188.695 27.2335 185.608 29.7515 181.502 29.7515H173.734C172.774 29.7515 171.837 29.5659 170.964 29.2074C170.067 29.5891 169.099 29.7869 168.106 29.7869H160.974C159.211 29.7869 157.542 29.1677 156.213 28.0317L156.208 28.0346C154.281 29.1464 152.042 29.7161 149.574 29.7161H146.467C144.823 29.7161 143.26 29.1774 141.979 28.1832C141.901 28.228 141.823 28.2722 141.744 28.3153C139.755 29.4293 137.512 30 135.097 30Z" fill="white"/>
    <path fill-rule="evenodd" clip-rule="evenodd" d="M184.876 16.9751C185.039 16.0908 184.967 15.1238 184.798 14.4029C186.786 12.9005 187.3 10.0713 186.738 7.86353C186.077 5.26556 184.07 3.65162 181.501 3.65162H173.733C172.347 3.65162 171.057 4.18058 170.102 5.14095C169.124 6.12424 168.585 7.43334 168.585 8.82731V15.3187C168.414 15.3019 168.242 15.2933 168.07 15.2933H166.087V8.82731C166.087 7.49821 165.577 6.23203 164.651 5.25971C163.731 4.22252 162.426 3.65162 160.973 3.65162C159.671 3.65162 158.414 4.14961 157.432 5.05413L157.399 5.08437L157.342 5.14095C157.055 5.42896 156.807 5.74282 156.598 6.08058C156.156 5.71648 155.678 5.38262 155.17 5.08193C153.565 4.13278 151.682 3.65162 149.574 3.65162H146.467C145.08 3.65162 143.791 4.18058 142.835 5.14119C142.552 5.42603 142.306 5.73721 142.099 6.07205C141.572 5.61723 141.001 5.21484 140.392 4.87025C138.712 3.92037 136.818 3.43872 134.762 3.43872C132.707 3.43872 130.813 3.92037 129.133 4.87049C128.211 5.39189 127.387 6.03303 126.674 6.78318C125.961 6.03303 125.137 5.39189 124.214 4.87025C122.534 3.92037 120.64 3.43872 118.585 3.43872C116.53 3.43872 114.636 3.92037 112.956 4.87025C111.792 5.52846 110.789 6.3742 109.963 7.39237C109.196 6.47614 108.261 5.68966 107.168 5.04364L107.121 5.01657C105.492 4.10181 103.577 3.61821 101.58 3.61821H98.4026C97.0166 3.61821 95.7266 4.14717 94.771 5.10778C94.6259 5.25361 94.4898 5.40798 94.3632 5.57065C93.9488 5.23288 93.4983 4.9317 93.0147 4.67003L92.9834 4.65345C91.6937 3.97914 90.3106 3.65162 88.7555 3.65162H85.6481C84.6268 3.65162 83.6405 3.94841 82.8096 4.49737C81.9532 3.94841 80.9449 3.65162 79.9092 3.65162H72.1411C71.1233 3.65162 70.141 3.94622 69.312 4.49151C68.5121 3.94622 67.5395 3.65162 66.5079 3.65162C65.7338 3.65162 65.0033 3.81404 64.3373 4.13449C63.8023 4.37714 63.297 4.73051 62.836 5.1824C62.8227 5.1685 62.8091 5.15485 62.7955 5.14119C61.8399 4.18058 60.5502 3.65162 59.1637 3.65162C57.7803 3.65162 56.5367 4.16668 55.5674 5.14095C55.5602 5.14826 55.5531 5.15533 55.5461 5.16265C54.7741 4.64296 54.0167 4.24984 53.2469 3.96865L53.0523 3.89744L52.8488 3.85452C52.0683 3.69137 50.8691 3.47433 49.4702 3.47433C47.5378 3.47433 45.6891 3.97304 43.9644 4.96414L43.8916 5.00779C43.3775 5.32678 42.8913 5.68356 42.4374 6.07424C42.2324 5.73916 41.9871 5.42725 41.7025 5.14095C40.7469 4.18058 39.4446 3.65162 38.0355 3.65162C36.9243 3.65162 35.8724 3.99377 35.0055 4.62638C34.1079 3.98646 33.0683 3.65162 31.9623 3.65162C30.5757 3.65162 29.286 4.18058 28.3304 5.14119C27.9747 5.4987 27.6766 5.89963 27.441 6.33397L26.8366 5.53114L26.6607 5.35433C26.3422 5.03389 25.889 4.62223 25.2048 4.27837L25.1452 4.24813L25.0852 4.22155C24.6058 4.00743 23.8603 3.72259 22.9231 3.72259C21.5363 3.72259 20.2466 4.25154 19.2915 5.21191C19.2126 5.29117 19.1362 5.37335 19.0625 5.45871C18.675 5.12534 18.2645 4.82903 17.8232 4.56248L17.706 4.49176L17.583 4.43274C16.3086 3.82014 14.751 3.47969 13.1971 3.47433L13.1437 3.47408C9.86075 3.47408 7.44678 4.542 5.96856 6.64783C3.81613 9.71476 4.40082 14.1064 4.73635 15.4931C3.5102 18.5427 3.67808 21.6111 5.20871 23.9517C6.69858 26.2297 9.35467 27.5362 12.4962 27.5362C12.6682 27.5362 12.8415 27.5325 13.0176 27.525C14.5582 27.4584 15.7385 27.2304 16.853 26.7821L16.8974 26.7638C17.7004 26.4222 18.4229 25.9876 19.0552 25.4662C19.1724 25.6164 19.298 25.7591 19.4324 25.8942C20.3422 26.8089 21.5693 27.3128 22.8877 27.3128C24.2063 27.3128 25.446 26.796 26.3786 25.8583L26.4271 25.8096L26.4727 25.7588C26.8291 25.3652 27.1193 24.9226 27.3357 24.4497L28.0264 25.3696C28.5774 26.1085 29.2482 26.6297 30.0854 26.9662L30.1349 26.9855C30.7264 27.2087 31.3072 27.3128 31.9623 27.3128C33.0972 27.3128 34.1644 26.9394 35.0199 26.2519C35.8867 26.9397 36.9503 27.3128 38.0707 27.3128C39.3893 27.3128 40.6292 26.796 41.5616 25.8583L41.6101 25.8096L41.656 25.7588C41.9354 25.4498 42.1749 25.1096 42.3697 24.747C42.886 25.2157 43.4496 25.6371 44.0563 26.0066L44.0859 26.0244C45.7308 26.997 47.554 27.4901 49.5054 27.4901C51.6037 27.4901 53.6312 26.8711 55.4175 25.692C55.4886 25.7744 55.5621 25.8535 55.6376 25.9295L55.6863 25.9786L55.7375 26.0254C56.6713 26.8785 57.863 27.3481 59.0931 27.3481C60.4114 27.3481 61.6509 26.8319 62.584 25.8939C62.6385 25.8391 62.6917 25.7832 62.7434 25.7259C63.6772 26.7309 64.93 27.2774 66.3316 27.2774C67.3784 27.2774 68.3685 26.9445 69.188 26.3275C70.0364 26.967 71.0624 27.3128 72.1411 27.3128H79.9092C80.9779 27.3128 81.9668 26.9992 82.8011 26.4014C83.6299 26.9933 84.6178 27.3128 85.6481 27.3128C86.9667 27.3128 88.2065 26.796 89.1388 25.8586L89.191 25.8059C90.1041 26.796 91.3691 27.3481 92.7806 27.3481C93.8323 27.3481 94.828 27.026 95.6502 26.4295C96.4608 26.9799 97.4154 27.2774 98.4026 27.2774H101.51C103.548 27.2774 105.383 26.815 106.957 25.9076C108.141 25.2404 109.15 24.371 109.97 23.3138C110.844 24.5073 111.934 25.4657 113.22 26.1695C114.869 27.0931 116.717 27.5613 118.713 27.5613C120.71 27.5613 122.558 27.0931 124.2 26.1734C125.24 25.6037 126.149 24.8789 126.91 24.011C127.678 24.8858 128.581 25.6098 129.604 26.1695C131.252 27.0931 133.101 27.5613 135.097 27.5613C137.093 27.5613 138.941 27.0931 140.583 26.1734C141.2 25.8357 141.776 25.4374 142.304 24.9833C142.495 25.2847 142.719 25.5652 142.976 25.8235C143.909 26.7609 145.149 27.2774 146.467 27.2774H149.574C151.613 27.2774 153.448 26.815 155.021 25.9074C155.604 25.5789 156.149 25.1972 156.651 24.7663C156.871 25.1804 157.15 25.5598 157.483 25.8939C158.415 26.8316 159.655 27.3481 160.973 27.3481H168.106C169.132 27.3481 170.118 27.0301 170.946 26.4412C171.763 27.0072 172.731 27.3128 173.733 27.3128H181.501C184.455 27.3128 186.502 25.6708 186.975 22.9204C187.384 20.5466 186.449 18.0337 184.876 16.9751Z" fill="#232039"/>
    <path fill-rule="evenodd" clip-rule="evenodd" d="M88.7558 13.2639H87.6965V15.1095H88.7558C89.2502 15.1095 89.6386 15.0032 89.9562 14.7191C90.2034 14.5062 90.3094 14.2223 90.3094 13.8672C90.3094 13.4414 90.1682 13.9384 89.921 13.6899C89.6032 13.4061 89.2148 13.2639 88.7558 13.2639ZM149.574 12.3767H148.48V20.3269H149.574C150.316 20.3269 150.987 20.1496 151.552 19.8301C152.116 19.5107 152.54 19.0493 152.858 18.4459C153.176 17.8426 153.352 17.1327 153.352 16.3164C153.352 15.5355 153.176 14.8256 152.858 14.2223C152.54 13.619 152.117 13.1929 151.516 12.8381C150.987 12.5186 150.316 12.3767 149.574 12.3767ZM101.51 12.3767H100.416V20.3269H101.51C102.252 20.3269 102.923 20.1496 103.488 19.8301C104.053 19.5107 104.476 19.0493 104.794 18.4459C105.112 17.8426 105.288 17.1327 105.288 16.3164C105.288 15.5355 105.112 14.8256 104.794 14.2223C104.476 13.619 104.053 13.1929 103.452 12.8381C102.923 12.5186 102.252 12.3767 101.51 12.3767ZM135.097 12.2345C134.321 12.2345 133.614 12.412 133.014 12.7669C132.414 13.122 131.955 13.619 131.602 14.2223C131.249 14.861 131.072 15.5709 131.072 16.3518C131.072 17.1327 131.249 17.8426 131.602 18.4815C131.955 19.1202 132.414 19.5816 133.014 19.9367C133.614 20.2915 134.321 20.4691 135.062 20.4691C135.839 20.4691 136.51 20.2915 137.11 19.9367C137.71 19.5816 138.169 19.0849 138.522 18.4815C138.876 17.8426 139.052 17.1327 139.052 16.3518C139.052 15.5709 138.876 14.861 138.522 14.2223C138.169 13.5834 137.71 13.122 137.11 12.7669C136.545 12.412 135.874 12.2345 135.097 12.2345ZM118.714 12.2345C117.937 12.2345 117.231 12.412 116.631 12.7669C116.03 13.122 115.571 13.619 115.218 14.2223C114.865 14.861 114.689 15.5709 114.689 16.3518C114.689 17.1327 114.865 17.8426 115.218 18.4815C115.571 19.1202 116.03 19.5816 116.631 19.9367C117.231 20.2915 117.937 20.4691 118.679 20.4691C119.455 20.4691 120.126 20.2915 120.726 19.9367C121.327 19.5816 121.786 19.0849 122.139 18.4815C122.492 17.8426 122.668 17.1327 122.668 16.3518C122.668 15.5709 122.492 14.861 122.139 14.2223C121.786 13.5834 121.327 13.122 120.726 12.7669C120.197 12.412 119.526 12.2345 118.714 12.2345ZM181.502 8.5079C182.067 8.5079 182.561 8.68544 182.914 9.04027C183.303 9.39511 183.515 9.89212 183.515 10.4598C183.515 11.0278 183.303 11.5248 182.914 11.8797C182.561 12.2345 182.067 12.412 181.502 12.412H175.746V14.3286H179.56C180.089 14.3286 180.584 14.5062 180.937 14.861C181.325 15.2161 181.537 15.7485 181.537 16.2808C181.537 16.8488 181.325 17.3456 180.937 17.7006C180.548 18.0555 180.089 18.233 179.56 18.233H175.746V20.2559H181.502C182.031 20.2559 182.526 20.4335 182.914 20.7883C183.303 21.1434 183.515 21.6404 183.515 22.2081C183.515 22.7761 183.303 23.2729 182.914 23.6279C182.526 23.9828 182.067 24.1603 181.502 24.1603H173.734C173.169 24.1603 172.674 23.9474 172.286 23.557C171.898 23.1665 171.686 22.6695 171.686 22.1018V10.4955C171.686 9.92748 171.898 9.43071 172.286 9.04027C172.674 8.68544 173.169 8.4723 173.699 8.4723H181.502V8.5079ZM160.974 8.5079C161.539 8.5079 162.033 8.7208 162.421 9.11124C162.81 9.50168 163.022 9.99844 163.022 10.5308V20.114H168.106C168.671 20.114 169.166 20.3269 169.554 20.7173C169.942 21.108 170.154 21.6048 170.154 22.1372C170.154 22.7051 169.942 23.2019 169.554 23.5926C169.166 23.9828 168.671 24.1959 168.106 24.1959H160.974C160.409 24.1959 159.914 23.9828 159.526 23.5926C159.138 23.2019 158.961 22.7051 158.961 22.1728V10.5664C158.961 9.99844 159.173 9.50168 159.561 9.14684C159.95 8.7208 160.444 8.5079 160.974 8.5079ZM149.574 8.5079C151.057 8.5079 152.399 8.86273 153.6 9.50168C154.8 10.176 155.718 11.1344 156.389 12.3057C157.06 13.477 157.378 14.8256 157.378 16.3164C157.378 17.807 157.06 19.1558 156.389 20.3269C155.718 21.5338 154.8 22.4566 153.6 23.1309C152.434 23.8055 151.057 24.125 149.574 24.125H146.467C145.902 24.125 145.408 23.9118 145.019 23.5214C144.631 23.1309 144.419 22.6342 144.419 22.0662V10.4598C144.419 9.89212 144.631 9.39511 145.019 9.00467C145.408 8.64983 145.902 8.43693 146.432 8.43693H149.574V8.5079ZM101.51 8.5079C102.993 8.5079 104.335 8.86273 105.536 9.50168C106.736 10.176 107.654 11.1344 108.325 12.3057C108.996 13.477 109.314 14.8256 109.314 16.3164C109.314 17.807 108.996 19.1558 108.325 20.3269C107.654 21.5338 106.736 22.4566 105.536 23.1309C104.37 23.8055 102.993 24.125 101.51 24.125H98.4031C97.8381 24.125 97.3437 23.9118 96.9553 23.5214C96.5671 23.1309 96.355 22.6342 96.355 22.0662V10.4598C96.355 9.89212 96.5668 9.39511 96.9553 9.00467C97.3437 8.64983 97.8381 8.43693 98.3677 8.43693H101.51V8.5079ZM88.7558 8.5079C89.7798 8.5079 90.733 8.7208 91.5453 9.18221C92.3927 9.64361 93.0635 10.2826 93.5577 11.0988C94.017 11.9153 94.264 12.8378 94.264 13.8672C94.264 14.8966 93.9816 15.8194 93.452 16.6359C93.1693 17.0971 92.8163 17.4875 92.3927 17.807L94.4054 21.0724C94.6172 21.4275 94.7584 21.8177 94.7584 22.2437C94.7584 22.7761 94.5466 23.2375 94.1934 23.6279C93.9464 23.8764 93.4871 24.1959 92.7812 24.1959C92.0749 24.1959 91.4393 23.8764 91.0509 23.2375L88.4025 19.0139H87.6611V22.1372C87.6611 22.6695 87.4493 23.1665 87.0963 23.557C86.7079 23.9474 86.2135 24.1603 85.6484 24.1603C85.0836 24.1603 84.5892 23.9474 84.201 23.557C83.8126 23.1665 83.6006 22.6695 83.6006 22.1018V10.4955C83.6006 9.92748 83.8126 9.43071 84.201 9.04027C84.5892 8.68544 85.0836 8.4723 85.6133 8.4723H88.7558V8.5079ZM79.9097 8.5079C80.4745 8.5079 80.969 8.68544 81.322 9.04027C81.7104 9.39511 81.9222 9.89212 81.9222 10.4598C81.9222 11.0278 81.7104 11.5248 81.322 11.8797C80.969 12.2345 80.4745 12.412 79.9097 12.412H74.1541V14.3286H77.9676C78.4973 14.3286 78.9915 14.5062 79.3447 14.861C79.7331 15.2161 79.9449 15.7485 79.9449 16.2808C79.9449 16.8488 79.7331 17.3456 79.3447 17.7006C78.9563 18.0555 78.4973 18.233 77.9676 18.233H74.1541V20.2559H79.9097C80.4394 20.2559 80.9335 20.4335 81.322 20.7883C81.7104 21.1434 81.9222 21.6404 81.9222 22.2081C81.9222 22.7761 81.7104 23.2729 81.322 23.6279C80.9335 23.9828 80.4745 24.1603 79.9097 24.1603H72.1416C71.5766 24.1603 71.0821 23.9474 70.6937 23.557C70.3055 23.1665 70.0935 22.6695 70.0935 22.1372V10.5308C70.0935 9.96308 70.3055 9.46607 70.6937 9.07563C71.0821 8.7208 71.5766 8.5079 72.1062 8.5079H79.9097ZM66.5085 8.5079C67.2147 8.5079 67.6385 8.82737 67.8855 9.07588C68.2033 9.43071 68.38 9.89212 68.38 10.3535C68.38 10.9569 68.1682 11.4892 67.7091 11.9153L64.0016 15.6065L67.8855 20.8951C68.1327 21.25 68.2739 21.6758 68.2739 22.1018C68.2739 22.5986 68.0976 23.06 67.7797 23.4504C67.4265 23.8764 66.8969 24.125 66.3318 24.125C65.6258 24.125 65.0608 23.8055 64.6724 23.2729L61.1414 18.5169V22.1372C61.1414 22.7051 60.9296 23.2019 60.5412 23.5926C60.1528 23.9828 59.6584 24.1959 59.0936 24.1959C58.564 24.1959 58.0695 23.9828 57.6811 23.6279C57.2927 23.2375 57.0809 22.7405 57.0809 22.1728V10.5664C57.0809 9.99844 57.2927 9.50168 57.6811 9.11124C58.0695 8.7208 58.564 8.54326 59.0936 8.54326C59.6584 8.54326 60.1528 8.75641 60.5412 9.14684C60.9296 9.53704 61.1414 10.034 61.1414 10.5664V12.98L64.9196 9.21781C65.1668 9.00467 65.3786 8.82737 65.5904 8.7208C65.9082 8.57887 66.1906 8.5079 66.5085 8.5079ZM38.0358 8.5079C38.6008 8.5079 39.095 8.7208 39.4834 9.07588C39.8719 9.46607 40.0837 9.96308 40.0837 10.5308V22.1372C40.0837 22.6695 39.8719 23.1665 39.5189 23.557C39.1304 23.9474 38.636 24.1603 38.071 24.1603C37.5062 24.1603 37.0117 23.9474 36.6236 23.557C36.2351 23.1665 36.0231 22.6695 36.0231 22.1372V10.5308C36.0231 9.96308 36.2351 9.46607 36.6236 9.07588C37.0117 8.7208 37.5062 8.5079 38.0358 8.5079ZM31.9625 8.5079C32.5276 8.5079 33.0218 8.7208 33.375 9.07588C33.7634 9.46607 33.9752 9.96308 33.9752 10.5308V22.1372C33.9752 22.7051 33.7634 23.2019 33.375 23.5926C32.9866 23.9828 32.4922 24.1603 31.9625 24.1603C31.6801 24.1603 31.4329 24.125 31.1505 24.0184C30.7973 23.8764 30.5501 23.6635 30.3383 23.3794L24.9007 16.1389V22.1372C24.9007 22.6695 24.6889 23.1665 24.3356 23.557C23.9474 23.9474 23.453 24.1603 22.888 24.1603C22.3232 24.1603 21.8287 23.9474 21.4757 23.5926C21.0873 23.2019 20.9107 22.7051 20.9107 22.1372V10.5308C20.9107 9.96308 21.1225 9.46607 21.4757 9.07588C21.8641 8.68544 22.3583 8.5079 22.888 8.5079C23.1704 8.5079 23.4884 8.57887 23.7708 8.7208C24.018 8.86273 24.265 9.00467 24.4416 9.21781L24.4771 9.25317L29.9498 16.5293V10.5308C29.9498 9.96308 30.1616 9.46607 30.5501 9.07588C30.9387 8.7208 31.4329 8.5079 31.9625 8.5079ZM135.097 8.36597C136.616 8.36597 137.993 8.7208 139.193 9.39511C140.394 10.0694 141.382 11.0278 142.053 12.2701C142.724 13.477 143.077 14.861 143.077 16.3874C143.077 17.9135 142.724 19.2978 142.053 20.5044C141.382 21.7467 140.429 22.7051 139.193 23.3794C137.993 24.0537 136.616 24.4088 135.097 24.4088C133.579 24.4088 132.202 24.0537 131.001 23.3794C129.766 22.7051 128.812 21.7114 128.142 20.5044C127.47 19.2978 127.153 17.9135 127.153 16.3874C127.153 14.861 127.506 13.5124 128.142 12.3057C128.812 11.0988 129.766 10.105 131.001 9.43071C132.202 8.68544 133.579 8.36597 135.097 8.36597ZM118.714 8.36597C120.232 8.36597 121.609 8.7208 122.81 9.39511C124.01 10.0694 124.999 11.0278 125.67 12.2701C126.341 13.477 126.694 14.861 126.694 16.3874C126.694 17.9135 126.341 19.2978 125.67 20.5044C124.999 21.7467 124.046 22.7051 122.81 23.3794C121.609 24.0537 120.232 24.4088 118.714 24.4088C117.195 24.4088 115.818 24.0537 114.618 23.3794C113.382 22.7051 112.429 21.7114 111.758 20.5044C111.087 19.2978 110.769 17.9135 110.769 16.3874C110.769 14.861 111.122 13.5124 111.758 12.3057C112.429 11.0988 113.382 10.105 114.618 9.43071C115.818 8.68544 117.195 8.36597 118.714 8.36597ZM49.4705 8.36597C50.4591 8.36597 51.342 8.5079 52.1188 8.79177C52.8602 9.07588 53.637 9.50168 54.3785 10.105C54.6611 10.3179 54.8729 10.5664 54.9787 10.8505C55.0847 11.0988 55.1201 11.3829 55.1201 11.6668C55.1201 12.1991 54.9081 12.7315 54.4845 13.0863C54.0961 13.4061 53.637 13.5834 53.1426 13.5834C52.6484 13.5834 52.2248 13.4061 51.8364 13.122C51.448 12.8025 51.0947 12.554 50.7417 12.412C50.4239 12.3057 49.9649 12.2345 49.4353 12.2345C48.7645 12.2345 48.1288 12.412 47.5638 12.7669C46.999 13.122 46.5046 13.619 46.1516 14.2577C45.7983 14.8966 45.6217 15.6065 45.6217 16.3518C45.6217 17.0971 45.7983 17.807 46.1516 18.4459C46.5046 19.0849 46.9636 19.5816 47.5638 19.9367C48.1288 20.2915 48.7645 20.4691 49.4353 20.4691C50.2827 20.4691 51.0947 20.185 51.9422 19.5463C52.366 19.2622 52.7542 19.1202 53.178 19.1202C53.7076 19.1202 54.2021 19.3334 54.5551 19.7236C54.9081 20.0786 55.0847 20.5754 55.0847 21.108C55.0847 21.6404 54.8729 22.1372 54.4845 22.5276L54.4493 22.5632L54.4139 22.5986C52.9662 23.7345 51.3068 24.3379 49.5059 24.3379C48.0934 24.3379 46.7518 23.9828 45.5511 23.2729C44.3861 22.5632 43.4326 21.6048 42.7264 20.3625C42.0556 19.1558 41.7026 17.7716 41.7026 16.3164C41.7026 14.861 42.0556 13.5124 42.7264 12.3055C43.3975 11.0988 44.3507 10.105 45.5159 9.39511C46.7164 8.7208 48.0228 8.36597 49.4705 8.36597ZM13.1945 8.36597C14.3949 8.36597 15.419 8.61447 16.2664 9.11124C17.0784 9.60801 17.7847 10.3179 18.3495 11.2054C18.5967 11.5958 18.7379 12.0216 18.7379 12.412C18.7379 13.051 18.4555 13.5834 17.9259 13.9738C17.5729 14.1867 17.2196 14.2933 16.8315 14.2933C16.4782 14.2933 16.125 14.1867 15.8074 14.0094C15.4896 13.8319 15.2072 13.548 15.0306 13.2283C14.8539 12.9091 14.6067 13.0863 14.2891 12.9091C14.0065 12.7315 13.5829 12.6605 13.0885 12.6605C12.4528 12.6605 11.9232 12.3411 11.5702 12.5896C11.3582 12.7315 11.2876 12.8378 11.2876 13.0863C11.2876 13.2995 11.3584 13.477 11.6056 13.6899C11.7468 13.7963 12.2059 14.0804 13.5829 14.2223C15.2072 14.3996 16.4782 14.8966 17.4317 15.7485C18.4203 16.6713 18.9499 17.8779 18.9499 19.3334C18.9499 20.3981 18.6321 21.3563 18.0319 22.1372C17.4668 22.8824 16.69 23.4504 15.772 23.8408C14.8894 24.1959 13.9713 24.3732 12.9825 24.3732C11.6762 24.3732 10.4756 24.0893 9.41633 23.486C8.2865 22.8471 7.47424 21.9952 7.05064 20.9661C6.94462 20.682 6.87402 20.4335 6.87402 20.185C6.87402 19.7236 7.05064 19.2978 7.36846 18.9429C7.65086 18.6588 8.00386 18.4459 8.4277 18.3749C8.53347 18.3393 8.67467 18.3393 8.85129 18.3393C9.23971 18.3393 9.62813 18.4459 9.98137 18.6944C10.3344 18.9429 10.5816 19.2268 10.758 19.6172C10.7934 19.7236 10.97 19.9367 11.4644 20.185C11.9232 20.3981 12.4177 20.54 12.9825 20.54C13.6181 20.54 14.1479 20.3981 14.5361 20.1496C14.8539 19.9367 14.9245 19.7236 14.9245 19.4753C14.9245 19.1558 14.8188 18.872 14.5361 18.6235C14.2185 18.3393 13.6535 18.1264 12.8767 18.0555C11.217 17.9135 9.91077 17.3812 8.92213 16.5647C7.86266 15.6419 7.29786 14.4708 7.29786 13.0863C7.29786 12.0926 7.58026 11.2054 8.18048 10.4955C8.71009 9.82115 9.45175 9.28878 10.3698 8.9337C11.217 8.54351 12.1704 8.36597 13.1945 8.36597Z" fill="black"/>
    <path fill-rule="evenodd" clip-rule="evenodd" d="M88.7558 11.5602H87.6965V14.2223H88.7558C89.2502 14.2223 89.6386 14.1157 89.9562 13.8316C90.2034 13.6187 90.3094 13.3348 90.3094 12.98C90.3094 12.554 90.1682 12.1991 89.921 11.9506C89.6032 11.7021 89.2148 11.5602 88.7558 11.5602ZM149.574 11.4892H148.48V19.4753H149.574C150.316 19.4753 150.987 19.2978 151.552 18.9783C152.116 18.6588 152.54 18.1974 152.858 17.5941C153.176 16.9907 153.352 16.2808 153.352 15.4643C153.352 14.6837 153.176 13.9738 152.858 13.3705C152.54 12.7669 152.117 12.3411 151.516 11.9862C150.987 11.6668 150.316 11.4892 149.574 11.4892ZM101.51 11.4892H100.416V19.4753H101.51C102.252 19.4753 102.923 19.2978 103.488 18.9783C104.053 18.6588 104.476 18.1974 104.794 17.5941C105.112 16.9907 105.288 16.2808 105.288 15.4643C105.288 14.6837 105.112 13.9738 104.794 13.3705C104.476 12.7669 104.053 12.3411 103.452 11.9862C102.923 11.6668 102.252 11.4892 101.51 11.4892ZM135.097 11.3827C134.321 11.3827 133.614 11.5602 133.014 11.9153C132.414 12.2701 131.955 12.7669 131.602 13.3705C131.249 14.0092 131.072 14.7191 131.072 15.4999C131.072 16.2808 131.249 16.9907 131.602 17.6294C131.955 18.2684 132.414 18.7298 133.014 19.0846C133.614 19.4397 134.321 19.6172 135.062 19.6172C135.839 19.6172 136.51 19.4397 137.11 19.0846C137.71 18.7298 138.169 18.233 138.522 17.6294C138.876 16.9907 139.052 16.2808 139.052 15.4999C139.052 14.7191 138.876 14.0092 138.522 13.3705C138.169 12.7315 137.71 12.2701 137.11 11.9153C136.545 11.5602 135.874 11.3827 135.097 11.3827ZM118.714 11.3827C117.937 11.3827 117.231 11.5602 116.631 11.9153C116.03 12.2701 115.571 12.7669 115.218 13.3705C114.865 14.0092 114.689 14.7191 114.689 15.4999C114.689 16.2808 114.865 16.9907 115.218 17.6294C115.571 18.2684 116.03 18.7298 116.631 19.0846C117.231 19.4397 117.937 19.6172 118.679 19.6172C119.455 19.6172 120.126 19.4397 120.726 19.0846C121.327 18.7298 121.786 18.233 122.139 17.6294C122.492 16.9907 122.668 16.2808 122.668 15.4999C122.668 14.7191 122.492 14.0092 122.139 13.3705C121.786 12.7315 121.327 12.2701 120.726 11.9153C120.197 11.5602 119.526 11.3827 118.714 11.3827ZM181.502 7.65605C182.067 7.65605 182.561 7.83335 182.914 8.18843C183.303 8.54326 183.515 9.04027 183.515 9.608C183.515 10.176 183.303 10.6727 182.914 11.0278C182.561 11.3827 182.067 11.5602 181.502 11.5602H175.746V13.4768H179.56C180.089 13.4768 180.584 13.6543 180.937 14.0092C181.325 14.3642 181.537 14.8966 181.537 15.429C181.537 15.9967 181.325 16.4937 180.937 16.8488C180.548 17.2036 180.089 17.3812 179.56 17.3812H175.746V19.4043H181.502C182.031 19.4043 182.526 19.5816 182.914 19.9367C183.303 20.2915 183.515 20.7883 183.515 21.3563C183.515 21.9243 183.303 22.421 182.914 22.7761C182.526 23.1309 182.067 23.3085 181.502 23.3085H173.734C173.169 23.3085 172.674 23.0956 172.286 22.7051C171.898 22.3147 171.686 21.8177 171.686 21.2497V9.67921C171.686 9.11124 171.898 8.61423 172.286 8.22379C172.674 7.86895 173.169 7.65605 173.699 7.65605H181.502ZM160.974 7.65605C161.539 7.65605 162.033 7.86895 162.421 8.25939C162.81 8.64983 163.022 9.14684 163.022 9.67921V19.2624H168.106C168.671 19.2624 169.166 19.4753 169.554 19.8657C169.942 20.2559 170.154 20.7529 170.154 21.2853C170.154 21.8533 169.942 22.3501 169.554 22.7405C169.166 23.1309 168.671 23.3438 168.106 23.3438H160.974C160.409 23.3438 159.914 23.1309 159.526 22.7405C159.138 22.3501 158.961 21.8533 158.961 21.3207V9.67921C158.961 9.11124 159.173 8.61423 159.561 8.25939C159.95 7.86895 160.444 7.65605 160.974 7.65605ZM149.574 7.65605C151.057 7.65605 152.399 8.01089 153.6 8.64983C154.8 9.32414 155.718 10.2826 156.389 11.4536C157.06 12.6249 157.378 13.9738 157.378 15.4643C157.378 16.9551 157.06 18.304 156.389 19.4753C155.718 20.682 154.8 21.6048 153.6 22.2791C152.434 22.9534 151.057 23.2729 149.574 23.2729H146.467C145.902 23.2729 145.408 23.06 145.019 22.6695C144.631 22.2791 144.419 21.7823 144.419 21.2143V9.67921C144.419 9.11124 144.631 8.61423 145.019 8.22379C145.408 7.86895 145.902 7.65605 146.432 7.65605H149.574ZM101.51 7.65605C102.993 7.65605 104.335 8.01089 105.536 8.64983C106.736 9.32414 107.654 10.2826 108.325 11.4536C108.996 12.6249 109.314 13.9738 109.314 15.4643C109.314 16.9551 108.996 18.304 108.325 19.4753C107.654 20.682 106.736 21.6048 105.536 22.2791C104.37 22.9534 102.993 23.2729 101.51 23.2729H98.4031C97.8381 23.2729 97.3437 23.06 96.9553 22.6695C96.5671 22.2791 96.355 21.7823 96.355 21.2143V9.67921C96.355 9.11124 96.5668 8.61423 96.9553 8.22379C97.3437 7.86895 97.8381 7.65605 98.3677 7.65605H101.51ZM88.7558 7.65605C89.7798 7.65605 90.733 7.86895 91.5453 8.33036C92.3927 8.79176 93.0635 9.43071 93.5577 10.2469C94.017 11.0632 94.264 11.9862 94.264 13.0154C94.264 14.0448 93.9816 14.9676 93.452 15.7838C93.1693 16.2452 92.8163 16.6357 92.3927 16.9551L94.4054 20.2206C94.6172 20.5754 94.7584 20.9658 94.7584 21.3916C94.7584 21.9243 94.5466 22.3857 94.1934 22.7761C93.9464 23.0246 93.4871 23.3438 92.7812 23.3438C92.0749 23.3438 91.4393 23.0246 91.0509 22.3857L88.4025 18.1618H87.6611V21.2853C87.6611 21.8177 87.4493 22.3147 87.0963 22.7051C86.7079 23.0956 86.2135 23.3085 85.6484 23.3085C85.0836 23.3085 84.5892 23.0956 84.201 22.7051C83.8126 22.3147 83.6006 21.8177 83.6006 21.2497V9.67921C83.6006 9.11124 83.8126 8.61423 84.201 8.22379C84.5892 7.86895 85.0836 7.65605 85.6133 7.65605H88.7558ZM79.9097 7.65605C80.4745 7.65605 80.969 7.83335 81.322 8.18843C81.7104 8.54326 81.9222 9.04027 81.9222 9.608C81.9222 10.176 81.7104 10.6727 81.322 11.0278C80.969 11.3827 80.4745 11.5602 79.9097 11.5602H74.1541V13.4768H77.9676C78.4973 13.4768 78.9915 13.6543 79.3447 14.0092C79.7331 14.3642 79.9449 14.8966 79.9449 15.429C79.9449 15.9613 79.7331 16.4937 79.3447 16.8488C78.9563 17.2036 78.4973 17.3812 77.9676 17.3812H74.1541V19.4043H79.9097C80.4394 19.4043 80.9335 19.5816 81.322 19.9367C81.7104 20.2915 81.9222 20.7883 81.9222 21.3563C81.9222 21.9243 81.7104 22.421 81.322 22.7761C80.9335 23.1309 80.4745 23.3085 79.9097 23.3085H72.1416C71.5766 23.3085 71.0821 23.0956 70.6937 22.7051C70.3055 22.3147 70.0935 21.8177 70.0935 21.2853V9.67921C70.0935 9.11124 70.3055 8.61423 70.6937 8.22379C71.0821 7.86895 71.5766 7.65605 72.1062 7.65605H79.9097ZM66.5085 7.65605C67.2147 7.65605 67.6385 7.97528 67.8855 8.22379C68.2033 8.57886 68.38 9.04027 68.38 9.50167C68.38 10.105 68.1682 10.6374 67.7091 11.0632L64.0016 14.7547L67.8855 20.043C68.1327 20.3981 68.2739 20.8239 68.2739 21.2497C68.2739 21.7467 68.0976 22.2081 67.7797 22.5986C67.4265 23.0246 66.8969 23.2729 66.3318 23.2729C65.6258 23.2729 65.0608 22.9534 64.6724 22.421L61.1414 17.665V21.2853C61.1414 21.8533 60.9296 22.3501 60.5412 22.7405C60.1528 23.1309 59.6584 23.3438 59.0936 23.3438C58.564 23.3438 58.0695 23.1309 57.6811 22.7761C57.2927 22.3857 57.0809 21.8886 57.0809 21.3207V9.67921C57.0809 9.11124 57.2927 8.61423 57.6811 8.22379C58.0695 7.83335 58.564 7.65605 59.0936 7.65605C59.6584 7.65605 60.1528 7.86895 60.5412 8.25939C60.9296 8.64983 61.1414 9.14684 61.1414 9.67921V12.0926L64.9196 8.33036C65.1668 8.11746 65.3786 7.93992 65.5904 7.83335C65.9082 7.72702 66.1906 7.65605 66.5085 7.65605ZM38.0358 7.65605C38.6008 7.65605 39.095 7.86895 39.4834 8.22379C39.8719 8.61423 40.0837 9.11124 40.0837 9.67921V21.2853C40.0837 21.8177 39.8719 22.3147 39.5189 22.7051C39.1304 23.0956 38.636 23.3085 38.071 23.3085C37.5062 23.3085 37.0117 23.0956 36.6236 22.7051C36.2351 22.3147 36.0231 21.8177 36.0231 21.2853V9.67921C36.0231 9.11124 36.2351 8.61423 36.6236 8.22379C37.0117 7.86895 37.5062 7.65605 38.0358 7.65605ZM31.9625 7.65605C32.5276 7.65605 33.0218 7.86895 33.375 8.22379C33.7634 8.61423 33.9752 9.11124 33.9752 9.67921V21.2853C33.9752 21.8533 33.7634 22.3501 33.375 22.7405C32.9866 23.1309 32.4922 23.3085 31.9625 23.3085C31.6801 23.3085 31.4329 23.2729 31.1505 23.1665C30.7973 23.0246 30.5501 22.8115 30.3383 22.5276L24.9007 15.287V21.2853C24.9007 21.8177 24.6889 22.3147 24.3356 22.7051C23.9474 23.0956 23.453 23.3085 22.888 23.3085C22.3232 23.3085 21.8287 23.0956 21.4757 22.7405C21.0873 22.3501 20.9107 21.8533 20.9107 21.2853V9.67921C20.9107 9.11124 21.1225 8.61423 21.4757 8.22379C21.8641 7.83335 22.3583 7.65605 22.888 7.65605C23.1704 7.65605 23.4884 7.72702 23.7708 7.86895C24.018 8.01089 24.265 8.15282 24.4416 8.36572L24.4771 8.40133L29.9498 15.6775V9.67921C29.9498 9.11124 30.1616 8.61423 30.5501 8.22379C30.9387 7.86895 31.4329 7.65605 31.9625 7.65605ZM135.097 7.47852C136.616 7.47852 137.993 7.83335 139.193 8.50765C140.394 9.1822 141.382 10.1404 142.053 11.3827C142.724 12.5896 143.077 13.9738 143.077 15.4999C143.077 17.0261 142.724 18.4103 142.053 19.6172C141.382 20.8595 140.429 21.8177 139.193 22.4922C137.993 23.1665 136.616 23.5214 135.097 23.5214C133.579 23.5214 132.202 23.1665 131.001 22.4922C129.766 21.8177 128.812 20.8239 128.142 19.6172C127.47 18.4103 127.153 17.0261 127.153 15.4999C127.153 13.9738 127.506 12.6249 128.142 11.4183C128.812 10.2116 129.766 9.21781 131.001 8.54326C132.202 7.83335 133.579 7.47852 135.097 7.47852ZM118.714 7.47852C120.232 7.47852 121.609 7.83335 122.81 8.50765C124.01 9.1822 124.999 10.1404 125.67 11.3827C126.341 12.5896 126.694 13.9738 126.694 15.4999C126.694 17.0261 126.341 18.4103 125.67 19.6172C124.999 20.8595 124.046 21.8177 122.81 22.4922C121.609 23.1665 120.232 23.5214 118.714 23.5214C117.195 23.5214 115.818 23.1665 114.618 22.4922C113.382 21.8177 112.429 20.8239 111.758 19.6172C111.087 18.4103 110.769 17.0261 110.769 15.4999C110.769 13.9738 111.122 12.6249 111.758 11.4183C112.429 10.2116 113.382 9.21781 114.618 8.54326C115.818 7.83335 117.195 7.47852 118.714 7.47852ZM49.4705 7.47852C50.4591 7.47852 51.342 7.62045 52.1188 7.90432C52.8602 8.18843 53.637 8.61423 54.3785 9.21781C54.6611 9.43071 54.8729 9.67921 54.9787 9.96308C55.0847 10.2116 55.1201 10.4955 55.1201 10.7793C55.1201 11.3117 54.9081 11.8443 54.4845 12.1991C54.0961 12.5186 53.637 12.6959 53.1426 12.6959C52.6484 12.6959 52.2248 12.5186 51.8364 12.2345C51.448 11.9153 51.0947 11.6668 50.7417 11.5246C50.4239 11.4183 49.9649 11.3473 49.4353 11.3473C48.7645 11.3473 48.1288 11.5246 47.5638 11.8797C46.999 12.2345 46.5046 12.7315 46.1516 13.3702C45.7983 14.0092 45.6217 14.7191 45.6217 15.4643C45.6217 16.2099 45.7983 16.9198 46.1516 17.5585C46.5046 18.1974 46.9636 18.6942 47.5638 19.0493C48.1288 19.4043 48.7645 19.5816 49.4353 19.5816C50.2827 19.5816 51.0947 19.2978 51.9422 18.6588C52.366 18.3749 52.7542 18.233 53.178 18.233C53.7076 18.233 54.2021 18.4459 54.5551 18.8364C54.9081 19.1912 55.0847 19.6882 55.0847 20.2206C55.0847 20.7529 54.8729 21.2497 54.4845 21.6401L54.4493 21.6757L54.4139 21.7114C52.9662 22.8471 51.3068 23.4504 49.5059 23.4504C48.0934 23.4504 46.7518 23.0956 45.5511 22.3857C44.3861 21.6757 43.4326 20.7173 42.7264 19.4753C42.0556 18.2684 41.7026 16.8842 41.7026 15.429C41.7026 13.9738 42.0556 12.6249 42.7264 11.4183C43.3975 10.2116 44.3507 9.21781 45.5159 8.50765C46.7164 7.86895 48.0228 7.47852 49.4705 7.47852ZM13.1945 7.51412C14.3949 7.51412 15.419 7.76238 16.2664 8.25939C17.0784 8.75616 17.7847 9.46607 18.3495 10.3535C18.5967 10.744 18.7379 11.1698 18.7379 11.5602C18.7379 12.1991 18.4555 12.7315 17.9259 13.1219C17.5729 13.3348 17.2196 13.4414 16.8315 13.4414C16.4782 13.4414 16.125 13.3348 15.8074 13.1573C15.4896 12.98 15.2072 12.6959 15.0306 12.3767C14.8539 12.0572 14.6067 11.8087 14.2891 11.6312C14.0065 11.4536 13.5829 11.3827 13.0885 11.3827C12.4528 11.3827 11.9232 11.4892 11.5702 11.7021C11.3582 11.8443 11.2876 11.9506 11.2876 12.1991C11.2876 12.412 11.3584 12.5896 11.6056 12.8025C11.7468 12.909 12.2059 13.1929 13.5829 13.3348C15.2072 13.5124 16.4782 14.0092 17.4317 14.861C18.4203 15.7838 18.9499 16.9907 18.9499 18.4459C18.9499 19.5107 18.6321 20.4691 18.0319 21.2497C17.4668 21.9952 16.69 22.5632 15.772 22.9534C14.8894 23.3085 13.9713 23.4858 12.9825 23.4858C11.6762 23.4858 10.4756 23.2019 9.41633 22.5986C8.2865 21.9596 7.47424 21.1078 7.05064 20.0786C6.94462 19.7945 6.87402 19.5463 6.87402 19.2978C6.87402 18.8364 7.05064 18.4103 7.36846 18.0555C7.65086 17.7716 8.00386 17.5585 8.4277 17.4875C8.53347 17.4521 8.67467 17.4521 8.85129 17.4521C9.23971 17.4521 9.62813 17.5585 9.98137 17.807C10.3344 18.0555 10.5816 18.3393 10.758 18.7298C10.7934 18.8364 10.97 19.0493 11.4644 19.2978C11.9232 19.5107 12.4177 19.6526 12.9825 19.6526C13.6181 19.6526 14.1479 19.5107 14.5361 19.2622C14.8539 19.0493 14.9245 18.8364 14.9245 18.5878C14.9245 18.2684 14.8188 17.9845 14.5361 17.736C14.2185 17.4521 13.6535 17.2392 12.8767 17.168C11.217 17.0261 9.91077 16.4937 8.92213 15.6775C7.86266 14.7547 7.29786 13.5834 7.29786 12.1991C7.29786 11.2051 7.58026 10.3179 8.18048 9.608C8.71009 8.9337 9.45175 8.40133 10.3698 8.04625C11.217 7.69142 12.1704 7.51412 13.1945 7.51412Z" fill="#FFD68F"/>
    <path fill-rule="evenodd" clip-rule="evenodd" d="M31.9629 21.9954C31.7157 21.9954 31.4685 21.9598 31.2213 21.8532C30.9037 21.7469 30.6565 21.534 30.4799 21.2855L24.7244 13.6545V20.1498C24.7244 20.6465 24.5481 21.1079 24.1948 21.463C23.8418 21.8178 23.3828 21.9954 22.8532 21.9954C22.3587 21.9954 21.8997 21.8178 21.5465 21.463C21.1935 21.1079 21.0169 20.6465 21.0169 20.1498V8.54342C21.0169 8.01105 21.1935 7.58525 21.5465 7.23017C21.8997 6.87534 22.3587 6.6978 22.8532 6.6978C23.1356 6.6978 23.3828 6.76877 23.6652 6.87534C23.9124 6.98191 24.1242 7.15921 24.2654 7.33675L24.3006 7.37211L30.0914 15.0387V8.50806C30.0914 7.97569 30.2681 7.51428 30.6565 7.15921C31.0095 6.80413 31.4685 6.62684 31.9629 6.62684C32.4574 6.62684 32.9164 6.80413 33.2694 7.15921C33.6224 7.51428 33.799 7.97569 33.799 8.47246V20.0788C33.799 20.6112 33.6224 21.037 33.2694 21.392C32.9162 21.8178 32.4926 21.9954 31.9629 21.9954ZM38.0362 21.9954C37.5417 21.9954 37.0827 21.8178 36.7297 21.463C36.3765 21.1079 36.2001 20.6465 36.2001 20.1498V8.54342C36.2001 8.01105 36.3765 7.54965 36.7649 7.19481C37.1182 6.83974 37.5772 6.6622 38.0714 6.6622C38.601 6.6622 39.06 6.83974 39.3778 7.19481C39.7311 7.54965 39.9077 8.01105 39.9077 8.50782V20.1142C39.9077 20.6112 39.7311 21.0726 39.3778 21.4274C39.0248 21.8178 38.5658 21.9954 38.0362 21.9954ZM66.4031 21.9954C65.7672 21.9954 65.2376 21.7113 64.8846 21.2145L61.2124 16.2454L61.0358 16.4229V20.1498C61.0358 20.6465 60.8592 21.1079 60.5062 21.463C60.1532 21.8178 59.6942 21.9954 59.1998 21.9954C58.7056 21.9954 58.2463 21.8178 57.8933 21.463C57.5403 21.1079 57.3285 20.6465 57.3285 20.1498V8.54342C57.3285 8.04666 57.5049 7.58525 57.8933 7.23017C58.2463 6.87534 58.7056 6.6978 59.1998 6.6978C59.6942 6.6978 60.1532 6.87534 60.5062 7.23017C60.8592 7.58525 61.0358 8.04666 61.0358 8.54342V11.3828L65.0964 7.33675C65.3082 7.12385 65.5202 6.98191 65.732 6.87534C65.9792 6.76877 66.2265 6.6978 66.5089 6.6978C67.1445 6.6978 67.5681 6.98191 67.7799 7.23017C68.0625 7.54965 68.2389 7.94008 68.2389 8.40149C68.2389 8.96922 68.0271 9.46623 67.6387 9.85667L63.8254 13.6545L67.8153 19.0494C68.0625 19.3689 68.1683 19.7593 68.1683 20.1851C68.1683 20.6465 68.0271 21.0726 67.7093 21.4274C67.3563 21.7822 66.9327 21.9954 66.4031 21.9954ZM72.1418 21.9954C71.6476 21.9954 71.1886 21.8178 70.8356 21.463C70.4823 21.1079 70.3057 20.6465 70.3057 20.1498V8.54342C70.3057 8.01105 70.4823 7.54965 70.8707 7.19481C71.2237 6.83974 71.6828 6.6622 72.1772 6.6622H79.9453C80.4395 6.6622 80.8985 6.83974 81.2518 7.15921C81.6048 7.51428 81.7814 7.94008 81.7814 8.47246C81.7814 8.96922 81.6048 9.43087 81.2163 9.75034C80.8633 10.0696 80.4395 10.2117 79.9453 10.2117H74.0133V12.4478H78.0032C78.4977 12.4478 78.9567 12.6251 79.2743 12.9446C79.6275 13.2994 79.8393 13.7255 79.8393 14.2222C79.8393 14.7192 79.6627 15.1806 79.2743 15.5001C78.9213 15.8196 78.4977 15.9969 78.0032 15.9969H74.0133V18.3751H79.9453C80.4395 18.3751 80.8988 18.5524 81.2163 18.8365C81.5696 19.1557 81.7814 19.6174 81.7814 20.1142C81.7814 20.6112 81.6048 21.0726 81.2518 21.4274C80.8985 21.7469 80.4749 21.9242 79.9453 21.9242H72.1418V21.9954ZM88.7562 13.264C89.2858 13.264 89.7094 13.1221 90.0626 12.8382C90.345 12.5897 90.4862 12.2703 90.4862 11.8442C90.4862 11.3475 90.345 10.9924 90.0272 10.6729C89.7094 10.3537 89.2858 10.2117 88.7562 10.2117H87.4851V13.2284H88.7562V13.264ZM92.7816 21.9954C92.1105 21.9954 91.5455 21.6759 91.1925 21.1079L88.509 16.8134H87.4851V20.1142C87.4851 20.6112 87.3083 21.0726 86.9553 21.4274C86.6023 21.7822 86.1433 21.9598 85.6137 21.9598C85.1192 21.9598 84.6602 21.7822 84.3072 21.4274C83.954 21.0726 83.7776 20.6112 83.7776 20.1142V8.50782C83.7776 7.97545 83.954 7.51428 84.3424 7.15921C84.6954 6.80413 85.1546 6.62684 85.6488 6.62684H88.7562C89.7448 6.62684 90.6628 6.83974 91.4749 7.26578C92.2871 7.69158 92.9579 8.33052 93.4169 9.1114C93.876 9.89228 94.1232 10.8151 94.1232 11.7733C94.1232 12.767 93.876 13.6898 93.3464 14.471C93.0285 14.9321 92.6401 15.3582 92.1811 15.6776L94.2996 19.0494C94.5116 19.4042 94.6174 19.7593 94.6174 20.1142C94.6174 20.6112 94.441 21.037 94.0878 21.3564C93.8408 21.7113 93.4524 21.9954 92.7816 21.9954ZM101.511 18.517C102.287 18.517 102.994 18.3395 103.594 17.9847C104.194 17.6296 104.653 17.1684 104.971 16.5292C105.324 15.8905 105.501 15.1453 105.501 14.3288C105.501 13.5126 105.324 12.767 104.971 12.1283C104.618 11.4894 104.194 11.028 103.594 10.6729C102.994 10.3181 102.287 10.1405 101.511 10.1405H100.239V18.4461H101.511V18.517ZM98.4033 21.9954C97.9091 21.9954 97.4501 21.8178 97.0969 21.463C96.7439 21.1079 96.5672 20.6465 96.5672 20.1498V8.54342C96.5672 8.01105 96.7439 7.54965 97.1323 7.19481C97.4853 6.83974 97.9443 6.6622 98.4387 6.6622H101.546C102.993 6.6622 104.335 6.98191 105.465 7.65622C106.63 8.33052 107.548 9.25333 108.184 10.389C108.82 11.5248 109.138 12.8736 109.138 14.2932C109.138 15.7486 108.82 17.0619 108.184 18.2332C107.548 19.4042 106.63 20.3271 105.465 21.0016C104.3 21.6403 102.993 21.9954 101.546 21.9954H98.4033ZM149.575 18.517C150.351 18.517 151.058 18.3395 151.658 17.9847C152.258 17.6296 152.717 17.1684 153.035 16.5292C153.388 15.8905 153.565 15.1453 153.565 14.3288C153.565 13.5126 153.388 12.767 153.035 12.1283C152.682 11.4894 152.258 11.028 151.658 10.6729C151.058 10.3181 150.351 10.1405 149.575 10.1405H148.304V18.4461H149.575V18.517ZM146.467 21.9954C145.973 21.9954 145.514 21.8178 145.161 21.463C144.808 21.1079 144.631 20.6465 144.631 20.1498V8.54342C144.631 8.01105 144.808 7.54965 145.196 7.19481C145.549 6.83974 146.008 6.6622 146.503 6.6622H149.61C151.058 6.6622 152.399 6.98191 153.529 7.65622C154.694 8.33052 155.613 9.25333 156.248 10.389C156.884 11.5248 157.201 12.8736 157.201 14.2932C157.201 15.7486 156.884 17.0619 156.248 18.2332C155.613 19.4042 154.694 20.3271 153.529 21.0016C152.364 21.6403 151.058 21.9954 149.61 21.9954H146.467ZM160.974 21.9954C160.444 21.9954 160.021 21.8178 159.668 21.463C159.315 21.1079 159.138 20.6465 159.138 20.1498V8.54342C159.138 8.04666 159.315 7.58525 159.668 7.23017C160.021 6.87534 160.48 6.6978 160.974 6.6978C161.468 6.6978 161.927 6.87534 162.28 7.23017C162.633 7.58525 162.81 8.04666 162.81 8.54342V18.3041H168.071C168.566 18.3041 169.025 18.4814 169.378 18.8365C169.731 19.1913 169.907 19.6528 169.907 20.1498C169.907 20.6465 169.731 21.1079 169.378 21.463C169.025 21.8178 168.566 21.9954 168.071 21.9954H160.974ZM173.734 21.9954C173.24 21.9954 172.781 21.8178 172.428 21.463C172.075 21.1079 171.898 20.6465 171.898 20.1498V8.54342C171.898 8.01105 172.075 7.54965 172.463 7.19481C172.816 6.83974 173.275 6.6622 173.769 6.6622H181.537C182.032 6.6622 182.491 6.83974 182.844 7.15921C183.197 7.51428 183.373 7.94008 183.373 8.47246C183.373 8.96922 183.197 9.43087 182.809 9.75034C182.455 10.0696 182.032 10.2117 181.537 10.2117H175.606V12.4478H179.56C180.055 12.4478 180.514 12.6251 180.831 12.9446C181.184 13.2994 181.396 13.7255 181.396 14.2222C181.396 14.7192 181.22 15.1806 180.831 15.5001C180.478 15.8196 180.055 15.9969 179.56 15.9969H175.57V18.3751H181.502C181.997 18.3751 182.455 18.5524 182.773 18.8365C183.126 19.1557 183.338 19.6174 183.338 20.1142C183.338 20.6112 183.162 21.0726 182.809 21.4274C182.455 21.7469 182.032 21.9242 181.502 21.9242H173.734V21.9954ZM12.9829 22.1729C11.7118 22.1729 10.5466 21.8888 9.48733 21.2855C8.39268 20.6821 7.61584 19.8659 7.19225 18.8365C7.08622 18.588 7.01562 18.3395 7.01562 18.1266C7.01562 17.7008 7.15682 17.3104 7.47464 16.9909C7.72186 16.7424 8.07486 16.5292 8.46328 16.4583C8.5693 16.4229 8.7105 16.4229 8.8517 16.4229C9.24011 16.4229 9.59311 16.5292 9.91093 16.7424C10.2287 16.9553 10.476 17.2394 10.6172 17.5942C10.7232 17.8071 11.0056 18.0556 11.394 18.2685C11.853 18.517 12.3826 18.6234 12.9829 18.6234C13.6539 18.6234 14.2187 18.4814 14.6425 18.1976C14.9601 17.9847 15.1016 17.7362 15.1016 17.3813C15.1016 16.9909 14.9601 16.7068 14.6425 16.4229C14.2893 16.1034 13.7245 15.8905 12.8771 15.8196C11.2528 15.6776 9.94635 15.1806 8.99289 14.3642C7.96908 13.4769 7.43922 12.3768 7.43922 11.028C7.43922 10.0696 7.72186 9.25333 8.2869 8.54342C8.81652 7.86912 9.52251 7.37211 10.4054 7.01727C11.2528 6.6978 12.1708 6.52026 13.1949 6.52026C14.3599 6.52026 15.3488 6.76877 16.1608 7.26578C16.9728 7.72718 17.6439 8.43685 18.2087 9.2887C18.4559 9.64377 18.5619 10.0342 18.5619 10.4246C18.5619 10.9924 18.2793 11.4894 17.8202 11.8442C17.5024 12.0574 17.1846 12.1283 16.8316 12.1283C16.4786 12.1283 16.1608 12.0574 15.8784 11.8798C15.5606 11.7023 15.3488 11.4538 15.1722 11.1343C14.9601 10.7795 14.7131 10.531 14.3599 10.3537C14.0421 10.1761 13.6185 10.0696 13.0889 10.0696C12.4178 10.0696 11.853 10.1761 11.4646 10.4246C11.2174 10.6019 11.1116 10.7795 11.1116 11.0633C11.1116 11.3828 11.2174 11.5957 11.5 11.8089C11.6764 11.9508 12.206 12.2347 13.5479 12.3768C15.1367 12.5188 16.3726 13.0511 17.2906 13.8674C18.2441 14.7548 18.7383 15.8905 18.7383 17.3104C18.7383 18.3395 18.4559 19.2623 17.8557 20.0078C17.2906 20.7531 16.5492 21.2855 15.6664 21.6403C14.8543 21.9954 13.9363 22.1729 12.9829 22.1729ZM49.4709 22.1729C48.0584 22.1729 46.7874 21.8178 45.6221 21.1435C44.4571 20.4692 43.5388 19.5108 42.868 18.3041C42.1972 17.0972 41.8794 15.784 41.8794 14.3642C41.8794 12.9446 42.2324 11.6313 42.868 10.4246C43.5388 9.25333 44.4571 8.29492 45.6221 7.58525C46.7874 6.87534 48.0938 6.52026 49.4709 6.52026C50.4595 6.52026 51.3069 6.6622 52.0486 6.9107C52.79 7.15921 53.5314 7.62061 54.2728 8.18859C54.5201 8.36588 54.7321 8.61439 54.8379 8.8629C54.9439 9.0758 54.9791 9.35966 54.9791 9.60817C54.9791 10.1052 54.7673 10.5666 54.4143 10.8861C54.061 11.2053 53.6374 11.3475 53.2136 11.3475C52.7546 11.3475 52.3662 11.2055 52.0132 10.9214C51.6248 10.5666 51.2363 10.3537 50.8833 10.2117C50.5655 10.0696 50.0711 9.99861 49.5063 9.99861C48.8 9.99861 48.1644 10.1761 47.5288 10.5666C46.9286 10.957 46.4341 11.4538 46.0811 12.1283C45.7281 12.8026 45.5515 13.5126 45.5515 14.2932C45.5515 15.0743 45.7281 15.8196 46.0811 16.4583C46.4341 17.0975 46.9286 17.6298 47.5288 18.02C48.129 18.4105 48.7646 18.588 49.5063 18.588C50.3889 18.588 51.2363 18.2685 52.0838 17.6652C52.4722 17.4167 52.8252 17.2748 53.2136 17.2748C53.708 17.2748 54.1316 17.4523 54.4495 17.8071C54.7673 18.1266 54.9085 18.588 54.9085 19.0848C54.9085 19.5818 54.7321 20.0432 54.3437 20.3983L54.2728 20.4336C52.8606 21.6049 51.2363 22.1729 49.4709 22.1729ZM118.714 10.0696C117.902 10.0696 117.196 10.2471 116.56 10.6375C115.925 10.9924 115.466 11.5248 115.113 12.1637C114.76 12.8026 114.583 13.5479 114.583 14.3642C114.583 15.1806 114.76 15.9259 115.113 16.5649C115.466 17.2038 115.96 17.7008 116.596 18.091C117.231 18.4461 117.938 18.659 118.75 18.659C119.562 18.659 120.268 18.4814 120.903 18.091C121.539 17.7008 122.033 17.2038 122.386 16.5649C122.739 15.9259 122.916 15.1806 122.916 14.3642C122.916 13.5479 122.739 12.8026 122.386 12.1637C122.033 11.5248 121.539 11.028 120.939 10.6375C120.268 10.2471 119.526 10.0696 118.714 10.0696ZM118.714 22.1729C117.231 22.1729 115.854 21.8532 114.689 21.1789C113.488 20.5046 112.57 19.5464 111.899 18.3751C111.264 17.2038 110.911 15.8549 110.911 14.3642C110.911 12.8736 111.229 11.5248 111.899 10.3537C112.57 9.14676 113.488 8.22395 114.689 7.54965C115.854 6.87534 117.231 6.55587 118.714 6.55587C120.197 6.55587 121.539 6.87534 122.704 7.54965C123.905 8.22395 124.823 9.14676 125.494 10.3537C126.164 11.5248 126.482 12.8736 126.482 14.3642C126.482 15.8549 126.164 17.2038 125.494 18.3751C124.823 19.5818 123.905 20.5046 122.704 21.1789C121.574 21.8532 120.232 22.1729 118.714 22.1729ZM135.098 10.0696C134.286 10.0696 133.58 10.2471 132.944 10.6375C132.308 10.9924 131.849 11.5248 131.496 12.1637C131.143 12.8026 130.967 13.5479 130.967 14.3642C130.967 15.1806 131.143 15.9259 131.496 16.5649C131.849 17.2038 132.344 17.7008 132.979 18.091C133.615 18.4461 134.321 18.659 135.133 18.659C135.945 18.659 136.651 18.4814 137.287 18.091C137.922 17.7008 138.417 17.2038 138.77 16.5649C139.123 15.9259 139.3 15.1806 139.3 14.3642C139.3 13.5479 139.123 12.8026 138.77 12.1637C138.417 11.5248 137.922 11.028 137.322 10.6375C136.616 10.2471 135.91 10.0696 135.098 10.0696ZM135.098 22.1729C133.615 22.1729 132.238 21.8532 131.072 21.1789C129.872 20.5046 128.954 19.5464 128.283 18.3751C127.647 17.2038 127.294 15.8549 127.294 14.3642C127.294 12.8736 127.612 11.5248 128.283 10.3537C128.954 9.14676 129.872 8.22395 131.072 7.54965C132.238 6.87534 133.615 6.55587 135.098 6.55587C136.581 6.55587 137.923 6.87534 139.088 7.54965C140.288 8.22395 141.206 9.14676 141.877 10.3537C142.548 11.5248 142.866 12.8736 142.866 14.3642C142.866 15.8549 142.548 17.2038 141.877 18.3751C141.206 19.5818 140.288 20.5046 139.088 21.1789C137.923 21.8532 136.581 22.1729 135.098 22.1729Z" fill="white"/>
    <path fill-rule="evenodd" clip-rule="evenodd" d="M100.663 10.6042H101.511C102.217 10.6042 102.852 10.7464 103.382 11.0656C103.912 11.3851 104.335 11.8111 104.618 12.3435C104.936 12.9112 105.077 13.5858 105.077 14.331C105.077 15.0763 104.936 15.7509 104.618 16.3542C104.3 16.9219 103.912 17.348 103.382 17.6318C102.852 17.9513 102.217 18.0933 101.511 18.0933H100.663V10.6042ZM109.488 13.9762C109.453 12.5918 109.208 11.3497 108.573 10.2138C107.901 8.97148 106.913 8.01306 105.712 7.30339C104.512 6.62909 103.1 6.27401 101.581 6.27401H98.4036C97.8031 6.27401 97.2383 6.48716 96.8145 6.91295C96.3909 7.33875 96.1437 7.90673 96.1437 8.54568V20.1518C96.1437 20.7554 96.3909 21.3231 96.8145 21.7491C97.2383 22.1749 97.8031 22.3878 98.4036 22.3878H101.511C103.029 22.3878 104.441 22.033 105.642 21.3587C106.878 20.6488 107.831 19.6904 108.502 18.4483C109.102 17.348 109.455 16.0703 109.491 14.6859L109.488 13.9762ZM99.8512 18.9097H101.511C102.358 18.9097 103.135 18.7322 103.771 18.3418C104.441 17.9513 104.936 17.4189 105.324 16.7446C105.712 16.0347 105.889 15.2539 105.889 14.3664C105.889 13.4792 105.712 12.6983 105.324 11.9884C104.936 11.3141 104.441 10.7817 103.771 10.3913C103.1 10.0009 102.358 9.82332 101.511 9.82332H99.8512V18.9097ZM101.511 7.09049C102.888 7.09049 104.159 7.40972 105.253 8.01306C106.348 8.65225 107.231 9.50385 107.831 10.6042C108.431 11.7045 108.749 12.9468 108.749 14.331C108.749 15.7153 108.431 16.9575 107.831 18.0576C107.231 19.158 106.348 20.0454 105.253 20.6488C104.159 21.2521 102.923 21.5716 101.511 21.5716H98.4036C98.0149 21.5716 97.6619 21.4297 97.3795 21.1458C97.0969 20.8617 96.9557 20.5068 96.9557 20.1164V8.51007C96.9557 8.08427 97.0969 7.72919 97.3795 7.48093C97.6619 7.19682 98.0149 7.09049 98.4036 7.09049H101.511ZM181.502 6.30742H173.734C173.134 6.30742 172.569 6.52032 172.145 6.94637C171.721 7.37217 171.474 7.94014 171.474 8.57909V20.1852C171.474 20.7885 171.721 21.3565 172.145 21.7823C172.569 22.2083 173.134 22.4212 173.734 22.4212H181.502C182.102 22.4212 182.667 22.2083 183.091 21.8179C183.515 21.4275 183.762 20.8597 183.762 20.2208C183.762 19.6172 183.515 19.0495 183.091 18.6234C182.667 18.2332 182.138 18.0557 181.538 18.0557H176.029V16.4939H179.56C180.16 16.4939 180.69 16.281 181.114 15.8906C181.573 15.4646 181.785 14.9322 181.785 14.2932C181.785 13.6899 181.538 13.1222 181.114 12.6961C180.69 12.3059 180.16 12.0928 179.56 12.0928H175.994V10.6376H181.502C182.102 10.6376 182.632 10.4247 183.056 10.0696C183.48 9.67944 183.727 9.11146 183.727 8.47251C183.727 7.86918 183.48 7.3012 183.056 6.87516C182.667 6.52032 182.102 6.30742 181.502 6.30742ZM31.9629 6.30742C31.3627 6.30742 30.7977 6.52032 30.3741 6.94637C29.9503 7.37217 29.703 7.94014 29.703 8.57909V13.903L24.6538 7.19487L24.6187 7.15927C24.4066 6.94637 24.1948 6.76883 23.9124 6.62689C23.5946 6.48496 23.2768 6.37839 22.9238 6.37839C22.3233 6.37839 21.7585 6.59129 21.3349 7.01733C20.9111 7.44313 20.6993 8.01111 20.6993 8.61445V20.2208C20.6993 20.8241 20.9463 21.4275 21.3349 21.8179C21.7585 22.2439 22.2882 22.4568 22.9238 22.4568C23.5592 22.4568 24.1242 22.2083 24.5481 21.7823C24.9717 21.3565 25.1835 20.8241 25.1835 20.1852V14.8612L30.2327 21.534C30.4447 21.8533 30.7623 22.1018 31.1507 22.2439C31.4333 22.3503 31.7512 22.4212 32.0336 22.4212C32.6338 22.4212 33.1988 22.2083 33.6224 21.7823C34.0462 21.3565 34.258 20.7885 34.258 20.1852V8.57909C34.258 7.94014 34.0462 7.40777 33.6224 6.98173C33.1282 6.52032 32.5632 6.30742 31.9629 6.30742ZM38.0362 6.30742C37.436 6.30742 36.8709 6.52032 36.4473 6.94637C36.0235 7.37217 35.7763 7.94014 35.7763 8.57909V20.1852C35.7763 20.7885 36.0235 21.3565 36.4473 21.7823C36.8709 22.2083 37.436 22.4212 38.0362 22.4212C38.6716 22.4212 39.2366 22.173 39.6605 21.7469C40.0841 21.3209 40.2959 20.7885 40.2959 20.1498V8.54348C40.2959 7.90454 40.0841 7.37217 39.6605 6.94637C39.2366 6.52032 38.6716 6.30742 38.0362 6.30742ZM66.5089 6.30742C66.1559 6.30742 65.8381 6.37839 65.5557 6.52032C65.3082 6.62689 65.0612 6.80419 64.814 7.05269L61.4243 10.4247V8.54348C61.4243 7.94014 61.1773 7.37217 60.7534 6.94637C60.3296 6.52032 59.7648 6.30742 59.1646 6.30742C58.5644 6.30742 58.0348 6.52032 57.6109 6.94637C57.1871 7.37217 56.9401 7.94014 56.9401 8.54348V20.1498C56.9401 20.7532 57.1871 21.3565 57.6109 21.7469C58.0348 22.173 58.5996 22.3859 59.1646 22.3859C59.7648 22.3859 60.3296 22.1374 60.7534 21.7469C61.1773 21.3209 61.4243 20.7532 61.4243 20.1498V17.2395L64.5316 21.4631C64.9552 22.0664 65.6263 22.4212 66.3677 22.4212C67.0033 22.4212 67.5681 22.1374 67.9565 21.676C68.3098 21.2499 68.4864 20.7532 68.4864 20.1852C68.4864 19.6884 68.3449 19.2268 68.0625 18.8366L64.2844 13.6899L67.8505 10.1406C68.3098 9.67944 68.5922 9.07585 68.5922 8.40155C68.5922 7.86918 68.4155 7.3368 68.0271 6.94612C67.6741 6.52032 67.1091 6.30742 66.5089 6.30742ZM160.974 6.30742C160.374 6.30742 159.809 6.55593 159.385 6.94637C158.961 7.37217 158.714 7.94014 158.714 8.54348V20.1498C158.714 20.7532 158.926 21.3209 159.35 21.7469C159.774 22.173 160.338 22.4212 160.939 22.4212H168.071C168.672 22.4212 169.236 22.173 169.66 21.7823C170.084 21.3565 170.331 20.7885 170.331 20.1852C170.331 19.5818 170.084 19.0139 169.66 18.5881C169.236 18.162 168.672 17.9491 168.071 17.9491H163.199V8.57909C163.199 7.9755 162.951 7.40777 162.528 6.98173C162.139 6.52032 161.574 6.30742 160.974 6.30742ZM79.9099 6.30742H72.1418C71.5416 6.30742 70.9768 6.52032 70.5529 6.94637C70.1293 7.37217 69.8821 7.94014 69.8821 8.57909V20.1852C69.8821 20.7885 70.1293 21.3565 70.5529 21.7823C70.9768 22.2083 71.5416 22.4212 72.1418 22.4212H79.9099C80.5104 22.4212 81.0752 22.2083 81.499 21.8179C81.9226 21.4275 82.1698 20.8597 82.1698 20.2208C82.1698 19.6172 81.9226 19.0495 81.499 18.6234C81.0752 18.2332 80.5455 18.0557 79.9453 18.0557H74.4369V16.4939H78.0032C78.6035 16.4939 79.1331 16.281 79.5569 15.8906C79.9808 15.4646 80.2277 14.9322 80.2277 14.2932C80.2277 13.6899 79.9808 13.1222 79.5569 12.6961C79.1331 12.3059 78.6035 12.0928 78.0032 12.0928H74.4369V10.6376H79.9453C80.5455 10.6376 81.0752 10.4247 81.499 10.0696C81.9226 9.67944 82.1698 9.11146 82.1698 8.47251C82.1698 7.86918 81.9226 7.3012 81.499 6.87516C81.0752 6.52032 80.5104 6.30742 79.9099 6.30742ZM87.9087 10.673H88.7562C89.1798 10.673 89.4976 10.7795 89.7448 11.028C89.992 11.2409 90.0626 11.5248 90.0626 11.8799C90.0626 12.1994 89.992 12.3769 89.7802 12.5542C89.533 12.7671 89.1798 12.8737 88.7562 12.8737H87.9087V10.673ZM88.7562 6.30742H85.6488C85.0486 6.30742 84.4838 6.52032 84.06 6.94637C83.6361 7.37217 83.3892 7.94014 83.3892 8.57909V20.1852C83.3892 20.7885 83.6361 21.3565 84.06 21.7823C84.4838 22.2083 85.0486 22.4212 85.6488 22.4212C86.2845 22.4212 86.8495 22.173 87.2731 21.7469C87.697 21.3209 87.9087 20.7885 87.9087 20.1498V17.2395H88.2972L90.8746 21.3565C91.2985 22.0308 92.0047 22.4212 92.7813 22.4212C93.5582 22.4212 94.0878 22.0664 94.3704 21.7823C94.794 21.3921 95.0058 20.8241 95.0058 20.2561C95.0058 19.795 94.8646 19.3689 94.6176 18.9785L92.7107 15.8906C93.064 15.5711 93.417 15.2163 93.6642 14.7903C94.229 13.9384 94.5116 12.9446 94.5116 11.8799C94.5116 10.8151 94.2644 9.85673 93.77 9.00489C93.2758 8.15304 92.5695 7.47874 91.6515 6.98173C90.7689 6.52032 89.8154 6.30742 88.7562 6.30742ZM148.727 10.602H149.575C150.281 10.602 150.916 10.7442 151.446 11.0634C151.976 11.3829 152.364 11.7733 152.682 12.3413C153 12.9093 153.141 13.5836 153.141 14.3288C153.141 15.0744 153 15.7487 152.682 16.352C152.364 16.9197 151.976 17.3458 151.446 17.6299C150.916 17.9491 150.281 18.0911 149.575 18.0911H148.727V10.602ZM149.575 6.30742H146.467C145.867 6.30742 145.302 6.52032 144.879 6.94637C144.455 7.37217 144.208 7.94014 144.208 8.57909V20.1852C144.208 20.7885 144.455 21.3565 144.879 21.7823C145.302 22.2083 145.867 22.4212 146.467 22.4212H149.575C151.093 22.4212 152.505 22.0664 153.706 21.3921C154.942 20.6822 155.895 19.7238 156.566 18.4815C157.237 17.2748 157.59 15.8906 157.59 14.3642C157.59 12.8383 157.237 11.4538 156.566 10.2472C155.895 9.00489 154.906 8.04671 153.706 7.3368C152.505 6.62689 151.093 6.30742 149.575 6.30742ZM13.1949 6.12988C12.1357 6.12988 11.1468 6.30742 10.2642 6.62689C9.31072 6.98173 8.53389 7.5497 7.96909 8.25961C7.36888 9.04025 7.05106 9.9633 7.05106 10.9924C7.05106 12.4123 7.65127 13.6899 8.74569 14.6127C9.76974 15.5002 11.1468 15.9969 12.8417 16.1745C13.7597 16.281 14.1835 16.4939 14.3599 16.6715C14.572 16.8844 14.678 17.0617 14.678 17.3458C14.678 17.5587 14.6426 17.6653 14.3953 17.8428C14.0421 18.0911 13.5479 18.1976 12.9477 18.1976C12.4181 18.1976 11.9591 18.0911 11.5352 17.8782C11.0762 17.6297 10.9704 17.4524 10.935 17.3814C10.7584 16.9553 10.476 16.6359 10.0876 16.352C9.69914 16.1035 9.2753 15.9616 8.81653 15.9616C8.63991 15.9616 8.46329 15.9969 8.32209 16.0325C7.86307 16.1391 7.47465 16.352 7.15683 16.6715C6.80384 17.0617 6.5918 17.5587 6.5918 18.0557C6.5918 18.3396 6.66264 18.6234 6.76842 18.9429C7.22768 20.0432 8.07487 20.9307 9.24012 21.5694C10.3348 22.173 11.6058 22.4922 12.9123 22.4922C13.9363 22.4922 14.8898 22.3149 15.8078 21.9598C16.761 21.5694 17.5733 21.0017 18.1735 20.1852C18.8089 19.3689 19.1267 18.3752 19.1267 17.2395C19.1267 15.7131 18.5971 14.4708 17.5379 13.5126C16.5492 12.6252 15.2428 12.0928 13.5479 11.9153C12.1708 11.7733 11.7824 11.4895 11.7118 11.4185C11.5 11.2409 11.4646 11.1344 11.4646 10.9571C11.4646 10.7795 11.5 10.7442 11.6412 10.6376C11.9591 10.4247 12.4532 10.3537 13.0537 10.3537C13.5125 10.3537 13.9009 10.4247 14.1481 10.5666C14.3953 10.7086 14.6071 10.9215 14.8192 11.2409C15.031 11.5958 15.3134 11.8799 15.6664 12.0928C16.0196 12.3057 16.408 12.4123 16.8316 12.4123C17.2555 12.4123 17.6791 12.3057 18.0323 12.0572C18.6325 11.6314 18.9503 11.028 18.9503 10.3181C18.9503 9.85673 18.8089 9.39532 18.5265 8.96928C17.9263 8.04647 17.22 7.3368 16.3374 6.80419C15.5252 6.41399 14.4308 6.12988 13.1949 6.12988ZM49.4709 6.12988C47.9878 6.12988 46.6462 6.52032 45.4103 7.23023C44.2099 7.9755 43.221 8.96928 42.515 10.2118C41.8088 11.4538 41.4558 12.8381 41.4558 14.3288C41.4558 15.8196 41.8088 17.2039 42.515 18.4815C43.221 19.7238 44.1745 20.7532 45.4103 21.4631C46.6462 22.2083 47.9878 22.5634 49.4709 22.5634C51.3424 22.5634 53.0372 21.9598 54.5201 20.7885H54.5555L54.5907 20.7532L54.6261 20.7176L54.6613 20.6822C55.0851 20.2561 55.3323 19.6884 55.3323 19.0848C55.3323 18.4815 55.1203 17.9491 54.7673 17.5587C54.3789 17.1329 53.8141 16.8844 53.249 16.8844C52.79 16.8844 52.331 17.0263 51.872 17.3458C51.0951 17.9138 50.3183 18.1976 49.5063 18.1976C48.8707 18.1976 48.3056 18.0557 47.7408 17.7009C47.1758 17.3458 46.7522 16.8844 46.4344 16.281C46.1166 15.6777 45.9399 15.0034 45.9399 14.2932C45.9399 13.5836 46.1166 12.9093 46.4344 12.3057C46.7522 11.7024 47.2112 11.2409 47.7408 10.8861C48.2704 10.5666 48.8355 10.3891 49.5063 10.3891C50.1771 10.3891 50.5301 10.4957 50.7419 10.5666C51.0597 10.673 51.3775 10.9215 51.766 11.2053C52.1898 11.5604 52.7194 11.7377 53.249 11.7377C53.8141 11.7377 54.3083 11.5248 54.7321 11.17C55.1911 10.7795 55.4381 10.2118 55.4381 9.57286C55.4381 9.25339 55.3675 8.93392 55.2617 8.65005C55.1203 8.33058 54.8733 8.01111 54.5907 7.79821C53.8141 7.19487 53.037 6.73322 52.2604 6.44935C51.413 6.27182 50.4949 6.12988 49.4709 6.12988ZM181.502 7.0883C181.926 7.0883 182.279 7.23023 182.526 7.47874C182.809 7.72724 182.95 8.08208 182.95 8.50788C182.95 8.89831 182.809 9.25339 182.526 9.50165C182.244 9.7504 181.926 9.85673 181.502 9.85673H175.182V12.9093H179.56C179.949 12.9093 180.302 13.0512 180.584 13.2995C180.867 13.548 181.008 13.903 181.008 14.2932C181.008 14.6839 180.867 15.0388 180.584 15.2873C180.302 15.5358 179.949 15.6777 179.56 15.6777H175.182V18.8366H181.502C181.926 18.8366 182.244 18.9785 182.526 19.1914C182.809 19.4399 182.95 19.795 182.95 20.1852C182.95 20.5756 182.809 20.9307 182.526 21.2146C182.244 21.4631 181.891 21.605 181.502 21.605H173.734C173.346 21.605 172.993 21.4631 172.71 21.179C172.428 20.8951 172.286 20.5403 172.286 20.1498V8.54348C172.286 8.11768 172.428 7.7626 172.71 7.51434C172.992 7.23023 173.346 7.1239 173.734 7.1239L181.502 7.0883ZM31.9629 7.0883C32.3514 7.0883 32.7044 7.23023 32.987 7.51434C33.2694 7.79821 33.4106 8.15304 33.4106 8.54348V20.1498C33.4106 20.5756 33.2694 20.9307 32.987 21.179C32.7044 21.4631 32.3514 21.605 31.9629 21.605C31.7512 21.605 31.5745 21.5694 31.3627 21.4984C31.1155 21.3919 30.9389 21.2499 30.7977 21.0726L24.336 12.4832V20.1498C24.336 20.5403 24.1948 20.8951 23.9124 21.179C23.6298 21.4631 23.2768 21.605 22.8532 21.605C22.4648 21.605 22.1115 21.4631 21.8291 21.179C21.5467 20.8951 21.4055 20.5403 21.4055 20.1498V8.54348C21.4055 8.11768 21.5467 7.7626 21.8291 7.51434C22.1115 7.23023 22.4648 7.0883 22.8532 7.0883C23.065 7.0883 23.2768 7.1239 23.4886 7.23023C23.6652 7.3368 23.8418 7.44313 23.983 7.58531L24.0185 7.62067L30.5153 16.2101V8.50788C30.5153 8.08208 30.6565 7.72724 30.9389 7.47874C31.2213 7.23023 31.5745 7.0883 31.9629 7.0883ZM38.0362 7.0883C38.4598 7.0883 38.813 7.23023 39.0954 7.51434C39.3781 7.79821 39.5193 8.15304 39.5193 8.54348V20.1498C39.5193 20.5403 39.3781 20.8951 39.0954 21.179C38.813 21.4631 38.4598 21.605 38.0362 21.605C37.6478 21.605 37.2948 21.4631 37.0121 21.179C36.7297 20.8951 36.5885 20.5403 36.5885 20.1498V8.54348C36.5885 8.11768 36.7297 7.7626 37.0121 7.51434C37.2948 7.23023 37.6478 7.0883 38.0362 7.0883ZM66.5089 7.0883C67.0033 7.0883 67.3209 7.3012 67.4975 7.47874C67.7093 7.72724 67.8505 8.04671 67.8505 8.36594C67.8505 8.79199 67.6741 9.21779 67.3563 9.53726L63.2957 13.6189L67.4975 19.298C67.6741 19.5462 67.7799 19.866 67.7799 20.1852C67.7799 20.5403 67.6741 20.8595 67.4269 21.1436C67.1797 21.4631 66.8267 21.605 66.4383 21.605C65.9441 21.605 65.5202 21.3919 65.2376 20.9661L61.2831 15.6421L60.6828 16.2454V20.1498C60.6828 20.5403 60.5416 20.8951 60.259 21.179C59.9766 21.4631 59.6236 21.605 59.2352 21.605C58.8468 21.605 58.4938 21.4631 58.2111 21.179C57.9285 20.8951 57.7873 20.5403 57.7873 20.1498V8.54348C57.7873 8.15304 57.9285 7.79821 58.2111 7.51434C58.4935 7.23023 58.8468 7.0883 59.2352 7.0883C59.6236 7.0883 59.9766 7.23023 60.259 7.51434C60.5416 7.79821 60.6828 8.15304 60.6828 8.54348V12.3413L65.4142 7.62067C65.5908 7.44313 65.7675 7.3012 65.9441 7.23023C66.0853 7.1239 66.2971 7.0883 66.5089 7.0883ZM160.974 7.0883C161.362 7.0883 161.715 7.23023 161.998 7.51434C162.281 7.79821 162.422 8.15304 162.422 8.54348V18.6944H168.071C168.46 18.6944 168.813 18.8366 169.095 19.1204C169.378 19.4043 169.519 19.7594 169.519 20.1498C169.519 20.5403 169.378 20.8951 169.095 21.179C168.813 21.4631 168.46 21.605 168.071 21.605H160.939C160.55 21.605 160.162 21.4631 159.915 21.179C159.632 20.8951 159.491 20.5403 159.491 20.1498V8.54348C159.491 8.15304 159.632 7.79821 159.915 7.51434C160.233 7.23023 160.586 7.0883 160.974 7.0883ZM79.9099 7.0883C80.3337 7.0883 80.6867 7.23023 80.934 7.47874C81.2164 7.72724 81.3576 8.08208 81.3576 8.50788C81.3576 8.89831 81.2164 9.25339 80.934 9.50165C80.6516 9.7504 80.3337 9.85673 79.9099 9.85673H73.5897V12.9093H77.9681C78.3565 12.9093 78.7095 13.0512 78.9919 13.2995C79.2743 13.548 79.4157 13.903 79.4157 14.2932C79.4157 14.6839 79.2743 15.0388 78.9919 15.2873C78.7095 15.5358 78.3565 15.6777 77.9681 15.6777H73.5897V18.8366H79.9099C80.2983 18.8366 80.6516 18.9785 80.934 19.1914C81.2164 19.4399 81.3576 19.795 81.3576 20.1852C81.3576 20.5756 81.2164 20.9307 80.934 21.2146C80.6867 21.4631 80.2983 21.605 79.9099 21.605H72.1418C71.7534 21.605 71.4004 21.4631 71.118 21.179C70.8356 20.8951 70.6941 20.5403 70.6941 20.1498V8.54348C70.6941 8.11768 70.8356 7.7626 71.118 7.51434C71.4004 7.23023 71.7534 7.1239 72.1418 7.1239L79.9099 7.0883ZM87.0967 13.6899H88.7208C89.3564 13.6899 89.886 13.5126 90.2744 13.1575C90.6629 12.8383 90.8395 12.4123 90.8395 11.8799C90.8395 11.2766 90.6629 10.8151 90.2744 10.4247C89.886 10.0343 89.3564 9.85673 88.7208 9.85673H87.0967V13.6899ZM88.7562 7.0883C89.7096 7.0883 90.5568 7.3012 91.2985 7.69164C92.0753 8.08208 92.6756 8.68541 93.0991 9.39532C93.523 10.1052 93.7348 10.9571 93.7348 11.8799C93.7348 12.8027 93.4876 13.6189 93.0285 14.3642C92.6755 14.8968 92.2165 15.3582 91.6515 15.6777L93.9818 19.4043C94.1584 19.6884 94.229 19.9723 94.229 20.2561C94.229 20.6466 94.0878 20.9661 93.8406 21.2146C93.6642 21.3919 93.3464 21.605 92.8167 21.605C92.2871 21.605 91.8635 21.3565 91.5809 20.9307L88.7914 16.4583H87.1673V20.1498C87.1673 20.5403 87.0259 20.8951 86.7435 21.179C86.4609 21.4631 86.1079 21.605 85.6843 21.605C85.2958 21.605 84.9428 21.4631 84.6602 21.179C84.3778 20.8951 84.2366 20.5403 84.2366 20.1498V8.54348C84.2366 8.11768 84.3778 7.7626 84.6602 7.51434C84.9426 7.23023 85.2958 7.1239 85.6843 7.1239L88.7562 7.0883ZM147.915 18.9075H149.575C150.422 18.9075 151.199 18.73 151.834 18.3396C152.505 17.9491 153 17.4168 153.388 16.7424C153.777 16.0325 153.953 15.2517 153.953 14.3642C153.953 13.477 153.777 12.6961 153.388 11.9862C153 11.3119 152.505 10.7795 151.834 10.3891C151.164 9.99866 150.422 9.82137 149.575 9.82137H147.915V18.9075ZM149.575 7.0883C150.952 7.0883 152.223 7.40777 153.318 8.01111C154.412 8.65005 155.295 9.50165 155.895 10.602C156.495 11.7024 156.813 12.9446 156.813 14.3288C156.813 15.7131 156.495 16.9553 155.895 18.0557C155.295 19.1558 154.412 20.0432 153.318 20.6466C152.223 21.2499 150.987 21.5694 149.575 21.5694H146.467C146.079 21.5694 145.726 21.4275 145.443 21.1436C145.161 20.8597 145.02 20.5047 145.02 20.1142V8.50812C145.02 8.08208 145.161 7.72724 145.443 7.47874C145.726 7.19487 146.079 7.0883 146.467 7.0883H149.575ZM13.1949 6.94637C14.2893 6.94637 15.2076 7.15927 15.9842 7.62067C16.7256 8.08208 17.3615 8.72102 17.8911 9.50165C18.1029 9.82137 18.1735 10.1052 18.1735 10.4247C18.1735 10.8505 17.9617 11.2409 17.5733 11.4895C17.3261 11.6314 17.0788 11.7024 16.7962 11.7024C16.5138 11.7024 16.2666 11.6314 16.0196 11.4895C15.7724 11.3475 15.5958 11.17 15.4546 10.9215C15.2074 10.4957 14.8898 10.1762 14.5014 9.9633C14.1127 9.7504 13.6185 9.64383 13.0183 9.64383C12.2414 9.64383 11.6412 9.78576 11.2174 10.0696C10.829 10.3181 10.6878 10.602 10.6878 11.0634C10.6878 11.4895 10.8644 11.8443 11.2174 12.1284C11.4998 12.3413 12.1003 12.6608 13.4773 12.8027C14.9604 12.9446 16.1608 13.406 17.0082 14.1869C17.8909 15.0034 18.3147 16.0325 18.3147 17.3458C18.3147 18.3042 18.0675 19.1204 17.5379 19.7947C17.0437 20.4693 16.3372 20.9661 15.5252 21.2855C14.7132 21.605 13.8657 21.7469 12.9477 21.7469C11.747 21.7469 10.6172 21.4631 9.62854 20.9307C8.60449 20.3627 7.89849 19.6172 7.51007 18.6944C7.43948 18.4815 7.36888 18.3042 7.36888 18.1267C7.36888 17.8072 7.47465 17.5233 7.72187 17.2748C7.93367 17.0617 8.18089 16.9197 8.49871 16.8488C8.56931 16.8134 8.67509 16.8134 8.81629 16.8134C9.09893 16.8134 9.38132 16.8844 9.66396 17.0617C9.91094 17.2395 10.123 17.4524 10.2288 17.7362C10.37 18.0557 10.6878 18.3396 11.1822 18.5881C11.7118 18.8719 12.312 18.9785 12.9477 18.9785C13.6891 18.9785 14.3247 18.801 14.8192 18.4815C15.2428 18.1976 15.4546 17.8072 15.4546 17.3458C15.4546 16.8488 15.278 16.4583 14.8898 16.1035C14.4659 15.7131 13.8303 15.5002 12.9123 15.3936C11.394 15.2517 10.1582 14.7903 9.24012 14.0094C8.28667 13.1931 7.82765 12.1994 7.82765 10.9924C7.82765 10.1406 8.07487 9.39532 8.56931 8.75638C9.0635 8.15304 9.69914 7.69164 10.5112 7.37217C11.3586 7.0883 12.2414 6.94637 13.1949 6.94637ZM49.4709 6.91076C50.3889 6.91076 51.2364 7.05269 51.9074 7.3012C52.6134 7.5497 53.3196 7.9755 53.9907 8.50788C54.2025 8.65005 54.3437 8.82735 54.4143 9.04025C54.4849 9.21779 54.5203 9.43069 54.5203 9.64383C54.5203 10.0343 54.3789 10.3891 54.0965 10.6376C53.8141 10.8861 53.4963 10.9924 53.143 10.9924C52.79 10.9924 52.4722 10.8861 52.1898 10.6376C51.766 10.2828 51.3424 9.99866 50.9539 9.85673C50.5655 9.7148 50.0711 9.64383 49.4357 9.64383C48.6589 9.64383 47.9172 9.85673 47.2818 10.2472C46.611 10.673 46.0811 11.2409 45.6927 11.9509C45.3043 12.6608 45.0925 13.477 45.0925 14.3288C45.0925 15.1807 45.3043 15.9969 45.6927 16.7068C46.0811 17.4168 46.611 17.9847 47.2818 18.4105C47.9526 18.8366 48.6589 19.0139 49.4357 19.0139C50.4243 19.0139 51.3424 18.6944 52.2604 17.9847C52.5782 17.7718 52.8606 17.6653 53.1784 17.6653C53.5669 17.6653 53.8847 17.8072 54.1319 18.0911C54.3789 18.3396 54.4849 18.6944 54.4849 19.0848C54.4849 19.4753 54.3437 19.8303 54.0613 20.1142L54.0259 20.1498L53.9907 20.1852C52.6488 21.2499 51.1303 21.8179 49.4357 21.8179C48.0938 21.8179 46.8934 21.4984 45.7987 20.8241C44.7041 20.1852 43.8215 19.2624 43.1858 18.1267C42.5502 16.9907 42.2324 15.7487 42.2324 14.3642C42.2324 13.0156 42.5502 11.7733 43.1858 10.6376C43.8215 9.50165 44.7041 8.61445 45.7987 7.94014C46.8934 7.26584 48.1292 6.91076 49.4709 6.91076Z" fill="#232039"/>
    <path fill-rule="evenodd" clip-rule="evenodd" d="M121.836 16.352C121.518 16.9553 121.095 17.3814 120.53 17.7362C119.965 18.0557 119.329 18.1976 118.588 18.1976C117.882 18.1976 117.211 18.0201 116.645 17.7006C116.081 17.3458 115.657 16.92 115.339 16.3164C115.021 15.713 114.845 15.0387 114.845 14.2935C114.845 13.5479 115.021 12.8736 115.339 12.2703C115.657 11.7023 116.081 11.2409 116.645 10.9214C117.211 10.602 117.846 10.4247 118.588 10.4247C119.329 10.4247 119.965 10.602 120.53 10.9214C121.095 11.2409 121.518 11.7023 121.836 12.3059C122.154 12.9092 122.33 13.5835 122.33 14.3288C122.33 15.0743 122.154 15.7486 121.836 16.352ZM120.918 10.2471C120.247 9.8567 119.435 9.6438 118.552 9.6438C117.669 9.6438 116.893 9.8567 116.187 10.2471C115.516 10.6376 114.951 11.2053 114.562 11.9155C114.174 12.6251 113.962 13.4414 113.962 14.3288C113.962 15.2163 114.174 16.0325 114.562 16.7424C114.951 17.4523 115.48 18.0201 116.187 18.4105C116.963 18.8009 117.74 19.0141 118.588 19.0141C119.47 19.0141 120.247 18.8009 120.918 18.4105C121.624 17.9847 122.154 17.4523 122.542 16.7424C122.931 16.0325 123.143 15.2163 123.143 14.3288C123.143 13.4414 122.931 12.6251 122.542 11.9155C122.154 11.2053 121.624 10.6376 120.918 10.2471Z" fill="#232039"/>
    <path fill-rule="evenodd" clip-rule="evenodd" d="M125.049 18.162C124.413 19.2977 123.531 20.1849 122.401 20.8238C121.306 21.4628 120 21.7823 118.587 21.7823C117.175 21.7823 115.869 21.4628 114.774 20.8238C113.644 20.1849 112.761 19.2977 112.126 18.162C111.525 17.026 111.208 15.7484 111.208 14.3286C111.208 12.9087 111.525 11.6311 112.126 10.4954C112.761 9.35968 113.644 8.47223 114.774 7.83329C115.904 7.19459 117.175 6.87512 118.587 6.87512C120 6.87512 121.271 7.19459 122.401 7.83329C123.531 8.47223 124.413 9.35968 125.049 10.4954C125.685 11.6311 126.002 12.9087 126.002 14.3286C126.002 15.7484 125.685 17.026 125.049 18.162ZM125.724 10.094C125.022 8.83901 124.047 7.85865 122.798 7.15289C121.55 6.44712 120.146 6.09424 118.586 6.09424C117.025 6.09424 115.621 6.44712 114.373 7.15289C113.124 7.85865 112.149 8.83901 111.447 10.094C110.784 11.3487 110.433 12.7602 110.433 14.3286C110.433 15.8971 110.784 17.3087 111.447 18.5634C112.149 19.8184 113.124 20.7987 114.373 21.5045C115.582 22.2103 117.025 22.5631 118.586 22.5631C120.146 22.5631 121.589 22.2103 122.798 21.5045C124.047 20.7987 125.022 19.8184 125.724 18.5634C126.426 17.3087 126.777 15.8971 126.777 14.3286C126.777 12.7602 126.426 11.3487 125.724 10.094Z" fill="#232039"/>
    <path fill-rule="evenodd" clip-rule="evenodd" d="M138.013 16.352C137.695 16.9553 137.271 17.3814 136.706 17.7362C136.142 18.0557 135.506 18.1976 134.764 18.1976C134.058 18.1976 133.387 18.0201 132.822 17.7006C132.257 17.3458 131.834 16.92 131.516 16.3164C131.198 15.713 131.022 15.0387 131.022 14.2935C131.022 13.5479 131.198 12.8736 131.516 12.2703C131.834 11.7023 132.257 11.2409 132.822 10.9214C133.387 10.602 134.023 10.4247 134.764 10.4247C135.506 10.4247 136.142 10.602 136.706 10.9214C137.271 11.2409 137.695 11.7023 138.013 12.3059C138.331 12.9092 138.507 13.5835 138.507 14.3288C138.507 15.0743 138.331 15.7486 138.013 16.352ZM137.095 10.2471C136.424 9.8567 135.612 9.6438 134.729 9.6438C133.846 9.6438 133.07 9.8567 132.363 10.2471C131.692 10.6376 131.128 11.2053 130.739 11.9155C130.351 12.6251 130.139 13.4414 130.139 14.3288C130.139 15.2163 130.35 16.0325 130.739 16.7424C131.128 17.4523 131.657 18.0201 132.363 18.4105C133.14 18.8009 133.917 19.0141 134.764 19.0141C135.647 19.0141 136.424 18.8009 137.095 18.4105C137.801 17.9847 138.331 17.4523 138.719 16.7424C139.107 16.0325 139.319 15.2163 139.319 14.3288C139.319 13.4414 139.107 12.6251 138.719 11.9155C138.331 11.2053 137.801 10.6376 137.095 10.2471Z" fill="#232039"/>
    <path fill-rule="evenodd" clip-rule="evenodd" d="M141.227 18.162C140.591 19.2977 139.708 20.1849 138.578 20.8238C137.484 21.4628 136.177 21.7823 134.765 21.7823C133.352 21.7823 132.046 21.4628 130.952 20.8238C129.822 20.1849 128.939 19.2977 128.303 18.162C127.703 17.026 127.385 15.7484 127.385 14.3286C127.385 12.9087 127.703 11.6311 128.303 10.4954C128.939 9.35968 129.822 8.47223 130.952 7.83329C132.081 7.19459 133.352 6.87512 134.765 6.87512C136.177 6.87512 137.448 7.19459 138.578 7.83329C139.708 8.47223 140.591 9.35968 141.227 10.4954C141.862 11.6311 142.18 12.9087 142.18 14.3286C142.18 15.7484 141.862 17.026 141.227 18.162ZM141.902 10.094C141.2 8.83901 140.224 7.85865 138.976 7.15289C137.728 6.44712 136.323 6.09424 134.763 6.09424C133.203 6.09424 131.799 6.44712 130.55 7.15289C129.302 7.85865 128.327 8.83901 127.625 10.094C126.961 11.3487 126.61 12.7602 126.61 14.3286C126.61 15.8971 126.961 17.3087 127.625 18.5634C128.327 19.8184 129.302 20.7987 130.55 21.5045C131.759 22.2103 133.203 22.5631 134.763 22.5631C136.323 22.5631 137.767 22.2103 138.976 21.5045C140.224 20.7987 141.2 19.8184 141.902 18.5634C142.604 17.3087 142.955 15.8971 142.955 14.3286C142.955 12.7602 142.604 11.3487 141.902 10.094Z" fill="#232039"/>
    <path d="M38.1348 60H35.0391L35.0586 57.7148H38.1348C38.903 57.7148 39.5508 57.5423 40.0781 57.1973C40.6055 56.8457 41.0026 56.3346 41.2695 55.6641C41.543 54.9935 41.6797 54.1829 41.6797 53.2324V52.5391C41.6797 51.8099 41.6016 51.1686 41.4453 50.6152C41.2956 50.0618 41.071 49.5964 40.7715 49.2188C40.472 48.8411 40.1042 48.5579 39.668 48.3691C39.2318 48.1738 38.7305 48.0762 38.1641 48.0762H34.9805V45.7812H38.1641C39.1146 45.7812 39.9837 45.944 40.7715 46.2695C41.5658 46.5885 42.2526 47.0475 42.832 47.6465C43.4115 48.2454 43.8574 48.9616 44.1699 49.7949C44.4889 50.6217 44.6484 51.543 44.6484 52.5586V53.2324C44.6484 54.2415 44.4889 55.1628 44.1699 55.9961C43.8574 56.8294 43.4115 57.5456 42.832 58.1445C42.2591 58.737 41.5723 59.196 40.7715 59.5215C39.9772 59.8405 39.0983 60 38.1348 60ZM36.6992 45.7812V60H33.7695V45.7812H36.6992ZM54.3438 48.2129L50.4766 60H47.3613L52.6445 45.7812H54.627L54.3438 48.2129ZM57.5566 60L53.6797 48.2129L53.3672 45.7812H55.3691L60.6816 60H57.5566ZM57.3809 54.707V57.002H49.8711V54.707H57.3809ZM69.1465 45.7812V60H66.2266V45.7812H69.1465ZM73.5215 45.7812V48.0762H61.9199V45.7812H73.5215ZM81.918 48.2129L78.0508 60H74.9355L80.2188 45.7812H82.2012L81.918 48.2129ZM85.1309 60L81.2539 48.2129L80.9414 45.7812H82.9434L88.2559 60H85.1309ZM84.9551 54.707V57.002H77.4453V54.707H84.9551ZM112.938 56.2793C112.938 56.0254 112.898 55.7975 112.82 55.5957C112.749 55.3874 112.612 55.1986 112.41 55.0293C112.208 54.8535 111.925 54.681 111.561 54.5117C111.196 54.3424 110.724 54.1667 110.145 53.9844C109.5 53.776 108.888 53.5417 108.309 53.2812C107.736 53.0208 107.228 52.7181 106.785 52.373C106.349 52.0215 106.004 51.6146 105.75 51.1523C105.503 50.6901 105.379 50.153 105.379 49.541C105.379 48.9486 105.509 48.4115 105.77 47.9297C106.03 47.4414 106.395 47.0247 106.863 46.6797C107.332 46.3281 107.885 46.0579 108.523 45.8691C109.168 45.6803 109.874 45.5859 110.643 45.5859C111.691 45.5859 112.605 45.7747 113.387 46.1523C114.168 46.5299 114.773 47.0475 115.203 47.7051C115.639 48.3626 115.857 49.1146 115.857 49.9609H112.947C112.947 49.5443 112.859 49.1797 112.684 48.8672C112.514 48.5482 112.254 48.2975 111.902 48.1152C111.557 47.9329 111.121 47.8418 110.594 47.8418C110.086 47.8418 109.663 47.9199 109.324 48.0762C108.986 48.2259 108.732 48.431 108.562 48.6914C108.393 48.9453 108.309 49.2318 108.309 49.5508C108.309 49.7917 108.367 50.0098 108.484 50.2051C108.608 50.4004 108.79 50.5827 109.031 50.752C109.272 50.9212 109.568 51.0807 109.92 51.2305C110.271 51.3802 110.678 51.5267 111.141 51.6699C111.915 51.9043 112.596 52.168 113.182 52.4609C113.774 52.7539 114.269 53.0827 114.666 53.4473C115.063 53.8118 115.363 54.2253 115.564 54.6875C115.766 55.1497 115.867 55.6738 115.867 56.2598C115.867 56.8783 115.747 57.4316 115.506 57.9199C115.265 58.4082 114.917 58.8216 114.461 59.1602C114.005 59.4987 113.462 59.7559 112.83 59.9316C112.199 60.1074 111.492 60.1953 110.711 60.1953C110.008 60.1953 109.314 60.1042 108.631 59.9219C107.947 59.7331 107.326 59.4499 106.766 59.0723C106.212 58.6947 105.77 58.2129 105.438 57.627C105.105 57.041 104.939 56.3477 104.939 55.5469H107.879C107.879 55.9896 107.947 56.3639 108.084 56.6699C108.221 56.9759 108.413 57.2233 108.66 57.4121C108.914 57.6009 109.214 57.7376 109.559 57.8223C109.91 57.9069 110.294 57.9492 110.711 57.9492C111.219 57.9492 111.635 57.8776 111.961 57.7344C112.293 57.5911 112.537 57.3926 112.693 57.1387C112.856 56.8848 112.938 56.5983 112.938 56.2793ZM125.641 48.2129L121.773 60H118.658L123.941 45.7812H125.924L125.641 48.2129ZM128.854 60L124.977 48.2129L124.664 45.7812H126.666L131.979 60H128.854ZM128.678 54.707V57.002H121.168V54.707H128.678ZM138.227 45.7812V60H135.297V45.7812H138.227ZM143.891 51.8555V54.1406H137.426V51.8555H143.891ZM144.574 45.7812V48.0762H137.426V45.7812H144.574ZM157.814 57.7148V60H150.246V57.7148H157.814ZM151.203 45.7812V60H148.273V45.7812H151.203ZM156.828 51.5723V53.7988H150.246V51.5723H156.828ZM157.805 45.7812V48.0762H150.246V45.7812H157.805Z" fill="#616161"/>
    <defs>
    <filter id="filter0_d_14031_150322" x="0" y="0" width="192" height="33" filterUnits="userSpaceOnUse" color-interpolation-filters="sRGB">
    <feFlood flood-opacity="0" result="BackgroundImageFix"/>
    <feColorMatrix in="SourceAlpha" type="matrix" values="0 0 0 0 0 0 0 0 0 0 0 0 0 0 0 0 0 0 127 0" result="hardAlpha"/>
    <feOffset dx="0.5" dy="1"/>
    <feGaussianBlur stdDeviation="1"/>
    <feColorMatrix type="matrix" values="0 0 0 0 0 0 0 0 0 0 0 0 0 0 0 0 0 0 0.342492 0"/>
    <feBlend mode="normal" in2="BackgroundImageFix" result="effect1_dropShadow_14031_150322"/>
    <feBlend mode="normal" in="SourceGraphic" in2="effect1_dropShadow_14031_150322" result="shape"/>
    </filter>
    </defs>
    </svg>
    