<svg width="63" height="63" viewBox="0 0 63 63" fill="none" xmlns="http://www.w3.org/2000/svg">
    <path fill-rule="evenodd" clip-rule="evenodd" d="M31.1333 0.055542C48.2327 0.055542 62.0937 14.024 62.0937 31.256C62.0937 48.488 48.2327 62.4564 31.1333 62.4564C14.0338 62.4564 0.172852 48.488 0.172852 31.256C0.172852 14.024 14.0338 0.055542 31.1333 0.055542Z" fill="#292548"/>
    <path fill-rule="evenodd" clip-rule="evenodd" d="M31.4715 48.3175C28.8695 48.3175 26.4449 47.6994 24.2612 46.481C21.7928 45.1037 20.0274 43.1857 19.0199 40.7798C18.6344 39.8527 18.4482 38.961 18.4482 38.056V35.403C18.4482 33.9396 18.9345 32.5115 19.8215 31.3483C19.3484 30.1255 19.1075 28.8122 19.1075 27.4349V24.7818C19.1075 22.3913 19.8237 20.2591 21.2386 18.4448C22.4871 16.8401 24.1517 15.6262 26.182 14.836C27.9014 14.1672 29.8003 13.8273 31.8285 13.8273C34.3013 13.8273 36.5091 14.3967 38.3839 15.518C40.1514 16.5753 41.643 18.0607 42.8148 19.9325C43.5945 21.1773 43.9888 22.5061 43.9888 23.8856V26.5387C43.9888 27.596 43.7588 28.5959 43.3032 29.5207C43.9274 30.9399 44.2428 32.5137 44.2428 34.2022V36.8553C44.2428 39.3451 43.5244 41.5611 42.1095 43.4461C40.8217 45.1611 39.122 46.4479 37.061 47.269C35.311 47.9665 33.4296 48.3197 31.4715 48.3197" fill="white"/>
    <path fill-rule="evenodd" clip-rule="evenodd" d="M31.4714 46.106C29.2461 46.106 27.1785 45.5807 25.3234 44.5455C23.2952 43.4132 21.8518 41.8571 21.0393 39.9169C20.7698 39.268 20.6406 38.661 20.6406 38.054V35.4009C20.6406 34.2553 21.0787 33.1628 21.8737 32.324C22.0599 32.1276 22.2614 31.951 22.4739 31.7899C21.7007 30.4986 21.2999 29.0264 21.2999 27.4306V24.7775C21.2999 22.8947 21.8584 21.2217 22.9623 19.8068C23.9632 18.52 25.3124 17.54 26.9705 16.8955C28.4357 16.326 30.0697 16.0369 31.8284 16.0369C33.9026 16.0369 35.7336 16.5026 37.2668 17.4186C38.7343 18.2971 39.9762 19.5397 40.9618 21.1113C41.5159 21.9964 41.7985 22.93 41.7985 23.8836V26.5367C41.7985 27.605 41.4371 28.6048 40.7778 29.4127C41.6254 30.7944 42.0525 32.3969 42.0525 34.198V36.8511C42.0525 38.8464 41.4852 40.6144 40.3638 42.1065C39.3213 43.4948 37.9392 44.5388 36.2571 45.2098C34.7656 45.8036 33.1557 46.1038 31.4736 46.1038" fill="#242039"/>
    <path fill-rule="evenodd" clip-rule="evenodd" d="M40.2648 34.8645C40.2823 34.646 40.2933 34.4252 40.2933 34.2001C40.2933 32.1496 39.6209 30.4412 38.3111 29.1102C38.4819 29.0396 38.6484 28.9579 38.8127 28.852C39.6055 28.2936 40.0414 27.4703 40.0414 26.5366C40.0414 26.3181 40.0085 26.1018 39.9625 25.8833C40.0151 25.667 40.0414 25.4418 40.0414 25.2101C40.0414 24.9915 40.0085 24.7752 39.9625 24.5567C40.0151 24.3404 40.0414 24.1153 40.0414 23.8835C40.0414 23.2699 39.8508 22.6541 39.4763 22.0537C38.6418 20.7206 37.5971 19.6721 36.3705 18.9393C35.1111 18.1866 33.5845 17.807 31.8279 17.807C30.2882 17.807 28.8667 18.0564 27.6029 18.5486C26.245 19.0762 25.1477 19.8686 24.3439 20.9015C23.4897 21.9985 23.056 23.303 23.056 24.7796C23.056 25.007 23.0691 25.2277 23.0888 25.4484C23.0691 25.6647 23.056 25.8833 23.056 26.1062C23.056 26.3291 23.0691 26.5543 23.0888 26.775C23.0691 26.9913 23.056 27.2098 23.056 27.4327C23.056 29.4987 23.862 31.2402 25.4521 32.6043C25.4521 32.6043 25.4543 32.6065 25.4565 32.6065C25.4302 32.6065 25.4039 32.6021 25.3777 32.6021C25.1148 32.6021 24.898 32.6264 24.7337 32.6727C24.0942 32.8162 23.5597 33.1097 23.1414 33.549C22.653 34.0633 22.3945 34.7056 22.3945 35.4031C22.3945 35.6172 22.4274 35.8401 22.4865 36.0696C22.4318 36.2837 22.3945 36.5023 22.3945 36.7296C22.3945 36.9437 22.4274 37.1666 22.4865 37.3962C22.4318 37.6103 22.3945 37.8288 22.3945 38.0561C22.3945 38.4248 22.48 38.8066 22.6552 39.2304C23.3122 40.7953 24.495 42.0645 26.1727 43.0003C27.765 43.8876 29.5479 44.3401 31.4731 44.3401C32.9318 44.3401 34.3248 44.0797 35.6105 43.5698C36.9882 43.0202 38.1162 42.1704 38.9638 41.0447C39.8486 39.8683 40.2955 38.4601 40.2955 36.8576C40.2955 36.6325 40.2823 36.414 40.267 36.1954C40.2845 35.9769 40.2955 35.7562 40.2955 35.5311C40.2955 35.3059 40.2823 35.0874 40.267 34.8689" fill="#231F20"/>
    <path fill-rule="evenodd" clip-rule="evenodd" d="M31.4712 44.3379C29.5481 44.3379 27.7631 43.8876 26.1708 43.0003C24.493 42.0644 23.3103 40.7975 22.6532 39.2304C22.478 38.8066 22.3926 38.4247 22.3926 38.0561C22.3926 37.3586 22.651 36.7163 23.1395 36.202C23.5556 35.7628 24.0922 35.4692 24.7318 35.3258C24.8938 35.2816 25.1107 35.2551 25.3735 35.2551C25.978 35.2551 26.5497 35.4295 27.0731 35.776C27.5966 36.1226 27.9887 36.5905 28.2405 37.1666C28.3654 37.4403 28.7334 37.7515 29.2634 38.0252C29.9161 38.3607 30.6586 38.5307 31.469 38.5307C32.3955 38.5307 33.1664 38.3298 33.7622 37.9325C34.1696 37.6588 34.3273 37.3785 34.3273 36.9304C34.3273 36.436 34.1498 36.0542 33.7534 35.6855C33.2935 35.2596 32.4546 34.9726 31.3266 34.86C28.8911 34.6217 26.9111 33.8646 25.448 32.6065C23.86 31.2424 23.0518 29.5031 23.0518 27.4349C23.0518 25.9583 23.4855 24.6516 24.3397 23.5568C25.1435 22.5238 26.2409 21.7314 27.5988 21.2039C28.8626 20.7117 30.2841 20.4623 31.8238 20.4623C33.5782 20.4623 35.107 20.8441 36.3664 21.5946C37.5929 22.3296 38.6377 23.3758 39.4722 24.709C39.8467 25.3072 40.0372 25.923 40.0372 26.5388C40.0372 27.4724 39.6014 28.2957 38.8085 28.8542C38.2982 29.183 37.7616 29.3398 37.1812 29.3398C36.6007 29.3398 36.1057 29.1985 35.6261 28.9204C35.1289 28.6312 34.7434 28.2295 34.474 27.7285C34.1958 27.265 33.8388 26.8964 33.3986 26.6403C32.9759 26.3931 32.3867 26.2695 31.642 26.2695C30.6827 26.2695 29.9336 26.435 29.4145 26.7639C29.1101 26.956 29.0115 27.1392 29.0115 27.5122C29.0115 27.8852 29.1407 28.1545 29.4715 28.4326C29.673 28.6025 30.3607 29.0197 32.3714 29.2272C34.7609 29.4678 36.6752 30.2381 38.0638 31.5205C39.5401 32.8846 40.2869 34.6791 40.2869 36.8576C40.2869 38.46 39.8379 39.8683 38.9553 41.0447C38.1076 42.1726 36.9797 43.0224 35.602 43.5698C34.3163 44.0819 32.9233 44.3401 31.4646 44.3401" fill="#EB5D5E"/>
    <path fill-rule="evenodd" clip-rule="evenodd" d="M31.4712 43.0114C29.5481 43.0114 27.7631 42.5611 26.1708 41.6738C24.493 40.7379 23.3103 39.471 22.6532 37.9038C22.478 37.48 22.3926 37.0982 22.3926 36.7296C22.3926 36.0321 22.651 35.3898 23.1395 34.8755C23.5556 34.4363 24.0922 34.1427 24.7318 33.9992C24.8938 33.9551 25.1107 33.9286 25.3735 33.9286C25.978 33.9286 26.5497 34.103 27.0731 34.4495C27.5966 34.796 27.9887 35.264 28.2405 35.8401C28.3654 36.1138 28.7334 36.425 29.2634 36.6987C29.9161 37.0342 30.6586 37.2041 31.469 37.2041C32.3955 37.2041 33.1664 37.0033 33.7622 36.606C34.1696 36.3323 34.3273 36.052 34.3273 35.6039C34.3273 35.1095 34.1498 34.7276 33.7534 34.359C33.2935 33.933 32.4546 33.6461 31.3266 33.5335C28.8911 33.2951 26.9111 32.538 25.448 31.2799C23.86 29.9159 23.0518 28.1766 23.0518 26.1084C23.0518 24.6317 23.4855 23.3251 24.3397 22.2303C25.1435 21.1973 26.2409 20.4049 27.5988 19.8774C28.8626 19.3852 30.2841 19.1357 31.8238 19.1357C33.5782 19.1357 35.107 19.5176 36.3664 20.2681C37.5929 21.0031 38.6377 22.0493 39.4722 23.3825C39.8467 23.9806 40.0372 24.5964 40.0372 25.2122C40.0372 26.1459 39.6014 26.9692 38.8085 27.5276C38.2982 27.8565 37.7616 28.0132 37.1812 28.0132C36.6007 28.0132 36.1057 27.872 35.6261 27.5939C35.1289 27.3047 34.7434 26.903 34.474 26.4019C34.1958 25.9384 33.8388 25.5698 33.3986 25.3138C32.9759 25.0666 32.3867 24.943 31.642 24.943C30.6827 24.943 29.9336 25.1085 29.4145 25.4374C29.1101 25.6294 29.0115 25.8126 29.0115 26.1856C29.0115 26.5587 29.1407 26.8279 29.4715 27.1061C29.673 27.276 30.3607 27.6932 32.3714 27.9007C34.7609 28.1412 36.6752 28.9116 38.0638 30.194C39.5401 31.558 40.2869 33.3525 40.2869 35.5311C40.2869 37.1335 39.8379 38.5417 38.9553 39.7182C38.1076 40.8461 36.9797 41.6959 35.602 42.2432C34.3163 42.7553 32.9233 43.0136 31.4646 43.0136" fill="#FFD68F"/>
    <path fill-rule="evenodd" clip-rule="evenodd" d="M31.4712 41.6849C29.5481 41.6849 27.7631 41.2347 26.1708 40.3474C24.493 39.4115 23.3103 38.1445 22.6532 36.5774C22.478 36.1536 22.3926 35.7718 22.3926 35.4032C22.3926 34.7057 22.651 34.0634 23.1395 33.5491C23.5556 33.1098 24.0922 32.8163 24.7318 32.6728C24.8938 32.6287 25.1107 32.6022 25.3735 32.6022C25.978 32.6022 26.5497 32.7766 27.0731 33.1231C27.5966 33.4696 27.9887 33.9376 28.2405 34.5136C28.3654 34.7873 28.7334 35.0986 29.2634 35.3723C29.9161 35.7078 30.6586 35.8777 31.469 35.8777C32.3955 35.8777 33.1664 35.6769 33.7622 35.2796C34.1696 35.0059 34.3273 34.7255 34.3273 34.2775C34.3273 33.7831 34.1498 33.4012 33.7534 33.0326C33.2935 32.6066 32.4546 32.3197 31.3266 32.2071C28.8911 31.9687 26.9111 31.2116 25.448 29.9535C23.86 28.5894 23.0518 26.8501 23.0518 24.782C23.0518 23.3053 23.4855 21.9987 24.3397 20.9039C25.1435 19.8709 26.2409 19.0785 27.5988 18.551C28.8626 18.0587 30.2841 17.8093 31.8238 17.8093C33.5782 17.8093 35.107 18.1912 36.3664 18.9416C37.5929 19.6766 38.6377 20.7229 39.4722 22.056C39.8467 22.6542 40.0372 23.27 40.0372 23.8858C40.0372 24.8195 39.6014 25.6428 38.8085 26.2012C38.2982 26.5301 37.7616 26.6868 37.1812 26.6868C36.6007 26.6868 36.1057 26.5455 35.6261 26.2674C35.1289 25.9783 34.7434 25.5766 34.474 25.0755C34.1958 24.612 33.8388 24.2434 33.3986 23.9874C32.9759 23.7402 32.3867 23.6165 31.642 23.6165C30.6827 23.6165 29.9336 23.7821 29.4145 24.111C29.1101 24.303 29.0115 24.4862 29.0115 24.8592C29.0115 25.2322 29.1407 25.5015 29.4715 25.7796C29.673 25.9496 30.3607 26.3668 32.3714 26.5742C34.7609 26.8148 36.6752 27.5852 38.0638 28.8676C39.5401 30.2316 40.2869 32.0261 40.2869 34.2046C40.2869 35.8071 39.8379 37.2153 38.9553 38.3918C38.1076 39.5196 36.9797 40.3694 35.602 40.9168C34.3163 41.4289 32.9233 41.6871 31.4646 41.6871" fill="#383454"/>
    <path fill-rule="evenodd" clip-rule="evenodd" d="M26.599 39.1312C28.0599 39.9457 29.6982 40.3585 31.4723 40.3585C32.8215 40.3585 34.105 40.1201 35.2877 39.6499C36.5142 39.1599 37.5152 38.4095 38.2643 37.4118C39.0308 36.3921 39.4185 35.1626 39.4185 33.7588C39.4185 31.8385 38.7658 30.2626 37.4801 29.0751C36.2361 27.9251 34.4883 27.2298 32.2914 27.0113C30.2282 26.7994 29.3193 26.3536 28.9185 26.0181C28.3884 25.5744 28.1431 25.0668 28.1431 24.4178C28.1431 23.7689 28.395 23.2767 28.9579 22.9213C29.6193 22.5042 30.5239 22.2923 31.6519 22.2923C32.5521 22.2923 33.2902 22.4578 33.8487 22.7845C34.4204 23.1178 34.8869 23.599 35.257 24.2192C35.4476 24.5746 35.7214 24.8593 36.074 25.0646C36.4179 25.2632 36.7924 25.3647 37.1888 25.3647C37.5853 25.3647 37.9664 25.261 38.3124 25.0403C38.871 24.6474 39.1666 24.0956 39.1666 23.4489C39.1666 23.003 39.0221 22.5461 38.7373 22.0914C37.9773 20.8774 37.0311 19.9283 35.9251 19.2662C34.8037 18.5952 33.426 18.2552 31.8293 18.2552C30.3969 18.2552 29.0827 18.4848 27.9197 18.9373C26.7107 19.4074 25.7404 20.1049 25.0351 21.0121C24.3058 21.9479 23.9356 23.0692 23.9356 24.345C23.9356 26.1417 24.6387 27.6536 26.0229 28.8433C27.348 29.9823 29.1638 30.6709 31.4197 30.8894C32.758 31.0241 33.7458 31.3794 34.3547 31.9445C34.9307 32.4786 35.211 33.0989 35.211 33.8405C35.211 34.5821 34.9066 35.1428 34.2517 35.5798C33.5092 36.0742 32.5762 36.3258 31.4745 36.3258C30.5239 36.3258 29.6478 36.1228 28.8703 35.7233C28.1431 35.3503 27.6613 34.911 27.4422 34.432C27.2604 34.0127 26.9757 33.675 26.599 33.4255C26.2201 33.1761 25.8105 33.0503 25.3812 33.0503C25.195 33.0503 25.0549 33.0658 24.9278 33.1011C24.4591 33.2048 24.0736 33.4145 23.7801 33.7257C23.4516 34.0723 23.2764 34.5027 23.2764 34.9684C23.2764 35.2178 23.3377 35.4871 23.4669 35.7983C24.0451 37.1756 25.0987 38.3013 26.6012 39.1379" fill="white"/>
    <path d="M31.4721 40.5791C29.6607 40.5791 27.9852 40.1575 26.4914 39.3232C24.9473 38.4624 23.8587 37.3014 23.2608 35.8755C23.1206 35.5356 23.0527 35.2376 23.0527 34.9595C23.0527 34.4364 23.2477 33.953 23.6178 33.5645C23.942 33.2224 24.3669 32.9928 24.8772 32.8781C25.0086 32.8405 25.1707 32.8229 25.3766 32.8229C25.8497 32.8229 26.3009 32.9619 26.7148 33.2356C27.1288 33.5093 27.4398 33.8801 27.6391 34.3393C27.8341 34.7652 28.294 35.1758 28.9664 35.5223C29.7133 35.9064 30.5565 36.1006 31.4699 36.1006C32.5278 36.1006 33.4214 35.8622 34.1266 35.3899C34.7224 34.9926 34.9874 34.5114 34.9874 33.836C34.9874 33.1606 34.7312 32.5933 34.2033 32.1033C33.6295 31.5714 32.6833 31.2359 31.3954 31.1057C29.0934 30.8805 27.2383 30.1764 25.8782 29.0066C24.4414 27.7727 23.7142 26.2034 23.7142 24.3405C23.7142 23.0162 24.0997 21.8485 24.8619 20.8707C25.5912 19.9327 26.5944 19.2109 27.8406 18.7275C29.0299 18.2662 30.3704 18.03 31.8291 18.03C33.4652 18.03 34.8801 18.381 36.0365 19.0718C37.1733 19.7517 38.1436 20.7251 38.9211 21.9699C39.2277 22.4599 39.3854 22.9566 39.3854 23.4444C39.3854 24.1661 39.0569 24.7797 38.4371 25.2168C38.0516 25.464 37.6464 25.581 37.1864 25.581C36.7265 25.581 36.3388 25.4706 35.9621 25.2521C35.5744 25.0247 35.2721 24.7113 35.0619 24.3206C34.7136 23.7379 34.2668 23.2832 33.7368 22.9742C33.2133 22.6674 32.5102 22.5129 31.6495 22.5129C30.5653 22.5129 29.698 22.7138 29.0715 23.1089C28.5722 23.4245 28.3597 23.8174 28.3597 24.42C28.3597 25.0225 28.5744 25.4463 29.0562 25.8502C29.4329 26.1659 30.3025 26.5875 32.3109 26.7927C34.5559 27.0179 36.3454 27.733 37.6245 28.9139C38.9583 30.1477 39.6351 31.7789 39.6351 33.761C39.6351 35.2155 39.2321 36.4891 38.4371 37.5464C37.6639 38.5749 36.6301 39.3519 35.3663 39.8551C34.1573 40.3363 32.8475 40.5791 31.4699 40.5791H31.4721ZM25.3766 33.2665C25.2123 33.2665 25.0875 33.2798 24.9823 33.3085C24.5465 33.4056 24.1982 33.5954 23.9332 33.8713C23.6441 34.1759 23.4908 34.5534 23.4908 34.9617C23.4908 35.1802 23.5477 35.423 23.6638 35.7055C24.2223 37.0365 25.2452 38.1247 26.7017 38.9369C28.1297 39.7337 29.733 40.1376 31.4699 40.1376C32.7906 40.1376 34.0478 39.9037 35.2043 39.4446C36.3936 38.97 37.3616 38.2416 38.0866 37.2793C38.8225 36.2993 39.1971 35.1162 39.1971 33.7588C39.1971 31.9047 38.5685 30.3839 37.3288 29.2361C36.1198 28.1193 34.4158 27.4439 32.2671 27.2276C30.147 27.009 29.1986 26.5389 28.7759 26.1835C28.1933 25.6957 27.9217 25.1329 27.9217 24.4133C27.9217 23.6938 28.213 23.1243 28.8394 22.7292C29.5359 22.2878 30.4821 22.0648 31.6495 22.0648C32.5891 22.0648 33.3644 22.2392 33.9558 22.5858C34.5494 22.9323 35.0509 23.4422 35.4408 24.0977C35.616 24.4266 35.8635 24.6804 36.1789 24.8658C36.4877 25.0446 36.825 25.1373 37.1842 25.1373C37.5434 25.1373 37.8851 25.0424 38.1896 24.846C38.678 24.5016 38.9408 24.0138 38.9408 23.4422C38.9408 23.0382 38.8072 22.6233 38.5444 22.2039C37.8041 21.0208 36.882 20.0938 35.8066 19.4515C34.7202 18.8026 33.3798 18.4715 31.8247 18.4715C30.4207 18.4715 29.1307 18.6966 27.9939 19.1381C26.8222 19.5927 25.8847 20.2682 25.2036 21.1422C24.5049 22.0384 24.1501 23.1155 24.1501 24.3383C24.1501 26.0666 24.8268 27.5233 26.1607 28.6689C27.4508 29.7769 29.2249 30.4479 31.437 30.6642C32.8234 30.8033 33.8529 31.1785 34.499 31.7767C35.1232 32.355 35.4255 33.0282 35.4255 33.836C35.4255 34.6439 35.0794 35.2839 34.3676 35.7585C33.5878 36.2794 32.6132 36.5421 31.4677 36.5421C30.4821 36.5421 29.5731 36.3324 28.7649 35.9152C27.9918 35.5179 27.4792 35.05 27.2361 34.5202C27.0697 34.1384 26.8112 33.8316 26.4717 33.6065C26.13 33.3813 25.7599 33.2665 25.3744 33.2665H25.3766Z" fill="#383454"/>
    </svg>
    