<svg
  width="39"
  height="34"
  viewBox="0 0 39 34"
  fill="none"
  xmlns="http://www.w3.org/2000/svg"
>
<path
    d="M9.50708 33.0993C9.6265 33.3028 9.84698 33.4286 10.0842 33.4286H28.9158C29.1539 33.4286 29.3735 33.3028 29.4929 33.0993L38.9092 17.0469C39.0303 16.8409 39.0303 16.5869 38.9092 16.3817L29.4938 0.329321C29.3743 0.125771 29.1539 0 28.9167 0H10.0842C9.84615 0 9.6265 0.125771 9.50708 0.329321L0.090822 16.3817C-0.030274 16.5869 -0.030274 16.8409 0.090822 17.0469L9.50708 33.0993Z"
    fill="white"
  />
<path
    d="M11.8567 25.1337C11.7068 25.1337 11.5663 25.0866 11.4352 24.9925C11.3228 24.8984 11.2666 24.7886 11.2666 24.6632C11.2666 24.5534 11.3041 24.4515 11.379 24.3574L17.8139 16.7592L11.6881 9.44328C11.6319 9.36487 11.6038 9.26293 11.6038 9.13747C11.6038 9.01201 11.66 8.90223 11.7724 8.80814C11.8848 8.71404 12.0159 8.66699 12.1658 8.66699H13.8518C14.1328 8.66699 14.3857 8.80029 14.6105 9.0669L19.5561 14.9478L24.4737 9.0669C24.661 8.80029 24.9045 8.66699 25.2043 8.66699H26.806C26.9558 8.66699 27.087 8.71404 27.1994 8.80814C27.3118 8.90223 27.368 9.01201 27.368 9.13747C27.368 9.27861 27.3305 9.38055 27.2556 9.44328L21.214 16.7827L27.6209 24.3574C27.6958 24.4515 27.7333 24.5534 27.7333 24.6632C27.7333 24.7886 27.6771 24.8984 27.5647 24.9925C27.4523 25.0866 27.3118 25.1337 27.1432 25.1337H25.4291C25.1481 25.1337 24.8952 25.0004 24.6704 24.7338L19.4437 18.6411L14.2452 24.7338C14.0579 25.0004 13.8143 25.1337 13.5146 25.1337H11.8567Z"
    fill="#C62828"
  />
</svg>
