<svg
  width="92"
  height="92"
  viewBox="0 0 92 92"
  fill="none"
  xmlns="http://www.w3.org/2000/svg"
>
<path
    d="M55.5161 91.5019C35.3666 91.5019 19.0323 75.1675 19.0323 55.0181C19.0323 34.8686 35.3666 18.5342 55.5161 18.5342C75.6656 18.5342 92 34.8686 92 55.0181C92 75.1675 75.6656 91.5019 55.5161 91.5019Z"
    fill="#A5EAAC"
  />
<path
    d="M24.4512 48.1748L33.6189 61.1855C34.3245 62.2394 35.4958 62.8875 36.7635 62.9254C38.0313 62.9633 39.2392 62.3863 40.0064 61.3763L69.3544 24.2451"
    stroke="#222137"
    stroke-width="2.5"
    stroke-linecap="round"
    stroke-linejoin="round"
  />
<path
    d="M44.0966 85.6916C20.8472 85.6916 1.99981 66.8442 1.99981 43.5948C1.99981 20.3454 20.8472 1.49805 44.0966 1.49805C67.346 1.49805 86.1934 20.3454 86.1934 43.5948C86.1934 66.8442 67.346 85.6916 44.0966 85.6916Z"
    stroke="#222137"
    stroke-width="2.5"
    stroke-linecap="round"
    stroke-linejoin="round"
  />
</svg>
