<svg width="21" height="21" viewBox="0 0 21 21" fill="none" xmlns="http://www.w3.org/2000/svg">
<path d="M20.023 10.5868C20.0086 5.03016 15.5202 0.537789 9.99691 0.552119C4.4736 0.566449 0.00863372 5.08205 0.0230503 10.6387C0.0360815 15.6613 3.70287 19.8138 8.48614 20.5561L8.4679 13.5255L5.92924 13.5321L5.9217 10.6227L8.46035 10.6161L8.45461 8.40015C8.44806 5.87882 9.93711 4.48162 12.2218 4.47569C13.3151 4.47286 14.4609 4.66655 14.4609 4.66655L14.4674 7.14254L13.2054 7.14582C11.9634 7.14904 11.5787 7.92604 11.5808 8.72204L11.5857 10.6087L14.359 10.6015L13.9232 13.5106L11.5932 13.5167L11.6115 20.548C16.3908 19.7809 20.036 15.6095 20.023 10.5868Z" fill="#24223A"/>
</svg>
