<svg width="19" height="19" viewBox="0 0 19 19" fill="none" xmlns="http://www.w3.org/2000/svg">
<path d="M18.0031 1.99759L18.043 17.3505C18.0439 17.7015 17.9053 18.0385 17.6577 18.2874C17.4102 18.5362 17.0739 18.6765 16.7229 18.6774L1.36998 18.7173C1.01896 18.7182 0.681955 18.5796 0.433102 18.332C0.184249 18.0845 0.0439331 17.7482 0.0430224 17.3972L0.00318971 2.04429C0.002279 1.69327 0.140848 1.35626 0.388413 1.10741C0.635978 0.858557 0.97226 0.718241 1.32328 0.71733L16.6762 0.677498C17.0272 0.676587 17.3642 0.815156 17.6131 1.06272C17.8619 1.31029 18.0022 1.64657 18.0031 1.99759V1.99759ZM5.31171 7.58936L2.66466 7.59623L2.68664 16.0668L5.33369 16.0599L5.31171 7.58936ZM5.54239 4.67699C5.54327 4.47675 5.5047 4.27831 5.42888 4.09299C5.35306 3.90766 5.24148 3.73909 5.10051 3.59689C4.95954 3.45469 4.79194 3.34164 4.60729 3.26422C4.42263 3.18679 4.22453 3.14649 4.0243 3.14563L3.97665 3.14575C3.56947 3.14681 3.17938 3.30957 2.8922 3.59824C2.60503 3.88691 2.44429 4.27784 2.44534 4.68502C2.4464 5.09221 2.60917 5.48229 2.89784 5.76947C3.18651 6.05664 3.57743 6.21738 3.98462 6.21633V6.21633C4.18487 6.22073 4.38403 6.18564 4.57072 6.11305C4.7574 6.04046 4.92796 5.93179 5.07263 5.79327C5.21731 5.65474 5.33327 5.48906 5.4139 5.3057C5.49452 5.12234 5.53823 4.92489 5.54252 4.72463L5.54239 4.67699ZM15.3791 10.888C15.3725 8.34149 13.75 7.3557 12.1406 7.35988C11.6135 7.33486 11.0892 7.44845 10.6197 7.68934C10.1503 7.93022 9.75227 8.28997 9.46528 8.7327L9.39116 8.7329L9.38817 7.57878L6.89994 7.58524L6.92192 16.0558L9.56897 16.0489L9.55728 11.5437C9.51782 11.0823 9.66198 10.6241 9.95844 10.2684C10.2549 9.91279 10.6797 9.68848 11.1406 9.64424L11.2412 9.64398C12.0829 9.6418 12.709 10.1696 12.7125 11.5037L12.7243 16.0407L15.3713 16.0339L15.3791 10.888Z" fill="#24223A"/>
</svg>
