<svg width="20" height="20" viewBox="0 0 20 20" fill="none" xmlns="http://www.w3.org/2000/svg">
<path d="M8.32463 2.31731C8.75103 0.560897 11.249 0.560897 11.6754 2.31731C11.9508 3.45193 13.2507 3.99038 14.2478 3.38285C15.7913 2.44239 17.5576 4.2087 16.6172 5.75218C16.0096 6.74925 16.5481 8.04918 17.6827 8.32463C19.4391 8.75103 19.4391 11.249 17.6827 11.6754C16.5481 11.9508 16.0096 13.2507 16.6172 14.2478C17.5576 15.7913 15.7913 17.5576 14.2478 16.6172C13.2507 16.0096 11.9508 16.5481 11.6754 17.6827C11.249 19.4391 8.75103 19.4391 8.32463 17.6827C8.04918 16.5481 6.74926 16.0096 5.75219 16.6172C4.2087 17.5576 2.44239 15.7913 3.38285 14.2478C3.99038 13.2507 3.45193 11.9508 2.31731 11.6754C0.560897 11.249 0.560897 8.75103 2.31731 8.32463C3.45193 8.04918 3.99037 6.74926 3.38285 5.75218C2.44239 4.2087 4.2087 2.44239 5.75219 3.38285C6.74926 3.99037 8.04918 3.45193 8.32463 2.31731Z" stroke="#111826" stroke-width="2" stroke-linecap="round" stroke-linejoin="round"/>
<path d="M13 10C13 11.6569 11.6569 13 10 13C8.34315 13 7 11.6569 7 10C7 8.34315 8.34315 7 10 7C11.6569 7 13 8.34315 13 10Z" stroke="#111826" stroke-width="2" stroke-linecap="round" stroke-linejoin="round"/>
</svg>
