<svg width="21" height="17" viewBox="0 0 21 17" fill="none" xmlns="http://www.w3.org/2000/svg">
<path d="M17.965 4.66947C17.9776 4.84576 17.9781 5.02207 17.9785 5.20001C17.9926 10.6219 13.8813 16.8857 6.33388 16.9053L6.33387 16.902C4.10435 16.911 1.91948 16.2781 0.0394576 15.0788C0.36375 15.117 0.689617 15.1356 1.01625 15.1356C2.8639 15.1324 4.65713 14.5078 6.10775 13.3625C4.35182 13.3337 2.80915 12.1929 2.26693 10.5229C2.88231 10.64 3.516 10.6139 4.11927 10.4474C2.20399 10.0657 0.822424 8.38733 0.817357 6.43406C0.81731 6.41618 0.817266 6.39912 0.817222 6.38206C1.38843 6.69827 2.02752 6.87293 2.68083 6.89073C0.874741 5.69046 0.312761 3.29337 1.39666 1.41527C3.48659 3.97333 6.56435 5.52375 9.86439 5.68013C9.53 4.25585 9.97788 2.76128 11.0413 1.75669C12.6899 0.198886 15.2893 0.271768 16.8471 1.91957C17.7656 1.736 18.6455 1.39652 19.4503 0.916673C19.1464 1.86729 18.5074 2.67578 17.6524 3.19069C18.4655 3.09271 19.2595 2.87289 20.007 2.53863C19.4582 3.36557 18.7662 4.08644 17.965 4.66947Z" fill="#24223A"/>
</svg>
