<svg width="35" height="38" viewBox="0 0 35 38" fill="none" xmlns="http://www.w3.org/2000/svg">
<path d="M34.2086 11.1808C34.1627 10.0338 33.5417 8.98384 32.569 8.37254L18.9344 0.531624C17.9721 0.0471134 16.7701 0.0464912 15.8061 0.531313C15.6921 0.588794 2.54681 8.21254 2.54681 8.21254C2.36487 8.29982 2.18963 8.40373 2.02481 8.52173C1.15644 9.14407 0.627124 10.1112 0.572754 11.1737V27.4121L2.91519 23.813L2.89473 11.2835C2.89746 11.2377 2.90321 11.1926 2.91138 11.1481C2.96435 10.8533 3.12894 10.5903 3.37675 10.4126C3.43859 10.3683 16.8085 2.62928 16.851 2.60804C17.1652 2.45022 17.5646 2.44835 17.8792 2.60314L31.3374 10.3443C31.6558 10.5471 31.8554 10.8909 31.8731 11.2668V26.7878C31.8569 27.1169 31.7267 27.4218 31.4708 27.6298L28.8617 29.1417L27.5154 29.9219L22.7034 32.7106L17.8236 35.5386C17.5607 35.6336 17.2534 35.6282 16.9928 35.5222L11.2191 32.2015L10.0396 34.2018L15.2282 37.1891C15.3998 37.2868 15.5527 37.3732 15.6781 37.4436C15.8724 37.5525 16.0048 37.6254 16.0515 37.6481C16.4203 37.8273 16.9509 37.9315 17.429 37.9315C17.8674 37.9315 18.2949 37.851 18.6994 37.6925L32.8734 29.484C33.6869 28.8537 34.1655 27.9031 34.2086 26.8733V11.1808Z" fill="#96BEDC"/>
</svg>
