<svg width="111" height="112" viewBox="0 0 111 112" fill="none" xmlns="http://www.w3.org/2000/svg">
<g filter="url(#filter0_d_259_2583)">
<ellipse cx="55.5" cy="52" rx="51.5" ry="52" fill="white"/>
</g>
<path d="M63.3337 48.4913L68.6407 39.9584L82.9451 61.0697L82.952 65.1213L82.9054 37.2419C82.8715 36.5604 82.4895 35.937 81.8803 35.5693L56.1268 21.5324C55.5247 21.2517 54.7604 21.255 54.1591 21.5413C54.0778 21.5797 54.0013 21.6217 53.9286 21.6675L53.8387 21.721L28.8411 35.4472L28.7442 35.4889C28.6194 35.5432 28.4932 35.6123 28.375 35.6926C27.901 36.0146 27.5863 36.4909 27.4845 37.0251C27.4692 37.1061 27.4578 37.1884 27.4526 37.2718L27.4919 59.9907L40.8158 40.4223C42.4935 37.8276 46.1482 36.9918 49.5411 37.0372L53.5232 37.1368L30.06 72.7917L32.8258 74.3004L56.5699 37.1731L67.065 37.137L43.3821 75.2012L53.2514 80.5802L54.4305 81.2227C54.9293 81.4148 55.5174 81.4245 56.0204 81.2523L82.1357 66.9118L77.1429 69.6533L63.3337 48.4913ZM65.3583 76.1245L55.3903 61.3001L61.4752 51.5161L74.5665 71.0681L65.3583 76.1245Z" fill="#2D374B"/>
<path d="M55.3906 61.2996L65.3585 76.1241L74.5668 71.0676L61.4754 51.5156L55.3906 61.2996Z" fill="#28A0F0"/>
<path d="M82.952 65.1199L82.9451 61.0683L68.6407 39.957L63.3337 48.4899L77.1427 69.6518L82.1356 66.9103C82.6253 66.5333 82.9216 65.9802 82.9527 65.3835L82.952 65.1199Z" fill="#28A0F0"/>
<path d="M23.0095 68.9414L30.0602 72.7912L53.5232 37.1365L49.5412 37.0369C46.1483 36.9915 42.4934 37.8273 40.8159 40.422L27.492 59.9904L23.0095 66.5164V68.9414Z" fill="white"/>
<path d="M67.0651 37.1367L56.57 37.1728L32.8259 74.3002L41.1252 78.8279L43.3822 75.201L67.0651 37.1367Z" fill="white"/>
<path d="M87.3747 37.0861C87.2869 35.0063 86.0985 33.1024 84.2371 31.994L58.146 17.7766C56.3046 16.898 54.0044 16.8969 52.1597 17.776C51.9417 17.8802 26.7868 31.7039 26.7868 31.7039C26.4387 31.8621 26.1033 32.0506 25.7879 32.2645C24.1262 33.393 23.1133 35.1466 23.0093 37.0732V66.5172L27.4918 59.9912L27.4526 37.2722C27.4578 37.1892 27.4688 37.1074 27.4845 37.0267C27.5858 36.4922 27.9008 36.0153 28.375 35.693C28.4933 35.6128 54.0779 21.5801 54.1592 21.5416C54.7605 21.2554 55.5248 21.2521 56.1269 21.5327L81.8804 35.5693C82.4896 35.937 82.8716 36.5604 82.9055 37.2419V65.3851C82.8744 65.9818 82.6254 66.5348 82.1357 66.9118L77.1428 69.6533L74.5666 71.0681L65.3584 76.1246L56.0203 81.2524C55.5174 81.4246 54.9293 81.4149 54.4305 81.2228L43.382 75.2014L41.1251 78.8285L51.054 84.2452C51.3823 84.4222 51.6748 84.5791 51.9149 84.7067C52.2866 84.9042 52.5399 85.0363 52.6293 85.0775C53.335 85.4023 54.3504 85.5913 55.2654 85.5913C56.1043 85.5913 56.9223 85.4453 57.6963 85.158L84.8197 70.2741C86.3764 69.1311 87.2923 67.4074 87.3747 65.5402V37.0861Z" fill="#96BEDC"/>
<defs>
<filter id="filter0_d_259_2583" x="0" y="0" width="111" height="112" filterUnits="userSpaceOnUse" color-interpolation-filters="sRGB">
<feFlood flood-opacity="0" result="BackgroundImageFix"/>
<feColorMatrix in="SourceAlpha" type="matrix" values="0 0 0 0 0 0 0 0 0 0 0 0 0 0 0 0 0 0 127 0" result="hardAlpha"/>
<feOffset dy="4"/>
<feGaussianBlur stdDeviation="2"/>
<feComposite in2="hardAlpha" operator="out"/>
<feColorMatrix type="matrix" values="0 0 0 0 0 0 0 0 0 0 0 0 0 0 0 0 0 0 0.25 0"/>
<feBlend mode="normal" in2="BackgroundImageFix" result="effect1_dropShadow_259_2583"/>
<feBlend mode="normal" in="SourceGraphic" in2="effect1_dropShadow_259_2583" result="shape"/>
</filter>
</defs>
</svg>
