<svg width="22" height="22" viewBox="0 0 22 22" fill="none" xmlns="http://www.w3.org/2000/svg">
<g clip-path="url(#clip0_11813_11376)">
<path d="M17.7844 3.77393H4.20093V16.1197H17.7844V3.77393Z" fill="white"/>
<path fill-rule="evenodd" clip-rule="evenodd" d="M21.9927 11C21.9927 17.0671 17.0712 21.9854 11 21.9854C4.92891 21.9854 0.00732422 17.0671 0.00732422 11C0.00732422 4.93297 4.92891 0.0146484 11 0.0146484C17.0712 0.0146484 21.9927 4.93297 21.9927 11ZM7.88499 15.3716H5.75162C5.30334 15.3716 5.0819 15.3716 4.94689 15.2853C4.80106 15.1908 4.71194 15.0343 4.70114 14.8616C4.69303 14.7024 4.80376 14.5081 5.0252 14.1194L10.2928 4.84083C10.5169 4.44681 10.6303 4.24981 10.7734 4.17695C10.9274 4.09869 11.111 4.09869 11.2649 4.17695C11.4081 4.24981 11.5215 4.44681 11.7456 4.84083L12.8285 6.7299L12.834 6.73954C13.0761 7.16223 13.1989 7.37659 13.2525 7.60156C13.3119 7.84715 13.3119 8.10622 13.2525 8.3518C13.1985 8.57849 13.0769 8.79439 12.8312 9.22348L10.0643 14.1114L10.0571 14.1239C9.81344 14.5501 9.68995 14.7661 9.51879 14.929C9.33246 15.1072 9.10831 15.2366 8.86257 15.3096C8.63842 15.3716 8.38729 15.3716 7.88499 15.3716ZM13.2725 15.3716H16.3293C16.7803 15.3716 17.0072 15.3716 17.1423 15.2827C17.2881 15.1882 17.3799 15.0289 17.3881 14.8563C17.3958 14.7023 17.2875 14.5155 17.0753 14.1495C17.0679 14.137 17.0606 14.1243 17.0532 14.1114L15.5219 11.4937L15.5045 11.4642C15.2893 11.1006 15.1807 10.917 15.0412 10.846C14.8874 10.7677 14.7063 10.7677 14.5525 10.846C14.4121 10.9189 14.2986 11.1105 14.0745 11.4964L12.5487 14.1141L12.5435 14.1231C12.3202 14.5084 12.2085 14.701 12.2166 14.8589C12.2274 15.0317 12.3165 15.1908 12.4623 15.2853C12.5946 15.3716 12.8215 15.3716 13.2725 15.3716Z" fill="#E84142"/>
</g>
<defs>
<clipPath id="clip0_11813_11376">
<rect width="22" height="22" fill="white"/>
</clipPath>
</defs>
</svg>
