<svg width="20" height="20" viewBox="0 0 20 20" fill="none" xmlns="http://www.w3.org/2000/svg">
<path fill-rule="evenodd" clip-rule="evenodd" d="M5.20039 0.400024C4.53765 0.400024 4.00039 0.937283 4.00039 1.60002V2.80002H2.80039C1.47491 2.80002 0.400391 3.87454 0.400391 5.20002V17.2C0.400391 18.5255 1.47491 19.6 2.80039 19.6H17.2004C18.5259 19.6 19.6004 18.5255 19.6004 17.2V5.20002C19.6004 3.87454 18.5259 2.80002 17.2004 2.80002H16.0004V1.60002C16.0004 0.937283 15.4631 0.400024 14.8004 0.400024C14.1376 0.400024 13.6004 0.937283 13.6004 1.60002V2.80002H6.40039V1.60002C6.40039 0.937283 5.86313 0.400024 5.20039 0.400024ZM5.20039 6.40002C4.53765 6.40002 4.00039 6.93728 4.00039 7.60002C4.00039 8.26277 4.53765 8.80002 5.20039 8.80002H14.8004C15.4631 8.80002 16.0004 8.26277 16.0004 7.60002C16.0004 6.93728 15.4631 6.40002 14.8004 6.40002H5.20039Z" fill="#8079B4"/>
</svg>
