<?xml version="1.0" encoding="UTF-8" standalone="no"?>
<!DOCTYPE svg >
<svg xmlns="http://www.w3.org/2000/svg" xmlns:xlink="http://www.w3.org/1999/xlink" version="1.1" width="1080" height="1080" viewBox="0 0 1080 1080" xml:space="preserve">
    <desc>Created with Fabric.js 5.2.4</desc>
    <defs></defs>
    <g transform="matrix(1 0 0 1 540 540)" id="0fc8d175-f3c5-46d6-abd2-60e3fea12aa8">
        <rect style="stroke: none; stroke-width: 1; stroke-dasharray: none; stroke-linecap: butt; stroke-dashoffset: 0; stroke-linejoin: miter; stroke-miterlimit: 4; fill: rgb(255,255,255); fill-rule: nonzero; opacity: 1; visibility: hidden;" vector-effect="non-scaling-stroke" x="-540" y="-540" rx="0" ry="0" width="1080" height="1080" />
    </g>
    <g transform="matrix(1 0 0 1 540 540)" id="499ef617-da27-4dc4-ae89-d7dfe28a1593"></g>
    <g transform="matrix(6.24 0 0 5.07 51.41 454.33)">
        <path style="stroke: none; stroke-width: 1; stroke-dasharray: none; stroke-linecap: butt; stroke-dashoffset: 0; stroke-linejoin: miter; stroke-miterlimit: 4; fill: rgb(0,0,0); fill-rule: nonzero; opacity: 1;" vector-effect="non-scaling-stroke" transform=" translate(-7.5, -105.98)" d="M 7.5 69.21 C 3.3579999999999997 69.21 0 72.568 0 76.71 L 0 135.25 C 0 139.392 3.358 142.75 7.5 142.75 C 11.642 142.75 15 139.392 15 135.25 L 15 76.71 C 15 72.568 11.642 69.21 7.5 69.21 z" stroke-linecap="round" />
    </g>
    <g transform="matrix(4.73 0 0 5.72 464.63 541.3)">
        <path style="stroke: none; stroke-width: 1; stroke-dasharray: none; stroke-linecap: butt; stroke-dashoffset: 0; stroke-linejoin: miter; stroke-miterlimit: 4; fill: rgb(0,0,0); fill-rule: nonzero; opacity: 1;" vector-effect="non-scaling-stroke" transform=" translate(-97.92, -118.05)" d="M 166.428 25.459 L 135.224 25.459 C 131.082 25.459 127.72399999999999 28.817 127.72399999999999 32.959 L 127.72399999999999 39.734 L 27.289 69.517 C 24.105 70.461 21.921 73.387 21.921 76.707 L 21.921 135.219 C 21.919 135.594 21.955 135.97199999999998 22.011 136.351 C 22.021 136.421 22.031 136.49099999999999 22.043 136.56 C 22.099 136.87 22.166999999999998 137.18 22.264 137.488 L 43.525 205.388 C 44.528999999999996 208.595 47.488 210.649 50.68 210.649 C 51.421 210.649 52.175 210.538 52.92 210.305 L 83.881 200.624 C 85.78 200.03 87.365 198.706 88.287 196.944 C 89.21000000000001 195.182 89.394 193.125 88.80000000000001 191.226 L 78.26400000000001 157.55700000000002 L 127.72300000000001 172.227 L 127.72300000000001 179.001 C 127.72300000000001 183.143 131.08100000000002 186.501 135.223 186.501 L 166.42700000000002 186.501 C 170.56900000000002 186.501 173.92700000000002 183.143 173.92700000000002 179.001 L 173.92700000000002 32.959 C 173.928 28.817 170.57 25.459 166.428 25.459 z M 72.245 188.546 L 55.599000000000004 193.751 L 40.785000000000004 146.44 L 60.93900000000001 152.417 L 72.245 188.546 z M 69.078 139.187 C 69.057 139.181 69.035 139.174 69.01400000000001 139.168 L 36.92200000000001 129.649 L 36.92200000000001 82.306 L 127.72500000000001 55.379999999999995 L 127.72500000000001 156.582 L 69.078 139.187 z M 158.928 171.502 L 142.724 171.502 L 142.724 166.62900000000002 L 142.724 45.333 L 142.724 40.46 L 158.928 40.46 L 158.928 171.502 z" stroke-linecap="round" />
    </g>
    <g transform="matrix(5.02 0 0 5.02 958.94 685.48)">
        <path style="stroke: none; stroke-width: 1; stroke-dasharray: none; stroke-linecap: butt; stroke-dashoffset: 0; stroke-linejoin: miter; stroke-miterlimit: 4; fill: rgb(0,0,0); fill-rule: nonzero; opacity: 1;" vector-effect="non-scaling-stroke" transform=" translate(-205.38, -146.56)" d="M 224.962 147.969 L 192.51 131.74 C 188.804 129.889 184.29999999999998 131.388 182.447 135.09400000000002 C 180.594 138.79900000000004 182.096 143.30400000000003 185.80100000000002 145.157 L 218.25300000000001 161.38600000000002 C 219.33 161.925 220.47400000000002 162.17900000000003 221.602 162.17900000000003 C 224.353 162.17900000000003 227.002 160.66000000000003 228.316 158.03200000000004 C 230.168 154.327 228.666 149.822 224.962 147.969 z" stroke-linecap="round" />
    </g>
    <g transform="matrix(5.18 0 0 5.18 953.86 289.65)">
        <path style="stroke: none; stroke-width: 1; stroke-dasharray: none; stroke-linecap: butt; stroke-dashoffset: 0; stroke-linejoin: miter; stroke-miterlimit: 4; fill: rgb(0,0,0); fill-rule: nonzero; opacity: 1;" vector-effect="non-scaling-stroke" transform=" translate(-205.38, -65.4)" d="M 189.161 81.012 C 190.288 81.012 191.433 80.757 192.50900000000001 80.218 L 224.96200000000002 63.991 C 228.66700000000003 62.138 230.169 57.634 228.31600000000003 53.929 C 226.46400000000003 50.224000000000004 221.95800000000003 48.722 218.25400000000002 50.575 L 185.80100000000002 66.802 C 182.096 68.655 180.59400000000002 73.159 182.447 76.864 C 183.761 79.493 186.41 81.012 189.161 81.012 z" stroke-linecap="round" />
    </g>
    <g transform="matrix(5.79 0 0 4.57 958.06 484.77)">
        <path style="stroke: none; stroke-width: 1; stroke-dasharray: none; stroke-linecap: butt; stroke-dashoffset: 0; stroke-linejoin: miter; stroke-miterlimit: 4; fill: rgb(0,0,0); fill-rule: nonzero; opacity: 1;" vector-effect="non-scaling-stroke" transform=" translate(-215.06, -105.98)" d="M 228.608 98.48 L 201.51 98.48 C 197.368 98.48 194.01 101.83800000000001 194.01 105.98 C 194.01 110.122 197.368 113.48 201.51 113.48 L 228.608 113.48 C 232.75 113.48 236.108 110.122 236.108 105.98 C 236.108 101.837 232.75 98.48 228.608 98.48 z" stroke-linecap="round" />
    </g>
</svg>