<svg width="54" height="54" viewBox="0 0 54 54" fill="none" xmlns="http://www.w3.org/2000/svg">
<circle cx="31" cy="31" r="23" fill="black"/>
<circle cx="23" cy="23" r="22.5" fill="#FDF3E1" stroke="black"/>
<path d="M22.7557 31.2386C21.5852 31.2386 20.5398 31.0369 19.6193 30.6335C18.7045 30.2301 17.9801 29.6705 17.446 28.9545C16.9176 28.233 16.6335 27.3977 16.5938 26.4489H19.2699C19.304 26.9659 19.4773 27.4148 19.7898 27.7955C20.108 28.1705 20.5227 28.4602 21.0341 28.6648C21.5455 28.8693 22.1136 28.9716 22.7386 28.9716C23.4261 28.9716 24.0341 28.8523 24.5625 28.6136C25.0966 28.375 25.5142 28.0426 25.8153 27.6165C26.1165 27.1847 26.267 26.6875 26.267 26.125C26.267 25.5398 26.1165 25.0256 25.8153 24.5824C25.5199 24.1335 25.0852 23.7812 24.5114 23.5256C23.9432 23.2699 23.2557 23.142 22.4489 23.142H20.9744V20.9943H22.4489C23.0966 20.9943 23.6648 20.8778 24.1534 20.6449C24.6477 20.4119 25.0341 20.0881 25.3125 19.6733C25.5909 19.2528 25.7301 18.7614 25.7301 18.1989C25.7301 17.6591 25.608 17.1903 25.3636 16.7926C25.125 16.3892 24.7841 16.0739 24.3409 15.8466C23.9034 15.6193 23.3864 15.5057 22.7898 15.5057C22.2216 15.5057 21.6903 15.6108 21.196 15.821C20.7074 16.0256 20.3097 16.321 20.0028 16.7074C19.696 17.0881 19.5313 17.5455 19.5085 18.0795H16.9602C16.9886 17.1364 17.267 16.3068 17.7955 15.5909C18.3295 14.875 19.0341 14.3153 19.9091 13.9119C20.7841 13.5085 21.7557 13.3068 22.8239 13.3068C23.9432 13.3068 24.9091 13.5256 25.7216 13.9631C26.5398 14.3949 27.1705 14.9716 27.6136 15.6932C28.0625 16.4148 28.2841 17.2045 28.2784 18.0625C28.2841 19.0398 28.0114 19.8693 27.4602 20.5511C26.9148 21.233 26.1875 21.6903 25.2784 21.9233V22.0597C26.4375 22.2358 27.3352 22.696 27.9716 23.4403C28.6136 24.1847 28.9318 25.108 28.9261 26.2102C28.9318 27.1705 28.6648 28.0312 28.125 28.7926C27.5909 29.554 26.8608 30.1534 25.9347 30.5909C25.0085 31.0227 23.9489 31.2386 22.7557 31.2386Z" fill="black"/>
</svg>
