<svg width="44" height="44" viewBox="0 0 44 44" fill="none" xmlns="http://www.w3.org/2000/svg">
<g opacity="0.5">
<rect x="4" y="4" width="40" height="40" rx="20" fill="black"/>
<rect x="0.5" y="0.5" width="39" height="39" rx="19.5" fill="#FDF3E1"/>
<path d="M19.7557 28.7386C18.5852 28.7386 17.5398 28.5369 16.6193 28.1335C15.7045 27.7301 14.9801 27.1705 14.446 26.4545C13.9176 25.733 13.6335 24.8977 13.5938 23.9489H16.2699C16.304 24.4659 16.4773 24.9148 16.7898 25.2955C17.108 25.6705 17.5227 25.9602 18.0341 26.1648C18.5455 26.3693 19.1136 26.4716 19.7386 26.4716C20.4261 26.4716 21.0341 26.3523 21.5625 26.1136C22.0966 25.875 22.5142 25.5426 22.8153 25.1165C23.1165 24.6847 23.267 24.1875 23.267 23.625C23.267 23.0398 23.1165 22.5256 22.8153 22.0824C22.5199 21.6335 22.0852 21.2812 21.5114 21.0256C20.9432 20.7699 20.2557 20.642 19.4489 20.642H17.9744V18.4943H19.4489C20.0966 18.4943 20.6648 18.3778 21.1534 18.1449C21.6477 17.9119 22.0341 17.5881 22.3125 17.1733C22.5909 16.7528 22.7301 16.2614 22.7301 15.6989C22.7301 15.1591 22.608 14.6903 22.3636 14.2926C22.125 13.8892 21.7841 13.5739 21.3409 13.3466C20.9034 13.1193 20.3864 13.0057 19.7898 13.0057C19.2216 13.0057 18.6903 13.1108 18.196 13.321C17.7074 13.5256 17.3097 13.821 17.0028 14.2074C16.696 14.5881 16.5313 15.0455 16.5085 15.5795H13.9602C13.9886 14.6364 14.267 13.8068 14.7955 13.0909C15.3295 12.375 16.0341 11.8153 16.9091 11.4119C17.7841 11.0085 18.7557 10.8068 19.8239 10.8068C20.9432 10.8068 21.9091 11.0256 22.7216 11.4631C23.5398 11.8949 24.1705 12.4716 24.6136 13.1932C25.0625 13.9148 25.2841 14.7045 25.2784 15.5625C25.2841 16.5398 25.0114 17.3693 24.4602 18.0511C23.9148 18.733 23.1875 19.1903 22.2784 19.4233V19.5597C23.4375 19.7358 24.3352 20.196 24.9716 20.9403C25.6136 21.6847 25.9318 22.608 25.9261 23.7102C25.9318 24.6705 25.6648 25.5312 25.125 26.2926C24.5909 27.054 23.8608 27.6534 22.9347 28.0909C22.0085 28.5227 20.9489 28.7386 19.7557 28.7386Z" fill="black"/>
<rect x="0.5" y="0.5" width="39" height="39" rx="19.5" stroke="black"/>
</g>
</svg>
