<svg width="44" height="44" viewBox="0 0 44 44" fill="none" xmlns="http://www.w3.org/2000/svg">
<g opacity="0.5">
<rect x="4" y="4" width="40" height="40" rx="20" fill="black"/>
<rect x="0.5" y="0.5" width="39" height="39" rx="19.5" fill="#FDF3E1"/>
<path d="M14.179 28.5V26.5909L20.0852 20.4716C20.7159 19.8068 21.2358 19.2244 21.6449 18.7244C22.0597 18.2187 22.3693 17.7386 22.5739 17.2841C22.7784 16.8295 22.8807 16.3466 22.8807 15.8352C22.8807 15.2557 22.7443 14.7557 22.4716 14.3352C22.1989 13.9091 21.8267 13.5824 21.3551 13.3551C20.8835 13.1222 20.3523 13.0057 19.7614 13.0057C19.1364 13.0057 18.5909 13.1335 18.125 13.3892C17.6591 13.6449 17.3011 14.0057 17.0511 14.4716C16.8011 14.9375 16.6761 15.483 16.6761 16.108H14.1619C14.1619 15.0455 14.4063 14.1165 14.8949 13.321C15.3835 12.5256 16.054 11.9091 16.9062 11.4716C17.7585 11.0284 18.7273 10.8068 19.8125 10.8068C20.9091 10.8068 21.875 11.0256 22.7102 11.4631C23.5511 11.8949 24.2074 12.4858 24.679 13.2358C25.1506 13.9801 25.3864 14.821 25.3864 15.7585C25.3864 16.4062 25.2642 17.0398 25.0199 17.6591C24.7813 18.2784 24.3636 18.9687 23.767 19.7301C23.1705 20.4858 22.3409 21.4034 21.2784 22.483L17.8097 26.1136V26.2415H25.6676V28.5H14.179Z" fill="black"/>
<rect x="0.5" y="0.5" width="39" height="39" rx="19.5" stroke="black"/>
</g>
</svg>
