<svg width="54" height="54" viewBox="0 0 54 54" fill="none" xmlns="http://www.w3.org/2000/svg">
<circle cx="31" cy="31" r="23" fill="black"/>
<circle cx="23" cy="23" r="22.5" fill="#FDF3E1" stroke="black"/>
<path d="M16.679 31V29.0909L22.5852 22.9716C23.2159 22.3068 23.7358 21.7244 24.1449 21.2244C24.5597 20.7187 24.8693 20.2386 25.0739 19.7841C25.2784 19.3295 25.3807 18.8466 25.3807 18.3352C25.3807 17.7557 25.2443 17.2557 24.9716 16.8352C24.6989 16.4091 24.3267 16.0824 23.8551 15.8551C23.3835 15.6222 22.8523 15.5057 22.2614 15.5057C21.6364 15.5057 21.0909 15.6335 20.625 15.8892C20.1591 16.1449 19.8011 16.5057 19.5511 16.9716C19.3011 17.4375 19.1761 17.983 19.1761 18.608H16.6619C16.6619 17.5455 16.9063 16.6165 17.3949 15.821C17.8835 15.0256 18.554 14.4091 19.4062 13.9716C20.2585 13.5284 21.2273 13.3068 22.3125 13.3068C23.4091 13.3068 24.375 13.5256 25.2102 13.9631C26.0511 14.3949 26.7074 14.9858 27.179 15.7358C27.6506 16.4801 27.8864 17.321 27.8864 18.2585C27.8864 18.9062 27.7642 19.5398 27.5199 20.1591C27.2813 20.7784 26.8636 21.4687 26.267 22.2301C25.6705 22.9858 24.8409 23.9034 23.7784 24.983L20.3097 28.6136V28.7415H28.1676V31H16.679Z" fill="black"/>
</svg>
