<svg width="22" height="22" viewBox="0 0 22 22" fill="none" xmlns="http://www.w3.org/2000/svg">
<g clip-path="url(#clip0_11813_11045)">
<path d="M11 22C17.0751 22 22 17.0751 22 11C22 4.92487 17.0751 0 11 0C4.92487 0 0 4.92487 0 11C0 17.0751 4.92487 22 11 22Z" fill="#627EEA"/>
<path d="M11.3424 2.75V8.84812L16.4966 11.1512L11.3424 2.75Z" fill="white" fill-opacity="0.602"/>
<path d="M11.3424 2.75L6.1875 11.1512L11.3424 8.84812V2.75Z" fill="white"/>
<path d="M11.3424 15.103V19.2466L16.5 12.111L11.3424 15.103Z" fill="white" fill-opacity="0.602"/>
<path d="M11.3424 19.2466V15.1023L6.1875 12.111L11.3424 19.2466Z" fill="white"/>
<path d="M11.3424 14.1439L16.4966 11.1512L11.3424 8.84949V14.1439Z" fill="white" fill-opacity="0.2"/>
<path d="M6.1875 11.1512L11.3424 14.1439V8.84949L6.1875 11.1512Z" fill="white" fill-opacity="0.602"/>
</g>
<defs>
<clipPath id="clip0_11813_11045">
<rect width="22" height="22" fill="white"/>
</clipPath>
</defs>
</svg>
