<svg width="32" height="32" viewBox="0 0 32 32" fill="none" xmlns="http://www.w3.org/2000/svg">
<rect x="5.01672" y="5.65747" width="26.1182" height="26.1182" rx="13.0591" fill="#232039"/>
<rect x="0.530518" y="1.17065" width="25.0816" height="25.0816" rx="12.5408" fill="white"/>
<g clip-path="url(#clip0_15660_177456)">
<path fill-rule="evenodd" clip-rule="evenodd" d="M13.0594 12.1074C12.181 12.1082 11.471 12.8209 11.4718 13.7003C11.4726 14.576 12.1918 15.2943 13.065 15.2915C13.9377 15.2887 14.6593 14.5648 14.6569 13.6946C14.6541 12.8193 13.9365 12.1066 13.0594 12.1074Z" fill="#232039"/>
<mask id="mask0_15660_177456" style="mask-type:alpha" maskUnits="userSpaceOnUse" x="8" y="8" width="10" height="11">
<path fill-rule="evenodd" clip-rule="evenodd" d="M8.28162 8.92334H17.8542V18.4892H8.28162V8.92334Z" fill="white"/>
</mask>
<g mask="url(#mask0_15660_177456)">
<path fill-rule="evenodd" clip-rule="evenodd" d="M15.6074 11.7222C15.2875 11.7194 15.0352 11.4595 15.04 11.1377C15.0445 10.8159 15.3024 10.5681 15.6267 10.5745C15.9401 10.5801 16.1892 10.8356 16.1884 11.149C16.1876 11.4671 15.926 11.725 15.6074 11.7222ZM13.0559 16.1557C11.6994 16.1512 10.6065 15.0513 10.6081 13.6919C10.6097 12.3333 11.7054 11.243 13.0679 11.2446C14.4241 11.2462 15.5246 12.3501 15.5202 13.7039C15.5158 15.0578 14.4076 16.1601 13.0559 16.1557ZM17.8201 12.0163C17.7928 11.6258 17.7743 11.2265 17.6783 10.8501C17.4079 9.79276 16.5641 9.09737 15.4434 8.98609C14.9789 8.9403 14.5097 8.92343 14.0427 8.92343C13.0326 8.92262 12.0224 8.92704 11.0131 8.95596C10.2392 8.97766 9.54048 9.21226 9.00005 9.80641C8.53275 10.3206 8.36117 10.9449 8.31577 11.6182C8.30492 11.7817 8.29287 11.9452 8.28162 12.1087V15.2992C8.31095 15.6097 8.31939 15.9239 8.37242 16.23C8.59342 17.5054 9.48624 18.323 10.7785 18.4214C11.3121 18.4619 11.8489 18.4563 12.3845 18.4732C12.4528 18.4752 12.5211 18.4836 12.5894 18.4893H13.5148C13.8487 18.4809 14.183 18.4829 14.5161 18.4615C14.944 18.4342 15.3804 18.4318 15.7966 18.3418C16.8751 18.1097 17.6056 17.3134 17.7514 16.2139C17.8197 15.6953 17.8117 15.1662 17.8374 14.642C17.8451 14.4781 17.8487 14.3141 17.8543 14.1507V13.2255C17.8442 12.8222 17.8482 12.4184 17.8201 12.0163Z" fill="#232039"/>
</g>
</g>
<rect x="0.270632" y="0.911501" width="25.5999" height="25.5999" rx="12.8" stroke="#232039" stroke-width="0.518315"/>
<defs>
<clipPath id="clip0_15660_177456">
<rect width="9.57263" height="11.3867" fill="white" transform="translate(8.28162 8.0127)"/>
</clipPath>
</defs>
</svg>
