<svg width="32" height="32" viewBox="0 0 32 32" fill="none" xmlns="http://www.w3.org/2000/svg">
<rect x="5.18945" y="5.65747" width="26.1182" height="26.1182" rx="13.0591" fill="#232039"/>
<rect x="0.703491" y="1.17065" width="25.0816" height="25.0816" rx="12.5408" fill="white"/>
<g clip-path="url(#clip0_15660_177469)">
<path fill-rule="evenodd" clip-rule="evenodd" d="M8.45508 18.0336H10.7343V12.1125H8.45508V18.0336Z" fill="#232039"/>
<path fill-rule="evenodd" clip-rule="evenodd" d="M13.7605 13.0896V12.1691H11.6461C11.6736 12.6576 11.6461 18.0336 11.6461 18.0336H13.7605V14.8604C13.7605 14.6835 13.7525 14.5073 13.8068 14.3809C13.9523 14.0281 14.2642 13.6623 14.8256 13.6623C15.5601 13.6623 15.8937 14.2043 15.8937 14.999V18.0336H18.0279V14.7727C18.0279 12.9563 16.9771 12.1125 15.64 12.1125C14.561 12.1125 13.8856 12.6872 13.7605 13.0896Z" fill="#232039"/>
<path fill-rule="evenodd" clip-rule="evenodd" d="M9.602 9.38013C8.90882 9.38013 8.45508 9.87163 8.45508 10.52C8.45508 11.1555 8.89576 11.6575 9.57525 11.6575H9.58863C10.2946 11.6575 10.7343 11.1541 10.7343 10.5179C10.7209 9.87024 10.2946 9.38013 9.602 9.38013Z" fill="#232039"/>
</g>
<rect x="0.443728" y="0.911501" width="25.5999" height="25.5999" rx="12.8" stroke="#232039" stroke-width="0.518315"/>
<defs>
<clipPath id="clip0_15660_177469">
<rect width="9.57263" height="9.83179" fill="white" transform="translate(8.45422 8.79175)"/>
</clipPath>
</defs>
</svg>
