<svg width="40" height="40" viewBox="0 0 40 40" fill="none" xmlns="http://www.w3.org/2000/svg">
<path d="M34.9583 4L21.8242 13.7183L24.2666 7.99099L34.9583 4Z" fill="#E17726" stroke="#E17726" stroke-width="0.25" stroke-linecap="round" stroke-linejoin="round"/>
<path d="M4.66309 4L17.6802 13.809L15.3548 7.99098L4.66309 4Z" fill="#E27625" stroke="#E27625" stroke-width="0.25" stroke-linecap="round" stroke-linejoin="round"/>
<path d="M30.229 26.5352L26.7344 31.8738L34.2173 33.9341L36.3609 26.6519L30.229 26.5352Z" fill="#E27625" stroke="#E27625" stroke-width="0.25" stroke-linecap="round" stroke-linejoin="round"/>
<path d="M3.27246 26.6519L5.403 33.9341L12.873 31.8738L9.39129 26.5352L3.27246 26.6519Z" fill="#E27625" stroke="#E27625" stroke-width="0.25" stroke-linecap="round" stroke-linejoin="round"/>
<path d="M12.4702 17.5158L10.3916 20.6516L17.7966 20.9885L17.5498 13.0195L12.4702 17.5158Z" fill="#E27625" stroke="#E27625" stroke-width="0.25" stroke-linecap="round" stroke-linejoin="round"/>
<path d="M27.1505 17.5167L21.9931 12.9297L21.8242 20.9894L29.2291 20.6525L27.1505 17.5167Z" fill="#E27625" stroke="#E27625" stroke-width="0.25" stroke-linecap="round" stroke-linejoin="round"/>
<path d="M12.873 31.8732L17.3549 29.7093L13.4966 26.7031L12.873 31.8732Z" fill="#E27625" stroke="#E27625" stroke-width="0.25" stroke-linecap="round" stroke-linejoin="round"/>
<path d="M22.2656 29.7093L26.7345 31.8732L26.1239 26.7031L22.2656 29.7093Z" fill="#E27625" stroke="#E27625" stroke-width="0.25" stroke-linecap="round" stroke-linejoin="round"/>
<path d="M26.7345 31.8709L22.2656 29.707L22.6293 32.6095L22.5903 33.8405L26.7345 31.8709Z" fill="#D5BFB2" stroke="#D5BFB2" stroke-width="0.25" stroke-linecap="round" stroke-linejoin="round"/>
<path d="M12.873 31.8709L17.0302 33.8405L17.0042 32.6095L17.3549 29.707L12.873 31.8709Z" fill="#D5BFB2" stroke="#D5BFB2" stroke-width="0.25" stroke-linecap="round" stroke-linejoin="round"/>
<path d="M17.1081 24.7857L13.3926 23.6973L16.0168 22.4922L17.1081 24.7857Z" fill="#233447" stroke="#233447" stroke-width="0.25" stroke-linecap="round" stroke-linejoin="round"/>
<path d="M22.5127 24.7857L23.604 22.4922L26.2412 23.6973L22.5127 24.7857Z" fill="#233447" stroke="#233447" stroke-width="0.25" stroke-linecap="round" stroke-linejoin="round"/>
<path d="M12.8732 31.8738L13.5228 26.5352L9.3916 26.6519L12.8732 31.8738Z" fill="#CC6228" stroke="#CC6228" stroke-width="0.25" stroke-linecap="round" stroke-linejoin="round"/>
<path d="M26.0977 26.5352L26.7343 31.8738L30.2289 26.6519L26.0977 26.5352Z" fill="#CC6228" stroke="#CC6228" stroke-width="0.25" stroke-linecap="round" stroke-linejoin="round"/>
<path d="M29.2291 20.6523L21.8242 20.9892L22.5127 24.7859L23.604 22.4923L26.2412 23.6974L29.2291 20.6523Z" fill="#CC6228" stroke="#CC6228" stroke-width="0.25" stroke-linecap="round" stroke-linejoin="round"/>
<path d="M13.3926 23.6974L16.0168 22.4923L17.1081 24.7859L17.7966 20.9892L10.3916 20.6523L13.3926 23.6974Z" fill="#CC6228" stroke="#CC6228" stroke-width="0.25" stroke-linecap="round" stroke-linejoin="round"/>
<path d="M10.3926 20.6523L13.4975 26.7036L13.3935 23.6974L10.3926 20.6523Z" fill="#E27525" stroke="#E27525" stroke-width="0.25" stroke-linecap="round" stroke-linejoin="round"/>
<path d="M26.2409 23.6974L26.124 26.7036L29.2289 20.6523L26.2409 23.6974Z" fill="#E27525" stroke="#E27525" stroke-width="0.25" stroke-linecap="round" stroke-linejoin="round"/>
<path d="M17.797 20.9883L17.1084 24.785L17.9788 29.2683L18.1737 23.3596L17.797 20.9883Z" fill="#E27525" stroke="#E27525" stroke-width="0.25" stroke-linecap="round" stroke-linejoin="round"/>
<path d="M21.8247 20.9883L21.4609 23.3467L21.6428 29.2683L22.5132 24.785L21.8247 20.9883Z" fill="#E27525" stroke="#E27525" stroke-width="0.25" stroke-linecap="round" stroke-linejoin="round"/>
<path d="M22.513 24.7838L21.6426 29.2671L22.2662 29.7077L26.1246 26.7015L26.2415 23.6953L22.513 24.7838Z" fill="#F5841F" stroke="#F5841F" stroke-width="0.25" stroke-linecap="round" stroke-linejoin="round"/>
<path d="M13.3926 23.6953L13.4966 26.7015L17.3549 29.7077L17.9785 29.2671L17.1081 24.7838L13.3926 23.6953Z" fill="#F5841F" stroke="#F5841F" stroke-width="0.25" stroke-linecap="round" stroke-linejoin="round"/>
<path d="M22.5904 33.8407L22.6293 32.6097L22.2916 32.3246H17.329L17.0042 32.6097L17.0302 33.8407L12.873 31.8711L14.328 33.0632L17.277 35.0976H22.3305L25.2925 33.0632L26.7345 31.8711L22.5904 33.8407Z" fill="#C0AC9D" stroke="#C0AC9D" stroke-width="0.25" stroke-linecap="round" stroke-linejoin="round"/>
<path d="M22.2653 29.7061L21.6417 29.2656H17.9782L17.3547 29.7061L17.0039 32.6087L17.3287 32.3236H22.2913L22.6291 32.6087L22.2653 29.7061Z" fill="#161616" stroke="#161616" stroke-width="0.25" stroke-linecap="round" stroke-linejoin="round"/>
<path d="M35.5165 14.3532L36.6208 8.98873L34.9579 4L22.2656 13.3944L27.1502 17.5149L34.0485 19.5234L35.5685 17.7482L34.906 17.2687L35.9582 16.3099L35.1528 15.6879L36.2051 14.8845L35.5165 14.3532Z" fill="#763E1A" stroke="#763E1A" stroke-width="0.25" stroke-linecap="round" stroke-linejoin="round"/>
<path d="M3 8.98873L4.11724 14.3532L3.40273 14.8845L4.468 15.6879L3.66255 16.3099L4.71483 17.2687L4.05228 17.7482L5.57225 19.5234L12.4706 17.5149L17.3552 13.3944L4.66287 4L3 8.98873Z" fill="#763E1A" stroke="#763E1A" stroke-width="0.25" stroke-linecap="round" stroke-linejoin="round"/>
<path d="M34.0486 19.524L27.1503 17.5156L29.2289 20.6514L26.124 26.7026L30.2292 26.6508H36.361L34.0486 19.524Z" fill="#F5841F" stroke="#F5841F" stroke-width="0.25" stroke-linecap="round" stroke-linejoin="round"/>
<path d="M12.4702 17.5156L5.57189 19.524L3.27246 26.6508H9.39129L13.4965 26.7026L10.3916 20.6514L12.4702 17.5156Z" fill="#F5841F" stroke="#F5841F" stroke-width="0.25" stroke-linecap="round" stroke-linejoin="round"/>
<path d="M21.8241 20.9888L22.2658 13.3955L24.2664 7.99219H15.3545L17.3551 13.3955L17.7968 20.9888L17.9657 23.373L17.9787 29.2688H21.6422L21.6552 23.373L21.8241 20.9888Z" fill="#F5841F" stroke="#F5841F" stroke-width="0.25" stroke-linecap="round" stroke-linejoin="round"/>
</svg>
