<svg width="111" height="112" viewBox="0 0 111 112" fill="none" xmlns="http://www.w3.org/2000/svg">
<g filter="url(#filter0_d_259_2583)">
<ellipse cx="55.5" cy="52" rx="51.5" ry="52" fill="white"/>
</g>
<path d="M56.4999 20.1758C74.9049 20.1758 89.8256 35.0964 89.8256 53.5014C89.8256 71.9064 74.9049 86.827 56.4999 86.827C38.095 86.827 23.1743 71.9064 23.1743 53.5014C23.1743 35.0964 38.095 20.1758 56.4999 20.1758Z" fill="#8247E5"/>
<path d="M67.5307 46.3712C66.7311 45.9062 65.6927 45.9062 64.8132 46.3712L58.5785 49.9363L54.3425 52.2616L48.1078 55.8267C47.3082 56.2917 46.2698 56.2917 45.3903 55.8267L40.4345 53.0364C39.6349 52.5713 39.0757 51.7184 39.0757 50.7883V45.2858C39.0757 44.3557 39.555 43.5037 40.4345 43.0387L45.3104 40.3265C46.1101 39.8614 47.1484 39.8614 48.0279 40.3265L52.9039 43.0387C53.7035 43.5037 54.2626 44.3566 54.2626 45.2858V48.8509L58.4995 46.4485V42.8834C58.4995 41.9533 58.0203 41.1013 57.1408 40.6362L48.1087 35.5207C47.3091 35.0556 46.2707 35.0556 45.3912 35.5207L36.1993 40.6362C35.3198 41.1013 34.8406 41.9541 34.8406 42.8834V53.1908C34.8406 54.1209 35.3198 54.9729 36.1993 55.4379L45.3912 60.5526C46.1908 61.0177 47.2292 61.0177 48.1087 60.5526L54.3434 57.0647L58.5794 54.6623L64.8141 51.1744C65.6137 50.7093 66.6521 50.7093 67.5316 51.1744L72.4076 53.8866C73.2072 54.3516 73.7663 55.2036 73.7663 56.1337V61.6362C73.7663 62.5663 73.2871 63.4183 72.4076 63.8834L67.5316 66.6737C66.732 67.1387 65.6936 67.1387 64.8141 66.6737L59.9382 63.9615C59.1385 63.4964 58.5794 62.6435 58.5794 61.7143V58.1492L54.3434 60.5517V64.1168C54.3434 65.0469 54.8226 65.8998 55.7022 66.3639L64.894 71.4786C65.6936 71.9437 66.7329 71.9437 67.6115 71.4786L76.8033 66.3639C77.603 65.8989 78.1621 65.046 78.1621 64.1168V53.8094C78.1621 52.8793 77.6829 52.0273 76.8033 51.5613L67.5316 46.3686L67.5307 46.3712Z" fill="white"/>
<defs>
<filter id="filter0_d_259_2583" x="0" y="0" width="111" height="112" filterUnits="userSpaceOnUse" color-interpolation-filters="sRGB">
<feFlood flood-opacity="0" result="BackgroundImageFix"/>
<feColorMatrix in="SourceAlpha" type="matrix" values="0 0 0 0 0 0 0 0 0 0 0 0 0 0 0 0 0 0 127 0" result="hardAlpha"/>
<feOffset dy="4"/>
<feGaussianBlur stdDeviation="2"/>
<feComposite in2="hardAlpha" operator="out"/>
<feColorMatrix type="matrix" values="0 0 0 0 0 0 0 0 0 0 0 0 0 0 0 0 0 0 0.25 0"/>
<feBlend mode="normal" in2="BackgroundImageFix" result="effect1_dropShadow_259_2583"/>
<feBlend mode="normal" in="SourceGraphic" in2="effect1_dropShadow_259_2583" result="shape"/>
</filter>
</defs>
</svg>
