<svg width="22" height="22" viewBox="0 0 22 22" fill="none" xmlns="http://www.w3.org/2000/svg">
<circle cx="11" cy="11" r="11" fill="#8247E5"/>
<path d="M14.2219 8.74118C14.0007 8.60677 13.7164 8.60677 13.4637 8.74118L11.6945 9.8501L10.4939 10.5558L8.75634 11.6647C8.53519 11.7991 8.25086 11.7991 7.99812 11.6647L6.63963 10.791C6.41848 10.6566 6.26052 10.3878 6.26052 10.0853V8.40515C6.26052 8.13632 6.38689 7.86749 6.63963 7.69948L7.99812 6.85939C8.21927 6.72498 8.5036 6.72498 8.75634 6.85939L10.1148 7.73308C10.336 7.86749 10.4939 8.13632 10.4939 8.43875V9.54767L11.6945 8.80839V7.66587C11.6945 7.39705 11.5681 7.12822 11.3154 6.9602L8.78794 5.38084C8.56679 5.24643 8.28245 5.24643 8.02971 5.38084L5.43911 6.9938C5.18637 7.12822 5.06 7.39705 5.06 7.66587V10.8246C5.06 11.0934 5.18637 11.3623 5.43911 11.5303L7.99812 13.1096C8.21927 13.244 8.5036 13.244 8.75634 13.1096L10.4939 12.0343L11.6945 11.295L13.4321 10.2197C13.6532 10.0853 13.9375 10.0853 14.1903 10.2197L15.5488 11.0598C15.7699 11.1942 15.9279 11.4631 15.9279 11.7655V13.4457C15.9279 13.7145 15.8015 13.9833 15.5488 14.1513L14.2219 14.9914C14.0007 15.1258 13.7164 15.1258 13.4637 14.9914L12.1052 14.1513C11.884 14.0169 11.7261 13.7481 11.7261 13.4457V12.3704L10.5255 13.1096V14.2185C10.5255 14.4874 10.6519 14.7562 10.9046 14.9242L13.4637 16.5036C13.6848 16.638 13.9691 16.638 14.2219 16.5036L16.7809 14.9242C17.002 14.7898 17.16 14.521 17.16 14.2185V11.0262C17.16 10.7574 17.0336 10.4886 16.7809 10.3205L14.2219 8.74118Z" fill="white"/>
</svg>
