<svg xmlns="http://www.w3.org/2000/svg" fill="none" viewBox="9 5 48 48">
    <g filter="url(#filter0_d_187_43534)">
        <rect x="9" y="5" width="48" height="48" rx="24" fill="#292548" shape-rendering="crispEdges"/>
        <path fill-rule="evenodd" clip-rule="evenodd" d="M33.1049 43.1556C30.9689 43.1556 28.9785 42.6482 27.1859 41.648C25.1596 40.5174 23.7104 38.9428 22.8833 36.9678C22.5669 36.2068 22.4141 35.4748 22.4141 34.7319V32.5539C22.4141 31.3526 22.8132 30.1803 23.5414 29.2254C23.153 28.2216 22.9553 27.1435 22.9553 26.0129V23.8349C22.9553 21.8726 23.5432 20.1223 24.7047 18.6329C25.7296 17.3156 27.096 16.319 28.7628 15.6703C30.1742 15.1213 31.7331 14.8423 33.398 14.8423C35.428 14.8423 37.2403 15.3098 38.7794 16.2302C40.2304 17.0981 41.4548 18.3176 42.4168 19.8541C43.0569 20.876 43.3805 21.9668 43.3805 23.0993V25.2772C43.3805 26.1451 43.1917 26.9659 42.8177 27.7251C43.3302 28.8902 43.5891 30.1821 43.5891 31.5683V33.7462C43.5891 35.7901 42.9993 37.6092 41.8378 39.1566C40.7806 40.5645 39.3853 41.6209 37.6934 42.2949C36.2568 42.8675 34.7124 43.1574 33.1049 43.1574" fill="white"/>
        <path fill-rule="evenodd" clip-rule="evenodd" d="M33.1059 41.3397C31.2792 41.3397 29.5819 40.9085 28.059 40.0587C26.394 39.1292 25.2091 37.8518 24.5421 36.2591C24.3209 35.7264 24.2148 35.2281 24.2148 34.7298V32.5519C24.2148 31.6115 24.5744 30.7146 25.2271 30.026C25.3799 29.8648 25.5454 29.7198 25.7198 29.5875C25.0851 28.5276 24.756 27.319 24.756 26.009V23.831C24.756 22.2854 25.2145 20.912 26.1207 19.7505C26.9424 18.6942 28.05 17.8897 29.4111 17.3606C30.6139 16.8931 31.9552 16.6558 33.399 16.6558C35.1017 16.6558 36.6048 17.0381 37.8634 17.79C39.0681 18.5112 40.0876 19.5313 40.8966 20.8214C41.3515 21.548 41.5835 22.3144 41.5835 23.0972V25.2751C41.5835 26.1521 41.2868 26.9729 40.7456 27.6361C41.4414 28.7704 41.7921 30.0858 41.7921 31.5644V33.7423C41.7921 35.3803 41.3264 36.8317 40.4058 38.0565C39.5499 39.1962 38.4154 40.0533 37.0346 40.6041C35.8101 41.0915 34.4886 41.3379 33.1077 41.3379" fill="#242039"/>
        <path fill-rule="evenodd" clip-rule="evenodd" d="M40.3222 32.1115C40.3366 31.9321 40.3456 31.7509 40.3456 31.5661C40.3456 29.8828 39.7936 28.4804 38.7184 27.3878C38.8586 27.3298 38.9953 27.2628 39.1301 27.1758C39.781 26.7174 40.1388 26.0415 40.1388 25.2751C40.1388 25.0957 40.1118 24.9181 40.0741 24.7388C40.1172 24.5612 40.1388 24.3764 40.1388 24.1861C40.1388 24.0067 40.1118 23.8292 40.0741 23.6498C40.1172 23.4722 40.1388 23.2874 40.1388 23.0971C40.1388 22.5934 39.9824 22.0879 39.6749 21.595C38.9899 20.5006 38.1322 19.64 37.1254 19.0384C36.0915 18.4205 34.8383 18.1089 33.3963 18.1089C32.1323 18.1089 30.9654 18.3136 29.928 18.7177C28.8132 19.1507 27.9124 19.8012 27.2526 20.6492C26.5513 21.5498 26.1953 22.6206 26.1953 23.8328C26.1953 24.0194 26.2061 24.2006 26.2223 24.3818C26.2061 24.5594 26.1953 24.7388 26.1953 24.9218C26.1953 25.1048 26.2061 25.2896 26.2223 25.4708C26.2061 25.6483 26.1953 25.8277 26.1953 26.0107C26.1953 27.7067 26.857 29.1363 28.1623 30.2561C28.1623 30.2561 28.1641 30.2579 28.1659 30.2579C28.1444 30.2579 28.1228 30.2543 28.1012 30.2543C27.8855 30.2543 27.7075 30.2742 27.5726 30.3123C27.0476 30.43 26.6089 30.671 26.2655 31.0316C25.8645 31.4538 25.6523 31.9811 25.6523 32.5536C25.6523 32.7294 25.6793 32.9124 25.7279 33.1008C25.6829 33.2766 25.6523 33.456 25.6523 33.6426C25.6523 33.8184 25.6793 34.0014 25.7279 34.1898C25.6829 34.3656 25.6523 34.5449 25.6523 34.7316C25.6523 35.0342 25.7225 35.3476 25.8663 35.6955C26.4057 36.9802 27.3766 38.022 28.7539 38.7903C30.061 39.5187 31.5246 39.8902 33.105 39.8902C34.3025 39.8902 35.446 39.6763 36.5015 39.2578C37.6324 38.8066 38.5584 38.109 39.2542 37.1849C39.9806 36.2192 40.3474 35.0632 40.3474 33.7477C40.3474 33.5629 40.3366 33.3835 40.324 33.2041C40.3384 33.0247 40.3474 32.8435 40.3474 32.6587C40.3474 32.4739 40.3366 32.2945 40.324 32.1151" fill="#231F20"/>
        <path fill-rule="evenodd" clip-rule="evenodd" d="M33.105 39.8883C31.5264 39.8883 30.061 39.5186 28.7539 38.7902C27.3766 38.022 26.4057 36.9819 25.8663 35.6954C25.7225 35.3476 25.6523 35.0341 25.6523 34.7315C25.6523 34.1589 25.8645 33.6317 26.2655 33.2095C26.6071 32.8489 27.0476 32.6079 27.5726 32.4901C27.7057 32.4539 27.8837 32.4322 28.0994 32.4322C28.5957 32.4322 29.0649 32.5753 29.4947 32.8598C29.9244 33.1442 30.2462 33.5284 30.453 34.0013C30.5555 34.226 30.8575 34.4815 31.2927 34.7061C31.8285 34.9815 32.438 35.1211 33.1032 35.1211C33.8638 35.1211 34.4967 34.9562 34.9857 34.63C35.3202 34.4054 35.4496 34.1752 35.4496 33.8074C35.4496 33.4015 35.304 33.0881 34.9785 32.7855C34.601 32.4358 33.9123 32.2002 32.9864 32.1078C30.987 31.9121 29.3616 31.2906 28.1605 30.2578C26.857 29.1381 26.1935 27.7103 26.1935 26.0125C26.1935 24.8003 26.5495 23.7276 27.2508 22.8289C27.9106 21.9809 28.8114 21.3304 29.9262 20.8974C30.9636 20.4933 32.1305 20.2886 33.3945 20.2886C34.8347 20.2886 36.0897 20.602 37.1236 21.2181C38.1304 21.8215 38.9881 22.6803 39.6731 23.7747C39.9806 24.2658 40.137 24.7713 40.137 25.2768C40.137 26.0433 39.7792 26.7191 39.1283 27.1775C38.7094 27.4475 38.2689 27.5762 37.7924 27.5762C37.3159 27.5762 36.9096 27.4602 36.5158 27.2319C36.1077 26.9945 35.7912 26.6648 35.5701 26.2535C35.3417 25.873 35.0487 25.5704 34.6873 25.3602C34.3403 25.1572 33.8566 25.0558 33.2453 25.0558C32.4578 25.0558 31.8428 25.1917 31.4167 25.4616C31.1668 25.6193 31.0859 25.7697 31.0859 26.0759C31.0859 26.3821 31.192 26.6032 31.4635 26.8315C31.6289 26.971 32.1935 27.3134 33.844 27.4838C35.8056 27.6813 37.3771 28.3136 38.517 29.3664C39.7289 30.4861 40.342 31.9592 40.342 33.7476C40.342 35.0631 39.9734 36.2191 39.2488 37.1849C38.553 38.1108 37.627 38.8084 36.4961 39.2577C35.4406 39.6781 34.2971 39.8901 33.0996 39.8901" fill="#EB5D5E"/>
        <path fill-rule="evenodd" clip-rule="evenodd" d="M33.105 38.8004C31.5264 38.8004 30.061 38.4307 28.7539 37.7023C27.3766 36.9341 26.4057 35.894 25.8663 34.6076C25.7225 34.2597 25.6523 33.9462 25.6523 33.6436C25.6523 33.071 25.8645 32.5438 26.2655 32.1216C26.6071 31.761 27.0476 31.52 27.5726 31.4022C27.7057 31.366 27.8837 31.3443 28.0994 31.3443C28.5957 31.3443 29.0649 31.4874 29.4947 31.7719C29.9244 32.0564 30.2462 32.4405 30.453 32.9134C30.5555 33.1381 30.8575 33.3936 31.2927 33.6182C31.8285 33.8937 32.438 34.0332 33.1032 34.0332C33.8638 34.0332 34.4967 33.8683 34.9857 33.5421C35.3202 33.3175 35.4496 33.0873 35.4496 32.7195C35.4496 32.3137 35.304 32.0002 34.9785 31.6976C34.601 31.3479 33.9123 31.1123 32.9864 31.0199C30.987 30.8242 29.3616 30.2027 28.1605 29.1699C26.857 28.0502 26.1935 26.6224 26.1935 24.9246C26.1935 23.7124 26.5495 22.6397 27.2508 21.741C27.9106 20.893 28.8114 20.2425 29.9262 19.8095C30.9636 19.4054 32.1305 19.2007 33.3945 19.2007C34.8347 19.2007 36.0897 19.5141 37.1236 20.1302C38.1304 20.7336 38.9881 21.5924 39.6731 22.6868C39.9806 23.1779 40.137 23.6834 40.137 24.1889C40.137 24.9554 39.7792 25.6312 39.1283 26.0897C38.7094 26.3596 38.2689 26.4883 37.7924 26.4883C37.3159 26.4883 36.9096 26.3723 36.5158 26.144C36.1077 25.9067 35.7912 25.5769 35.5701 25.1656C35.3417 24.7851 35.0487 24.4825 34.6873 24.2723C34.3403 24.0694 33.8566 23.9679 33.2453 23.9679C32.4578 23.9679 31.8428 24.1038 31.4167 24.3738C31.1668 24.5314 31.0859 24.6818 31.0859 24.988C31.0859 25.2942 31.192 25.5153 31.4635 25.7436C31.6289 25.8831 32.1935 26.2256 33.844 26.3959C35.8056 26.5934 37.3771 27.2257 38.517 28.2785C39.7289 29.3983 40.342 30.8714 40.342 32.6597C40.342 33.9752 39.9734 35.1312 39.2488 36.097C38.553 37.0229 37.627 37.7205 36.4961 38.1698C35.4406 38.5902 34.2971 38.8022 33.0996 38.8022" fill="#FFD68F"/>
        <path fill-rule="evenodd" clip-rule="evenodd" d="M33.105 37.7105C31.5264 37.7105 30.061 37.3409 28.7539 36.6125C27.3766 35.8442 26.4057 34.8042 25.8663 33.5177C25.7225 33.1698 25.6523 32.8564 25.6523 32.5538C25.6523 31.9812 25.8645 31.4539 26.2655 31.0317C26.6071 30.6712 27.0476 30.4302 27.5726 30.3124C27.7057 30.2762 27.8837 30.2544 28.0994 30.2544C28.5957 30.2544 29.0649 30.3976 29.4947 30.682C29.9244 30.9665 30.2462 31.3506 30.453 31.8236C30.5555 32.0482 30.8575 32.3037 31.2927 32.5284C31.8285 32.8038 32.438 32.9433 33.1032 32.9433C33.8638 32.9433 34.4967 32.7784 34.9857 32.4523C35.3202 32.2276 35.4496 31.9975 35.4496 31.6297C35.4496 31.2238 35.304 30.9103 34.9785 30.6078C34.601 30.258 33.9123 30.0225 32.9864 29.9301C30.987 29.7344 29.3616 29.1129 28.1605 28.0801C26.857 26.9603 26.1935 25.5325 26.1935 23.8347C26.1935 22.6226 26.5495 21.5499 27.2508 20.6512C27.9106 19.8032 28.8114 19.1527 29.9262 18.7196C30.9636 18.3156 32.1305 18.1108 33.3945 18.1108C34.8347 18.1108 36.0897 18.4243 37.1236 19.0404C38.1304 19.6437 38.9881 20.5026 39.6731 21.597C39.9806 22.088 40.137 22.5936 40.137 23.0991C40.137 23.8655 39.7792 24.5414 39.1283 24.9998C38.7094 25.2698 38.2689 25.3984 37.7924 25.3984C37.3159 25.3984 36.9096 25.2825 36.5158 25.0542C36.1077 24.8168 35.7912 24.487 35.5701 24.0757C35.3417 23.6952 35.0487 23.3926 34.6873 23.1824C34.3403 22.9795 33.8566 22.878 33.2453 22.878C32.4578 22.878 31.8428 23.0139 31.4167 23.2839C31.1668 23.4416 31.0859 23.5919 31.0859 23.8982C31.0859 24.2044 31.192 24.4254 31.4635 24.6537C31.6289 24.7933 32.1935 25.1357 33.844 25.306C35.8056 25.5035 37.3771 26.1359 38.517 27.1886C39.7289 28.3084 40.342 29.7815 40.342 31.5699C40.342 32.8854 39.9734 34.0414 39.2488 35.0071C38.553 35.933 37.627 36.6306 36.4961 37.08C35.4406 37.5003 34.2971 37.7123 33.0996 37.7123" fill="#383454"/>
        <path fill-rule="evenodd" clip-rule="evenodd" d="M29.1065 35.6143C30.3057 36.2829 31.6506 36.6218 33.107 36.6218C34.2146 36.6218 35.2682 36.4261 36.2391 36.0401C37.246 35.6379 38.0677 35.0218 38.6826 34.2028C39.3119 33.3657 39.6301 32.3565 39.6301 31.2041C39.6301 29.6277 39.0943 28.334 38.0389 27.3592C37.0176 26.4151 35.5828 25.8444 33.7795 25.665C32.0857 25.491 31.3396 25.125 31.0105 24.8496C30.5754 24.4854 30.3741 24.0687 30.3741 23.536C30.3741 23.0033 30.5808 22.5992 31.0429 22.3075C31.5859 21.965 32.3285 21.7911 33.2544 21.7911C33.9934 21.7911 34.5993 21.927 35.0578 22.1951C35.5271 22.4687 35.9101 22.8637 36.2139 23.3729C36.3704 23.6646 36.5951 23.8984 36.8846 24.0669C37.1669 24.2299 37.4743 24.3133 37.7998 24.3133C38.1252 24.3133 38.4381 24.2281 38.7222 24.0469C39.1806 23.7244 39.4234 23.2714 39.4234 22.7405C39.4234 22.3745 39.3047 21.9995 39.071 21.6262C38.4471 20.6296 37.6703 19.8505 36.7623 19.3069C35.8418 18.7561 34.7108 18.4771 33.4001 18.4771C32.2242 18.4771 31.1454 18.6655 30.1907 19.0369C29.1982 19.4229 28.4017 19.9955 27.8227 20.7402C27.224 21.5084 26.9201 22.4289 26.9201 23.4762C26.9201 24.9511 27.4973 26.1923 28.6336 27.1689C29.7214 28.1039 31.2119 28.6692 33.0639 28.8486C34.1624 28.9591 34.9733 29.2508 35.4732 29.7147C35.946 30.1532 36.1762 30.6623 36.1762 31.2711C36.1762 31.8799 35.9263 32.3402 35.3887 32.6989C34.7791 33.1048 34.0132 33.3114 33.1088 33.3114C32.3285 33.3114 31.6093 33.1447 30.971 32.8167C30.3741 32.5105 29.9785 32.1499 29.7987 31.7567C29.6495 31.4124 29.4157 31.1352 29.1065 30.9305C28.7954 30.7257 28.4592 30.6224 28.1068 30.6224C27.954 30.6224 27.8389 30.6351 27.7346 30.6641C27.3498 30.7493 27.0334 30.9214 26.7924 31.1769C26.5227 31.4614 26.3789 31.8147 26.3789 32.197C26.3789 32.4018 26.4292 32.6228 26.5353 32.8783C27.01 34.009 27.8748 34.933 29.1083 35.6198" fill="white"/>
        <path d="M33.1068 36.8032C31.6199 36.8032 30.2444 36.4571 29.0182 35.7722C27.7506 35.0656 26.857 34.1125 26.3661 32.942C26.2511 32.6629 26.1953 32.4183 26.1953 32.19C26.1953 31.7606 26.3553 31.3638 26.6592 31.0449C26.9253 30.764 27.2741 30.5756 27.693 30.4814C27.8009 30.4506 27.934 30.4361 28.103 30.4361C28.4914 30.4361 28.8617 30.5502 29.2016 30.7749C29.5414 30.9996 29.7967 31.304 29.9603 31.6809C30.1203 32.0306 30.4979 32.3676 31.0499 32.6521C31.663 32.9673 32.3552 33.1268 33.105 33.1268C33.9734 33.1268 34.707 32.9311 35.286 32.5433C35.775 32.2172 35.9926 31.8222 35.9926 31.2677C35.9926 30.7133 35.7822 30.2476 35.3489 29.8454C34.8778 29.4087 34.1011 29.1333 33.0439 29.0264C31.1542 28.8416 29.6313 28.2636 28.5147 27.3032C27.3352 26.2904 26.7383 25.0021 26.7383 23.4728C26.7383 22.3856 27.0548 21.4271 27.6805 20.6244C28.2792 19.8544 29.1027 19.2619 30.1257 18.8651C31.102 18.4864 32.2024 18.2925 33.3999 18.2925C34.743 18.2925 35.9045 18.5806 36.8538 19.1477C37.787 19.7058 38.5835 20.5049 39.2218 21.5268C39.4735 21.929 39.603 22.3367 39.603 22.7372C39.603 23.3297 39.3333 23.8334 38.8244 24.1921C38.508 24.3951 38.1754 24.4911 37.7978 24.4911C37.4202 24.4911 37.102 24.4005 36.7927 24.2211C36.4745 24.0345 36.2263 23.7772 36.0537 23.4565C35.7678 22.9781 35.4011 22.6049 34.9659 22.3512C34.5362 22.0994 33.9591 21.9725 33.2524 21.9725C32.3624 21.9725 31.6504 22.1374 31.1362 22.4617C30.7263 22.7208 30.5519 23.0434 30.5519 23.538C30.5519 24.0327 30.7281 24.3806 31.1236 24.7122C31.4329 24.9713 32.1467 25.3173 33.7954 25.4859C35.6384 25.6707 37.1074 26.2577 38.1574 27.2271C39.2524 28.24 39.8079 29.579 39.8079 31.2061C39.8079 32.4002 39.4771 33.4457 38.8244 34.3136C38.1897 35.158 37.3411 35.7958 36.3036 36.2089C35.3112 36.6039 34.236 36.8032 33.105 36.8032H33.1068ZM28.103 30.8003C27.9681 30.8003 27.8657 30.8111 27.7793 30.8347C27.4215 30.9144 27.1357 31.0702 26.9181 31.2967C26.6808 31.5468 26.5549 31.8566 26.5549 32.1918C26.5549 32.3712 26.6017 32.5705 26.697 32.8025C27.1554 33.895 27.9951 34.7883 29.1908 35.4551C30.3631 36.1092 31.6792 36.4408 33.105 36.4408C34.1892 36.4408 35.2213 36.2487 36.1706 35.8719C37.1469 35.4823 37.9416 34.8844 38.5368 34.0944C39.1409 33.2899 39.4483 32.3187 39.4483 31.2043C39.4483 29.6823 38.9323 28.4339 37.9146 27.4917C36.9222 26.5748 35.5233 26.0204 33.7595 25.8428C32.019 25.6634 31.2405 25.2775 30.8935 24.9858C30.4152 24.5853 30.1923 24.1233 30.1923 23.5326C30.1923 22.9419 30.4314 22.4744 30.9456 22.1501C31.5174 21.7877 32.2941 21.6047 33.2524 21.6047C34.0238 21.6047 34.6603 21.7478 35.1457 22.0323C35.633 22.3168 36.0447 22.7353 36.3648 23.2735C36.5086 23.5435 36.7118 23.7518 36.9707 23.904C37.2242 24.0508 37.5011 24.1269 37.796 24.1269C38.0909 24.1269 38.3713 24.049 38.6213 23.8877C39.0222 23.6051 39.238 23.2046 39.238 22.7353C39.238 22.4038 39.1283 22.0631 38.9125 21.7188C38.3048 20.7477 37.5479 19.9866 36.665 19.4594C35.7732 18.9267 34.6729 18.6549 33.3963 18.6549C32.2438 18.6549 31.1848 18.8397 30.2516 19.2021C29.2897 19.5753 28.5201 20.1298 27.9609 20.8473C27.3874 21.583 27.0961 22.4672 27.0961 23.471C27.0961 24.8897 27.6517 26.0856 28.7467 27.026C29.8057 27.9356 31.2621 28.4864 33.078 28.664C34.2162 28.7781 35.0612 29.0862 35.5916 29.5772C36.1041 30.0519 36.3522 30.6046 36.3522 31.2677C36.3522 31.9309 36.0681 32.4564 35.4838 32.8459C34.8437 33.2736 34.0436 33.4892 33.1032 33.4892C32.2941 33.4892 31.5479 33.317 30.8845 32.9746C30.2498 32.6484 29.8291 32.2643 29.6295 31.8294C29.4928 31.516 29.2807 31.2641 29.002 31.0793C28.7215 30.8945 28.4176 30.8003 28.1012 30.8003H28.103Z" fill="#383454"/>
    </g>
    <defs>
        <filter id="filter0_d_187_43534" x="0.466666" y="0.733333" width="65.0667" height="65.0667" filterUnits="userSpaceOnUse" color-interpolation-filters="sRGB">
            <feFlood flood-opacity="0" result="BackgroundImageFix"/>
            <feColorMatrix in="SourceAlpha" type="matrix" values="0 0 0 0 0 0 0 0 0 0 0 0 0 0 0 0 0 0 127 0" result="hardAlpha"/>
            <feOffset dy="4.26667"/>
            <feGaussianBlur stdDeviation="4.26667"/>
            <feComposite in2="hardAlpha" operator="out"/>
            <feColorMatrix type="matrix" values="0 0 0 0 0 0 0 0 0 0 0 0 0 0 0 0 0 0 0.15 0"/>
            <feBlend mode="normal" in2="BackgroundImageFix" result="effect1_dropShadow_187_43534"/>
            <feBlend mode="normal" in="SourceGraphic" in2="effect1_dropShadow_187_43534" result="shape"/>
        </filter>
    </defs>
</svg>