<svg width="48" height="48" viewBox="0 0 48 48" fill="none" xmlns="http://www.w3.org/2000/svg">
<rect width="48" height="48" rx="24" fill="#292548"/>
<path fill-rule="evenodd" clip-rule="evenodd" d="M24.1049 38.1561C21.9689 38.1561 19.9785 37.6487 18.1859 36.6485C16.1596 35.5179 14.7104 33.9433 13.8833 31.9683C13.5669 31.2073 13.4141 30.4753 13.4141 29.7324V27.5544C13.4141 26.3531 13.8132 25.1808 14.5414 24.2259C14.153 23.2221 13.9553 22.144 13.9553 21.0134V18.8354C13.9553 16.8731 14.5432 15.1228 15.7047 13.6333C16.7296 12.3161 18.096 11.3195 19.7628 10.6708C21.1742 10.1218 22.7331 9.84277 24.398 9.84277C26.428 9.84277 28.2403 10.3103 29.7794 11.2307C31.2304 12.0986 32.4548 13.3181 33.4168 14.8546C34.0569 15.8765 34.3805 16.9673 34.3805 18.0998V20.2777C34.3805 21.1456 34.1917 21.9664 33.8177 22.7256C34.3302 23.8907 34.5891 25.1826 34.5891 26.5687V28.7467C34.5891 30.7906 33.9993 32.6097 32.8378 34.1571C31.7806 35.565 30.3853 36.6214 28.6934 37.2954C27.2568 37.868 25.7124 38.1579 24.1049 38.1579" fill="white"/>
<path fill-rule="evenodd" clip-rule="evenodd" d="M24.1059 36.3402C22.2792 36.3402 20.5819 35.909 19.059 35.0592C17.394 34.1297 16.2091 32.8523 15.5421 31.2596C15.3209 30.7269 15.2148 30.2286 15.2148 29.7303V27.5524C15.2148 26.612 15.5744 25.7151 16.2271 25.0265C16.3799 24.8653 16.5454 24.7203 16.7198 24.588C16.0851 23.528 15.756 22.3195 15.756 21.0095V18.8315C15.756 17.2859 16.2145 15.9125 17.1207 14.751C17.9424 13.6947 19.05 12.8902 20.4111 12.3611C21.6139 11.8936 22.9552 11.6562 24.399 11.6562C26.1017 11.6562 27.6048 12.0386 28.8634 12.7905C30.0681 13.5117 31.0875 14.5318 31.8966 15.8219C32.3515 16.5485 32.5835 17.3149 32.5835 18.0977V20.2756C32.5835 21.1526 32.2868 21.9734 31.7456 22.6366C32.4414 23.7708 32.7921 25.0863 32.7921 26.5648V28.7428C32.7921 30.3808 32.3264 31.8321 31.4058 33.057C30.5499 34.1967 29.4154 35.0538 28.0346 35.6046C26.8101 36.092 25.4886 36.3384 24.1077 36.3384" fill="#242039"/>
<path fill-rule="evenodd" clip-rule="evenodd" d="M31.3222 27.112C31.3366 26.9326 31.3456 26.7514 31.3456 26.5666C31.3456 24.8833 30.7936 23.4809 29.7184 22.3883C29.8586 22.3303 29.9953 22.2633 30.1301 22.1763C30.781 21.7179 31.1388 21.042 31.1388 20.2756C31.1388 20.0962 31.1118 19.9186 31.0741 19.7392C31.1172 19.5617 31.1388 19.3769 31.1388 19.1866C31.1388 19.0072 31.1118 18.8297 31.0741 18.6503C31.1172 18.4727 31.1388 18.2879 31.1388 18.0976C31.1388 17.5939 30.9824 17.0884 30.6749 16.5955C29.9899 15.5011 29.1322 14.6405 28.1254 14.0389C27.0915 13.421 25.8383 13.1094 24.3963 13.1094C23.1323 13.1094 21.9654 13.3141 20.928 13.7182C19.8132 14.1512 18.9124 14.8017 18.2526 15.6497C17.5513 16.5502 17.1953 17.6211 17.1953 18.8333C17.1953 19.0199 17.2061 19.2011 17.2223 19.3823C17.2061 19.5599 17.1953 19.7392 17.1953 19.9222C17.1953 20.1053 17.2061 20.2901 17.2223 20.4713C17.2061 20.6488 17.1953 20.8282 17.1953 21.0112C17.1953 22.7072 17.857 24.1368 19.1623 25.2566C19.1623 25.2566 19.1641 25.2584 19.1659 25.2584C19.1444 25.2584 19.1228 25.2548 19.1012 25.2548C18.8855 25.2548 18.7075 25.2747 18.5726 25.3128C18.0476 25.4305 17.6089 25.6715 17.2655 26.0321C16.8645 26.4543 16.6523 26.9815 16.6523 27.5541C16.6523 27.7299 16.6793 27.9129 16.7279 28.1013C16.6829 28.2771 16.6523 28.4565 16.6523 28.6431C16.6523 28.8188 16.6793 29.0019 16.7279 29.1903C16.6829 29.3661 16.6523 29.5454 16.6523 29.7321C16.6523 30.0347 16.7225 30.3481 16.8663 30.696C17.4057 31.9807 18.3766 33.0225 19.7539 33.7908C21.061 34.5192 22.5246 34.8906 24.105 34.8906C25.3025 34.8906 26.446 34.6768 27.5015 34.2583C28.6324 33.8071 29.5584 33.1095 30.2542 32.1854C30.9806 31.2197 31.3474 30.0636 31.3474 28.7482C31.3474 28.5634 31.3366 28.384 31.324 28.2046C31.3384 28.0252 31.3474 27.844 31.3474 27.6592C31.3474 27.4744 31.3366 27.295 31.324 27.1156" fill="#231F20"/>
<path fill-rule="evenodd" clip-rule="evenodd" d="M24.105 34.8888C22.5264 34.8888 21.061 34.5191 19.7539 33.7907C18.3766 33.0225 17.4057 31.9824 16.8663 30.6959C16.7225 30.348 16.6523 30.0346 16.6523 29.732C16.6523 29.1594 16.8645 28.6321 17.2655 28.21C17.6071 27.8494 18.0476 27.6084 18.5726 27.4906C18.7057 27.4544 18.8837 27.4326 19.0994 27.4326C19.5957 27.4326 20.0649 27.5758 20.4947 27.8603C20.9244 28.1447 21.2462 28.5289 21.453 29.0018C21.5555 29.2265 21.8575 29.4819 22.2927 29.7066C22.8285 29.982 23.438 30.1216 24.1032 30.1216C24.8638 30.1216 25.4967 29.9567 25.9857 29.6305C26.3202 29.4058 26.4496 29.1757 26.4496 28.8079C26.4496 28.402 26.304 28.0886 25.9785 27.786C25.601 27.4363 24.9123 27.2007 23.9864 27.1083C21.987 26.9126 20.3616 26.2911 19.1605 25.2583C17.857 24.1385 17.1935 22.7107 17.1935 21.013C17.1935 19.8008 17.5495 18.7281 18.2508 17.8294C18.9106 16.9814 19.8114 16.3309 20.9262 15.8979C21.9636 15.4938 23.1305 15.2891 24.3945 15.2891C25.8347 15.2891 27.0897 15.6025 28.1236 16.2186C29.1304 16.822 29.9881 17.6808 30.6731 18.7752C30.9806 19.2663 31.137 19.7718 31.137 20.2773C31.137 21.0438 30.7792 21.7196 30.1283 22.178C29.7094 22.448 29.2689 22.5767 28.7924 22.5767C28.3159 22.5767 27.9096 22.4607 27.5158 22.2324C27.1077 21.995 26.7912 21.6653 26.5701 21.2539C26.3417 20.8734 26.0487 20.5709 25.6873 20.3607C25.3403 20.1577 24.8566 20.0563 24.2453 20.0563C23.4578 20.0563 22.8428 20.1922 22.4167 20.4621C22.1668 20.6198 22.0859 20.7702 22.0859 21.0764C22.0859 21.3826 22.192 21.6037 22.4635 21.832C22.6289 21.9715 23.1935 22.3139 24.844 22.4843C26.8056 22.6818 28.3771 23.3141 29.517 24.3669C30.7289 25.4866 31.342 26.9597 31.342 28.7481C31.342 30.0636 30.9734 31.2196 30.2488 32.1853C29.553 33.1112 28.627 33.8088 27.4961 34.2582C26.4406 34.6786 25.2971 34.8906 24.0996 34.8906" fill="#EB5D5E"/>
<path fill-rule="evenodd" clip-rule="evenodd" d="M24.105 33.8009C22.5264 33.8009 21.061 33.4312 19.7539 32.7028C18.3766 31.9346 17.4057 30.8945 16.8663 29.608C16.7225 29.2602 16.6523 28.9467 16.6523 28.6441C16.6523 28.0715 16.8645 27.5443 17.2655 27.1221C17.6071 26.7615 18.0476 26.5205 18.5726 26.4027C18.7057 26.3665 18.8837 26.3448 19.0994 26.3448C19.5957 26.3448 20.0649 26.4879 20.4947 26.7724C20.9244 27.0568 21.2462 27.441 21.453 27.9139C21.5555 28.1386 21.8575 28.3941 22.2927 28.6187C22.8285 28.8941 23.438 29.0337 24.1032 29.0337C24.8638 29.0337 25.4967 28.8688 25.9857 28.5426C26.3202 28.318 26.4496 28.0878 26.4496 27.72C26.4496 27.3141 26.304 27.0007 25.9785 26.6981C25.601 26.3484 24.9123 26.1128 23.9864 26.0204C21.987 25.8247 20.3616 25.2032 19.1605 24.1704C17.857 23.0507 17.1935 21.6229 17.1935 19.9251C17.1935 18.7129 17.5495 17.6402 18.2508 16.7415C18.9106 15.8935 19.8114 15.243 20.9262 14.81C21.9636 14.4059 23.1305 14.2012 24.3945 14.2012C25.8347 14.2012 27.0897 14.5146 28.1236 15.1307C29.1304 15.7341 29.9881 16.5929 30.6731 17.6873C30.9806 18.1784 31.137 18.6839 31.137 19.1894C31.137 19.9559 30.7792 20.6317 30.1283 21.0901C29.7094 21.3601 29.2689 21.4888 28.7924 21.4888C28.3159 21.4888 27.9096 21.3728 27.5158 21.1445C27.1077 20.9071 26.7912 20.5774 26.5701 20.1661C26.3417 19.7856 26.0487 19.483 25.6873 19.2728C25.3403 19.0698 24.8566 18.9684 24.2453 18.9684C23.4578 18.9684 22.8428 19.1043 22.4167 19.3742C22.1668 19.5319 22.0859 19.6823 22.0859 19.9885C22.0859 20.2947 22.192 20.5158 22.4635 20.7441C22.6289 20.8836 23.1935 21.226 24.844 21.3964C26.8056 21.5939 28.3771 22.2262 29.517 23.279C30.7289 24.3987 31.342 25.8718 31.342 27.6602C31.342 28.9757 30.9734 30.1317 30.2488 31.0975C29.553 32.0234 28.627 32.721 27.4961 33.1703C26.4406 33.5907 25.2971 33.8027 24.0996 33.8027" fill="#FFD68F"/>
<path fill-rule="evenodd" clip-rule="evenodd" d="M24.105 32.711C22.5264 32.711 21.061 32.3414 19.7539 31.613C18.3766 30.8447 17.4057 29.8047 16.8663 28.5182C16.7225 28.1703 16.6523 27.8568 16.6523 27.5543C16.6523 26.9817 16.8645 26.4544 17.2655 26.0322C17.6071 25.6717 18.0476 25.4307 18.5726 25.3129C18.7057 25.2767 18.8837 25.2549 19.0994 25.2549C19.5957 25.2549 20.0649 25.3981 20.4947 25.6825C20.9244 25.967 21.2462 26.3511 21.453 26.824C21.5555 27.0487 21.8575 27.3042 22.2927 27.5289C22.8285 27.8043 23.438 27.9438 24.1032 27.9438C24.8638 27.9438 25.4967 27.7789 25.9857 27.4528C26.3202 27.2281 26.4496 26.998 26.4496 26.6302C26.4496 26.2243 26.304 25.9108 25.9785 25.6082C25.601 25.2585 24.9123 25.023 23.9864 24.9306C21.987 24.7349 20.3616 24.1134 19.1605 23.0806C17.857 21.9608 17.1935 20.533 17.1935 18.8352C17.1935 17.623 17.5495 16.5504 18.2508 15.6517C18.9106 14.8037 19.8114 14.1532 20.9262 13.7201C21.9636 13.3161 23.1305 13.1113 24.3945 13.1113C25.8347 13.1113 27.0897 13.4248 28.1236 14.0409C29.1304 14.6442 29.9881 15.5031 30.6731 16.5975C30.9806 17.0885 31.137 17.5941 31.137 18.0996C31.137 18.866 30.7792 19.5419 30.1283 20.0003C29.7094 20.2703 29.2689 20.3989 28.7924 20.3989C28.3159 20.3989 27.9096 20.283 27.5158 20.0547C27.1077 19.8173 26.7912 19.4875 26.5701 19.0762C26.3417 18.6957 26.0487 18.3931 25.6873 18.1829C25.3403 17.98 24.8566 17.8785 24.2453 17.8785C23.4578 17.8785 22.8428 18.0144 22.4167 18.2844C22.1668 18.442 22.0859 18.5924 22.0859 18.8986C22.0859 19.2049 22.192 19.4259 22.4635 19.6542C22.6289 19.7937 23.1935 20.1362 24.844 20.3065C26.8056 20.504 28.3771 21.1364 29.517 22.1891C30.7289 23.3089 31.342 24.782 31.342 26.5704C31.342 27.8858 30.9734 29.0419 30.2488 30.0076C29.553 30.9335 28.627 31.6311 27.4961 32.0805C26.4406 32.5008 25.2971 32.7128 24.0996 32.7128" fill="#383454"/>
<path fill-rule="evenodd" clip-rule="evenodd" d="M20.1065 30.6148C21.3057 31.2834 22.6506 31.6223 24.107 31.6223C25.2146 31.6223 26.2682 31.4266 27.2391 31.0406C28.246 30.6384 29.0677 30.0223 29.6826 29.2033C30.3119 28.3662 30.6301 27.357 30.6301 26.2046C30.6301 24.6282 30.0943 23.3345 29.0389 22.3596C28.0176 21.4156 26.5828 20.8449 24.7795 20.6655C23.0857 20.4915 22.3396 20.1255 22.0105 19.8501C21.5754 19.4859 21.3741 19.0692 21.3741 18.5365C21.3741 18.0038 21.5808 17.5997 22.0429 17.308C22.5859 16.9655 23.3285 16.7916 24.2544 16.7916C24.9934 16.7916 25.5993 16.9275 26.0578 17.1956C26.5271 17.4692 26.9101 17.8642 27.2139 18.3734C27.3704 18.6651 27.5951 18.8988 27.8846 19.0674C28.1669 19.2304 28.4743 19.3138 28.7998 19.3138C29.1252 19.3138 29.4381 19.2286 29.7222 19.0474C30.1806 18.7249 30.4234 18.2719 30.4234 17.741C30.4234 17.375 30.3047 16.9999 30.071 16.6267C29.4471 15.6301 28.6703 14.851 27.7623 14.3074C26.8418 13.7566 25.7108 13.4775 24.4001 13.4775C23.2242 13.4775 22.1454 13.666 21.1907 14.0374C20.1982 14.4234 19.4017 14.9959 18.8227 15.7406C18.224 16.5089 17.9201 17.4294 17.9201 18.4767C17.9201 19.9516 18.4973 21.1928 19.6336 22.1694C20.7214 23.1043 22.2119 23.6697 24.0639 23.8491C25.1624 23.9596 25.9733 24.2513 26.4732 24.7152C26.946 25.1536 27.1762 25.6628 27.1762 26.2716C27.1762 26.8804 26.9263 27.3407 26.3887 27.6994C25.7791 28.1053 25.0132 28.3118 24.1088 28.3118C23.3285 28.3118 22.6093 28.1451 21.971 27.8172C21.3741 27.511 20.9785 27.1504 20.7987 26.7572C20.6495 26.4129 20.4157 26.1357 20.1065 25.931C19.7954 25.7262 19.4592 25.6229 19.1068 25.6229C18.954 25.6229 18.8389 25.6356 18.7346 25.6646C18.3498 25.7498 18.0334 25.9219 17.7924 26.1774C17.5227 26.4619 17.3789 26.8152 17.3789 27.1975C17.3789 27.4023 17.4292 27.6233 17.5353 27.8788C18.01 29.0094 18.8748 29.9335 20.1083 30.6203" fill="white"/>
<path d="M24.1068 31.8037C22.6199 31.8037 21.2444 31.4576 20.0182 30.7727C18.7506 30.066 17.857 29.113 17.3661 27.9425C17.2511 27.6634 17.1953 27.4188 17.1953 27.1905C17.1953 26.7611 17.3553 26.3643 17.6592 26.0454C17.9253 25.7645 18.2741 25.5761 18.693 25.4818C18.8009 25.451 18.934 25.4366 19.103 25.4366C19.4914 25.4366 19.8617 25.5507 20.2016 25.7754C20.5414 26.0001 20.7967 26.3045 20.9603 26.6814C21.1203 27.0311 21.4979 27.3681 22.0499 27.6525C22.663 27.9678 23.3552 28.1273 24.105 28.1273C24.9734 28.1273 25.707 27.9316 26.286 27.5438C26.775 27.2177 26.9926 26.8227 26.9926 26.2682C26.9926 25.7138 26.7822 25.2481 26.3489 24.8459C25.8778 24.4092 25.1011 24.1338 24.0439 24.0269C22.1542 23.842 20.6313 23.264 19.5147 22.3037C18.3352 21.2908 17.7383 20.0026 17.7383 18.4733C17.7383 17.3861 18.0548 16.4276 18.6805 15.6249C19.2792 14.8549 20.1027 14.2624 21.1257 13.8655C22.102 13.4868 23.2024 13.293 24.3999 13.293C25.743 13.293 26.9045 13.5811 27.8538 14.1482C28.787 14.7063 29.5835 15.5053 30.2218 16.5273C30.4735 16.9295 30.603 17.3372 30.603 17.7376C30.603 18.3301 30.3333 18.8339 29.8244 19.1926C29.508 19.3956 29.1754 19.4916 28.7978 19.4916C28.4202 19.4916 28.102 19.401 27.7927 19.2216C27.4745 19.035 27.2263 18.7777 27.0537 18.457C26.7678 17.9786 26.4011 17.6054 25.9659 17.3517C25.5362 17.0998 24.9591 16.973 24.2524 16.973C23.3624 16.973 22.6504 17.1379 22.1362 17.4622C21.7263 17.7213 21.5519 18.0439 21.5519 18.5385C21.5519 19.0332 21.7281 19.3811 22.1236 19.7127C22.4329 19.9718 23.1467 20.3178 24.7954 20.4863C26.6384 20.6712 28.1074 21.2582 29.1574 22.2276C30.2524 23.2405 30.8079 24.5795 30.8079 26.2066C30.8079 27.4007 30.4771 28.4462 29.8244 29.3141C29.1897 30.1585 28.3411 30.7963 27.3036 31.2094C26.3112 31.6044 25.236 31.8037 24.105 31.8037H24.1068ZM19.103 25.8008C18.9681 25.8008 18.8657 25.8116 18.7793 25.8352C18.4215 25.9149 18.1357 26.0707 17.9181 26.2972C17.6808 26.5473 17.5549 26.8571 17.5549 27.1923C17.5549 27.3717 17.6017 27.571 17.697 27.8029C18.1554 28.8955 18.9951 29.7888 20.1908 30.4556C21.3631 31.1097 22.6792 31.4413 24.105 31.4413C25.1892 31.4413 26.2213 31.2492 27.1706 30.8724C28.1469 30.4828 28.9416 29.8849 29.5368 29.0948C30.1409 28.2903 30.4483 27.3192 30.4483 26.2048C30.4483 24.6828 29.9323 23.4344 28.9146 22.4922C27.9222 21.5753 26.5233 21.0209 24.7595 20.8433C23.019 20.6639 22.2405 20.278 21.8935 19.9863C21.4152 19.5858 21.1923 19.1238 21.1923 18.5331C21.1923 17.9424 21.4314 17.4749 21.9456 17.1506C22.5174 16.7882 23.2941 16.6052 24.2524 16.6052C25.0238 16.6052 25.6603 16.7483 26.1457 17.0328C26.633 17.3173 27.0447 17.7358 27.3648 18.274C27.5086 18.544 27.7118 18.7523 27.9707 18.9045C28.2242 19.0513 28.5011 19.1274 28.796 19.1274C29.0909 19.1274 29.3713 19.0495 29.6213 18.8882C30.0222 18.6056 30.238 18.2051 30.238 17.7358C30.238 17.4042 30.1283 17.0636 29.9125 16.7193C29.3048 15.7481 28.5479 14.9871 27.665 14.4599C26.7732 13.9271 25.6729 13.6554 24.3963 13.6554C23.2438 13.6554 22.1848 13.8402 21.2516 14.2026C20.2897 14.5758 19.5201 15.1303 18.9609 15.8478C18.3874 16.5834 18.0961 17.4677 18.0961 18.4715C18.0961 19.8902 18.6517 21.0861 19.7467 22.0265C20.8057 22.9361 22.2621 23.4869 24.078 23.6645C25.2162 23.7786 26.0612 24.0867 26.5916 24.5777C27.1041 25.0524 27.3522 25.6051 27.3522 26.2682C27.3522 26.9314 27.0681 27.4569 26.4838 27.8464C25.8437 28.274 25.0436 28.4897 24.1032 28.4897C23.2941 28.4897 22.5479 28.3175 21.8845 27.9751C21.2498 27.6489 20.8291 27.2648 20.6295 26.8299C20.4928 26.5165 20.2807 26.2646 20.002 26.0798C19.7215 25.895 19.4176 25.8008 19.1012 25.8008H19.103Z" fill="#383454"/>
</svg>
