<svg width="211" height="36" viewBox="0 0 211 36" fill="none" xmlns="http://www.w3.org/2000/svg">
<g filter="url(#filter0_d_8502_18302)">
<path fill-rule="evenodd" clip-rule="evenodd" d="M148.389 33C145.743 33 143.282 32.3687 141.075 31.1238C140.496 30.805 139.941 30.4425 139.414 30.0394C138.881 30.4446 138.315 30.8128 137.719 31.1411C135.54 32.3703 133.082 33 130.437 33C127.791 33 125.33 32.3687 123.123 31.1241C122.291 30.6656 121.514 30.122 120.799 29.4987C120.194 29.9944 119.545 30.4395 118.854 30.8316C116.743 32.0581 114.29 32.6868 111.586 32.6868H108.181C107.153 32.6868 106.147 32.4901 105.207 32.1104C104.214 32.5415 103.135 32.7648 102.021 32.7648C100.594 32.7648 99.2423 32.4085 98.0593 31.7368C96.8888 32.3832 95.5732 32.7258 94.2054 32.7258C93.12 32.7258 92.0638 32.5092 91.0837 32.0912C90.0964 32.5092 89.025 32.7258 87.9168 32.7258H79.4051C78.2708 32.7258 77.1737 32.4922 76.1617 32.0412C75.1866 32.4666 74.1307 32.6868 73.0394 32.6868C71.6395 32.6868 70.3071 32.3377 69.1326 31.6793C67.9215 32.3878 66.5431 32.7648 65.1078 32.7648C63.5766 32.7648 62.0858 32.3203 60.7935 31.493C58.8535 32.4319 56.7456 32.9214 54.6022 32.9214C51.9837 32.9214 49.5321 32.2524 47.3158 30.9325C47.3158 30.9325 47.2225 30.8757 47.2018 30.8628C45.758 32.0703 43.9649 32.7258 42.0727 32.7258C40.8995 32.7258 39.7703 32.4779 38.7335 31.9989C37.698 32.4779 36.5637 32.7258 35.3794 32.7258C34.3464 32.7258 33.3859 32.5514 32.4427 32.193L32.3358 32.1513C31.6236 31.8628 30.9707 31.4815 30.383 31.0111C28.973 32.1233 27.2501 32.7258 25.4357 32.7258C23.8216 32.7258 22.2877 32.2567 20.9896 31.3835C20.6405 31.5732 20.2798 31.7481 19.9079 31.9072L19.8108 31.9478C18.3017 32.5589 16.7364 32.8703 14.7352 32.9575C14.5034 32.9674 14.2756 32.9723 14.0496 32.9723C9.69597 32.9723 5.97582 31.0886 3.843 27.8042C1.82077 24.6905 1.45099 20.7086 2.79161 16.7695C2.44257 14.716 1.96167 9.64564 4.72479 5.68099C6.20046 3.56344 9.1393 1.03902 14.7591 1.03902L14.8227 1.03929C16.9151 1.04655 19.0258 1.51586 20.7703 2.3603L21.0175 2.47951L21.1204 2.54221C22.4091 1.74137 23.905 1.3135 25.4745 1.3135C27.1844 1.3135 28.4934 1.90202 28.9233 2.09577L29.0447 2.15013L29.1662 2.21176C29.6197 2.44157 30.0103 2.69075 30.3444 2.93671C31.773 1.83259 33.5249 1.23492 35.3794 1.23492C36.5361 1.23492 37.6619 1.47092 38.705 1.92597C39.7413 1.47092 40.8679 1.23492 42.0339 1.23492C43.9617 1.23492 45.7724 1.8665 47.2254 3.02982C49.5135 1.70908 51.9826 1.03929 54.5636 1.03929C56.3415 1.03929 57.8369 1.31108 58.8072 1.51533L59.2185 1.60251L59.6106 1.74675C60.0869 1.9222 60.5551 2.12645 61.0203 2.36191C62.2612 1.62001 63.672 1.23492 65.1852 1.23492C66.6279 1.23492 68.0087 1.59686 69.2233 2.27715C69.3905 2.18458 69.5604 2.09847 69.7324 2.01908C70.8162 1.49864 71.9936 1.23492 73.2327 1.23492C74.3117 1.23492 75.3554 1.43783 76.318 1.82937C77.2909 1.43783 78.3359 1.23492 79.4051 1.23492H87.9168C89.0096 1.23492 90.0815 1.44294 91.0816 1.8439C92.0646 1.44294 93.1224 1.23492 94.2054 1.23492H97.61C99.7519 1.23492 101.669 1.69589 103.47 2.64393L103.485 2.652C104.847 1.70666 106.471 1.19833 108.181 1.19833H111.663C114.304 1.19833 116.851 1.85009 119.031 3.0831L119.134 3.14257C119.728 3.49644 120.29 3.88421 120.817 4.30428C121.441 3.79191 122.112 3.33121 122.825 2.92514C125.068 1.64799 127.582 1 130.296 1C133.01 1 135.524 1.64799 137.767 2.92541C138.251 3.20043 138.715 3.50128 139.159 3.82662C139.603 3.50128 140.068 3.20043 140.551 2.92541C142.794 1.64799 145.308 1 148.022 1C150.736 1 153.25 1.64799 155.494 2.92541C155.558 2.96174 155.622 2.99887 155.685 3.03655C157.137 1.86865 158.938 1.23492 160.847 1.23492H164.252C166.963 1.23492 169.416 1.85439 171.546 3.0761C173.033 1.88534 174.856 1.23492 176.743 1.23492C179.085 1.23492 181.207 2.17166 182.724 3.87345C183.092 4.26687 183.419 4.69017 183.702 5.13714C184.031 4.61051 184.42 4.11752 184.865 3.66651C186.414 2.09847 188.495 1.23492 190.724 1.23492H199.236C203.262 1.23492 206.525 3.8538 207.55 7.90645C208.246 10.6588 207.866 14.2553 205.671 16.791C205.686 17.0319 205.693 17.2738 205.692 17.5136C207.498 19.5216 208.368 22.6362 207.853 25.6474C207.118 29.9473 203.736 32.7258 199.236 32.7258H190.724C189.673 32.7258 188.646 32.521 187.689 32.1254C186.706 32.5466 185.646 32.7648 184.558 32.7648H176.743C174.811 32.7648 172.982 32.0816 171.526 30.8281L171.521 30.8313C169.409 32.0582 166.956 32.6868 164.252 32.6868H160.847C159.045 32.6868 157.333 32.0923 155.929 30.9952C155.844 31.0447 155.758 31.0934 155.671 31.1411C153.492 32.3703 151.034 33 148.389 33Z" fill="black"/>
</g>
<path fill-rule="evenodd" clip-rule="evenodd" d="M148.389 33C145.743 33 143.282 32.3687 141.075 31.1238C140.496 30.805 139.941 30.4425 139.414 30.0394C138.881 30.4446 138.315 30.8128 137.719 31.1411C135.54 32.3703 133.082 33 130.437 33C127.791 33 125.33 32.3687 123.123 31.1241C122.291 30.6656 121.514 30.122 120.799 29.4987C120.194 29.9944 119.545 30.4395 118.854 30.8316C116.743 32.0581 114.29 32.6868 111.586 32.6868H108.181C107.153 32.6868 106.147 32.4901 105.207 32.1104C104.214 32.5415 103.135 32.7648 102.021 32.7648C100.594 32.7648 99.2423 32.4085 98.0593 31.7368C96.8888 32.3832 95.5732 32.7258 94.2054 32.7258C93.12 32.7258 92.0638 32.5092 91.0837 32.0912C90.0964 32.5092 89.025 32.7258 87.9168 32.7258H79.4051C78.2708 32.7258 77.1737 32.4922 76.1617 32.0412C75.1866 32.4666 74.1307 32.6868 73.0394 32.6868C71.6395 32.6868 70.3071 32.3377 69.1326 31.6793C67.9215 32.3878 66.5431 32.7648 65.1078 32.7648C63.5766 32.7648 62.0858 32.3203 60.7935 31.493C58.8535 32.4319 56.7456 32.9214 54.6022 32.9214C51.9837 32.9214 49.5321 32.2524 47.3158 30.9325C47.3158 30.9325 47.2225 30.8757 47.2018 30.8628C45.758 32.0703 43.9649 32.7258 42.0727 32.7258C40.8995 32.7258 39.7703 32.4779 38.7335 31.9989C37.698 32.4779 36.5637 32.7258 35.3794 32.7258C34.3464 32.7258 33.3859 32.5514 32.4427 32.193L32.3358 32.1513C31.6236 31.8628 30.9707 31.4815 30.383 31.0111C28.973 32.1233 27.2501 32.7258 25.4357 32.7258C23.8216 32.7258 22.2877 32.2567 20.9896 31.3835C20.6405 31.5732 20.2798 31.7481 19.9079 31.9072L19.8108 31.9478C18.3017 32.5589 16.7364 32.8703 14.7352 32.9575C14.5034 32.9674 14.2756 32.9723 14.0496 32.9723C9.69597 32.9723 5.97582 31.0886 3.843 27.8042C1.82077 24.6905 1.45099 20.7086 2.79161 16.7695C2.44257 14.716 1.96167 9.64564 4.72479 5.68099C6.20046 3.56344 9.1393 1.03902 14.7591 1.03902L14.8227 1.03929C16.9151 1.04655 19.0258 1.51586 20.7703 2.3603L21.0175 2.47951L21.1204 2.54221C22.4091 1.74137 23.905 1.3135 25.4745 1.3135C27.1844 1.3135 28.4934 1.90202 28.9233 2.09577L29.0447 2.15013L29.1662 2.21176C29.6197 2.44157 30.0103 2.69075 30.3444 2.93671C31.773 1.83259 33.5249 1.23492 35.3794 1.23492C36.5361 1.23492 37.6619 1.47092 38.705 1.92597C39.7413 1.47092 40.8679 1.23492 42.0339 1.23492C43.9617 1.23492 45.7724 1.8665 47.2254 3.02982C49.5135 1.70908 51.9826 1.03929 54.5636 1.03929C56.3415 1.03929 57.8369 1.31108 58.8072 1.51533L59.2185 1.60251L59.6106 1.74675C60.0869 1.9222 60.5551 2.12645 61.0203 2.36191C62.2612 1.62001 63.672 1.23492 65.1852 1.23492C66.6279 1.23492 68.0087 1.59686 69.2233 2.27715C69.3905 2.18458 69.5604 2.09847 69.7324 2.01908C70.8162 1.49864 71.9936 1.23492 73.2327 1.23492C74.3117 1.23492 75.3554 1.43783 76.318 1.82937C77.2909 1.43783 78.3359 1.23492 79.4051 1.23492H87.9168C89.0096 1.23492 90.0815 1.44294 91.0816 1.8439C92.0646 1.44294 93.1224 1.23492 94.2054 1.23492H97.61C99.7519 1.23492 101.669 1.69589 103.47 2.64393L103.485 2.652C104.847 1.70666 106.471 1.19833 108.181 1.19833H111.663C114.304 1.19833 116.851 1.85009 119.031 3.0831L119.134 3.14257C119.728 3.49644 120.29 3.88421 120.817 4.30428C121.441 3.79191 122.112 3.33121 122.825 2.92514C125.068 1.64799 127.582 1 130.296 1C133.01 1 135.524 1.64799 137.767 2.92541C138.251 3.20043 138.715 3.50128 139.159 3.82662C139.603 3.50128 140.068 3.20043 140.551 2.92541C142.794 1.64799 145.308 1 148.022 1C150.736 1 153.25 1.64799 155.494 2.92541C155.558 2.96174 155.622 2.99887 155.685 3.03655C157.137 1.86865 158.938 1.23492 160.847 1.23492H164.252C166.963 1.23492 169.416 1.85439 171.546 3.0761C173.033 1.88534 174.856 1.23492 176.743 1.23492C179.085 1.23492 181.207 2.17166 182.724 3.87345C183.092 4.26687 183.419 4.69017 183.702 5.13714C184.031 4.61051 184.42 4.11752 184.865 3.66651C186.414 2.09847 188.495 1.23492 190.724 1.23492H199.236C203.262 1.23492 206.525 3.8538 207.55 7.90645C208.246 10.6588 207.866 14.2553 205.671 16.791C205.686 17.0319 205.693 17.2738 205.692 17.5136C207.498 19.5216 208.368 22.6362 207.853 25.6474C207.118 29.9473 203.736 32.7258 199.236 32.7258H190.724C189.673 32.7258 188.646 32.521 187.689 32.1254C186.706 32.5466 185.646 32.7648 184.558 32.7648H176.743C174.811 32.7648 172.982 32.0816 171.526 30.8281L171.521 30.8313C169.409 32.0582 166.956 32.6868 164.252 32.6868H160.847C159.045 32.6868 157.333 32.0923 155.929 30.9952C155.844 31.0447 155.758 31.0934 155.671 31.1411C153.492 32.3703 151.034 33 148.389 33Z" fill="white"/>
<path fill-rule="evenodd" clip-rule="evenodd" d="M202.934 18.6281C203.113 17.6523 203.034 16.5853 202.849 15.7899C205.027 14.1319 205.591 11.0101 204.975 8.57395C204.251 5.70723 202.052 3.92633 199.237 3.92633H190.725C189.206 3.92633 187.793 4.51001 186.746 5.56972C185.674 6.65473 185.083 8.09926 185.083 9.63743V16.8003C184.896 16.7818 184.708 16.7723 184.52 16.7723H182.346V9.63743C182.346 8.17084 181.788 6.77368 180.773 5.70077C179.765 4.55629 178.335 3.92633 176.743 3.92633C175.317 3.92633 173.939 4.47583 172.863 5.47392L172.827 5.50729L172.764 5.56972C172.45 5.88753 172.178 6.23386 171.949 6.60656C171.465 6.2048 170.941 5.8364 170.384 5.5046C168.626 4.45726 166.563 3.92633 164.252 3.92633H160.848C159.329 3.92633 157.916 4.51001 156.868 5.56999C156.558 5.8843 156.288 6.22767 156.061 6.59715C155.484 6.09527 154.859 5.65126 154.191 5.27102C152.35 4.22288 150.275 3.69141 148.023 3.69141C145.771 3.69141 143.696 4.22288 141.854 5.27129C140.844 5.84663 139.941 6.55409 139.16 7.38184C138.379 6.55409 137.476 5.84663 136.465 5.27102C134.624 4.22288 132.548 3.69141 130.297 3.69141C128.045 3.69141 125.969 4.22288 124.129 5.27102C122.853 5.99732 121.754 6.93056 120.849 8.05405C120.008 7.04304 118.984 6.1752 117.786 5.46235L117.735 5.43248C115.95 4.42309 113.851 3.88946 111.664 3.88946H108.182C106.663 3.88946 105.25 4.47314 104.202 5.53313C104.043 5.69405 103.894 5.86439 103.756 6.04388C103.301 5.67117 102.808 5.33884 102.278 5.05009L102.244 5.03179C100.831 4.28773 99.315 3.92633 97.611 3.92633H94.2061C93.0869 3.92633 92.0063 4.25382 91.0958 4.85957C90.1574 4.25382 89.0526 3.92633 87.9177 3.92633H79.4058C78.2906 3.92633 77.2143 4.2514 76.3059 4.85311C75.4294 4.2514 74.3637 3.92633 73.2333 3.92633C72.385 3.92633 71.5846 4.10555 70.8549 4.45915C70.2687 4.7269 69.715 5.11683 69.2099 5.61547C69.1952 5.60013 69.1804 5.58506 69.1655 5.56999C68.1183 4.51001 66.7051 3.92633 65.1859 3.92633C63.6701 3.92633 62.3074 4.49467 61.2453 5.56972C61.2374 5.5778 61.2297 5.5856 61.222 5.59367C60.3761 5.02022 59.5461 4.58643 58.7026 4.27616L58.4894 4.19758L58.2664 4.15022C57.4112 3.97019 56.0971 3.73069 54.5643 3.73069C52.4469 3.73069 50.4212 4.281 48.5314 5.37463L48.4516 5.42279C47.8883 5.77478 47.3556 6.16847 46.8582 6.59957C46.6335 6.22982 46.3648 5.88565 46.053 5.56972C45.0058 4.51001 43.5788 3.92633 42.0348 3.92633C40.8173 3.92633 39.6646 4.30388 38.7148 5.00192C37.7312 4.2958 36.592 3.92633 35.3801 3.92633C33.8608 3.92633 32.4476 4.51001 31.4005 5.56999C31.0108 5.96449 30.6841 6.40689 30.4259 6.88616L29.7637 6.00028L29.571 5.80519C29.2219 5.45159 28.7254 4.99735 27.9757 4.61792L27.9103 4.58455L27.8446 4.55522C27.3193 4.31895 26.5024 4.00464 25.4755 4.00464C23.956 4.00464 22.5428 4.58832 21.4961 5.64803C21.4098 5.73549 21.326 5.82617 21.2452 5.92036C20.8207 5.5525 20.3709 5.22554 19.8873 4.93142L19.7589 4.85338L19.6241 4.78826C18.2277 4.11228 16.521 3.73661 14.8183 3.73069L14.7598 3.73043C11.1625 3.73043 8.51739 4.90881 6.89764 7.23249C4.53912 10.6167 5.17979 15.4626 5.54745 16.9927C4.2039 20.3578 4.38786 23.7436 6.06503 26.3265C7.69755 28.8401 10.6079 30.2817 14.0503 30.2817C14.2388 30.2817 14.4286 30.2777 14.6216 30.2693C16.3096 30.1959 17.6029 29.9442 18.8242 29.4496L18.8729 29.4295C19.7528 29.0524 20.5444 28.5729 21.2372 27.9976C21.3656 28.1633 21.5033 28.3208 21.6506 28.4698C22.6475 29.4792 23.9921 30.0352 25.4367 30.0352C26.8815 30.0352 28.2399 29.465 29.2618 28.4303L29.315 28.3765L29.365 28.3205C29.7555 27.8862 30.0734 27.3978 30.3106 26.876L31.0674 27.891C31.6711 28.7064 32.4062 29.2815 33.3236 29.6528L33.3778 29.6741C34.0259 29.9203 34.6623 30.0352 35.3801 30.0352C36.6237 30.0352 37.7931 29.6232 38.7304 28.8646C39.6803 29.6235 40.8457 30.0352 42.0734 30.0352C43.5182 30.0352 44.8769 29.465 45.8985 28.4303L45.9517 28.3765L46.0019 28.3205C46.3082 27.9795 46.5705 27.6042 46.784 27.204C47.3497 27.7212 47.9673 28.1862 48.6321 28.5939L48.6646 28.6135C50.4669 29.6867 52.4647 30.2308 54.6028 30.2308C56.9021 30.2308 59.1237 29.5479 61.0811 28.2468C61.159 28.3377 61.2395 28.4249 61.3222 28.5089L61.3756 28.563L61.4317 28.6146C62.4549 29.5559 63.7607 30.0742 65.1085 30.0742C66.5531 30.0742 67.9112 29.5045 68.9337 28.4696C68.9935 28.409 69.0517 28.3474 69.1083 28.2842C70.1315 29.3931 71.5043 29.9962 73.0401 29.9962C74.1872 29.9962 75.272 29.6289 76.17 28.948C77.0997 29.6536 78.2239 30.0352 79.4058 30.0352H87.9177C89.0887 30.0352 90.1723 29.6891 91.0865 29.0296C91.9946 29.6827 93.0771 30.0352 94.2061 30.0352C95.6509 30.0352 97.0094 29.465 98.031 28.4306L98.0881 28.3724C99.0888 29.465 100.475 30.0742 102.021 30.0742C103.174 30.0742 104.265 29.7187 105.166 29.0605C106.054 29.6679 107.1 29.9962 108.182 29.9962H111.587C113.82 29.9962 115.831 29.486 117.555 28.4846C118.852 27.7484 119.958 26.789 120.856 25.6225C121.814 26.9395 123.009 27.997 124.418 28.7737C126.224 29.7927 128.25 30.3094 130.437 30.3094C132.625 30.3094 134.65 29.7927 136.449 28.778C137.589 28.1493 138.584 27.3496 139.419 26.3919C140.26 27.3571 141.25 28.1561 142.37 28.7737C144.177 29.7927 146.202 30.3094 148.389 30.3094C150.577 30.3094 152.602 29.7927 154.401 28.778C155.077 28.4053 155.708 27.9658 156.286 27.4648C156.496 27.7974 156.742 28.1068 157.023 28.3918C158.045 29.4262 159.403 29.9962 160.848 29.9962H164.252C166.486 29.9962 168.497 29.486 170.221 28.4844C170.86 28.1219 171.457 27.7008 172.007 27.2253C172.248 27.6822 172.554 28.1009 172.918 28.4696C173.94 29.5043 175.299 30.0742 176.743 30.0742H184.559C185.683 30.0742 186.764 29.7233 187.671 29.0734C188.566 29.698 189.626 30.0352 190.725 30.0352H199.237C202.474 30.0352 204.716 28.2234 205.235 25.1884C205.683 22.569 204.658 19.7962 202.934 18.6281Z" fill="#232039"/>
<path fill-rule="evenodd" clip-rule="evenodd" d="M97.6102 14.5335H96.4495V16.5701H97.6102C98.1519 16.5701 98.5775 16.4527 98.9255 16.1392C99.1964 15.9043 99.3126 15.5911 99.3126 15.1993C99.3126 14.7294 99.1579 15.2778 98.887 15.0036C98.5387 14.6904 98.1131 14.5335 97.6102 14.5335ZM164.252 13.5545H163.052V22.3272H164.252C165.064 22.3272 165.799 22.1315 166.418 21.779C167.037 21.4265 167.502 20.9174 167.85 20.2516C168.198 19.5859 168.391 18.8025 168.391 17.9018C168.391 17.0402 168.198 16.2568 167.85 15.5911C167.502 14.9253 167.038 14.4552 166.38 14.0637C165.799 13.7111 165.064 13.5545 164.252 13.5545ZM111.586 13.5545H110.387V22.3272H111.586C112.398 22.3272 113.134 22.1315 113.752 21.779C114.372 21.4265 114.836 20.9174 115.184 20.2516C115.532 19.5859 115.726 18.8025 115.726 17.9018C115.726 17.0402 115.532 16.2568 115.184 15.5911C114.836 14.9253 114.372 14.4552 113.714 14.0637C113.134 13.7111 112.398 13.5545 111.586 13.5545ZM148.389 13.3976C147.538 13.3976 146.764 13.5935 146.106 13.9851C145.448 14.3769 144.945 14.9253 144.559 15.5911C144.171 16.2958 143.978 17.0792 143.978 17.9408C143.978 18.8025 144.171 19.5859 144.559 20.2909C144.945 20.9957 145.448 21.5048 146.106 21.8966C146.764 22.2882 147.538 22.4841 148.35 22.4841C149.201 22.4841 149.936 22.2882 150.594 21.8966C151.252 21.5048 151.755 20.9567 152.142 20.2909C152.529 19.5859 152.722 18.8025 152.722 17.9408C152.722 17.0792 152.529 16.2958 152.142 15.5911C151.755 14.886 151.252 14.3769 150.594 13.9851C149.975 13.5935 149.24 13.3976 148.389 13.3976ZM130.436 13.3976C129.585 13.3976 128.812 13.5935 128.154 13.9851C127.496 14.3769 126.993 14.9253 126.606 15.5911C126.219 16.2958 126.026 17.0792 126.026 17.9408C126.026 18.8025 126.219 19.5859 126.606 20.2909C126.993 20.9957 127.496 21.5048 128.154 21.8966C128.812 22.2882 129.585 22.4841 130.398 22.4841C131.249 22.4841 131.984 22.2882 132.642 21.8966C133.299 21.5048 133.802 20.9567 134.189 20.2909C134.576 19.5859 134.77 18.8025 134.77 17.9408C134.77 17.0792 134.576 16.2958 134.189 15.5911C133.802 14.886 133.299 14.3769 132.642 13.9851C132.061 13.5935 131.326 13.3976 130.436 13.3976ZM199.236 9.28552C199.855 9.28552 200.397 9.48143 200.784 9.87297C201.209 10.2645 201.442 10.8129 201.442 11.4394C201.442 12.0661 201.209 12.6146 200.784 13.0061C200.397 13.3976 199.855 13.5935 199.236 13.5935H192.93V15.7084H197.108C197.688 15.7084 198.23 15.9043 198.617 16.2958C199.043 16.6877 199.275 17.2751 199.275 17.8625C199.275 18.4893 199.043 19.0374 198.617 19.4292C198.191 19.8208 197.688 20.0167 197.108 20.0167H192.93V22.2489H199.236C199.816 22.2489 200.358 22.4448 200.784 22.8363C201.209 23.2281 201.442 23.7765 201.442 24.403C201.442 25.0297 201.209 25.5779 200.784 25.9697C200.358 26.3612 199.855 26.5572 199.236 26.5572H190.724C190.105 26.5572 189.564 26.3222 189.138 25.8914C188.712 25.4606 188.48 24.9121 188.48 24.2857V11.4787C188.48 10.852 188.712 10.3038 189.138 9.87297C189.564 9.48143 190.105 9.24623 190.686 9.24623H199.236V9.28552ZM176.742 9.28552C177.362 9.28552 177.903 9.52045 178.329 9.95128C178.754 10.3821 178.987 10.9303 178.987 11.5177V22.0923H184.558C185.177 22.0923 185.719 22.3272 186.144 22.758C186.57 23.1891 186.802 23.7373 186.802 24.3247C186.802 24.9514 186.57 25.4996 186.144 25.9307C185.719 26.3612 185.177 26.5964 184.558 26.5964H176.742C176.124 26.5964 175.582 26.3612 175.156 25.9307C174.731 25.4996 174.537 24.9514 174.537 24.364V11.557C174.537 10.9303 174.769 10.3821 175.195 9.99056C175.621 9.52045 176.162 9.28552 176.742 9.28552ZM164.252 9.28552C165.877 9.28552 167.347 9.67706 168.662 10.3821C169.978 11.1262 170.984 12.1837 171.719 13.4762C172.454 14.7687 172.802 16.2568 172.802 17.9018C172.802 19.5466 172.454 21.035 171.719 22.3272C170.984 23.6589 169.978 24.6772 168.662 25.4213C167.386 26.1656 165.877 26.5181 164.252 26.5181H160.847C160.228 26.5181 159.686 26.2829 159.261 25.8521C158.835 25.4213 158.603 24.8731 158.603 24.2464V11.4394C158.603 10.8129 158.835 10.2645 159.261 9.83368C159.686 9.44214 160.228 9.20721 160.808 9.20721H164.252V9.28552ZM111.586 9.28552C113.211 9.28552 114.681 9.67706 115.997 10.3821C117.312 11.1262 118.318 12.1837 119.053 13.4762C119.788 14.7687 120.136 16.2568 120.136 17.9018C120.136 19.5466 119.788 21.035 119.053 22.3272C118.318 23.6589 117.312 24.6772 115.997 25.4213C114.72 26.1656 113.211 26.5181 111.586 26.5181H108.181C107.562 26.5181 107.02 26.2829 106.595 25.8521C106.169 25.4213 105.937 24.8731 105.937 24.2464V11.4394C105.937 10.8129 106.169 10.2645 106.595 9.83368C107.02 9.44214 107.562 9.20721 108.142 9.20721H111.586V9.28552ZM97.6102 9.28552C98.7323 9.28552 99.7767 9.52045 100.667 10.0296C101.595 10.5387 102.33 11.2438 102.872 12.1444C103.375 13.0454 103.646 14.0634 103.646 15.1993C103.646 16.3351 103.336 17.3534 102.756 18.2543C102.446 18.7632 102.059 19.194 101.595 19.5466L103.801 23.1498C104.033 23.5416 104.188 23.9722 104.188 24.4423C104.188 25.0297 103.955 25.5389 103.568 25.9697C103.298 26.2439 102.795 26.5964 102.021 26.5964C101.247 26.5964 100.551 26.2439 100.125 25.5389L97.2231 20.8783H96.4107V24.3247C96.4107 24.9121 96.1786 25.4606 95.7918 25.8914C95.3662 26.3222 94.8244 26.5572 94.2053 26.5572C93.5864 26.5572 93.0446 26.3222 92.6193 25.8914C92.1937 25.4606 91.9614 24.9121 91.9614 24.2857V11.4787C91.9614 10.852 92.1937 10.3038 92.6193 9.87297C93.0446 9.48143 93.5864 9.24623 94.1667 9.24623H97.6102V9.28552ZM87.9172 9.28552C88.536 9.28552 89.0778 9.48143 89.4646 9.87297C89.8902 10.2645 90.1223 10.8129 90.1223 11.4394C90.1223 12.0661 89.8902 12.6146 89.4646 13.0061C89.0778 13.3976 88.536 13.5935 87.9172 13.5935H81.6104V15.7084H85.7891C86.3694 15.7084 86.911 15.9043 87.298 16.2958C87.7236 16.6877 87.9557 17.2751 87.9557 17.8625C87.9557 18.4893 87.7236 19.0374 87.298 19.4292C86.8724 19.8208 86.3694 20.0167 85.7891 20.0167H81.6104V22.2489H87.9172C88.4975 22.2489 89.039 22.4448 89.4646 22.8363C89.8902 23.2281 90.1223 23.7765 90.1223 24.403C90.1223 25.0297 89.8902 25.5779 89.4646 25.9697C89.039 26.3612 88.536 26.5572 87.9172 26.5572H79.4053C78.7861 26.5572 78.2444 26.3222 77.8188 25.8914C77.3934 25.4606 77.1611 24.9121 77.1611 24.3247V11.5177C77.1611 10.8912 77.3934 10.3428 77.8188 9.91199C78.2444 9.52045 78.7861 9.28552 79.3665 9.28552H87.9172ZM73.2328 9.28552C74.0066 9.28552 74.4711 9.63804 74.7417 9.91226C75.0899 10.3038 75.2835 10.8129 75.2835 11.3221C75.2835 11.9878 75.0514 12.5753 74.5484 13.0454L70.4859 17.1185L74.7417 22.9542C75.0126 23.3457 75.1673 23.8156 75.1673 24.2857C75.1673 24.8338 74.974 25.343 74.6258 25.7738C74.2387 26.2439 73.6584 26.5181 73.0393 26.5181C72.2657 26.5181 71.6465 26.1656 71.2209 25.5779L67.3519 20.3299V24.3247C67.3519 24.9514 67.1198 25.4996 66.6942 25.9307C66.2686 26.3612 65.7268 26.5964 65.108 26.5964C64.5276 26.5964 63.9859 26.3612 63.5603 25.9697C63.1347 25.5389 62.9026 24.9905 62.9026 24.364V11.557C62.9026 10.9303 63.1347 10.3821 63.5603 9.95128C63.9859 9.52045 64.5276 9.32454 65.108 9.32454C65.7268 9.32454 66.2686 9.55974 66.6942 9.99056C67.1198 10.4211 67.3519 10.9695 67.3519 11.557V14.2203L71.4918 10.0689C71.7627 9.83368 71.9948 9.63804 72.2269 9.52045C72.5751 9.36383 72.8845 9.28552 73.2328 9.28552ZM42.034 9.28552C42.6531 9.28552 43.1947 9.52045 43.6203 9.91226C44.0459 10.3428 44.2779 10.8912 44.2779 11.5177V24.3247C44.2779 24.9121 44.0459 25.4606 43.6591 25.8914C43.2335 26.3222 42.6917 26.5572 42.0725 26.5572C41.4537 26.5572 40.9119 26.3222 40.4866 25.8914C40.061 25.4606 39.8286 24.9121 39.8286 24.3247V11.5177C39.8286 10.8912 40.061 10.3428 40.4866 9.91226C40.9119 9.52045 41.4537 9.28552 42.034 9.28552ZM35.3793 9.28552C35.9984 9.28552 36.5399 9.52045 36.927 9.91226C37.3526 10.3428 37.5847 10.8912 37.5847 11.5177V24.3247C37.5847 24.9514 37.3526 25.4996 36.927 25.9307C36.5014 26.3612 35.9596 26.5572 35.3793 26.5572C35.0698 26.5572 34.7989 26.5181 34.4895 26.4005C34.1025 26.2439 33.8316 26.009 33.5995 25.6955L27.6413 17.7059V24.3247C27.6413 24.9121 27.4092 25.4606 27.0221 25.8914C26.5968 26.3222 26.055 26.5572 25.4359 26.5572C24.817 26.5572 24.2752 26.3222 23.8884 25.9307C23.4628 25.4996 23.2693 24.9514 23.2693 24.3247V11.5177C23.2693 10.8912 23.5014 10.3428 23.8884 9.91226C24.314 9.48143 24.8555 9.28552 25.4359 9.28552C25.7453 9.28552 26.0938 9.36383 26.4032 9.52045C26.6741 9.67706 26.9448 9.83368 27.1383 10.0689L27.1771 10.1079L33.1739 18.1368V11.5177C33.1739 10.8912 33.406 10.3428 33.8316 9.91226C34.2574 9.52045 34.7989 9.28552 35.3793 9.28552ZM148.389 9.12891C150.052 9.12891 151.561 9.52045 152.877 10.2645C154.192 11.0086 155.276 12.0661 156.011 13.4369C156.746 14.7687 157.133 16.2958 157.133 17.9801C157.133 19.6642 156.746 21.1916 156.011 22.5231C155.276 23.8939 154.231 24.9514 152.877 25.6955C151.561 26.4396 150.052 26.8314 148.389 26.8314C146.725 26.8314 145.216 26.4396 143.901 25.6955C142.547 24.9514 141.502 23.8549 140.767 22.5231C140.032 21.1916 139.684 19.6642 139.684 17.9801C139.684 16.2958 140.07 14.8077 140.767 13.4762C141.502 12.1444 142.547 11.0479 143.901 10.3038C145.216 9.48143 146.725 9.12891 148.389 9.12891ZM130.436 9.12891C132.1 9.12891 133.609 9.52045 134.925 10.2645C136.24 11.0086 137.323 12.0661 138.059 13.4369C138.794 14.7687 139.181 16.2958 139.181 17.9801C139.181 19.6642 138.794 21.1916 138.059 22.5231C137.323 23.8939 136.279 24.9514 134.925 25.6955C133.609 26.4396 132.1 26.8314 130.436 26.8314C128.773 26.8314 127.264 26.4396 125.949 25.6955C124.594 24.9514 123.55 23.8549 122.815 22.5231C122.079 21.1916 121.731 19.6642 121.731 17.9801C121.731 16.2958 122.118 14.8077 122.815 13.4762C123.55 12.1444 124.594 11.0479 125.949 10.3038C127.264 9.48143 128.773 9.12891 130.436 9.12891ZM54.5635 9.12891C55.6468 9.12891 56.6142 9.28552 57.4654 9.59875C58.2778 9.91226 59.129 10.3821 59.9414 11.0479C60.2511 11.2828 60.4832 11.557 60.5991 11.8705C60.7153 12.1444 60.7541 12.4579 60.7541 12.7712C60.7541 13.3586 60.5217 13.9461 60.0576 14.3376C59.632 14.6904 59.129 14.886 58.5872 14.886C58.0457 14.886 57.5816 14.6904 57.1559 14.3769C56.7303 14.0244 56.3433 13.7502 55.9565 13.5935C55.6082 13.4762 55.1053 13.3976 54.5249 13.3976C53.7899 13.3976 53.0934 13.5935 52.4743 13.9851C51.8554 14.3769 51.3136 14.9253 50.9268 15.6301C50.5398 16.3351 50.3462 17.1185 50.3462 17.9408C50.3462 18.7632 50.5398 19.5466 50.9268 20.2516C51.3136 20.9567 51.8166 21.5048 52.4743 21.8966C53.0934 22.2882 53.7899 22.4841 54.5249 22.4841C55.4535 22.4841 56.3433 22.1706 57.2719 21.4658C57.7363 21.1523 58.1616 20.9957 58.626 20.9957C59.2064 20.9957 59.7481 21.2309 60.1349 21.6614C60.5217 22.0532 60.7153 22.6014 60.7153 23.1891C60.7153 23.7765 60.4832 24.3247 60.0576 24.7555L60.019 24.7948L59.9802 24.8338C58.394 26.0873 56.5756 26.7531 54.6023 26.7531C53.0546 26.7531 51.5845 26.3612 50.2689 25.5779C48.9923 24.7948 47.9476 23.7373 47.1737 22.3665C46.4387 21.035 46.0519 19.5075 46.0519 17.9018C46.0519 16.2958 46.4387 14.8077 47.1737 13.4759C47.909 12.1444 48.9535 11.0479 50.2303 10.2645C51.5457 9.52045 52.9772 9.12891 54.5635 9.12891ZM14.8143 9.12891C16.1297 9.12891 17.2518 9.40312 18.1803 9.95128C19.0701 10.4994 19.844 11.2828 20.4628 12.262C20.7337 12.6929 20.8884 13.1627 20.8884 13.5935C20.8884 14.2986 20.579 14.886 19.9987 15.3169C19.6119 15.5518 19.2248 15.6694 18.7995 15.6694C18.4124 15.6694 18.0254 15.5518 17.6774 15.3561C17.3291 15.1602 17.0197 14.847 16.8262 14.4942C16.6326 14.142 16.3617 14.3376 16.0138 14.142C15.7041 13.9461 15.2399 13.8678 14.6981 13.8678C14.0016 13.8678 13.4213 13.5152 13.0345 13.7894C12.8022 13.9461 12.7248 14.0634 12.7248 14.3376C12.7248 14.5728 12.8024 14.7687 13.0733 15.0036C13.228 15.121 13.731 15.4345 15.2399 15.5911C17.0197 15.7867 18.4124 16.3351 19.4572 17.2751C20.5404 18.2934 21.1208 19.6249 21.1208 21.2309C21.1208 22.4058 20.7725 23.463 20.1148 24.3247C19.4957 25.1471 18.6445 25.7738 17.6386 26.2046C16.6714 26.5964 15.6655 26.7921 14.5819 26.7921C13.1507 26.7921 11.835 26.4788 10.6744 25.8131C9.43638 25.1081 8.54636 24.1681 8.0822 23.0325C7.96603 22.719 7.88867 22.4448 7.88867 22.1706C7.88867 21.6614 8.0822 21.1916 8.43045 20.8C8.73989 20.4865 9.12668 20.2516 9.5911 20.1733C9.70701 20.134 9.86172 20.134 10.0553 20.134C10.4809 20.134 10.9065 20.2516 11.2935 20.5258C11.6803 20.8 11.9512 21.1133 12.1445 21.5441C12.1833 21.6614 12.3768 21.8966 12.9186 22.1706C13.4213 22.4058 13.9631 22.5624 14.5819 22.5624C15.2784 22.5624 15.859 22.4058 16.2844 22.1315C16.6326 21.8966 16.71 21.6614 16.71 21.3875C16.71 21.035 16.5941 20.7217 16.2844 20.4475C15.9364 20.134 15.3173 19.8991 14.466 19.8208C12.6474 19.6642 11.2162 19.0767 10.1329 18.1758C8.97196 17.1575 8.35309 15.8653 8.35309 14.3376C8.35309 13.241 8.66253 12.262 9.32021 11.4787C9.90054 10.7346 10.7132 10.1472 11.7191 9.75537C12.6474 9.32481 13.6922 9.12891 14.8143 9.12891Z" fill="#EB5C5D"/>
<path fill-rule="evenodd" clip-rule="evenodd" d="M97.6102 12.6524H96.4495V15.5899H97.6102C98.1519 15.5899 98.5775 15.4723 98.9255 15.1588C99.1964 14.9238 99.3126 14.6106 99.3126 14.2191C99.3126 13.7489 99.1579 13.3574 98.887 13.0832C98.5387 12.809 98.1131 12.6524 97.6102 12.6524ZM164.252 12.5741H163.052V21.3863H164.252C165.064 21.3863 165.799 21.1904 166.418 20.8378C167.037 20.4853 167.502 19.9762 167.85 19.3104C168.198 18.6447 168.391 17.8613 168.391 16.9604C168.391 16.099 168.198 15.3156 167.85 14.6499C167.502 13.9839 167.038 13.514 166.38 13.1225C165.799 12.77 165.064 12.5741 164.252 12.5741ZM111.586 12.5741H110.387V21.3863H111.586C112.398 21.3863 113.134 21.1904 113.752 20.8378C114.372 20.4853 114.836 19.9762 115.184 19.3104C115.532 18.6447 115.726 17.8613 115.726 16.9604C115.726 16.099 115.532 15.3156 115.184 14.6499C114.836 13.9839 114.372 13.514 113.714 13.1225C113.134 12.77 112.398 12.5741 111.586 12.5741ZM148.389 12.4565C147.538 12.4565 146.764 12.6524 146.106 13.0442C145.448 13.4357 144.945 13.9839 144.559 14.6499C144.171 15.3547 143.978 16.138 143.978 16.9997C143.978 17.8613 144.171 18.6447 144.559 19.3494C144.945 20.0545 145.448 20.5636 146.106 20.9552C146.764 21.347 147.538 21.5429 148.35 21.5429C149.201 21.5429 149.936 21.347 150.594 20.9552C151.252 20.5636 151.755 20.0155 152.142 19.3494C152.529 18.6447 152.722 17.8613 152.722 16.9997C152.722 16.138 152.529 15.3547 152.142 14.6499C151.755 13.9448 151.252 13.4357 150.594 13.0442C149.975 12.6524 149.24 12.4565 148.389 12.4565ZM130.436 12.4565C129.585 12.4565 128.812 12.6524 128.154 13.0442C127.496 13.4357 126.993 13.9839 126.606 14.6499C126.219 15.3547 126.026 16.138 126.026 16.9997C126.026 17.8613 126.219 18.6447 126.606 19.3494C126.993 20.0545 127.496 20.5636 128.154 20.9552C128.812 21.347 129.585 21.5429 130.398 21.5429C131.249 21.5429 131.984 21.347 132.642 20.9552C133.299 20.5636 133.802 20.0155 134.189 19.3494C134.576 18.6447 134.77 17.8613 134.77 16.9997C134.77 16.138 134.576 15.3547 134.189 14.6499C133.802 13.9448 133.299 13.4357 132.642 13.0442C132.061 12.6524 131.326 12.4565 130.436 12.4565ZM199.236 8.34434C199.855 8.34434 200.397 8.53998 200.784 8.93179C201.209 9.32333 201.442 9.87175 201.442 10.4982C201.442 11.1249 201.209 11.6731 200.784 12.0649C200.397 12.4565 199.855 12.6524 199.236 12.6524H192.93V14.7672H197.108C197.688 14.7672 198.23 14.9631 198.617 15.3547C199.043 15.7465 199.275 16.3339 199.275 16.9214C199.275 17.5478 199.043 18.0962 198.617 18.4881C198.191 18.8796 197.688 19.0755 197.108 19.0755H192.93V21.308H199.236C199.816 21.308 200.358 21.5036 200.784 21.8954C201.209 22.2869 201.442 22.8351 201.442 23.4618C201.442 24.0886 201.209 24.6367 200.784 25.0285C200.358 25.4201 199.855 25.616 199.236 25.616H190.724C190.105 25.616 189.564 25.381 189.138 24.9502C188.712 24.5194 188.48 23.971 188.48 23.3442V10.5768C188.48 9.95006 188.712 9.40164 189.138 8.97081C189.564 8.57927 190.105 8.34434 190.686 8.34434H199.236ZM176.742 8.34434C177.362 8.34434 177.903 8.57927 178.329 9.01009C178.754 9.44092 178.987 9.98935 178.987 10.5768V21.1513H184.558C185.177 21.1513 185.719 21.3863 186.144 21.8171C186.57 22.2477 186.802 22.7961 186.802 23.3835C186.802 24.0103 186.57 24.5584 186.144 24.9892C185.719 25.4201 185.177 25.655 184.558 25.655H176.742C176.124 25.655 175.582 25.4201 175.156 24.9892C174.731 24.5584 174.537 24.0103 174.537 23.4225V10.5768C174.537 9.95006 174.769 9.40163 175.195 9.01009C175.621 8.57927 176.162 8.34434 176.742 8.34434ZM164.252 8.34434C165.877 8.34434 167.347 8.73588 168.662 9.44092C169.978 10.185 170.984 11.2425 171.719 12.5348C172.454 13.8273 172.802 15.3156 172.802 16.9604C172.802 18.6054 172.454 20.0938 171.719 21.3863C170.984 22.7178 169.978 23.736 168.662 24.4801C167.386 25.2242 165.877 25.5767 164.252 25.5767H160.847C160.228 25.5767 159.686 25.3418 159.261 24.9109C158.835 24.4801 158.603 23.9319 158.603 23.3052V10.5768C158.603 9.95006 158.835 9.40164 159.261 8.97081C159.686 8.57927 160.228 8.34434 160.808 8.34434H164.252ZM111.586 8.34434C113.211 8.34434 114.681 8.73588 115.997 9.44092C117.312 10.185 118.318 11.2425 119.053 12.5348C119.788 13.8273 120.136 15.3156 120.136 16.9604C120.136 18.6054 119.788 20.0938 119.053 21.3863C118.318 22.7178 117.312 23.736 115.997 24.4801C114.72 25.2242 113.211 25.5767 111.586 25.5767H108.181C107.562 25.5767 107.02 25.3418 106.595 24.9109C106.169 24.4801 105.937 23.9319 105.937 23.3052V10.5768C105.937 9.95006 106.169 9.40164 106.595 8.97081C107.02 8.57927 107.562 8.34434 108.142 8.34434H111.586ZM97.6102 8.34434C98.7323 8.34434 99.7767 8.57927 100.667 9.0884C101.595 9.59754 102.33 10.3026 102.872 11.2033C103.375 12.1039 103.646 13.1225 103.646 14.2581C103.646 15.3939 103.336 16.4122 102.756 17.3129C102.446 17.822 102.059 18.2529 101.595 18.6054L103.801 22.2086C104.033 22.6002 104.188 23.031 104.188 23.5008C104.188 24.0886 103.955 24.5977 103.568 25.0285C103.298 25.3027 102.795 25.655 102.021 25.655C101.247 25.655 100.551 25.3027 100.125 24.5977L97.2231 19.9369H96.4107V23.3835C96.4107 23.971 96.1786 24.5194 95.7918 24.9502C95.3662 25.381 94.8244 25.616 94.2053 25.616C93.5864 25.616 93.0446 25.381 92.6193 24.9502C92.1937 24.5194 91.9614 23.971 91.9614 23.3442V10.5768C91.9614 9.95006 92.1937 9.40164 92.6193 8.97081C93.0446 8.57927 93.5864 8.34434 94.1667 8.34434H97.6102ZM87.9172 8.34434C88.536 8.34434 89.0778 8.53998 89.4646 8.93179C89.8902 9.32333 90.1223 9.87175 90.1223 10.4982C90.1223 11.1249 89.8902 11.6731 89.4646 12.0649C89.0778 12.4565 88.536 12.6524 87.9172 12.6524H81.6104V14.7672H85.7891C86.3694 14.7672 86.911 14.9631 87.298 15.3547C87.7236 15.7465 87.9557 16.3339 87.9557 16.9214C87.9557 17.5088 87.7236 18.0962 87.298 18.4881C86.8724 18.8796 86.3694 19.0755 85.7891 19.0755H81.6104V21.308H87.9172C88.4975 21.308 89.039 21.5036 89.4646 21.8954C89.8902 22.2869 90.1223 22.8351 90.1223 23.4618C90.1223 24.0886 89.8902 24.6367 89.4646 25.0285C89.039 25.4201 88.536 25.616 87.9172 25.616H79.4053C78.7861 25.616 78.2444 25.381 77.8188 24.9502C77.3934 24.5194 77.1611 23.971 77.1611 23.3835V10.5768C77.1611 9.95006 77.3934 9.40164 77.8188 8.97081C78.2444 8.57927 78.7861 8.34434 79.3665 8.34434H87.9172ZM73.2328 8.34434C74.0066 8.34434 74.4711 8.69659 74.7417 8.97081C75.0899 9.36262 75.2835 9.87175 75.2835 10.3809C75.2835 11.0466 75.0514 11.6341 74.5484 12.1039L70.4859 16.1773L74.7417 22.0127C75.0126 22.4045 75.1673 22.8744 75.1673 23.3442C75.1673 23.8927 74.974 24.4018 74.6258 24.8326C74.2387 25.3027 73.6584 25.5767 73.0393 25.5767C72.2657 25.5767 71.6465 25.2242 71.2209 24.6367L67.3519 19.3887V23.3835C67.3519 24.0103 67.1198 24.5584 66.6942 24.9892C66.2686 25.4201 65.7268 25.655 65.108 25.655C64.5276 25.655 63.9859 25.4201 63.5603 25.0285C63.1347 24.5977 62.9026 24.0493 62.9026 23.4225V10.5768C62.9026 9.95006 63.1347 9.40164 63.5603 8.97081C63.9859 8.53998 64.5276 8.34434 65.108 8.34434C65.7268 8.34434 66.2686 8.57927 66.6942 9.01009C67.1198 9.44092 67.3519 9.98935 67.3519 10.5768V13.2398L71.4918 9.0884C71.7627 8.85348 71.9948 8.65757 72.2269 8.53998C72.5751 8.42265 72.8845 8.34434 73.2328 8.34434ZM42.034 8.34434C42.6531 8.34434 43.1947 8.57927 43.6203 8.97081C44.0459 9.40164 44.2779 9.95006 44.2779 10.5768V23.3835C44.2779 23.971 44.0459 24.5194 43.6591 24.9502C43.2335 25.381 42.6917 25.616 42.0725 25.616C41.4537 25.616 40.9119 25.381 40.4866 24.9502C40.061 24.5194 39.8286 23.971 39.8286 23.3835V10.5768C39.8286 9.95006 40.061 9.40164 40.4866 8.97081C40.9119 8.57927 41.4537 8.34434 42.034 8.34434ZM35.3793 8.34434C35.9984 8.34434 36.5399 8.57927 36.927 8.97081C37.3526 9.40164 37.5847 9.95006 37.5847 10.5768V23.3835C37.5847 24.0103 37.3526 24.5584 36.927 24.9892C36.5014 25.4201 35.9596 25.616 35.3793 25.616C35.0698 25.616 34.7989 25.5767 34.4895 25.4594C34.1025 25.3027 33.8316 25.0675 33.5995 24.7543L27.6413 16.7647V23.3835C27.6413 23.971 27.4092 24.5194 27.0221 24.9502C26.5968 25.381 26.055 25.616 25.4359 25.616C24.817 25.616 24.2752 25.381 23.8884 24.9892C23.4628 24.5584 23.2693 24.0103 23.2693 23.3835V10.5768C23.2693 9.95006 23.5014 9.40164 23.8884 8.97081C24.314 8.53998 24.8555 8.34434 25.4359 8.34434C25.7453 8.34434 26.0938 8.42265 26.4032 8.57927C26.6741 8.73588 26.9448 8.8925 27.1383 9.12742L27.1771 9.16671L33.1739 17.1956V10.5768C33.1739 9.95006 33.406 9.40164 33.8316 8.97081C34.2574 8.57927 34.7989 8.34434 35.3793 8.34434ZM148.389 8.14844C150.052 8.14844 151.561 8.53998 152.877 9.28404C154.192 10.0284 155.276 11.0857 156.011 12.4565C156.746 13.7882 157.133 15.3156 157.133 16.9997C157.133 18.6837 156.746 20.2111 156.011 21.5429C155.276 22.9137 154.231 23.971 152.877 24.7153C151.561 25.4594 150.052 25.8509 148.389 25.8509C146.725 25.8509 145.216 25.4594 143.901 24.7153C142.547 23.971 141.502 22.8744 140.767 21.5429C140.032 20.2111 139.684 18.6837 139.684 16.9997C139.684 15.3156 140.07 13.8272 140.767 12.4957C141.502 11.1642 142.547 10.0677 143.901 9.32333C145.216 8.53998 146.725 8.14844 148.389 8.14844ZM130.436 8.14844C132.1 8.14844 133.609 8.53998 134.925 9.28404C136.24 10.0284 137.323 11.0857 138.059 12.4565C138.794 13.7882 139.181 15.3156 139.181 16.9997C139.181 18.6837 138.794 20.2111 138.059 21.5429C137.323 22.9137 136.279 23.971 134.925 24.7153C133.609 25.4594 132.1 25.8509 130.436 25.8509C128.773 25.8509 127.264 25.4594 125.949 24.7153C124.594 23.971 123.55 22.8744 122.815 21.5429C122.079 20.2111 121.731 18.6837 121.731 16.9997C121.731 15.3156 122.118 13.8272 122.815 12.4957C123.55 11.1642 124.594 10.0677 125.949 9.32333C127.264 8.53998 128.773 8.14844 130.436 8.14844ZM54.5635 8.14844C55.6468 8.14844 56.6142 8.30505 57.4654 8.61829C58.2778 8.93179 59.129 9.40163 59.9414 10.0677C60.2511 10.3026 60.4832 10.5768 60.5991 10.89C60.7153 11.1642 60.7541 11.4775 60.7541 11.7907C60.7541 12.3781 60.5217 12.9659 60.0576 13.3574C59.632 13.7099 59.129 13.9056 58.5872 13.9056C58.0457 13.9056 57.5816 13.7099 57.1559 13.3964C56.7303 13.0442 56.3433 12.77 55.9565 12.6131C55.6082 12.4957 55.1053 12.4174 54.5249 12.4174C53.7899 12.4174 53.0934 12.6131 52.4743 13.0049C51.8554 13.3964 51.3136 13.9448 50.9268 14.6496C50.5398 15.3547 50.3462 16.138 50.3462 16.9604C50.3462 17.783 50.5398 18.5664 50.9268 19.2711C51.3136 19.9762 51.8166 20.5243 52.4743 20.9161C53.0934 21.308 53.7899 21.5036 54.5249 21.5036C55.4535 21.5036 56.3433 21.1904 57.2719 20.4853C57.7363 20.1721 58.1616 20.0155 58.626 20.0155C59.2064 20.0155 59.7481 20.2504 60.1349 20.6812C60.5217 21.0728 60.7153 21.6212 60.7153 22.2086C60.7153 22.7961 60.4832 23.3442 60.0576 23.7751L60.019 23.8144L59.9802 23.8536C58.394 25.1068 56.5756 25.7726 54.6023 25.7726C53.0546 25.7726 51.5845 25.3811 50.2689 24.5977C48.9923 23.8144 47.9476 22.7568 47.1737 21.3863C46.4387 20.0545 46.0519 18.5271 46.0519 16.9214C46.0519 15.3156 46.4387 13.8272 47.1737 12.4957C47.909 11.1642 48.9535 10.0677 50.2303 9.28404C51.5457 8.57927 52.9772 8.14844 54.5635 8.14844ZM14.8143 8.18773C16.1297 8.18773 17.2518 8.46167 18.1803 9.01009C19.0701 9.55825 19.844 10.3416 20.4628 11.3209C20.7337 11.7517 20.8884 12.2215 20.8884 12.6524C20.8884 13.3574 20.579 13.9448 19.9987 14.3757C19.6119 14.6106 19.2248 14.7282 18.7995 14.7282C18.4124 14.7282 18.0254 14.6106 17.6774 14.4147C17.3291 14.2191 17.0197 13.9056 16.8262 13.5533C16.6326 13.2008 16.3617 12.9266 16.0138 12.7307C15.7041 12.5348 15.2399 12.4565 14.6981 12.4565C14.0016 12.4565 13.4213 12.5741 13.0345 12.809C12.8022 12.9659 12.7248 13.0832 12.7248 13.3574C12.7248 13.5923 12.8024 13.7882 13.0733 14.0232C13.228 14.1408 13.731 14.454 15.2399 14.6106C17.0197 14.8065 18.4124 15.3547 19.4572 16.2946C20.5404 17.3129 21.1208 18.6447 21.1208 20.2504C21.1208 21.4253 20.7725 22.4828 20.1148 23.3442C19.4957 24.1669 18.6445 24.7936 17.6386 25.2242C16.6714 25.616 15.6655 25.8116 14.5819 25.8116C13.1507 25.8116 11.835 25.4984 10.6744 24.8326C9.43638 24.1276 8.54636 23.1876 8.0822 22.052C7.96603 21.7385 7.88867 21.4646 7.88867 21.1904C7.88867 20.6812 8.0822 20.2111 8.43045 19.8196C8.73989 19.5063 9.12668 19.2711 9.5911 19.1928C9.70701 19.1538 9.86172 19.1538 10.0553 19.1538C10.4809 19.1538 10.9065 19.2711 11.2935 19.5454C11.6803 19.8196 11.9512 20.1328 12.1445 20.5636C12.1833 20.6812 12.3768 20.9161 12.9186 21.1904C13.4213 21.4253 13.9631 21.5819 14.5819 21.5819C15.2784 21.5819 15.859 21.4253 16.2844 21.1511C16.6326 20.9161 16.71 20.6812 16.71 20.407C16.71 20.0545 16.5941 19.7413 16.2844 19.467C15.9364 19.1538 15.3173 18.9189 14.466 18.8403C12.6474 18.6837 11.2162 18.0962 10.1329 17.1956C8.97196 16.1773 8.35309 14.8848 8.35309 13.3574C8.35309 12.2606 8.66253 11.2816 9.32021 10.4982C9.90054 9.75416 10.7132 9.16671 11.7191 8.7749C12.6474 8.38336 13.6922 8.18773 14.8143 8.18773Z" fill="#FFD68F"/>
<path fill-rule="evenodd" clip-rule="evenodd" d="M35.3789 24.1658C35.108 24.1658 34.8371 24.1266 34.5662 24.009C34.2182 23.8916 33.9473 23.6567 33.7538 23.3825L27.4473 14.9621V22.1293C27.4473 22.6775 27.254 23.1866 26.867 23.5784C26.4802 23.9699 25.9772 24.1658 25.3969 24.1658C24.8551 24.1658 24.3521 23.9699 23.9651 23.5784C23.5783 23.1866 23.3848 22.6775 23.3848 22.1293V9.3223C23.3848 8.73485 23.5783 8.265 23.9651 7.87319C24.3521 7.48165 24.8551 7.28575 25.3969 7.28575C25.7063 7.28575 25.9772 7.36406 26.2867 7.48165C26.5575 7.59925 26.7896 7.79489 26.9443 7.99079L26.9829 8.02981L33.3282 16.4895V9.28328C33.3282 8.69583 33.5217 8.18669 33.9473 7.79489C34.3341 7.40308 34.8371 7.20744 35.3789 7.20744C35.9206 7.20744 36.4236 7.40308 36.8104 7.79489C37.1972 8.18669 37.3907 8.69583 37.3907 9.24399V22.051C37.3907 22.6384 37.1972 23.1083 36.8104 23.5001C36.4233 23.9699 35.9592 24.1658 35.3789 24.1658ZM42.0336 24.1658C41.4918 24.1658 40.9888 23.9699 40.602 23.5784C40.215 23.1866 40.0217 22.6775 40.0217 22.1293V9.3223C40.0217 8.73485 40.215 8.22571 40.6406 7.83417C41.0277 7.44236 41.5306 7.24646 42.0721 7.24646C42.6525 7.24646 43.1554 7.44236 43.5037 7.83417C43.8907 8.22571 44.0843 8.73485 44.0843 9.28301V22.09C44.0843 22.6384 43.8907 23.1476 43.5037 23.5391C43.1169 23.9699 42.6139 24.1658 42.0336 24.1658ZM73.1165 24.1658C72.4197 24.1658 71.8394 23.8523 71.4526 23.3042L67.4288 17.821L67.2353 18.0169V22.1293C67.2353 22.6775 67.0418 23.1866 66.655 23.5784C66.2682 23.9699 65.7652 24.1658 65.2235 24.1658C64.6819 24.1658 64.1787 23.9699 63.7919 23.5784C63.4051 23.1866 63.173 22.6775 63.173 22.1293V9.3223C63.173 8.77414 63.3663 8.265 63.7919 7.87319C64.1787 7.48165 64.6819 7.28575 65.2235 7.28575C65.7652 7.28575 66.2682 7.48165 66.655 7.87319C67.0418 8.265 67.2353 8.77414 67.2353 9.3223V12.4554L71.6847 7.99079C71.9167 7.75587 72.1491 7.59925 72.3811 7.48165C72.652 7.36406 72.9229 7.28575 73.2324 7.28575C73.9289 7.28575 74.393 7.59925 74.6251 7.87319C74.9348 8.22571 75.1281 8.65654 75.1281 9.16568C75.1281 9.79214 74.896 10.3406 74.4704 10.7714L70.2919 14.9621L74.6639 20.9151C74.9348 21.2676 75.0507 21.6985 75.0507 22.1683C75.0507 22.6775 74.896 23.1476 74.5477 23.5391C74.1609 23.9306 73.6968 24.1658 73.1165 24.1658ZM79.4046 24.1658C78.8631 24.1658 78.3601 23.9699 77.9733 23.5784C77.5863 23.1866 77.3927 22.6775 77.3927 22.1293V9.3223C77.3927 8.73485 77.5863 8.22571 78.0119 7.83417C78.3987 7.44236 78.9016 7.24646 79.4434 7.24646H87.9553C88.4968 7.24646 88.9998 7.44236 89.3868 7.79489C89.7736 8.18669 89.9672 8.65654 89.9672 9.24399C89.9672 9.79214 89.7736 10.3015 89.348 10.6541C88.9612 11.0063 88.4968 11.1632 87.9553 11.1632H81.4553V13.6306H85.8273C86.369 13.6306 86.872 13.8262 87.22 14.1787C87.607 14.5703 87.8391 15.0404 87.8391 15.5886C87.8391 16.137 87.6456 16.6461 87.22 16.9986C86.8332 17.3512 86.369 17.5468 85.8273 17.5468H81.4553V20.1711H87.9553C88.4968 20.1711 89 20.3667 89.348 20.6802C89.7351 21.0324 89.9672 21.5418 89.9672 22.09C89.9672 22.6384 89.7736 23.1476 89.3868 23.5391C88.9998 23.8916 88.5356 24.0873 87.9553 24.0873H79.4046V24.1658ZM97.6097 14.5313C98.1901 14.5313 98.6542 14.3746 99.0413 14.0614C99.3507 13.7872 99.5054 13.4347 99.5054 12.9646C99.5054 12.4164 99.3507 12.0246 99.0025 11.6721C98.6542 11.3198 98.1901 11.1632 97.6097 11.1632H96.217V14.492H97.6097V14.5313ZM102.021 24.1658C101.285 24.1658 100.666 23.8133 100.279 23.1866L97.3389 18.4477H96.217V22.09C96.217 22.6384 96.0232 23.1476 95.6364 23.5391C95.2496 23.9306 94.7467 24.1266 94.1663 24.1266C93.6246 24.1266 93.1216 23.9306 92.7348 23.5391C92.3477 23.1476 92.1545 22.6384 92.1545 22.09V9.28301C92.1545 8.69556 92.3477 8.18669 92.7733 7.79489C93.1601 7.40308 93.6634 7.20744 94.2049 7.20744H97.6097C98.693 7.20744 99.699 7.44236 100.589 7.91248C101.479 8.38233 102.214 9.08737 102.717 9.94903C103.22 10.8107 103.491 11.829 103.491 12.8863C103.491 13.9828 103.22 15.0011 102.639 15.863C102.291 16.3719 101.866 16.842 101.363 17.1945L103.684 20.9151C103.916 21.3067 104.032 21.6985 104.032 22.09C104.032 22.6384 103.839 23.1083 103.452 23.4608C103.181 23.8523 102.756 24.1658 102.021 24.1658ZM111.585 20.3277C112.437 20.3277 113.21 20.1318 113.868 19.7402C114.526 19.3484 115.029 18.8395 115.377 18.1342C115.764 17.4295 115.957 16.6071 115.957 15.7062C115.957 14.8055 115.764 13.9828 115.377 13.2781C114.99 12.573 114.526 12.0639 113.868 11.6721C113.21 11.2805 112.437 11.0846 111.585 11.0846H110.192V20.2494H111.585V20.3277ZM108.181 24.1658C107.639 24.1658 107.136 23.9699 106.749 23.5784C106.362 23.1866 106.169 22.6775 106.169 22.1293V9.3223C106.169 8.73485 106.362 8.22571 106.788 7.83417C107.175 7.44236 107.678 7.24646 108.219 7.24646H111.624C113.21 7.24646 114.681 7.59925 115.919 8.34331C117.195 9.08737 118.201 10.1056 118.898 11.3588C119.594 12.612 119.943 14.1004 119.943 15.6669C119.943 17.2728 119.594 18.722 118.898 20.0144C118.201 21.3067 117.195 22.3249 115.919 23.0693C114.642 23.774 113.21 24.1658 111.624 24.1658H108.181ZM164.251 20.3277C165.102 20.3277 165.876 20.1318 166.534 19.7402C167.192 19.3484 167.695 18.8395 168.043 18.1342C168.43 17.4295 168.623 16.6071 168.623 15.7062C168.623 14.8055 168.43 13.9828 168.043 13.2781C167.656 12.573 167.192 12.0639 166.534 11.6721C165.876 11.2805 165.102 11.0846 164.251 11.0846H162.858V20.2494H164.251V20.3277ZM160.847 24.1658C160.305 24.1658 159.802 23.9699 159.415 23.5784C159.028 23.1866 158.835 22.6775 158.835 22.1293V9.3223C158.835 8.73485 159.028 8.22571 159.454 7.83417C159.841 7.44236 160.344 7.24646 160.885 7.24646H164.29C165.876 7.24646 167.346 7.59925 168.585 8.34331C169.861 9.08737 170.867 10.1056 171.564 11.3588C172.26 12.612 172.608 14.1004 172.608 15.6669C172.608 17.2728 172.26 18.722 171.564 20.0144C170.867 21.3067 169.861 22.3249 168.585 23.0693C167.308 23.774 165.876 24.1658 164.29 24.1658H160.847ZM176.742 24.1658C176.162 24.1658 175.697 23.9699 175.311 23.5784C174.924 23.1866 174.73 22.6775 174.73 22.1293V9.3223C174.73 8.77414 174.924 8.265 175.311 7.87319C175.697 7.48165 176.201 7.28575 176.742 7.28575C177.284 7.28575 177.787 7.48165 178.174 7.87319C178.56 8.265 178.754 8.77414 178.754 9.3223V20.0927H184.519C185.06 20.0927 185.563 20.2884 185.95 20.6802C186.337 21.0717 186.531 21.5809 186.531 22.1293C186.531 22.6775 186.337 23.1866 185.95 23.5784C185.563 23.9699 185.06 24.1658 184.519 24.1658H176.742ZM190.724 24.1658C190.182 24.1658 189.679 23.9699 189.292 23.5784C188.906 23.1866 188.712 22.6775 188.712 22.1293V9.3223C188.712 8.73485 188.906 8.22571 189.331 7.83417C189.718 7.44236 190.221 7.24646 190.762 7.24646H199.274C199.816 7.24646 200.319 7.44236 200.706 7.79489C201.093 8.18669 201.286 8.65654 201.286 9.24399C201.286 9.79214 201.093 10.3015 200.667 10.6541C200.28 11.0063 199.816 11.1632 199.274 11.1632H192.775V13.6306H197.108C197.649 13.6306 198.152 13.8262 198.5 14.1787C198.887 14.5703 199.12 15.0404 199.12 15.5886C199.12 16.137 198.926 16.6461 198.5 16.9986C198.114 17.3512 197.649 17.5468 197.108 17.5468H192.736V20.1711H199.236C199.778 20.1711 200.28 20.3667 200.628 20.6802C201.016 21.0324 201.248 21.5418 201.248 22.09C201.248 22.6384 201.054 23.1476 200.667 23.5391C200.28 23.8916 199.816 24.0873 199.235 24.0873H190.724V24.1658ZM14.5815 24.3617C13.1888 24.3617 11.912 24.0482 10.7513 23.3825C9.55187 22.7167 8.70065 21.8161 8.2365 20.6802C8.12033 20.406 8.04297 20.1318 8.04297 19.8968C8.04297 19.427 8.19769 18.9962 8.54594 18.6436C8.81682 18.3694 9.20362 18.1342 9.62923 18.0559C9.7454 18.0169 9.90012 18.0169 10.0548 18.0169C10.4804 18.0169 10.8672 18.1342 11.2155 18.3694C11.5637 18.6044 11.8346 18.9179 11.9893 19.3094C12.1055 19.5443 12.4149 19.8185 12.8406 20.0535C13.3435 20.3277 13.9238 20.445 14.5815 20.445C15.3168 20.445 15.9357 20.2884 16.4001 19.9751C16.7481 19.7402 16.9031 19.466 16.9031 19.0745C16.9031 18.6436 16.7481 18.3301 16.4001 18.0169C16.0131 17.6644 15.3942 17.4295 14.4656 17.3512C12.6858 17.1945 11.2543 16.6461 10.2096 15.7452C9.08771 14.7662 8.50712 13.5523 8.50712 12.0639C8.50712 11.0063 8.81682 10.1056 9.43596 9.3223C10.0163 8.57823 10.7899 8.02981 11.7573 7.63827C12.6858 7.28575 13.6918 7.08984 14.8139 7.08984C16.0904 7.08984 17.174 7.36406 18.0637 7.91248C18.9535 8.42162 19.6888 9.2047 20.3077 10.1447C20.5786 10.5365 20.6947 10.9673 20.6947 11.3981C20.6947 12.0246 20.385 12.573 19.8821 12.9646C19.5338 13.1998 19.1856 13.2781 18.7988 13.2781C18.412 13.2781 18.0637 13.1998 17.7543 13.0038C17.4061 12.8079 17.174 12.5337 16.9805 12.1812C16.7481 11.7897 16.4775 11.5155 16.0904 11.3198C15.7422 11.1239 15.278 11.0063 14.6977 11.0063C13.9624 11.0063 13.3435 11.1239 12.9179 11.3981C12.647 11.5938 12.5311 11.7897 12.5311 12.1029C12.5311 12.4554 12.647 12.6903 12.9567 12.9255C13.15 13.0822 13.7303 13.3954 15.2007 13.5523C16.9416 13.7089 18.2958 14.2963 19.3018 15.197C20.3465 16.1763 20.888 17.4295 20.888 18.9962C20.888 20.1318 20.5786 21.15 19.9209 21.9727C19.3018 22.795 18.4894 23.3825 17.522 23.774C16.6322 24.1658 15.6263 24.3617 14.5815 24.3617ZM54.5631 24.3617C53.0154 24.3617 51.6226 23.9699 50.3458 23.2259C49.0693 22.4818 48.0631 21.4243 47.328 20.0927C46.593 18.761 46.2447 17.3119 46.2447 15.7452C46.2447 14.1787 46.6315 12.7296 47.328 11.3981C48.0631 10.1056 49.0693 9.04808 50.3458 8.265C51.6226 7.48165 53.0542 7.08984 54.5631 7.08984C55.6464 7.08984 56.5749 7.24646 57.3876 7.52067C58.2 7.79489 59.0124 8.30402 59.8248 8.93076C60.0957 9.12639 60.328 9.4006 60.444 9.67482C60.5601 9.90974 60.5987 10.223 60.5987 10.4972C60.5987 11.0456 60.3666 11.5547 59.9798 11.9073C59.5927 12.2595 59.1286 12.4164 58.6642 12.4164C58.1612 12.4164 57.7356 12.2598 57.3488 11.9463C56.9232 11.5547 56.4976 11.3198 56.1108 11.1632C55.7625 11.0063 55.2208 10.928 54.6019 10.928C53.828 10.928 53.1315 11.1239 52.435 11.5547C51.7774 11.9856 51.2356 12.5337 50.8488 13.2781C50.462 14.0221 50.2685 14.8055 50.2685 15.6669C50.2685 16.5288 50.462 17.3512 50.8488 18.0559C51.2356 18.7612 51.7774 19.3487 52.435 19.7792C53.0927 20.2101 53.7892 20.406 54.6019 20.406C55.569 20.406 56.4976 20.0535 57.4262 19.3877C57.8518 19.1135 58.2386 18.9569 58.6642 18.9569C59.2059 18.9569 59.6701 19.1528 60.0183 19.5443C60.3666 19.8968 60.5213 20.406 60.5213 20.9541C60.5213 21.5026 60.328 22.0117 59.9024 22.4035L59.8248 22.4425C58.2774 23.735 56.4976 24.3617 54.5631 24.3617ZM130.436 11.0063C129.546 11.0063 128.772 11.2022 128.076 11.6331C127.38 12.0246 126.877 12.612 126.49 13.3171C126.103 14.0221 125.909 14.8445 125.909 15.7452C125.909 16.6461 126.103 17.4685 126.49 18.1735C126.877 18.8786 127.418 19.427 128.115 19.8576C128.811 20.2494 129.585 20.4843 130.475 20.4843C131.365 20.4843 132.138 20.2884 132.835 19.8576C133.531 19.427 134.073 18.8786 134.46 18.1735C134.847 17.4685 135.04 16.6461 135.04 15.7452C135.04 14.8445 134.847 14.0221 134.46 13.3171C134.073 12.612 133.531 12.0639 132.873 11.6331C132.138 11.2022 131.326 11.0063 130.436 11.0063ZM130.436 24.3617C128.811 24.3617 127.302 24.009 126.025 23.2649C124.71 22.5208 123.704 21.4635 122.969 20.1711C122.272 18.8786 121.886 17.3902 121.886 15.7452C121.886 14.1004 122.234 12.612 122.969 11.3198C123.704 9.98805 124.71 8.96978 126.025 8.22571C127.302 7.48165 128.811 7.12913 130.436 7.12913C132.061 7.12913 133.531 7.48165 134.808 8.22571C136.124 8.96978 137.129 9.98805 137.865 11.3198C138.6 12.612 138.948 14.1004 138.948 15.7452C138.948 17.3902 138.6 18.8786 137.865 20.1711C137.129 21.5026 136.124 22.5208 134.808 23.2649C133.57 24.009 132.1 24.3617 130.436 24.3617ZM148.388 11.0063C147.498 11.0063 146.725 11.2022 146.028 11.6331C145.332 12.0246 144.829 12.612 144.442 13.3171C144.055 14.0221 143.862 14.8445 143.862 15.7452C143.862 16.6461 144.055 17.4685 144.442 18.1735C144.829 18.8786 145.371 19.427 146.067 19.8576C146.763 20.2494 147.537 20.4843 148.427 20.4843C149.317 20.4843 150.091 20.2884 150.787 19.8576C151.483 19.427 152.025 18.8786 152.412 18.1735C152.799 17.4685 152.992 16.6461 152.992 15.7452C152.992 14.8445 152.799 14.0221 152.412 13.3171C152.025 12.612 151.483 12.0639 150.826 11.6331C150.052 11.2022 149.278 11.0063 148.388 11.0063ZM148.388 24.3617C146.763 24.3617 145.254 24.009 143.978 23.2649C142.662 22.5208 141.656 21.4635 140.921 20.1711C140.225 18.8786 139.838 17.3902 139.838 15.7452C139.838 14.1004 140.186 12.612 140.921 11.3198C141.656 9.98805 142.662 8.96978 143.978 8.22571C145.254 7.48165 146.763 7.12913 148.388 7.12913C150.013 7.12913 151.483 7.48165 152.76 8.22571C154.076 8.96978 155.082 9.98805 155.817 11.3198C156.552 12.612 156.9 14.1004 156.9 15.7452C156.9 17.3902 156.552 18.8786 155.817 20.1711C155.082 21.5026 154.076 22.5208 152.76 23.2649C151.483 24.009 150.013 24.3617 148.388 24.3617Z" fill="white"/>
<path fill-rule="evenodd" clip-rule="evenodd" d="M110.656 11.5973H111.585C112.359 11.5973 113.055 11.7542 113.636 12.1065C114.216 12.459 114.68 12.9291 114.99 13.5165C115.338 14.143 115.493 14.8873 115.493 15.7097C115.493 16.5321 115.338 17.2764 114.99 17.9422C114.642 18.5686 114.216 19.0387 113.636 19.352C113.055 19.7045 112.359 19.8611 111.585 19.8611H110.656V11.5973ZM120.326 15.3182C120.287 13.7905 120.019 12.42 119.323 11.1665C118.588 9.79571 117.504 8.73815 116.189 7.95506C114.874 7.211 113.326 6.81919 111.662 6.81919H108.18C107.522 6.81919 106.904 7.05439 106.439 7.52424C105.975 7.99408 105.704 8.62082 105.704 9.32586V22.1326C105.704 22.7986 105.975 23.4251 106.439 23.8952C106.904 24.365 107.522 24.6 108.18 24.6H111.585C113.249 24.6 114.796 24.2084 116.112 23.4644C117.466 22.681 118.511 21.6234 119.246 20.2529C119.903 19.0387 120.29 17.6289 120.329 16.1013L120.326 15.3182ZM109.767 20.7621H111.585C112.514 20.7621 113.365 20.5662 114.061 20.1353C114.796 19.7045 115.338 19.1171 115.763 18.373C116.189 17.5896 116.383 16.728 116.383 15.7487C116.383 14.7697 116.189 13.9081 115.763 13.1247C115.338 12.3807 114.796 11.7932 114.061 11.3624C113.326 10.9316 112.514 10.7357 111.585 10.7357H109.767V20.7621ZM111.585 7.72014C113.094 7.72014 114.487 8.07239 115.686 8.73814C116.886 9.44346 117.853 10.3832 118.51 11.5973C119.168 12.8115 119.517 14.1823 119.517 15.7097C119.517 17.2371 119.168 18.6079 118.51 19.8218C117.853 21.036 116.886 22.0153 115.686 22.681C114.487 23.3468 113.132 23.6993 111.585 23.6993H108.18C107.755 23.6993 107.368 23.5427 107.058 23.2294C106.749 22.9159 106.594 22.5244 106.594 22.0936V9.28657C106.594 8.81672 106.749 8.42491 107.058 8.15097C107.368 7.83747 107.755 7.72014 108.18 7.72014H111.585ZM199.235 6.85606H190.723C190.066 6.85606 189.447 7.09099 188.982 7.5611C188.518 8.03095 188.247 8.65768 188.247 9.36273V22.1695C188.247 22.8352 188.518 23.4619 188.982 23.9318C189.447 24.4019 190.066 24.6368 190.723 24.6368H199.235C199.893 24.6368 200.512 24.4019 200.976 23.9711C201.44 23.5402 201.712 22.9138 201.712 22.2087C201.712 21.5427 201.44 20.9163 200.976 20.4461C200.512 20.0156 199.932 19.8197 199.274 19.8197H193.238V18.0964H197.107C197.765 18.0964 198.345 17.8614 198.81 17.4306C199.313 16.9605 199.545 16.373 199.545 15.668C199.545 15.0022 199.274 14.3758 198.81 13.9057C198.345 13.4751 197.765 13.2399 197.107 13.2399H193.199V11.6342H199.235C199.893 11.6342 200.473 11.3993 200.938 11.0075C201.402 10.5769 201.673 9.95017 201.673 9.24513C201.673 8.57938 201.402 7.95264 200.938 7.48253C200.512 7.09099 199.893 6.85606 199.235 6.85606ZM35.3784 6.85606C34.7207 6.85606 34.1016 7.09099 33.6375 7.5611C33.173 8.03095 32.9021 8.65768 32.9021 9.36273V15.2374L27.3695 7.83532L27.331 7.79603C27.0986 7.5611 26.8666 7.3652 26.5571 7.20858C26.2089 7.05197 25.8606 6.93437 25.4738 6.93437C24.8159 6.93437 24.197 7.16929 23.7329 7.63941C23.2684 8.10926 23.0364 8.73599 23.0364 9.40175V22.2087C23.0364 22.8745 23.307 23.5402 23.7329 23.9711C24.197 24.4412 24.7773 24.6761 25.4738 24.6761C26.1701 24.6761 26.7892 24.4019 27.2536 23.9318C27.7178 23.4619 27.9498 22.8745 27.9498 22.1695V16.2947L33.4825 23.6578C33.7148 24.0101 34.0628 24.2843 34.4884 24.4412C34.7981 24.5585 35.1464 24.6368 35.4558 24.6368C36.1135 24.6368 36.7326 24.4019 37.1968 23.9318C37.6612 23.4619 37.8933 22.8352 37.8933 22.1695V9.36273C37.8933 8.65768 37.6612 8.07024 37.1968 7.60012C36.6553 7.09099 36.0361 6.85606 35.3784 6.85606ZM42.0332 6.85606C41.3755 6.85606 40.7563 7.09099 40.2922 7.5611C39.8278 8.03095 39.5569 8.65768 39.5569 9.36273V22.1695C39.5569 22.8352 39.8278 23.4619 40.2922 23.9318C40.7563 24.4019 41.3755 24.6368 42.0332 24.6368C42.7294 24.6368 43.3485 24.3629 43.813 23.8928C44.2771 23.4226 44.5092 22.8352 44.5092 22.1304V9.32344C44.5092 8.6184 44.2771 8.03095 43.813 7.5611C43.3485 7.09099 42.7294 6.85606 42.0332 6.85606ZM73.2319 6.85606C72.8451 6.85606 72.4969 6.93437 72.1875 7.09099C71.9163 7.20858 71.6457 7.40422 71.3748 7.67843L67.6605 11.3993V9.32344C67.6605 8.65768 67.3899 8.03095 66.9255 7.5611C66.461 7.09099 65.8422 6.85606 65.1845 6.85606C64.5268 6.85606 63.9465 7.09099 63.4821 7.5611C63.0176 8.03095 62.747 8.65768 62.747 9.32344V22.1304C62.747 22.7962 63.0176 23.4619 63.4821 23.8928C63.9465 24.3629 64.5653 24.5978 65.1845 24.5978C65.8422 24.5978 66.461 24.3236 66.9255 23.8928C67.3899 23.4226 67.6605 22.7962 67.6605 22.1304V18.919L71.0654 23.5795C71.5295 24.2453 72.2648 24.6368 73.0772 24.6368C73.7737 24.6368 74.3926 24.3236 74.8182 23.8145C75.2053 23.3443 75.3988 22.7962 75.3988 22.1695C75.3988 21.6213 75.2438 21.1119 74.9344 20.6813L70.7945 15.0022L74.702 11.0858C75.2053 10.5769 75.5147 9.91088 75.5147 9.16682C75.5147 8.57938 75.3212 7.99193 74.8956 7.56083C74.5088 7.09098 73.8896 6.85606 73.2319 6.85606ZM176.742 6.85606C176.084 6.85606 175.465 7.13027 175.001 7.5611C174.536 8.03095 174.265 8.65768 174.265 9.32344V22.1304C174.265 22.7962 174.498 23.4226 174.962 23.8928C175.426 24.3629 176.045 24.6368 176.703 24.6368H184.519C185.176 24.6368 185.795 24.3629 186.259 23.9318C186.724 23.4619 186.995 22.8352 186.995 22.1695C186.995 21.5037 186.724 20.877 186.259 20.4071C185.795 19.937 185.176 19.7021 184.519 19.7021H179.179V9.36273C179.179 8.6967 178.908 8.07024 178.444 7.60012C178.018 7.09099 177.399 6.85606 176.742 6.85606ZM87.9161 6.85606H79.4042C78.7465 6.85606 78.1276 7.09099 77.6632 7.5611C77.1991 8.03095 76.9282 8.65768 76.9282 9.36273V22.1695C76.9282 22.8352 77.1991 23.4619 77.6632 23.9318C78.1276 24.4019 78.7465 24.6368 79.4042 24.6368H87.9161C88.574 24.6368 89.1929 24.4019 89.6573 23.9711C90.1215 23.5402 90.3923 22.9138 90.3923 22.2087C90.3923 21.5427 90.1215 20.9163 89.6573 20.4461C89.1929 20.0156 88.6125 19.8197 87.9549 19.8197H81.919V18.0964H85.8268C86.4845 18.0964 87.0648 17.8614 87.5293 17.4306C87.9937 16.9605 88.2643 16.373 88.2643 15.668C88.2643 15.0022 87.9937 14.3758 87.5293 13.9057C87.0648 13.4751 86.4845 13.2399 85.8268 13.2399H81.919V11.6342H87.9549C88.6125 11.6342 89.1929 11.3993 89.6573 11.0075C90.1215 10.5769 90.3923 9.95017 90.3923 9.24513C90.3923 8.57938 90.1215 7.95264 89.6573 7.48253C89.1929 7.09099 88.574 6.85606 87.9161 6.85606ZM96.6807 11.6732H97.6093C98.0735 11.6732 98.4217 11.7908 98.6926 12.065C98.9635 12.2999 99.0409 12.6132 99.0409 13.005C99.0409 13.3575 98.9635 13.5534 98.7314 13.7491C98.4605 13.984 98.0735 14.1016 97.6093 14.1016H96.6807V11.6732ZM97.6093 6.85606H94.2045C93.5468 6.85606 92.9279 7.09099 92.4635 7.5611C91.9991 8.03095 91.7284 8.65768 91.7284 9.36273V22.1695C91.7284 22.8352 91.9991 23.4619 92.4635 23.9318C92.9279 24.4019 93.5468 24.6368 94.2045 24.6368C94.901 24.6368 95.5201 24.3629 95.9843 23.8928C96.4487 23.4226 96.6807 22.8352 96.6807 22.1304V18.919H97.1064L99.9306 23.4619C100.395 24.206 101.169 24.6368 102.02 24.6368C102.871 24.6368 103.451 24.2453 103.761 23.9318C104.225 23.5012 104.457 22.8745 104.457 22.2478C104.457 21.7389 104.303 21.2688 104.032 20.8379L101.942 17.4306C102.33 17.0781 102.716 16.6865 102.987 16.2164C103.606 15.2765 103.916 14.1799 103.916 13.005C103.916 11.8301 103.645 10.7725 103.103 9.83257C102.562 8.89261 101.788 8.14855 100.782 7.60012C99.8147 7.09099 98.77 6.85606 97.6093 6.85606ZM163.322 11.5949H164.251C165.025 11.5949 165.721 11.7518 166.301 12.104C166.882 12.4566 167.307 12.8874 167.656 13.5141C168.004 14.1409 168.159 14.8849 168.159 15.7073C168.159 16.5299 168.004 17.274 167.656 17.9397C167.307 18.5662 166.882 19.0363 166.301 19.3498C165.721 19.7021 165.025 19.8587 164.251 19.8587H163.322V11.5949ZM164.251 6.85606H160.846C160.188 6.85606 159.569 7.09099 159.105 7.5611C158.641 8.03095 158.37 8.65768 158.37 9.36273V22.1695C158.37 22.8352 158.641 23.4619 159.105 23.9318C159.569 24.4019 160.188 24.6368 160.846 24.6368H164.251C165.915 24.6368 167.462 24.2453 168.778 23.5012C170.132 22.7179 171.176 21.6603 171.911 20.2895C172.647 18.958 173.033 17.4306 173.033 15.7463C173.033 14.0626 172.647 12.5349 171.911 11.2034C171.176 9.83257 170.093 8.77528 168.778 7.99193C167.462 7.20858 165.915 6.85606 164.251 6.85606ZM14.8134 6.66016C13.6528 6.66016 12.5692 6.85606 11.6021 7.20858C10.5574 7.60012 9.70616 8.22686 9.08729 9.01021C8.4296 9.87159 8.08136 10.8901 8.08136 12.0257C8.08136 13.5924 8.73904 15.0022 9.93824 16.0205C11.0603 16.9998 12.5692 17.5479 14.4264 17.7438C15.4323 17.8614 15.8967 18.0964 16.09 18.2923C16.3223 18.5272 16.4385 18.7228 16.4385 19.0363C16.4385 19.2712 16.3997 19.3888 16.1288 19.5847C15.7418 19.8587 15.2002 19.9763 14.5426 19.9763C13.9622 19.9763 13.4593 19.8587 12.9948 19.6238C12.4919 19.3496 12.376 19.1539 12.3372 19.0756C12.1436 18.6055 11.8342 18.253 11.4086 17.9397C10.983 17.6655 10.5186 17.5089 10.0159 17.5089C9.82233 17.5089 9.6288 17.5479 9.47408 17.5872C8.97112 17.7048 8.54551 17.9397 8.19726 18.2923C7.81047 18.7228 7.57812 19.2712 7.57812 19.8197C7.57812 20.1329 7.65575 20.4461 7.77166 20.7987C8.27489 22.0128 9.20319 22.9921 10.48 23.6969C11.6795 24.3629 13.0722 24.7151 14.5037 24.7151C15.6258 24.7151 16.6706 24.5195 17.6765 24.1277C18.721 23.6969 19.611 23.0704 20.2687 22.1695C20.9649 21.2688 21.3132 20.1722 21.3132 18.919C21.3132 17.2347 20.7329 15.8639 19.5722 14.8066C18.4889 13.8274 17.0574 13.2399 15.2002 13.044C13.6913 12.8874 13.2657 12.5742 13.1884 12.4959C12.9563 12.2999 12.9175 12.1824 12.9175 11.9867C12.9175 11.7908 12.9563 11.7518 13.111 11.6342C13.4593 11.3993 14.0008 11.321 14.6587 11.321C15.1614 11.321 15.587 11.3993 15.8579 11.5559C16.1288 11.7125 16.3609 11.9474 16.5932 12.2999C16.8253 12.6915 17.1347 13.005 17.5215 13.2399C17.9086 13.4748 18.3342 13.5924 18.7984 13.5924C19.2628 13.5924 19.7269 13.4748 20.114 13.2006C20.7717 12.7308 21.1199 12.065 21.1199 11.2817C21.1199 10.7725 20.9649 10.2634 20.6555 9.79328C19.9978 8.77501 19.224 7.99193 18.2568 7.40422C17.3668 6.97366 16.1676 6.66016 14.8134 6.66016ZM54.5626 6.66016C52.9376 6.66016 51.4675 7.09099 50.1133 7.87433C48.7979 8.6967 47.7144 9.79328 46.9408 11.1643C46.1669 12.5349 45.7802 14.0623 45.7802 15.7073C45.7802 17.3523 46.1669 18.8797 46.9408 20.2895C47.7144 21.6603 48.7591 22.7962 50.1133 23.5795C51.4675 24.4019 52.9376 24.7937 54.5626 24.7937C56.6133 24.7937 58.4705 24.1277 60.0953 22.8352H60.1341L60.1726 22.7962L60.2114 22.7569L60.25 22.7179C60.7144 22.2478 60.9853 21.6213 60.9853 20.9553C60.9853 20.2895 60.753 19.7021 60.3662 19.2712C59.9406 18.8014 59.3217 18.5272 58.7025 18.5272C58.1996 18.5272 57.6966 18.6838 57.1937 19.0363C56.3424 19.6631 55.4912 19.9763 54.6015 19.9763C53.905 19.9763 53.2858 19.8197 52.667 19.4281C52.0478 19.0363 51.5837 18.5272 51.2354 17.8614C50.8872 17.1957 50.6936 16.4516 50.6936 15.668C50.6936 14.8849 50.8872 14.1409 51.2354 13.4748C51.5837 12.8091 52.0866 12.2999 52.667 11.9084C53.2473 11.5559 53.8664 11.36 54.6015 11.36C55.3365 11.36 55.7233 11.4776 55.9554 11.5559C56.3036 11.6732 56.6519 11.9474 57.0775 12.2607C57.5419 12.6525 58.1222 12.8481 58.7025 12.8481C59.3217 12.8481 59.8632 12.6132 60.3276 12.2216C60.8306 11.7908 61.1012 11.1643 61.1012 10.4593C61.1012 10.1068 61.0239 9.75427 60.9079 9.44103C60.753 9.08851 60.4823 8.73599 60.1726 8.50107C59.3217 7.83532 58.4702 7.32591 57.6193 7.01268C56.6907 6.81677 55.6848 6.66016 54.5626 6.66016ZM199.235 7.71772C199.699 7.71772 200.087 7.87433 200.357 8.14855C200.667 8.42276 200.822 8.8143 200.822 9.28415C200.822 9.71498 200.667 10.1068 200.357 10.3807C200.048 10.6552 199.699 10.7725 199.235 10.7725H192.31V14.1409H197.107C197.533 14.1409 197.92 14.2975 198.229 14.5714C198.539 14.8456 198.694 15.2374 198.694 15.668C198.694 16.0991 198.539 16.4906 198.229 16.7649C197.92 17.0391 197.533 17.1957 197.107 17.1957H192.31V20.6813H199.235C199.699 20.6813 200.048 20.8379 200.357 21.0729C200.667 21.3471 200.822 21.7389 200.822 22.1695C200.822 22.6003 200.667 22.9921 200.357 23.3053C200.048 23.5795 199.661 23.7362 199.235 23.7362H190.723C190.298 23.7362 189.911 23.5795 189.601 23.266C189.292 22.9528 189.137 22.5613 189.137 22.1304V9.32344C189.137 8.85359 189.292 8.46178 189.601 8.18784C189.911 7.87433 190.298 7.75701 190.723 7.75701L199.235 7.71772ZM35.3784 7.71772C35.804 7.71772 36.1908 7.87433 36.5005 8.18784C36.81 8.50107 36.9647 8.89261 36.9647 9.32344V22.1304C36.9647 22.6003 36.81 22.9921 36.5005 23.266C36.1908 23.5795 35.804 23.7362 35.3784 23.7362C35.1464 23.7362 34.9528 23.6969 34.7207 23.6186C34.4499 23.501 34.2563 23.3443 34.1016 23.1487L27.0213 13.6707V22.1304C27.0213 22.5613 26.8666 22.9528 26.5571 23.266C26.2474 23.5795 25.8606 23.7362 25.3965 23.7362C24.9709 23.7362 24.5838 23.5795 24.2744 23.266C23.9649 22.9528 23.8102 22.5613 23.8102 22.1304V9.32344C23.8102 8.85359 23.9649 8.46178 24.2744 8.18784C24.5838 7.87433 24.9709 7.71772 25.3965 7.71772C25.6285 7.71772 25.8606 7.75701 26.0927 7.87433C26.2862 7.99193 26.4798 8.10926 26.6345 8.26614L26.6733 8.30516L33.7922 17.7831V9.28415C33.7922 8.8143 33.9469 8.42276 34.2563 8.14855C34.5658 7.87433 34.9528 7.71772 35.3784 7.71772ZM42.0332 7.71772C42.4973 7.71772 42.8844 7.87433 43.1938 8.18784C43.5035 8.50107 43.6582 8.89261 43.6582 9.32344V22.1304C43.6582 22.5613 43.5035 22.9528 43.1938 23.266C42.8844 23.5795 42.4973 23.7362 42.0332 23.7362C41.6076 23.7362 41.2208 23.5795 40.9111 23.266C40.6016 22.9528 40.4469 22.5613 40.4469 22.1304V9.32344C40.4469 8.85359 40.6016 8.46178 40.9111 8.18784C41.2208 7.87433 41.6076 7.71772 42.0332 7.71772ZM73.2319 7.71772C73.7737 7.71772 74.1217 7.95264 74.3152 8.14855C74.5473 8.42276 74.702 8.77528 74.702 9.12753C74.702 9.59765 74.5088 10.0675 74.1605 10.42L69.7112 14.9239L74.3152 21.1905C74.5088 21.4644 74.6247 21.8172 74.6247 22.1695C74.6247 22.5613 74.5088 22.9135 74.2379 23.227C73.967 23.5795 73.5802 23.7362 73.1546 23.7362C72.6131 23.7362 72.1487 23.501 71.839 23.0311L67.5058 17.1564L66.8481 17.8221V22.1304C66.8481 22.5613 66.6934 22.9528 66.3837 23.266C66.0742 23.5795 65.6875 23.7362 65.2618 23.7362C64.8362 23.7362 64.4494 23.5795 64.1397 23.266C63.83 22.9528 63.6753 22.5613 63.6753 22.1304V9.32344C63.6753 8.89261 63.83 8.50107 64.1397 8.18784C64.4492 7.87433 64.8362 7.71772 65.2618 7.71772C65.6875 7.71772 66.0742 7.87433 66.3837 8.18784C66.6934 8.50107 66.8481 8.89261 66.8481 9.32344V13.5141L72.0325 8.30516C72.226 8.10926 72.4195 7.95264 72.6131 7.87433C72.7678 7.75701 72.9999 7.71772 73.2319 7.71772ZM176.742 7.71772C177.167 7.71772 177.554 7.87433 177.864 8.18784C178.173 8.50107 178.328 8.89261 178.328 9.32344V20.5244H184.519C184.944 20.5244 185.331 20.6813 185.64 20.9946C185.95 21.3078 186.105 21.6996 186.105 22.1304C186.105 22.5613 185.95 22.9528 185.64 23.266C185.331 23.5795 184.944 23.7362 184.519 23.7362H176.703C176.278 23.7362 175.852 23.5795 175.581 23.266C175.272 22.9528 175.117 22.5613 175.117 22.1304V9.32344C175.117 8.89261 175.272 8.50107 175.581 8.18784C175.929 7.87433 176.316 7.71772 176.742 7.71772ZM87.9161 7.71772C88.3805 7.71772 88.7673 7.87433 89.0382 8.14855C89.3476 8.42276 89.5023 8.8143 89.5023 9.28415C89.5023 9.71498 89.3476 10.1068 89.0382 10.3807C88.7287 10.6552 88.3805 10.7725 87.9161 10.7725H80.9907V14.1409H85.7883C86.2139 14.1409 86.6007 14.2975 86.9101 14.5714C87.2196 14.8456 87.3745 15.2374 87.3745 15.668C87.3745 16.0991 87.2196 16.4906 86.9101 16.7649C86.6007 17.0391 86.2139 17.1957 85.7883 17.1957H80.9907V20.6813H87.9161C88.3417 20.6813 88.7287 20.8379 89.0382 21.0729C89.3476 21.3471 89.5023 21.7389 89.5023 22.1695C89.5023 22.6003 89.3476 22.9921 89.0382 23.3053C88.7673 23.5795 88.3417 23.7362 87.9161 23.7362H79.4042C78.9786 23.7362 78.5918 23.5795 78.2823 23.266C77.9729 22.9528 77.8179 22.5613 77.8179 22.1304V9.32344C77.8179 8.85359 77.9729 8.46178 78.2823 8.18784C78.5918 7.87433 78.9786 7.75701 79.4042 7.75701L87.9161 7.71772ZM95.791 15.0022H97.5705C98.267 15.0022 98.8473 14.8066 99.2729 14.4148C99.6985 14.0626 99.8921 13.5924 99.8921 13.005C99.8921 12.3392 99.6985 11.8301 99.2729 11.3993C98.8473 10.9684 98.267 10.7725 97.5705 10.7725H95.791V15.0022ZM97.6093 7.71772C98.6541 7.71772 99.5824 7.95264 100.395 8.38347C101.246 8.8143 101.904 9.48005 102.368 10.2634C102.833 11.0468 103.065 11.9867 103.065 13.005C103.065 14.0233 102.794 14.9239 102.291 15.7463C101.904 16.334 101.401 16.8432 100.782 17.1957L103.335 21.3078C103.529 21.6213 103.606 21.9345 103.606 22.2478C103.606 22.6786 103.451 23.0311 103.18 23.3053C102.987 23.501 102.639 23.7362 102.059 23.7362C101.478 23.7362 101.014 23.4619 100.704 22.9921L97.6479 18.0571H95.8683V22.1304C95.8683 22.5613 95.7134 22.9528 95.4039 23.266C95.0942 23.5795 94.7074 23.7362 94.2433 23.7362C93.8177 23.7362 93.4309 23.5795 93.1212 23.266C92.8117 22.9528 92.657 22.5613 92.657 22.1304V9.32344C92.657 8.85359 92.8117 8.46178 93.1212 8.18784C93.4306 7.87433 93.8177 7.75701 94.2433 7.75701L97.6093 7.71772ZM162.432 20.7596H164.251C165.179 20.7596 166.031 20.5637 166.727 20.1329C167.462 19.7021 168.004 19.1146 168.429 18.3706C168.855 17.5872 169.048 16.7256 169.048 15.7463C169.048 14.7673 168.855 13.9057 168.429 13.1223C168.004 12.3783 167.462 11.7908 166.727 11.36C165.992 10.9292 165.179 10.7335 164.251 10.7335H162.432V20.7596ZM164.251 7.71772C165.76 7.71772 167.153 8.07024 168.352 8.73599C169.551 9.44103 170.519 10.3807 171.176 11.5949C171.834 12.8091 172.182 14.1799 172.182 15.7073C172.182 17.2347 171.834 18.6055 171.176 19.8197C170.519 21.0336 169.551 22.0128 168.352 22.6786C167.153 23.3443 165.798 23.6969 164.251 23.6969H160.846C160.421 23.6969 160.034 23.5402 159.724 23.227C159.415 22.9138 159.26 22.522 159.26 22.0911V9.28442C159.26 8.8143 159.415 8.42276 159.724 8.14855C160.034 7.83532 160.421 7.71772 160.846 7.71772H164.251ZM14.8134 7.5611C16.0126 7.5611 17.0188 7.79603 17.8698 8.30516C18.6822 8.8143 19.379 9.51934 19.9593 10.3807C20.1914 10.7335 20.2687 11.0468 20.2687 11.3993C20.2687 11.8691 20.0366 12.2999 19.611 12.5742C19.3401 12.7308 19.0693 12.8091 18.7595 12.8091C18.4501 12.8091 18.1792 12.7308 17.9086 12.5742C17.6377 12.4175 17.4442 12.2216 17.2895 11.9474C17.0186 11.4776 16.6706 11.1251 16.245 10.8901C15.8191 10.6552 15.2776 10.5376 14.6199 10.5376C13.7687 10.5376 13.111 10.6942 12.6466 11.0075C12.221 11.2817 12.0663 11.5949 12.0663 12.104C12.0663 12.5742 12.2598 12.9657 12.6466 13.2792C12.956 13.5141 13.614 13.8666 15.1229 14.0233C16.748 14.1799 18.0633 14.689 18.9919 15.5507C19.959 16.4516 20.4234 17.5872 20.4234 19.0363C20.4234 20.0939 20.1525 20.9946 19.5722 21.7386C19.0307 22.483 18.2566 23.0311 17.3668 23.3836C16.4771 23.7362 15.5485 23.8928 14.5426 23.8928C13.2269 23.8928 11.9889 23.5795 10.9056 22.9921C9.78352 22.3654 9.00993 21.5427 8.58432 20.5244C8.50696 20.2895 8.4296 20.0939 8.4296 19.898C8.4296 19.5455 8.54551 19.2322 8.8164 18.958C9.04848 18.7228 9.31937 18.5662 9.66761 18.4879C9.74497 18.4489 9.86088 18.4489 10.0156 18.4489C10.3253 18.4489 10.6347 18.5272 10.9444 18.7228C11.2151 18.919 11.4474 19.1539 11.5633 19.4672C11.718 19.8197 12.0663 20.1329 12.6081 20.4071C13.1884 20.7203 13.8461 20.8379 14.5426 20.8379C15.355 20.8379 16.0515 20.642 16.5932 20.2895C17.0574 19.9763 17.2895 19.5455 17.2895 19.0363C17.2895 18.4879 17.0959 18.0571 16.6706 17.6655C16.2062 17.2347 15.5097 16.9998 14.5037 16.8822C12.8401 16.7256 11.4859 16.2164 10.48 15.3548C9.43527 14.4541 8.93231 13.3575 8.93231 12.0257C8.93231 11.0858 9.20319 10.2634 9.74497 9.55836C10.2865 8.89261 10.983 8.38347 11.8727 8.03095C12.8013 7.71772 13.7687 7.5611 14.8134 7.5611ZM54.5626 7.52181C55.5686 7.52181 56.4972 7.67843 57.2325 7.95264C58.0061 8.22686 58.7799 8.6967 59.5152 9.28415C59.7473 9.44103 59.902 9.63667 59.9794 9.87159C60.0567 10.0675 60.0955 10.3024 60.0955 10.5376C60.0955 10.9684 59.9406 11.36 59.6311 11.6342C59.3217 11.9084 58.9734 12.0257 58.5864 12.0257C58.1996 12.0257 57.8513 11.9084 57.5419 11.6342C57.0775 11.2427 56.6133 10.9292 56.1877 10.7725C55.7621 10.6159 55.2203 10.5376 54.5241 10.5376C53.6729 10.5376 52.8602 10.7725 52.164 11.2034C51.429 11.6732 50.8484 12.2999 50.4227 13.0833C49.9971 13.8666 49.7651 14.7673 49.7651 15.7073C49.7651 16.6473 49.9971 17.5479 50.4227 18.3313C50.8484 19.1146 51.429 19.7414 52.164 20.2112C52.899 20.6813 53.6729 20.877 54.5241 20.877C55.6074 20.877 56.6133 20.5244 57.6193 19.7414C57.9675 19.5064 58.2769 19.3888 58.6252 19.3888C59.0508 19.3888 59.399 19.5455 59.6699 19.8587C59.9406 20.1329 60.0567 20.5244 60.0567 20.9553C60.0567 21.3861 59.902 21.7779 59.5926 22.0911L59.5538 22.1304L59.5152 22.1695C58.0449 23.3443 56.381 23.9711 54.5241 23.9711C53.0538 23.9711 51.7384 23.6186 50.5389 22.8745C49.3395 22.1695 48.3723 21.1512 47.6758 19.898C46.9793 18.6445 46.6311 17.274 46.6311 15.7463C46.6311 14.2582 46.9793 12.8874 47.6758 11.6342C48.3723 10.3807 49.3395 9.40175 50.5389 8.65768C51.7384 7.91362 53.0926 7.52181 54.5626 7.52181Z" fill="#232039"/>
<path fill-rule="evenodd" clip-rule="evenodd" d="M133.857 17.9412C133.508 18.6069 133.044 19.0771 132.425 19.4686C131.806 19.8211 131.11 19.9777 130.297 19.9777C129.523 19.9777 128.788 19.7818 128.169 19.4293C127.55 19.0378 127.086 18.5679 126.738 17.9019C126.389 17.2361 126.196 16.4921 126.196 15.6697C126.196 14.8471 126.389 14.103 126.738 13.4373C127.086 12.8105 127.55 12.3014 128.169 11.9489C128.788 11.5964 129.485 11.4007 130.297 11.4007C131.11 11.4007 131.806 11.5964 132.425 11.9489C133.044 12.3014 133.508 12.8105 133.857 13.4766C134.205 14.1423 134.398 14.8864 134.398 15.7087C134.398 16.5314 134.205 17.2754 133.857 17.9412ZM132.851 11.2048C132.116 10.774 131.226 10.5391 130.258 10.5391C129.291 10.5391 128.44 10.774 127.666 11.2048C126.931 11.6356 126.312 12.2621 125.886 13.0457C125.461 13.8288 125.229 14.7295 125.229 15.7087C125.229 16.688 125.461 17.5887 125.886 18.372C126.312 19.1554 126.892 19.7818 127.666 20.2127C128.517 20.6435 129.369 20.8787 130.297 20.8787C131.264 20.8787 132.116 20.6435 132.851 20.2127C133.624 19.7428 134.205 19.1554 134.63 18.372C135.056 17.5887 135.288 16.688 135.288 15.7087C135.288 14.7295 135.056 13.8288 134.63 13.0457C134.205 12.2621 133.624 11.6356 132.851 11.2048Z" fill="#232039"/>
<path fill-rule="evenodd" clip-rule="evenodd" d="M137.379 19.9372C136.682 21.1904 135.715 22.1694 134.477 22.8745C133.278 23.5795 131.846 23.932 130.299 23.932C128.751 23.932 127.32 23.5795 126.12 22.8745C124.882 22.1694 123.915 21.1904 123.218 19.9372C122.561 18.6838 122.212 17.2739 122.212 15.7072C122.212 14.1405 122.561 12.7307 123.218 11.4775C123.915 10.2243 124.882 9.24509 126.12 8.54004C127.358 7.83527 128.751 7.48275 130.299 7.48275C131.846 7.48275 133.239 7.83527 134.477 8.54004C135.715 9.24509 136.682 10.2243 137.379 11.4775C138.075 12.7307 138.424 14.1405 138.424 15.7072C138.424 17.2739 138.075 18.6838 137.379 19.9372ZM138.119 11.0346C137.349 9.64981 136.281 8.56803 134.913 7.78926C133.545 7.01048 132.006 6.62109 130.297 6.62109C128.587 6.62109 127.048 7.01048 125.68 7.78926C124.313 8.56803 123.244 9.64981 122.475 11.0346C121.748 12.4191 121.363 13.9767 121.363 15.7072C121.363 17.4381 121.748 18.9956 122.475 20.3802C123.244 21.765 124.313 22.8467 125.68 23.6255C127.005 24.4043 128.587 24.7937 130.297 24.7937C132.006 24.7937 133.588 24.4043 134.913 23.6255C136.281 22.8467 137.349 21.765 138.119 20.3802C138.888 18.9956 139.273 17.4381 139.273 15.7072C139.273 13.9767 138.888 12.4191 138.119 11.0346Z" fill="#232039"/>
<path fill-rule="evenodd" clip-rule="evenodd" d="M151.583 17.9412C151.235 18.6069 150.771 19.0771 150.152 19.4686C149.533 19.8211 148.836 19.9777 148.024 19.9777C147.25 19.9777 146.515 19.7818 145.896 19.4293C145.277 19.0378 144.812 18.5679 144.464 17.9019C144.116 17.2361 143.922 16.4921 143.922 15.6697C143.922 14.8471 144.116 14.103 144.464 13.4373C144.812 12.8105 145.277 12.3014 145.896 11.9489C146.515 11.5964 147.211 11.4007 148.024 11.4007C148.836 11.4007 149.533 11.5964 150.152 11.9489C150.771 12.3014 151.235 12.8105 151.583 13.4766C151.931 14.1423 152.125 14.8864 152.125 15.7087C152.125 16.5314 151.931 17.2754 151.583 17.9412ZM150.577 11.2048C149.842 10.774 148.952 10.5391 147.985 10.5391C147.018 10.5391 146.167 10.774 145.393 11.2048C144.658 11.6356 144.039 12.2621 143.613 13.0457C143.187 13.8288 142.955 14.7295 142.955 15.7087C142.955 16.688 143.187 17.5887 143.613 18.372C144.039 19.1554 144.619 19.7818 145.393 20.2127C146.244 20.6435 147.095 20.8787 148.024 20.8787C148.991 20.8787 149.842 20.6435 150.577 20.2127C151.351 19.7428 151.931 19.1554 152.357 18.372C152.783 17.5887 153.015 16.688 153.015 15.7087C153.015 14.7295 152.783 13.8288 152.357 13.0457C151.931 12.2621 151.351 11.6356 150.577 11.2048Z" fill="#232039"/>
<path fill-rule="evenodd" clip-rule="evenodd" d="M155.104 19.9372C154.407 21.1904 153.44 22.1694 152.202 22.8745C151.002 23.5795 149.571 23.932 148.023 23.932C146.476 23.932 145.044 23.5795 143.845 22.8745C142.607 22.1694 141.639 21.1904 140.943 19.9372C140.285 18.6838 139.937 17.2739 139.937 15.7072C139.937 14.1405 140.285 12.7307 140.943 11.4775C141.639 10.2243 142.607 9.24509 143.845 8.54004C145.083 7.83527 146.476 7.48275 148.023 7.48275C149.571 7.48275 150.964 7.83527 152.202 8.54004C153.44 9.24509 154.407 10.2243 155.104 11.4775C155.8 12.7307 156.148 14.1405 156.148 15.7072C156.148 17.2739 155.8 18.6838 155.104 19.9372ZM155.843 11.0346C155.074 9.64981 154.005 8.56803 152.638 7.78926C151.27 7.01048 149.731 6.62109 148.021 6.62109C146.312 6.62109 144.773 7.01048 143.405 7.78926C142.037 8.56803 140.969 9.64981 140.199 11.0346C139.473 12.4191 139.088 13.9767 139.088 15.7072C139.088 17.4381 139.473 18.9956 140.199 20.3802C140.969 21.765 142.037 22.8467 143.405 23.6255C144.73 24.4043 146.312 24.7937 148.021 24.7937C149.731 24.7937 151.312 24.4043 152.638 23.6255C154.005 22.8467 155.074 21.765 155.843 20.3802C156.613 18.9956 156.997 17.4381 156.997 15.7072C156.997 13.9767 156.613 12.4191 155.843 11.0346Z" fill="#232039"/>
<defs>
<filter id="filter0_d_8502_18302" x="0.5" y="0" width="210" height="36" filterUnits="userSpaceOnUse" color-interpolation-filters="sRGB">
<feFlood flood-opacity="0" result="BackgroundImageFix"/>
<feColorMatrix in="SourceAlpha" type="matrix" values="0 0 0 0 0 0 0 0 0 0 0 0 0 0 0 0 0 0 127 0" result="hardAlpha"/>
<feOffset dx="0.5" dy="1"/>
<feGaussianBlur stdDeviation="1"/>
<feColorMatrix type="matrix" values="0 0 0 0 0 0 0 0 0 0 0 0 0 0 0 0 0 0 0.342492 0"/>
<feBlend mode="normal" in2="BackgroundImageFix" result="effect1_dropShadow_8502_18302"/>
<feBlend mode="normal" in="SourceGraphic" in2="effect1_dropShadow_8502_18302" result="shape"/>
</filter>
</defs>
</svg>
