<svg width="32" height="32" viewBox="0 0 32 32" fill="none" xmlns="http://www.w3.org/2000/svg">
<rect x="5.18945" y="5.83008" width="26.1182" height="26.1182" rx="13.0591" fill="#232039"/>
<rect x="0.703491" y="1.34375" width="25.0816" height="25.0816" rx="12.5408" fill="white"/>
<g clip-path="url(#clip0_14642_164097)">
<path fill-rule="evenodd" clip-rule="evenodd" d="M16.1848 11.3926C16.1238 11.3624 16.0643 11.329 16.0069 11.2931C15.8396 11.1866 15.6862 11.0612 15.5499 10.9195C15.2092 10.5444 15.0822 10.1637 15.0353 9.89734H15.0371C14.9979 9.67618 15.014 9.53296 15.0164 9.53296H13.4647V15.307C13.4647 15.3847 13.4647 15.4612 13.4614 15.5371C13.4614 15.5463 13.4605 15.5552 13.4599 15.5653C13.4599 15.5693 13.4599 15.5739 13.459 15.5783V15.5814C13.4258 16.0022 13.1771 16.3795 12.7961 16.5877C12.6003 16.695 12.3788 16.7511 12.1538 16.7508C11.4308 16.7508 10.845 16.1833 10.845 15.4827C10.845 14.7822 11.4308 14.2151 12.1538 14.2151C12.2906 14.2147 12.4266 14.2354 12.5569 14.2763L12.5587 12.7561C11.7601 12.6565 10.9546 12.8835 10.3375 13.3813C10.07 13.6048 9.84519 13.8716 9.67304 14.1696C9.60758 14.2783 9.36041 14.7152 9.33052 15.4238C9.31169 15.8261 9.43722 16.2429 9.497 16.4151V16.4189C9.53465 16.5201 9.68051 16.8664 9.91842 17.1583C10.11 17.3921 10.3366 17.5978 10.5906 17.7683V17.7648L10.5942 17.7683C11.3456 18.2595 12.1786 18.2273 12.1786 18.2273C12.3226 18.2218 12.8056 18.2273 13.3544 17.9774C13.9626 17.6998 14.309 17.2869 14.309 17.2869C14.5302 17.0398 14.7062 16.7585 14.8294 16.4548C14.9698 16.0996 15.0164 15.6737 15.0164 15.5035V12.44C15.0353 12.4509 15.2861 12.6105 15.2861 12.6105C15.2861 12.6105 15.6474 12.8334 16.2111 12.9784C16.6152 13.0816 17.16 13.1035 17.16 13.1035V11.6209C16.969 11.6408 16.5817 11.5829 16.1848 11.3926Z" fill="#232039"/>
</g>
<rect x="0.443728" y="1.08411" width="25.5999" height="25.5999" rx="12.8" stroke="#232039" stroke-width="0.518315"/>
<defs>
<clipPath id="clip0_14642_164097">
<rect width="7.83142" height="10.3501" fill="white" transform="translate(9.32788 8.70581)"/>
</clipPath>
</defs>
</svg>
