<svg width="32" height="32" viewBox="0 0 32 32" fill="none" xmlns="http://www.w3.org/2000/svg">
<rect x="5.36316" y="5.65747" width="26.1182" height="26.1182" rx="13.0591" fill="#232039"/>
<rect x="0.877197" y="1.17065" width="25.0816" height="25.0816" rx="12.5408" fill="white"/>
<g clip-path="url(#clip0_15660_177479)">
<path fill-rule="evenodd" clip-rule="evenodd" d="M16.7426 11.1817C17.1123 10.9504 17.3963 10.5862 17.5306 10.1499C17.1847 10.3626 16.8018 10.5151 16.3939 10.604C16.0692 10.2393 15.6034 10.012 15.0909 10.012C14.1047 10.012 13.3049 10.8475 13.3049 11.8804C13.3049 12.0255 13.3205 12.169 13.3502 12.304C11.8684 12.2297 10.5504 11.483 9.66904 10.3549C9.51586 10.63 9.42821 10.9504 9.42821 11.2939C9.42821 11.9406 9.74303 12.5159 10.223 12.8459C9.92979 12.8342 9.65429 12.7549 9.41374 12.6135V12.6393C9.41374 13.5424 10.0295 14.2965 10.8464 14.4708C10.6968 14.5132 10.5387 14.5326 10.3746 14.5326C10.2599 14.5326 10.151 14.5249 10.0407 14.4994C10.267 15.2443 10.9272 15.7851 11.7087 15.7962C11.0973 16.2997 10.3274 16.5957 9.49046 16.5957C9.34575 16.5957 9.20322 16.5875 9.06396 16.5694C9.85416 17.1021 10.7913 17.4121 11.8021 17.4121C15.0871 17.4121 16.8846 14.5649 16.8846 12.0966C16.8846 12.0178 16.8826 11.9377 16.8785 11.8576C17.2272 11.5907 17.5306 11.2613 17.7701 10.8875C17.4478 11.0387 17.1055 11.1364 16.7426 11.1817Z" fill="#232039"/>
</g>
<rect x="0.618288" y="0.911501" width="25.5999" height="25.5999" rx="12.8" stroke="#232039" stroke-width="0.518315"/>
<defs>
<clipPath id="clip0_15660_177479">
<rect width="8.70607" height="8.80326" fill="white" transform="translate(9.06482 9.31006)"/>
</clipPath>
</defs>
</svg>
