<svg width="32" height="32" viewBox="0 0 32 32" fill="none" xmlns="http://www.w3.org/2000/svg">
<rect x="5.36316" y="5.83008" width="26.1182" height="26.1182" rx="13.0591" fill="#232039"/>
<rect x="0.877197" y="1.34375" width="25.0816" height="25.0816" rx="12.5408" fill="white"/>
<g clip-path="url(#clip0_14642_164097)">
<mask id="mask0_14642_164097" style="mask-type:alpha" maskUnits="userSpaceOnUse" x="7" y="9" width="13" height="10">
<path fill-rule="evenodd" clip-rule="evenodd" d="M7.32678 9.74438H19.5153V18.0151H7.32678V9.74438Z" fill="white"/>
</mask>
<g mask="url(#mask0_14642_164097)">
<path fill-rule="evenodd" clip-rule="evenodd" d="M12.145 15.4307V12.0905L15.4576 13.7658C14.3313 14.3318 13.2523 14.8743 12.145 15.4307ZM19.4148 12.0043C19.3705 11.6178 19.3011 11.2267 19.1813 10.8564C18.987 10.2574 18.5143 9.94411 17.8857 9.88764C15.9445 9.7132 13.9969 9.74039 12.051 9.75587C11.1048 9.76382 10.159 9.80607 9.21364 9.84957C8.84911 9.8663 8.49018 9.93072 8.17219 10.1378C7.72062 10.431 7.53793 10.8782 7.46898 11.3597C7.38496 11.9445 7.32593 12.5381 7.32679 13.1275C7.32808 14.1415 7.35351 15.1576 7.42805 16.1682C7.472 16.763 7.62927 17.375 8.25535 17.6607C8.6035 17.8193 9.01198 17.9147 9.39677 17.9247C11.3651 17.9778 13.3346 18.0096 15.3038 18.0151C16.1496 18.0171 16.9963 17.9494 17.8413 17.8925C18.5488 17.8448 19.0439 17.4754 19.2188 16.8137C19.3563 16.295 19.3933 15.7507 19.4627 15.2165C19.495 14.9685 19.4985 14.7162 19.5153 14.4661V13.5316C19.4838 13.0221 19.473 12.5109 19.4148 12.0043Z" fill="#232039"/>
</g>
</g>
<rect x="0.618288" y="1.08411" width="25.5999" height="25.5999" rx="12.8" stroke="#232039" stroke-width="0.518315"/>
<defs>
<clipPath id="clip0_14642_164097">
<rect width="12.1885" height="9.84799" fill="white" transform="translate(7.32336 8.95581)"/>
</clipPath>
</defs>
</svg>
